<svg width="68" height="88" viewBox="0 0 68 88" fill="none" xmlns="http://www.w3.org/2000/svg">
<g clip-path="url(#clip0_126_705)">
<path d="M22.4953 8.998C21.6985 10.0294 21.2509 11.4281 21.2509 12.8865C21.2509 14.3449 21.6985 15.7436 22.4953 16.775L43.5328 44L22.4953 71.225C21.7211 72.2623 21.2927 73.6516 21.3024 75.0937C21.3121 76.5358 21.7591 77.9153 22.5471 78.935C23.335 79.9547 24.401 80.5332 25.5153 80.5457C26.6297 80.5582 27.7032 80.0039 28.5048 79.002L52.547 47.8885C53.3438 46.8571 53.7914 45.4584 53.7914 44C53.7914 42.5416 53.3438 41.1429 52.547 40.1115L28.5048 8.998C27.7078 7.96691 26.627 7.38767 25.5 7.38767C24.3731 7.38767 23.2923 7.96691 22.4953 8.998Z" fill="#7AC943"/>
</g>
<defs>
<clipPath id="clip0_126_705">
<rect width="88" height="68" fill="white" transform="matrix(0 1 -1 0 68 0)"/>
</clipPath>
</defs>
</svg>
