<svg width="68" height="88" viewBox="0 0 68 88" fill="none" xmlns="http://www.w3.org/2000/svg">
<g clip-path="url(#clip0_126_703)">
<path d="M45.5047 79.002C46.3015 77.9706 46.7491 76.5719 46.7491 75.1135C46.7491 73.6551 46.3015 72.2564 45.5047 71.225L24.4672 44L45.5047 16.775C46.2789 15.7377 46.7073 14.3484 46.6976 12.9063C46.6879 11.4642 46.2409 10.0847 45.4529 9.065C44.665 8.04526 43.599 7.46683 42.4847 7.4543C41.3703 7.44177 40.2968 7.99614 39.4952 8.99801L15.453 40.1115C14.6562 41.1429 14.2086 42.5416 14.2086 44C14.2086 45.4584 14.6562 46.8571 15.453 47.8885L39.4952 79.002C40.2922 80.0331 41.373 80.6123 42.5 80.6123C43.6269 80.6123 44.7077 80.0331 45.5047 79.002Z" fill="#7AC943"/>
</g>
<defs>
<clipPath id="clip0_126_703">
<rect width="88" height="68" fill="white" transform="matrix(0 -1 1 0 0 88)"/>
</clipPath>
</defs>
</svg>
