<svg width="88" height="68" viewBox="0 0 88 68" fill="none" xmlns="http://www.w3.org/2000/svg">
<path d="M8.99802 45.5047C10.0294 46.3015 11.4281 46.7491 12.8865 46.7491C14.3449 46.7491 15.7436 46.3015 16.775 45.5047L44 24.4672L71.225 45.5047C72.2623 46.2789 73.6516 46.7073 75.0937 46.6976C76.5358 46.6879 77.9153 46.241 78.935 45.453C79.9548 44.665 80.5332 43.599 80.5457 42.4847C80.5583 41.3704 80.0039 40.2968 79.002 39.4952L47.8885 15.453C46.8571 14.6562 45.4584 14.2086 44 14.2086C42.5416 14.2086 41.1429 14.6562 40.1115 15.453L8.99802 39.4952C7.96693 40.2922 7.3877 41.373 7.3877 42.5C7.3877 43.6269 7.96693 44.7077 8.99802 45.5047Z" fill="#212427"/>
</svg>
