<svg width="65" height="68" viewBox="0 0 65 68" fill="none" xmlns="http://www.w3.org/2000/svg">
<path d="M38.4584 8.14584C35.1363 8.14584 31.9503 9.52646 29.6012 11.984C27.2521 14.4415 25.9324 17.7746 25.9324 21.25V28.5458H19.2292C18.8934 28.5458 18.6199 28.8292 18.6199 29.1833V38.8167C18.6199 39.168 18.8907 39.4542 19.2292 39.4542H25.9324V59.2167C25.9324 59.568 26.2032 59.8542 26.5417 59.8542H35.7501C36.0859 59.8542 36.3595 59.5708 36.3595 59.2167V39.4542H43.1222C43.4011 39.4542 43.6449 39.2558 43.7126 38.9725L46.0147 29.3392C46.0373 29.2452 46.0392 29.147 46.0201 29.0521C46.001 28.9573 45.9615 28.8682 45.9046 28.7917C45.8477 28.7152 45.7748 28.6533 45.6916 28.6107C45.6083 28.5681 45.5169 28.5459 45.4242 28.5458H36.3595V21.25C36.3595 20.9616 36.4137 20.6761 36.5192 20.4097C36.6247 20.1433 36.7793 19.9012 36.9742 19.6973C37.1691 19.4934 37.4005 19.3317 37.6552 19.2213C37.9098 19.111 38.1828 19.0542 38.4584 19.0542H45.5001C45.8359 19.0542 46.1095 18.7708 46.1095 18.4167V8.78334C46.1095 8.43201 45.8386 8.14584 45.5001 8.14584H38.4584Z" fill="#212427"/>
</svg>
