<svg width="65" height="68" viewBox="0 0 65 68" fill="none" xmlns="http://www.w3.org/2000/svg">
<path d="M43.3333 19.8333C43.3333 19.0819 43.6186 18.3612 44.1265 17.8299C44.6344 17.2985 45.3233 17 46.0416 17C46.7599 17 47.4488 17.2985 47.9567 17.8299C48.4646 18.3612 48.7499 19.0819 48.7499 19.8333C48.7499 20.5848 48.4646 21.3054 47.9567 21.8368C47.4488 22.3682 46.7599 22.6667 46.0416 22.6667C45.3233 22.6667 44.6344 22.3682 44.1265 21.8368C43.6186 21.3054 43.3333 20.5848 43.3333 19.8333Z" fill="#212427"/>
<path fill-rule="evenodd" clip-rule="evenodd" d="M32.5001 20.5417C29.0882 20.5417 25.816 21.9596 23.4034 24.4835C20.9909 27.0074 19.6355 30.4306 19.6355 34C19.6355 37.5694 20.9909 40.9925 23.4034 43.5165C25.816 46.0404 29.0882 47.4583 32.5001 47.4583C35.912 47.4583 39.1841 46.0404 41.5967 43.5165C44.0093 40.9925 45.3647 37.5694 45.3647 34C45.3647 30.4306 44.0093 27.0074 41.5967 24.4835C39.1841 21.9596 35.912 20.5417 32.5001 20.5417ZM23.698 34C23.698 31.5578 24.6254 29.2156 26.2761 27.4887C27.9268 25.7618 30.1656 24.7917 32.5001 24.7917C34.8345 24.7917 37.0734 25.7618 38.7241 27.4887C40.3748 29.2156 41.3022 31.5578 41.3022 34C41.3022 36.4422 40.3748 38.7844 38.7241 40.5113C37.0734 42.2382 34.8345 43.2083 32.5001 43.2083C30.1656 43.2083 27.9268 42.2382 26.2761 40.5113C24.6254 38.7844 23.698 36.4422 23.698 34Z" fill="#212427"/>
<path fill-rule="evenodd" clip-rule="evenodd" d="M46.7403 8.02685C37.2757 6.9292 27.7241 6.9292 18.2595 8.02685C12.8103 8.66435 8.4093 13.1552 7.77014 18.8842C6.64726 28.9272 6.64726 39.0729 7.77014 49.1158C8.4093 54.8448 12.8076 59.3357 18.2595 59.9732C27.7242 61.0697 37.2757 61.0697 46.7403 59.9732C52.1895 59.3357 56.5905 54.8448 57.2297 49.1158C58.3528 39.0729 58.3528 28.9272 57.2297 18.8842C56.5905 13.1552 52.1922 8.66435 46.7403 8.02685ZM18.7091 12.2485C27.8749 11.1857 37.1249 11.1857 46.2908 12.2485C49.8928 12.6735 52.7772 15.6457 53.197 19.38C54.2829 29.0936 54.2829 38.9064 53.197 48.62C52.9799 50.4476 52.1801 52.1453 50.927 53.4388C49.6739 54.7323 48.0405 55.5461 46.2908 55.7487C37.1249 56.8116 27.8749 56.8116 18.7091 55.7487C16.9593 55.5461 15.326 54.7323 14.0728 53.4388C12.8197 52.1453 12.02 50.4476 11.8028 48.62C10.7169 38.9064 10.7169 29.0936 11.8028 19.38C12.02 17.5524 12.8197 15.8547 14.0728 14.5612C15.326 13.2677 16.9593 12.4511 18.7091 12.2485Z" fill="#212427"/>
</svg>
