<svg width="65" height="68" viewBox="0 0 65 68" fill="none" xmlns="http://www.w3.org/2000/svg">
<path d="M12.8646 5.3125C11.3382 5.3125 9.87435 5.94684 8.79504 7.07596C7.71573 8.20509 7.10938 9.73651 7.10938 11.3333C7.10938 12.9302 7.71573 14.4616 8.79504 15.5907C9.87435 16.7198 11.3382 17.3542 12.8646 17.3542C14.391 17.3542 15.8548 16.7198 16.9341 15.5907C18.0134 14.4616 18.6198 12.9302 18.6198 11.3333C18.6198 9.73651 18.0134 8.20509 16.9341 7.07596C15.8548 5.94684 14.391 5.3125 12.8646 5.3125ZM7.44792 22.3125C7.35813 22.3125 7.27202 22.3498 7.20853 22.4162C7.14504 22.4827 7.10938 22.5727 7.10938 22.6667V59.5C7.10938 59.6955 7.26104 59.8542 7.44792 59.8542H18.2812C18.371 59.8542 18.4571 59.8169 18.5206 59.7504C18.5841 59.684 18.6198 59.5939 18.6198 59.5V22.6667C18.6198 22.5727 18.5841 22.4827 18.5206 22.4162C18.4571 22.3498 18.371 22.3125 18.2812 22.3125H7.44792ZM25.0521 22.3125C24.9623 22.3125 24.8762 22.3498 24.8127 22.4162C24.7492 22.4827 24.7135 22.5727 24.7135 22.6667V59.5C24.7135 59.6955 24.8652 59.8542 25.0521 59.8542H35.8854C35.9752 59.8542 36.0613 59.8169 36.1248 59.7504C36.1883 59.684 36.224 59.5939 36.224 59.5V39.6667C36.224 38.2577 36.759 36.9065 37.7113 35.9102C38.6636 34.9139 39.9553 34.3542 41.3021 34.3542C42.6489 34.3542 43.9405 34.9139 44.8929 35.9102C45.8452 36.9065 46.3802 38.2577 46.3802 39.6667V59.5C46.3802 59.6955 46.5319 59.8542 46.7188 59.8542H57.5521C57.6419 59.8542 57.728 59.8169 57.7915 59.7504C57.855 59.684 57.8906 59.5939 57.8906 59.5V35.0767C57.8906 28.2002 52.176 22.8225 45.6354 23.443C43.6117 23.6357 41.6294 24.1597 39.761 24.9957L36.224 26.5823V22.6667C36.224 22.5727 36.1883 22.4827 36.1248 22.4162C36.0613 22.3498 35.9752 22.3125 35.8854 22.3125H25.0521Z" fill="#212427"/>
</svg>
