<?xml version="1.0" encoding="UTF-8"?>
<svg id="Layer_2" data-name="Layer 2" xmlns="http://www.w3.org/2000/svg" viewBox="0 0 94.67 83.45">
  <defs>
    <style>
      .cls-1 {
        stroke-width: 0px;
      }
    </style>
  </defs>
  <g id="Layer_1-2" data-name="Layer 1">
    <g>
      <path class="cls-1" d="M74.58,55.29c-1.69.56-3.53-.36-4.09-2.05l-8.27-24.99c-1.71-5.16-8.92-5.37-10.93-.32l-9.73,24.49c-.52,1.32-1.84,2.1-3.19,2.03h-.01c-1.45.12-2.85-.77-3.33-2.2l-8.21-24.8c-1.71-5.16-8.92-5.37-10.93-.32l-9.65,24.28c-.66,1.65-2.55,2.47-4.2,1.81-1.65-.66-2.47-2.55-1.81-4.2L18.9,2.03C19.43.69,20.78-.1,22.14,0c.02,0,.05,0,.07,0,1.36,0,2.63.87,3.08,2.22l8.27,24.99c1.71,5.16,8.92,5.37,10.93.32L54.22,3.05c.52-1.32,1.84-2.1,3.19-2.03h.01c.09-.01.17-.01.25-.01,1.36,0,2.63.87,3.08,2.22l15.88,47.98c.56,1.69-.36,3.53-2.05,4.08Z"/>
      <path class="cls-1" d="M20.09,28.16c1.69-.56,3.53.36,4.09,2.05l8.27,24.99c1.71,5.16,8.92,5.37,10.93.32l9.73-24.49c.52-1.32,1.84-2.1,3.19-2.03h.01c1.45-.12,2.85.77,3.33,2.2l8.21,24.8c1.71,5.16,8.92,5.37,10.93.32l9.65-24.28c.66-1.65,2.55-2.47,4.2-1.81,1.65.66,2.47,2.55,1.81,4.2l-18.67,46.96c-.53,1.34-1.88,2.13-3.24,2.03-.02,0-.05,0-.07,0-1.36,0-2.63-.87-3.08-2.22l-8.27-24.99c-1.71-5.16-8.92-5.37-10.93-.32l-9.73,24.49c-.52,1.32-1.84,2.1-3.19,2.03h-.01c-.09.01-.17.01-.25.01-1.36,0-2.63-.87-3.08-2.22l-15.88-47.98c-.56-1.69.36-3.53,2.05-4.08Z"/>
    </g>
  </g>
</svg>