<?xml version="1.0" encoding="UTF-8"?>
<svg id="Layer_2" data-name="Layer 2" xmlns="http://www.w3.org/2000/svg" viewBox="0 0 96.68 67">
  <defs>
    <style>
      .cls-1 {
        stroke-width: 0px;
      }
    </style>
  </defs>
  <g id="Layer_1-2" data-name="Layer 1">
    <path class="cls-1" d="M36.37,51.09c-.28,0-.59.05-.87.15.28-.11.58-.15.87-.15Z"/>
    <path class="cls-1" d="M10.29,51.09c-.28,0-.59.05-.87.15.28-.11.58-.15.87-.15Z"/>
    <path class="cls-1" d="M10.31,51.09c.29,0,.59.04.87.15-.28-.1-.59-.15-.87-.15Z"/>
    <path class="cls-1" d="M37.26,51.24c-.28-.1-.59-.15-.87-.15.29,0,.59.04.87.15Z"/>
    <path class="cls-1" d="M27.7,44.52c.28,0,.59-.05.87-.15-.28.11-.58.15-.87.15Z"/>
    <path class="cls-1" d="M27.68,44.52c-.29,0-.59-.04-.87-.15.28.1.59.15.87.15Z"/>
    <path class="cls-1" d="M55.74,42.2c-1.41.49-2.98-.25-3.47-1.66l-6.36-18.06c-1.36-3.87-6.84-3.87-8.2,0l-6.36,18.06c-.28.83-.93,1.41-1.71,1.66-.28.1-.59.15-.87.15h-.02c-.28,0-.59-.05-.87-.15-.77-.25-1.42-.84-1.71-1.66l-6.36-18.06c-1.36-3.87-6.84-3.87-8.2,0l-6.36,18.06c-.49,1.41-2.05,2.15-3.47,1.66-1.4-.5-2.15-2.05-1.65-3.47L13.14,1.82c.28-.83.93-1.41,1.71-1.66.28-.1.59-.15.87-.15h.02c.28,0,.59.05.87.15.14.05.28.11.41.18.59.3,1.07.81,1.3,1.48l6.36,18.06c1.36,3.87,6.84,3.87,8.2,0L39.23,1.82c.28-.83.93-1.41,1.71-1.66.28-.1.59-.15.87-.15h.02c.28,0,.59.05.87.15.14.05.28.11.41.18.59.3,1.07.81,1.3,1.48l12.99,36.91c.5,1.41-.25,2.97-1.65,3.47Z"/>
    <path class="cls-1" d="M40.94,24.8c1.41-.49,2.98.25,3.47,1.66l6.36,18.06c1.36,3.87,6.84,3.87,8.2,0l6.36-18.06c.28-.83.93-1.41,1.71-1.66.28-.1.59-.15.87-.15h.02c.28,0,.59.05.87.15.77.25,1.42.84,1.71,1.66l6.36,18.06c1.36,3.87,6.84,3.87,8.2,0l6.36-18.06c.49-1.41,2.05-2.15,3.47-1.66,1.4.5,2.15,2.05,1.65,3.47l-12.99,36.91c-.28.83-.93,1.41-1.71,1.66-.28.1-.59.15-.87.15h-.02c-.28,0-.59-.05-.87-.15-.14-.05-.28-.11-.41-.18-.59-.3-1.07-.81-1.3-1.48l-6.36-18.06c-1.36-3.87-6.84-3.87-8.2,0l-6.36,18.06c-.28.83-.93,1.41-1.71,1.66-.28.1-.59.15-.87.15h-.02c-.28,0-.59-.05-.87-.15-.14-.05-.28-.11-.41-.18-.59-.3-1.07-.81-1.3-1.48l-12.99-36.91c-.5-1.41.25-2.97,1.65-3.47Z"/>
  </g>
</svg>