<?xml version="1.0" encoding="UTF-8"?>
<svg id="Layer_2" data-name="Layer 2" xmlns="http://www.w3.org/2000/svg" viewBox="0 0 105.51 51.82">
  <defs>
    <style>
      .cls-1 {
        stroke-width: 0px;
      }
    </style>
  </defs>
  <g id="Layer_1-2" data-name="Layer 1">
    <g>
      <path class="cls-1" d="M36.37,51.67c-.28,0-.59.05-.87.15.28-.11.58-.15.87-.15Z"/>
      <path class="cls-1" d="M10.29,51.67c-.28,0-.59.05-.87.15.28-.11.58-.15.87-.15Z"/>
      <path class="cls-1" d="M10.31,51.67c.29,0,.59.04.87.15-.28-.1-.59-.15-.87-.15Z"/>
      <path class="cls-1" d="M37.26,51.82c-.28-.1-.59-.15-.87-.15.29,0,.59.04.87.15Z"/>
      <path class="cls-1" d="M27.7,45.1c.28,0,.59-.05.87-.15-.28.11-.58.15-.87.15Z"/>
      <path class="cls-1" d="M27.68,45.1c-.29,0-.59-.04-.87-.15.28.1.59.15.87.15Z"/>
      <path class="cls-1" d="M55.74,42.78c-1.41.49-2.98-.25-3.47-1.66l-6.36-18.06c-1.36-3.87-6.84-3.87-8.2,0l-6.36,18.06c-.28.83-.93,1.41-1.71,1.66-.28.1-.59.15-.87.15h-.02c-.28,0-.59-.05-.87-.15-.77-.25-1.42-.84-1.71-1.66l-6.36-18.06c-1.36-3.87-6.84-3.87-8.2,0l-6.36,18.06c-.49,1.41-2.05,2.15-3.47,1.66-1.4-.5-2.15-2.05-1.65-3.47L13.14,2.4c.28-.83.93-1.41,1.71-1.66.28-.1.59-.15.87-.15h.02c.28,0,.59.05.87.15.14.05.28.11.41.18.59.3,1.07.81,1.3,1.48l6.36,18.06c1.36,3.87,6.84,3.87,8.2,0l6.36-18.06c.28-.83.93-1.41,1.71-1.66.28-.1.59-.15.87-.15h.02c.28,0,.59.05.87.15.14.05.28.11.41.18.59.3,1.07.81,1.3,1.48l12.99,36.91c.5,1.41-.25,2.97-1.65,3.47Z"/>
      <path class="cls-1" d="M49.75.63c1.41-.5,2.98.22,3.48,1.63l6.52,18c1.4,3.86,6.87,3.81,8.2-.07l6.19-18.12c.28-.83.92-1.42,1.69-1.68.28-.1.59-.16.87-.16h.02c.28,0,.59.05.87.14.77.24,1.43.82,1.72,1.65l6.52,18c1.4,3.86,6.87,3.81,8.2-.07l6.19-18.12c.48-1.42,2.03-2.17,3.45-1.69,1.41.49,2.17,2.03,1.68,3.45l-12.66,37.03c-.28.83-.92,1.42-1.69,1.68-.28.1-.59.16-.87.16h-.02c-.28,0-.59-.05-.87-.14-.14-.05-.28-.11-.41-.18-.59-.3-1.08-.8-1.31-1.47l-6.52-18c-1.4-3.86-6.87-3.81-8.2.07l-6.19,18.12c-.28.83-.92,1.42-1.69,1.68-.28.1-.59.16-.87.16h-.02c-.28,0-.59-.05-.87-.14-.14-.05-.28-.11-.41-.18-.59-.3-1.08-.8-1.31-1.47L48.13,4.11c-.51-1.41.22-2.97,1.62-3.48Z"/>
    </g>
  </g>
</svg>