<svg width="65" height="65" viewBox="0 0 65 65" fill="none" xmlns="http://www.w3.org/2000/svg">
<path d="M52.9369 48.6256C53.5093 49.198 53.8309 49.9743 53.8309 50.7838C53.8309 51.5933 53.5093 52.3696 52.9369 52.942C52.3645 53.5144 51.5882 53.8359 50.7787 53.8359C49.9692 53.8359 49.1929 53.5144 48.6205 52.942L32.5 36.8164L16.3744 52.9369C15.802 53.5093 15.0257 53.8309 14.2162 53.8309C13.4067 53.8309 12.6304 53.5093 12.058 52.9369C11.4856 52.3645 11.1641 51.5882 11.1641 50.7787C11.1641 49.9692 11.4856 49.1929 12.058 48.6205L28.1836 32.5L12.0631 16.3744C11.4907 15.802 11.1691 15.0257 11.1691 14.2162C11.1691 13.4067 11.4907 12.6304 12.0631 12.058C12.6355 11.4856 13.4118 11.164 14.2213 11.164C15.0308 11.164 15.8071 11.4856 16.3795 12.058L32.5 28.1836L48.6256 12.0555C49.198 11.4831 49.9743 11.1615 50.7838 11.1615C51.5933 11.1615 52.3696 11.4831 52.942 12.0555C53.5144 12.6278 53.836 13.4042 53.836 14.2137C53.836 15.0231 53.5144 15.7995 52.942 16.3719L36.8164 32.5L52.9369 48.6256Z" fill="black"/>
</svg>
