<?xml version="1.0" standalone="no"?>
<!DOCTYPE svg PUBLIC "-//W3C//DTD SVG 20010904//EN"
 "http://www.w3.org/TR/2001/REC-SVG-20010904/DTD/svg10.dtd">
<svg version="1.0" xmlns="http://www.w3.org/2000/svg"
 width="1696.000000pt" height="1696.000000pt" viewBox="0 0 1696.000000 1696.000000"
 preserveAspectRatio="xMidYMid meet">
<metadata>
Created by potrace 1.14, written by Peter Selinger 2001-2017
</metadata>
<g transform="translate(0.000000,1696.000000) scale(0.100000,-0.100000)"
fill="#000000" stroke="none">
<path d="M16435 12633 c-35 -7 -130 -47 -143 -60 -7 -7 -17 -13 -22 -13 -13 0
-99 -91 -105 -111 -4 -11 -10 -19 -15 -19 -4 0 -14 -15 -20 -32 -36 -96 -71
-195 -74 -208 -2 -8 -21 -62 -41 -120 -20 -58 -38 -112 -40 -120 -2 -8 -18
-53 -34 -100 -17 -47 -32 -87 -32 -90 -2 -7 -5 -14 -39 -115 -18 -49 -45 -130
-61 -180 -16 -49 -31 -94 -33 -100 -2 -5 -4 -12 -4 -15 0 -3 -6 -18 -12 -35
-33 -84 -130 -372 -130 -387 0 -9 -3 -18 -7 -20 -7 -3 -190 -531 -197 -565 -1
-7 -5 -16 -9 -19 -4 -4 -7 -13 -7 -20 0 -7 -4 -23 -9 -36 -5 -13 -9 -26 -10
-30 -1 -4 -9 -24 -17 -45 -9 -20 -18 -46 -20 -57 -2 -12 -8 -30 -13 -41 -5
-11 -31 -85 -57 -165 -26 -80 -50 -149 -53 -155 -3 -5 -6 -12 -6 -15 -1 -6
-44 -139 -52 -160 -4 -8 -7 -17 -8 -20 -7 -27 -19 -61 -31 -88 -9 -18 -16 -42
-17 -52 -1 -11 -5 -20 -9 -20 -4 0 -7 -3 -6 -7 1 -5 -6 -25 -15 -47 -9 -21
-17 -42 -17 -47 0 -5 -4 -9 -9 -9 -5 0 -14 -14 -21 -30 -11 -27 -127 -153
-174 -189 -23 -18 -166 -92 -166 -86 0 2 -15 -2 -32 -10 -78 -32 -262 -40
-368 -17 -69 15 -240 89 -240 103 0 5 -5 9 -11 9 -11 0 -13 1 -93 79 -31 30
-56 58 -56 62 0 4 -6 14 -14 21 -12 12 -82 135 -84 148 -2 11 -22 67 -71 203
-11 28 -23 63 -26 77 -4 14 -13 39 -20 55 -7 17 -18 46 -25 65 -7 19 -16 44
-20 55 -5 11 -13 34 -19 50 -5 17 -24 68 -41 115 -18 47 -33 90 -34 95 -1 6
-8 20 -14 33 -7 12 -10 22 -7 22 3 0 -1 14 -10 30 -9 17 -12 30 -8 30 4 0 2 5
-5 12 -7 7 -12 17 -12 24 0 6 -8 29 -17 50 -9 22 -18 44 -19 49 -3 14 -78 220
-94 260 -5 11 -15 40 -23 65 -23 69 -67 193 -77 215 -12 27 -110 296 -115 315
-2 8 -47 134 -100 280 -133 365 -135 373 -146 392 -5 10 -9 25 -9 33 0 8 -4
23 -9 33 -5 9 -19 43 -30 75 -12 31 -30 82 -41 112 -11 30 -29 81 -41 113 -37
103 -69 160 -118 210 -43 44 -136 105 -158 104 -4 0 -15 4 -23 8 -35 19 -164
28 -217 15 -13 -3 -31 -7 -40 -9 -107 -26 -224 -124 -275 -232 -16 -34 -30
-70 -32 -80 -2 -11 -18 -57 -36 -104 -17 -47 -33 -89 -34 -95 -12 -46 -40
-132 -45 -140 -6 -8 -12 -26 -36 -105 -1 -3 -5 -14 -9 -25 -15 -39 -19 -50
-21 -60 -2 -5 -31 -91 -65 -190 -34 -99 -85 -250 -113 -335 -29 -85 -56 -158
-62 -162 -5 -4 -6 -8 -1 -8 5 0 3 -7 -4 -15 -7 -8 -10 -15 -7 -15 4 0 -1 -19
-9 -42 -9 -24 -17 -50 -19 -58 -2 -8 -12 -35 -21 -60 -9 -25 -49 -142 -90
-260 -40 -118 -100 -294 -134 -390 -33 -96 -62 -182 -64 -190 -3 -8 -32 -96
-67 -195 -34 -99 -62 -184 -63 -190 -1 -5 -4 -14 -7 -20 -6 -10 -63 -175 -64
-185 -1 -13 -51 -129 -69 -160 -30 -54 -75 -111 -125 -159 -54 -51 -160 -123
-172 -115 -5 3 -9 1 -9 -4 0 -10 -108 -46 -170 -58 -56 -10 -191 -11 -240 -2
-25 5 -58 12 -75 15 -39 6 -205 83 -205 94 0 5 -4 9 -10 9 -26 0 -132 108
-181 185 -24 38 -73 134 -74 145 -1 12 -66 188 -91 247 -8 17 -14 36 -14 43 0
7 -6 26 -14 43 -8 18 -22 54 -31 81 -13 40 -113 318 -132 366 -3 8 -7 22 -9
30 -2 8 -7 23 -12 35 -10 21 -36 86 -38 95 0 3 -4 14 -8 25 -4 11 -13 34 -19
50 -6 17 -12 35 -14 40 -1 6 -52 147 -113 315 -138 376 -191 522 -193 535 -2
6 -5 15 -8 20 -4 6 -12 28 -19 50 -7 22 -17 46 -23 53 -5 6 -7 12 -4 12 4 0
-2 20 -13 45 -11 25 -19 46 -19 48 0 3 -11 37 -24 72 -7 17 -12 32 -12 35 0 3
-10 30 -22 60 -11 30 -35 96 -53 145 -17 50 -35 99 -40 110 -4 11 -13 34 -18
50 -22 64 -94 261 -104 285 -76 186 -227 293 -413 293 -66 0 -165 -21 -165
-36 0 -6 -3 -8 -6 -5 -11 12 -95 -42 -142 -92 -40 -42 -86 -121 -102 -175 -30
-104 -23 -200 26 -330 4 -11 8 -24 10 -30 1 -5 12 -35 24 -65 12 -30 22 -59
23 -65 2 -5 5 -14 9 -20 3 -5 10 -26 16 -45 6 -19 22 -66 37 -105 14 -38 33
-90 41 -115 8 -25 19 -54 24 -65 5 -11 41 -110 80 -220 78 -219 108 -299 120
-330 4 -11 22 -60 40 -110 17 -49 43 -119 57 -155 14 -36 26 -72 28 -80 2 -9
17 -51 33 -95 17 -44 44 -120 62 -170 17 -49 35 -99 40 -110 5 -11 34 -92 65
-180 31 -88 63 -176 70 -195 20 -51 57 -153 59 -165 2 -5 8 -21 14 -35 6 -14
50 -135 97 -270 48 -135 91 -254 96 -265 22 -52 101 -273 104 -293 2 -13 8
-28 13 -35 5 -7 12 -21 15 -32 3 -11 22 -65 42 -120 20 -55 43 -118 51 -140 8
-22 21 -60 30 -85 8 -25 19 -54 24 -65 4 -11 27 -74 50 -140 23 -66 46 -129
50 -140 13 -33 23 -60 24 -65 1 -3 6 -18 13 -35 29 -75 95 -257 97 -268 2 -7
6 -19 9 -27 24 -56 54 -150 49 -154 -3 -3 0 -6 6 -6 7 0 12 -6 12 -12 0 -7 18
-62 40 -123 45 -123 49 -133 51 -140 0 -2 12 -35 26 -72 73 -198 96 -263 114
-315 11 -32 24 -70 31 -85 6 -16 12 -32 14 -38 2 -5 10 -28 18 -50 36 -98 98
-271 100 -280 2 -9 45 -127 66 -180 11 -27 19 -54 19 -60 0 -12 64 -122 86
-147 73 -84 225 -152 336 -151 71 0 180 33 239 71 68 44 132 114 155 172 4 8
10 22 15 31 11 21 34 102 32 112 -1 4 2 7 7 7 5 0 11 12 14 28 5 28 158 479
168 497 4 6 9 22 13 37 3 15 11 40 18 55 6 15 12 34 14 41 2 11 38 116 62 182
3 8 6 20 8 25 2 9 170 497 189 550 4 11 11 31 15 45 4 14 11 34 15 45 3 11 6
21 6 22 0 1 16 46 35 100 46 130 95 276 98 288 1 6 4 15 8 20 3 6 15 39 26 75
12 36 40 119 62 185 23 66 43 125 45 130 2 9 6 22 23 65 3 8 6 17 7 20 5 21
79 237 84 245 3 6 6 15 7 20 1 6 13 45 28 87 24 71 42 113 92 208 29 56 163
183 235 223 55 31 177 81 187 76 1 0 21 3 45 6 107 19 312 3 342 -26 5 -5 16
-9 26 -9 20 0 122 -53 169 -88 76 -58 143 -135 191 -221 20 -36 78 -175 85
-201 0 -3 4 -14 8 -25 4 -11 12 -33 18 -50 5 -16 14 -39 19 -50 17 -41 232
-641 241 -675 6 -19 13 -39 18 -45 4 -5 19 -44 33 -85 14 -42 32 -94 41 -115
8 -22 29 -80 46 -130 17 -49 35 -99 40 -110 5 -11 20 -51 34 -90 13 -38 52
-146 86 -240 34 -93 63 -177 65 -185 2 -8 10 -28 19 -45 8 -16 17 -41 20 -55
5 -24 59 -175 78 -215 5 -12 10 -27 12 -35 1 -8 10 -33 20 -55 9 -21 18 -46
20 -55 1 -8 10 -32 19 -54 9 -21 17 -42 17 -46 0 -4 9 -29 19 -56 30 -75 121
-327 126 -347 19 -83 118 -214 192 -252 21 -11 40 -22 43 -26 13 -15 128 -41
183 -42 126 -1 226 38 318 124 53 50 87 110 126 223 19 56 37 108 40 116 14
38 207 603 229 670 14 41 27 82 31 90 3 8 7 20 9 25 5 17 84 249 91 265 3 8 7
20 8 25 4 18 66 200 75 220 9 19 50 140 55 160 1 6 7 23 13 38 7 16 12 32 12
37 0 5 5 21 12 37 6 15 12 31 13 36 2 4 4 9 5 12 1 3 3 8 4 13 5 19 28 89 37
107 5 11 22 61 38 110 37 113 139 415 148 435 3 8 7 17 8 20 2 9 47 145 52
160 12 33 124 356 127 365 1 6 11 35 21 65 11 30 20 57 20 60 1 3 7 17 13 31
6 15 16 46 22 70 7 24 17 50 22 57 6 6 8 12 5 12 -3 0 1 17 9 37 9 20 17 44
19 52 2 9 31 95 65 191 33 96 63 182 65 190 2 8 13 42 25 75 12 33 23 67 25
75 8 27 60 175 66 185 4 6 10 24 14 40 5 17 9 35 11 40 2 6 50 147 108 315
184 537 322 942 360 1055 20 61 41 119 46 130 7 16 50 145 55 165 1 3 5 14 9
25 20 52 27 72 31 90 2 11 9 37 14 58 16 65 3 205 -23 236 -6 8 -9 15 -7 15
13 3 -49 96 -93 139 -89 88 -180 125 -302 124 -38 0 -78 -2 -89 -4z"/>
<path d="M2497 12544 c-1 -2 -20 -4 -41 -6 -20 -1 -40 -6 -42 -10 -3 -4 -13
-8 -23 -8 -33 0 -116 -48 -167 -97 -54 -50 -86 -99 -111 -168 -32 -87 -116
-324 -138 -390 -13 -38 -34 -97 -46 -130 -78 -217 -111 -312 -111 -322 -1 -7
-6 -13 -11 -13 -6 0 -8 -3 -4 -6 5 -5 -5 -40 -33 -109 -4 -11 -15 -42 -25 -70
-9 -27 -19 -57 -22 -65 -3 -8 -7 -19 -9 -25 -1 -5 -12 -37 -24 -70 -12 -33
-76 -213 -141 -400 -66 -187 -122 -347 -126 -355 -3 -8 -7 -19 -9 -25 -15 -47
-37 -114 -44 -130 -5 -11 -25 -67 -45 -125 -20 -58 -46 -130 -57 -160 -11 -30
-21 -62 -23 -70 -2 -8 -15 -43 -29 -78 -13 -34 -25 -65 -26 -67 -1 -8 -7 -26
-50 -145 -22 -63 -42 -119 -43 -125 -2 -9 -7 -21 -33 -90 -4 -11 -8 -22 -9
-25 -15 -51 -27 -87 -49 -143 -14 -37 -26 -69 -26 -72 0 -3 -3 -10 -5 -17 -71
-196 -116 -325 -118 -333 -7 -24 -30 -91 -36 -100 -3 -5 -6 -14 -7 -20 -1 -5
-30 -88 -63 -182 -34 -95 -88 -251 -121 -345 -33 -95 -64 -182 -69 -193 -5
-11 -19 -49 -31 -85 -32 -98 -110 -322 -120 -345 -5 -11 -21 -56 -35 -100 -15
-44 -31 -89 -36 -100 -6 -12 -11 -27 -13 -35 -3 -16 -11 -39 -28 -80 -5 -14
-20 -56 -33 -95 -13 -38 -35 -101 -49 -140 -14 -38 -26 -70 -25 -70 0 0 -2 -7
-5 -15 -3 -8 -25 -71 -50 -140 -24 -69 -49 -138 -56 -155 -6 -16 -11 -30 -10
-30 1 0 -8 -31 -18 -55 -3 -8 -6 -17 -6 -20 -1 -3 -4 -10 -8 -16 -4 -6 -9 -21
-12 -35 -2 -13 -9 -37 -15 -52 -6 -16 -11 -61 -11 -101 0 -195 107 -355 280
-419 55 -20 179 -37 186 -25 3 4 9 6 14 3 19 -12 178 45 188 68 2 4 9 7 15 7
36 0 158 171 169 235 2 11 5 22 8 25 3 3 17 41 32 85 15 44 48 139 73 210 84
233 97 270 99 280 2 6 6 17 9 25 15 40 49 136 52 145 1 6 5 17 8 25 4 8 23 62
43 120 20 58 49 141 64 185 15 44 55 157 88 251 33 94 66 182 73 195 7 13 12
25 11 27 -1 1 -2 3 -1 5 0 1 2 9 4 17 7 30 56 165 65 182 6 10 10 27 10 37 0
11 4 22 9 26 5 3 13 20 17 38 3 17 11 43 17 57 13 33 97 271 102 290 2 8 20
58 40 110 20 52 38 102 40 110 2 8 20 60 39 115 20 55 38 107 41 115 14 50 86
244 93 254 5 6 15 28 21 49 7 20 17 37 22 37 5 0 9 7 9 15 0 8 4 15 8 15 4 0
16 13 25 30 19 31 22 35 85 92 46 42 152 112 152 101 0 -4 4 -3 8 3 5 9 88 42
125 50 4 1 8 3 10 4 3 3 43 9 93 13 23 3 47 7 53 11 6 4 11 4 11 -1 0 -4 24
-8 53 -7 28 0 68 -4 87 -8 19 -5 49 -11 65 -14 51 -10 173 -67 205 -96 11 -10
23 -18 28 -18 14 0 120 -111 153 -161 39 -58 89 -166 104 -229 1 -3 7 -18 13
-33 7 -16 12 -33 12 -38 0 -5 4 -17 10 -27 5 -9 23 -60 41 -112 17 -52 37
-108 44 -125 7 -16 20 -55 30 -85 9 -30 20 -64 25 -75 5 -11 16 -40 24 -65 27
-83 67 -195 75 -215 5 -11 23 -63 41 -115 18 -52 36 -104 40 -115 26 -64 39
-105 34 -105 -4 0 -2 -6 4 -12 5 -7 19 -42 32 -78 23 -67 88 -253 97 -280 4
-8 7 -19 9 -25 1 -5 21 -62 44 -125 22 -63 57 -160 76 -215 19 -55 36 -106 39
-113 2 -7 5 -14 5 -17 0 -3 7 -22 16 -43 8 -20 17 -44 19 -52 2 -8 18 -53 35
-100 17 -47 38 -105 46 -130 8 -25 18 -52 21 -60 4 -8 7 -17 8 -20 1 -3 4 -12
8 -20 3 -8 14 -42 26 -75 26 -79 109 -316 118 -335 3 -8 7 -20 8 -26 9 -38 62
-122 105 -165 27 -27 52 -49 55 -49 3 0 22 -10 43 -23 163 -101 410 -60 549
93 29 31 85 129 89 155 1 8 47 139 118 340 2 6 4 12 4 15 0 3 10 30 22 60 12
30 23 60 24 65 4 18 18 59 31 90 7 17 33 89 58 160 24 72 66 189 91 260 26 72
48 137 50 145 2 8 13 40 24 70 11 30 48 134 82 230 34 96 64 182 67 190 4 8 7
18 7 22 1 3 4 10 9 14 4 4 7 15 7 25 0 10 7 33 15 51 8 18 31 80 50 138 20 58
53 150 72 205 45 128 97 277 135 385 16 47 36 97 44 113 8 15 13 27 10 27 -2
0 14 51 36 113 22 61 44 123 48 137 68 199 173 327 342 420 32 17 59 30 60 30
2 -1 15 3 31 9 15 6 38 13 50 15 12 2 41 9 65 14 23 6 91 9 150 7 84 -2 124
-8 187 -29 104 -35 202 -94 273 -164 110 -110 137 -164 282 -582 33 -96 63
-182 67 -190 3 -8 7 -19 9 -25 7 -29 66 -192 74 -207 6 -10 10 -25 10 -33 0
-8 4 -23 10 -33 5 -9 19 -44 30 -77 11 -33 36 -105 56 -160 19 -55 38 -109 41
-120 3 -11 11 -34 19 -51 7 -17 15 -40 17 -50 1 -11 6 -25 11 -32 4 -7 20 -52
36 -100 41 -124 66 -191 73 -199 4 -3 7 -17 7 -29 0 -13 5 -26 10 -29 6 -3 10
-15 10 -26 0 -10 4 -27 10 -37 5 -9 22 -55 39 -102 16 -47 59 -168 95 -270 35
-102 82 -236 104 -297 22 -62 38 -113 35 -113 -3 0 2 -9 12 -20 10 -11 15 -20
12 -20 -3 0 10 -44 29 -97 19 -54 46 -132 60 -173 14 -41 31 -88 38 -105 8
-16 17 -40 21 -52 3 -13 10 -23 15 -23 5 0 11 -9 15 -19 14 -44 146 -148 210
-166 17 -4 39 -11 50 -14 48 -12 191 -5 244 12 177 60 292 226 292 423 0 63
-17 123 -109 381 -22 61 -37 114 -34 117 3 3 1 6 -5 6 -5 0 -10 6 -11 13 0 11
-24 81 -39 117 -3 8 -7 17 -8 20 -1 3 -4 12 -7 20 -4 8 -25 69 -48 135 -23 66
-51 145 -62 175 -11 30 -21 62 -23 70 -7 29 -38 115 -52 143 -8 15 -11 27 -7
27 3 0 1 6 -5 13 -6 8 -8 17 -4 20 3 4 0 7 -7 7 -7 0 -11 3 -7 6 3 3 -8 43
-25 88 -16 44 -40 113 -53 151 -13 39 -30 88 -38 110 -8 22 -18 49 -23 60 -4
11 -8 25 -10 32 -2 11 -58 167 -74 208 -4 11 -22 63 -40 115 -18 52 -36 104
-42 115 -5 12 -10 27 -12 35 -2 8 -6 22 -9 30 -3 8 -20 56 -37 105 -17 50 -35
99 -40 110 -5 11 -20 54 -34 95 -31 94 -84 246 -130 373 -19 53 -32 97 -28 97
4 0 3 4 -3 8 -5 4 -28 59 -49 122 -21 63 -43 126 -49 140 -6 14 -11 30 -13 35
-1 6 -20 61 -42 123 -23 61 -38 112 -35 112 3 0 1 6 -5 13 -5 6 -21 46 -35 87
-66 192 -89 257 -98 275 -6 12 -11 28 -13 38 -1 9 -5 20 -9 23 -4 4 -7 16 -7
26 0 10 -5 26 -10 36 -6 9 -51 134 -100 277 -50 143 -95 268 -100 277 -6 10
-10 25 -10 33 0 8 -4 23 -10 33 -5 9 -23 60 -41 112 -17 52 -37 109 -44 125
-7 17 -29 80 -49 140 -20 61 -41 118 -46 127 -6 10 -10 27 -10 37 0 11 -4 22
-9 25 -5 3 -11 16 -14 28 -4 23 -91 274 -107 313 -4 11 -13 34 -18 50 -10 28
-67 190 -80 225 -3 8 -6 20 -8 25 -15 53 -78 223 -87 234 -7 8 -11 16 -9 18 1
2 -5 17 -14 34 -25 49 -115 133 -169 158 -28 12 -57 26 -65 30 -42 22 -152 31
-225 18 -95 -16 -265 -117 -265 -157 0 -5 -4 -10 -8 -10 -8 0 -64 -101 -69
-125 -4 -21 -88 -260 -93 -265 -3 -3 -6 -9 -7 -15 -1 -5 -27 -82 -58 -170 -31
-88 -57 -166 -58 -172 0 -7 -3 -13 -7 -13 -4 0 -7 -6 -7 -12 0 -11 -119 -355
-155 -450 -5 -15 -10 -31 -10 -35 0 -4 -5 -17 -11 -28 -6 -11 -12 -22 -12 -25
-2 -11 -27 -86 -35 -105 -5 -11 -16 -42 -25 -70 -9 -27 -18 -57 -22 -65 -14
-35 -65 -178 -78 -220 -7 -25 -37 -108 -65 -185 -28 -77 -53 -147 -55 -155 -2
-8 -4 -16 -5 -17 -2 -2 -3 -6 -5 -10 -1 -5 -4 -15 -7 -23 -28 -75 -42 -116
-43 -120 -1 -7 -65 -189 -75 -215 -5 -11 -41 -112 -80 -225 -143 -412 -160
-446 -264 -558 -59 -62 -195 -152 -230 -152 -9 0 -16 -5 -16 -12 0 -6 -3 -9
-6 -5 -3 3 -17 2 -30 -3 -14 -6 -36 -12 -49 -15 -14 -3 -37 -8 -52 -11 -60
-14 -218 -6 -296 15 -83 22 -188 70 -223 102 -11 10 -23 19 -27 19 -4 0 -33
26 -64 57 -59 60 -114 139 -140 201 -14 33 -79 211 -87 237 -2 6 -6 17 -9 25
-3 8 -24 69 -47 135 -23 66 -44 127 -47 135 -3 8 -7 20 -9 25 -1 6 -9 27 -18
48 -9 20 -13 37 -10 37 4 0 2 6 -4 13 -5 6 -26 59 -45 117 -20 58 -55 157 -77
220 -23 63 -49 140 -60 170 -37 109 -91 265 -100 285 -4 11 -18 49 -30 85 -12
36 -25 72 -28 80 -3 8 -6 17 -7 20 -1 3 -4 12 -8 20 -3 8 -15 42 -26 75 -26
79 -57 165 -86 245 -35 96 -78 218 -130 370 -26 74 -49 142 -52 150 -3 8 -7
20 -9 25 -7 26 -56 162 -64 180 -5 11 -16 40 -24 65 -71 218 -111 304 -173
364 -38 38 -146 104 -180 110 -10 2 -30 7 -45 11 -30 8 -116 14 -121 9z"/>
</g>
</svg>
