<svg width="85" height="96" viewBox="0 0 85 96" fill="none" xmlns="http://www.w3.org/2000/svg">
<g clip-path="url(#clip0_23_1602)">
<path d="M80.4479 41.2606C81.5688 45.2299 82.3585 49.3242 82.9513 53.4046C83.5442 57.485 83.8915 61.9337 82.3307 65.9076C81.446 68.1608 79.825 69.9625 77.5509 70.8587C75.249 71.7642 72.7317 71.8684 70.3164 72.276C68.2044 72.6326 66.1943 73.281 64.425 74.513C62.9174 75.5621 61.6437 76.8983 60.5229 78.3457C58.1515 81.4025 56.417 84.8831 54.1938 88.0419C51.8572 91.3627 48.8513 94.2135 44.6991 94.8943C38.9698 95.8345 33.5764 92.8935 29.1532 89.5749C27.0296 87.9817 25.0381 86.1985 22.7871 84.7812C20.5941 83.401 18.2134 82.5303 15.6035 82.5071C12.9936 82.484 10.2378 83.137 7.56079 82.7943C5.29595 82.5025 3.37153 81.2914 2.29469 79.265C1.3429 77.4749 1.10669 75.3236 1.41469 73.3343C1.78059 70.9791 2.99869 68.9968 4.4669 67.1627C6.07406 65.1549 7.90816 63.2907 9.14711 61.0143C10.3861 58.7379 10.9673 56.0933 11.0692 53.481C11.2915 47.7587 9.37173 42.3097 8.10268 36.8097C7.445 33.9613 6.87069 30.9507 7.10458 28.0143C7.20647 26.7267 7.59322 25.4577 8.52416 24.5244C9.26289 23.7857 10.2286 23.3434 11.2174 23.0516C13.3248 22.4309 15.548 22.4055 17.6808 21.9145C19.9757 21.3865 22.1248 20.2935 23.9427 18.8044C25.7606 17.3154 27.2195 15.3655 28.213 13.1956C29.2065 11.0257 29.8665 8.66357 30.9479 6.50525C32.0294 4.34694 33.7292 2.44336 36.0959 1.51241C38.4627 0.581463 41.1861 0.518937 43.7103 1.01452C46.6096 1.5842 49.333 2.78146 52.0286 3.95557C54.7242 5.12967 57.3572 6.28294 60.1176 7.19304C62.878 8.10315 65.5435 8.6682 68.3642 8.82336C70.7286 8.95304 73.1509 8.88125 75.4597 9.48104C77.7778 10.0831 79.686 11.5375 80.5151 13.837C81.3442 16.1366 81.1797 18.6747 80.8555 21.0438C80.4943 23.6699 79.9917 26.3377 80.4109 28.9893C80.6216 30.3139 81.1288 31.4695 81.798 32.6204C82.1199 33.1739 82.4372 33.7528 82.4719 34.4059C82.4974 34.8992 82.3724 35.3855 82.1917 35.844C81.5016 37.5901 79.9084 39.1857 80.3947 41.2027C80.4989 41.6381 81.1682 41.4528 81.0639 41.0175C80.8115 39.9661 81.314 38.9773 81.8096 38.0787C82.3052 37.1802 82.8726 36.3025 83.0833 35.2998C83.3357 34.0956 82.8818 33.0951 82.2797 32.0716C81.5549 30.8396 81.1218 29.5427 80.9945 28.1162C80.5475 23.0863 83.125 17.7947 80.8903 12.9385C78.6949 8.1703 73.0212 8.36715 68.5749 8.1402C62.5677 7.8322 57.1002 5.40525 51.6627 3.04315C46.7138 0.894095 41.0332 -1.28275 35.7069 0.9242C33.4305 1.86673 31.733 3.56883 30.5728 5.7202C29.4126 7.87157 28.7341 10.3194 27.729 12.5842C26.7239 14.849 25.2835 16.8406 23.3406 18.4015C21.3976 19.9623 19.1282 20.9697 16.7082 21.4027C14.5498 21.7895 12.2804 21.845 10.2193 22.6579C9.28143 23.0284 8.40374 23.561 7.75069 24.3391C6.9309 25.3164 6.56037 26.5183 6.43301 27.7711C6.13195 30.6821 6.70163 33.7297 7.33616 36.5596C7.97069 39.3895 8.87848 42.4463 9.52921 45.4175C10.701 50.7739 11.0831 56.7741 8.00079 61.5886C6.56732 63.828 4.63595 65.6922 3.08205 67.8436C1.74353 69.6985 0.835739 71.7295 0.641212 74.0244C0.47216 76.0206 0.826477 78.1187 1.83616 79.8648C2.93616 81.7661 4.78648 83.0027 6.94016 83.3941C9.62879 83.8827 12.3475 83.2644 15.0431 83.2042C16.4279 83.1741 17.7873 83.32 19.105 83.7554C20.4227 84.1907 21.5713 84.8183 22.6968 85.5455C24.9825 87.0252 27.0134 88.8594 29.2042 90.4711C31.3949 92.0829 33.9029 93.6461 36.5614 94.6303C39.2199 95.6145 42.0383 96.0128 44.8056 95.5751C46.9871 95.2301 48.9926 94.2899 50.7132 92.9212C53.7515 90.5036 55.7477 87.0299 57.7416 83.7669C59.7355 80.504 61.8244 77.0303 65.0873 74.8998C67.0164 73.64 69.1978 73.1236 71.4534 72.797C73.9128 72.4404 76.4787 72.2436 78.7227 71.0834C83.0254 68.8602 84.137 63.608 84.1578 59.1617C84.1671 57.1956 83.91 55.2248 83.6298 53.2842C83.301 51.0031 82.8842 48.7337 82.4117 46.4781C82.0319 44.6671 81.6197 42.8562 81.1172 41.0754C80.9968 40.6446 80.3252 40.8276 80.4479 41.2606Z" fill="#395F20"/>
<path d="M78.0673 41.5916C79.114 45.3038 79.8551 49.1341 80.4085 52.9506C80.969 56.811 81.2862 60.9192 79.8296 64.6337C79.0052 66.7341 77.493 68.4154 75.374 69.2491C73.2203 70.0967 70.8652 70.1939 68.6073 70.5737C66.6296 70.9072 64.7492 71.5163 63.0911 72.6672C61.6784 73.6491 60.4881 74.8996 59.4368 76.2543C57.2182 79.1143 55.5925 82.3727 53.513 85.3276C51.3315 88.4308 48.5248 91.0916 44.6458 91.7285C39.294 92.6085 34.2549 89.855 30.1212 86.7565C28.1342 85.2674 26.2723 83.5977 24.1673 82.2731C22.1132 80.9786 19.8831 80.1657 17.4376 80.1426C14.9319 80.1194 12.4193 80.7331 9.91592 80.4112C7.80392 80.1379 6.01381 79.0101 5.00876 77.1205C4.12181 75.4508 3.89949 73.443 4.18896 71.5904C4.5317 69.3927 5.66875 67.54 7.0397 65.8264C8.54496 63.9459 10.261 62.1998 11.4212 60.0693C12.5814 57.9388 13.1279 55.4609 13.2229 53.0131C13.429 47.659 11.6342 42.5596 10.4462 37.4116C9.83255 34.7485 9.29529 31.9348 9.51297 29.1906C9.60792 27.9933 9.96686 26.8099 10.833 25.9438C11.5208 25.256 12.4193 24.8438 13.3433 24.5729C15.314 23.9916 17.3936 23.9685 19.3898 23.5099C21.5412 23.0144 23.5536 21.9908 25.258 20.5944C26.9624 19.1979 28.3264 17.3754 29.2551 15.3445C30.1837 13.3135 30.7997 11.1042 31.814 9.08719C32.8283 7.07014 34.4077 5.29625 36.617 4.42551C38.8749 3.53856 41.3713 3.49688 43.7288 3.96004C46.4382 4.49267 48.9856 5.61119 51.5052 6.70888C54.0248 7.80656 56.4934 8.88804 59.0778 9.74025C61.5858 10.567 64.1586 11.1205 66.7963 11.2664C69.0056 11.3891 71.2704 11.3196 73.4264 11.88C75.5871 12.4428 77.3679 13.7952 78.1391 15.9373C78.9102 18.0794 78.7597 20.4531 78.4563 22.667C78.1182 25.1287 77.6458 27.6274 78.0418 30.1099C78.2386 31.3512 78.7134 32.4327 79.3433 33.5118C79.642 34.0259 79.9384 34.5632 79.9709 35.1699C79.994 35.6308 79.8782 36.0824 79.7092 36.5085C79.0608 38.148 77.5717 39.6394 78.0279 41.5314C78.1321 41.9668 78.8014 41.7815 78.6972 41.3461C78.4633 40.3689 78.9334 39.4472 79.3919 38.6158C79.8504 37.7845 80.3877 36.9508 80.5869 36.0106C80.8254 34.8781 80.3993 33.9356 79.8342 32.9746C79.158 31.8259 78.7551 30.6171 78.6346 29.2855C78.2155 24.5752 80.6285 19.624 78.5328 15.0781C76.4763 10.611 71.1616 10.7916 66.9932 10.5786C61.3797 10.2914 56.2688 8.02193 51.1856 5.81267C46.5494 3.80025 41.2323 1.76235 36.2441 3.82804C34.109 4.71267 32.5157 6.30593 31.4273 8.3253C30.3389 10.3447 29.7067 12.628 28.7688 14.7447C27.8309 16.8613 26.4831 18.7232 24.6675 20.1821C22.8519 21.6411 20.733 22.579 18.4728 22.9842C16.4534 23.3455 14.3298 23.3965 12.4031 24.1584C11.5231 24.5057 10.6987 25.0059 10.085 25.7377C9.31381 26.6571 8.96644 27.7849 8.84602 28.9636C8.56581 31.6893 9.09844 34.54 9.69128 37.1893C10.3119 39.9659 11.134 42.6939 11.7431 45.4752C12.8384 50.4796 13.1951 56.0861 10.3166 60.5834C8.97571 62.6792 7.16939 64.4207 5.71507 66.4331C4.45991 68.1722 3.61002 70.0735 3.42708 72.2272C3.26729 74.0984 3.60076 76.0645 4.54791 77.7017C5.58076 79.4849 7.31528 80.6451 9.33465 81.0133C11.8519 81.4718 14.397 80.8929 16.9212 80.8373C18.2134 80.8095 19.4824 80.9461 20.7144 81.3514C21.9464 81.7567 23.0187 82.3449 24.0677 83.0257C26.2052 84.4106 28.1064 86.1243 30.1559 87.6341C32.2841 89.2019 34.5536 90.6053 37.0431 91.527C39.5325 92.4487 42.1725 92.8215 44.7662 92.4116C46.8111 92.0874 48.6892 91.2074 50.3033 89.9245C53.1471 87.6619 55.0159 84.4106 56.8824 81.356C58.7397 78.3177 60.6965 75.0594 63.7464 73.0701C65.5481 71.8937 67.5883 71.4097 69.6957 71.1063C71.9976 70.7729 74.3991 70.5876 76.5018 69.5015C80.5336 67.4173 81.5757 62.4962 81.5965 58.3301C81.6058 56.4891 81.365 54.6434 81.101 52.8255C80.793 50.6927 80.4039 48.5691 79.9616 46.4594C79.605 44.7642 79.2205 43.0737 78.7504 41.4064C78.63 40.9756 77.9584 41.1586 78.0812 41.5916H78.0673Z" fill="#395F20"/>
<path d="M75.6889 41.9229C76.6639 45.3803 77.354 48.9443 77.8681 52.4968C78.3822 56.0492 78.6856 59.9073 77.3285 63.3601C76.5643 65.3054 75.1609 66.8662 73.1972 67.6397C71.194 68.4294 69.0009 68.5197 66.8982 68.874C65.0548 69.1843 63.3018 69.7517 61.7572 70.8262C60.4395 71.741 59.3302 72.9081 58.3506 74.1702C56.2826 76.8334 54.7704 79.8694 52.8321 82.6229C50.8035 85.506 48.1959 87.977 44.5925 88.5698C39.6182 89.3873 34.931 86.8237 31.0892 83.9429C29.2388 82.5557 27.5066 81.0018 25.5452 79.7698C23.5837 78.5378 21.5481 77.8037 19.2671 77.7829C16.9351 77.762 14.5938 78.334 12.2641 78.033C10.3073 77.7805 8.64684 76.7338 7.71822 74.9808C6.89611 73.4338 6.69 71.5696 6.95631 69.8513C7.27358 67.8088 8.32957 66.0881 9.60326 64.4972C11.0043 62.7464 12.6045 61.1184 13.686 59.1338C14.7837 57.1168 15.2769 54.8357 15.3649 52.5523C15.5572 47.5641 13.8852 42.8168 12.7805 38.0231C12.2085 35.5475 11.7106 32.9283 11.9121 30.3763C12.0001 29.2671 12.3336 28.174 13.1348 27.3704C13.7717 26.7313 14.6054 26.3515 15.4599 26.0991C17.294 25.5572 19.23 25.5363 21.0896 25.1079C23.0951 24.6448 24.9732 23.6883 26.5618 22.3869C28.1504 21.0854 29.4218 19.3856 30.2856 17.4936C31.1494 15.6016 31.7237 13.5452 32.6662 11.6671C33.6087 9.78897 35.0723 8.14708 37.1241 7.33887C39.2222 6.51445 41.5403 6.47508 43.731 6.90581C46.2529 7.40139 48.6197 8.44118 50.9633 9.46245C53.286 10.4744 55.6111 11.4934 58.0195 12.2877C60.3561 13.0589 62.7529 13.573 65.2123 13.7096C67.2664 13.8231 69.3715 13.7582 71.3793 14.2816C73.3871 14.805 75.0336 16.0555 75.7492 18.0424C76.4647 20.0294 76.3258 22.2387 76.0456 24.2951C75.7306 26.59 75.2906 28.9197 75.6588 31.2378C75.8418 32.3957 76.2864 33.4054 76.8723 34.4104C77.1479 34.8852 77.4235 35.3808 77.4513 35.9412C77.4744 36.3673 77.3656 36.7864 77.2081 37.1801C76.6014 38.7109 75.2165 40.1003 75.6426 41.8696C75.7468 42.305 76.4161 42.1197 76.3119 41.6843C76.0942 40.7835 76.5319 39.929 76.958 39.1601C77.3841 38.3913 77.8889 37.6062 78.0719 36.7309C78.2942 35.6702 77.8982 34.7879 77.3679 33.8848C76.7403 32.8195 76.3652 31.6963 76.2563 30.4643C75.8649 26.0736 78.1113 21.4652 76.1591 17.225C74.2068 12.9848 69.2835 13.2233 65.3953 13.0241C60.1732 12.7578 55.4188 10.6435 50.69 8.59171C46.3687 6.71592 41.4129 4.81697 36.7628 6.74139C34.7713 7.56581 33.2799 9.05487 32.2656 10.9376C31.2513 12.8203 30.6631 14.9439 29.79 16.9147C28.9169 18.8854 27.6641 20.6153 25.9759 21.9723C24.2877 23.3294 22.3193 24.1978 20.2188 24.5753C18.3384 24.9134 16.3631 24.9597 14.5683 25.6683C13.7462 25.9925 12.9727 26.4603 12.3984 27.1435C11.6759 28.0027 11.3517 29.0587 11.2359 30.1633C10.9742 32.7014 11.4698 35.3599 12.0233 37.8285C12.5767 40.2972 13.3664 42.9534 13.9338 45.5424C14.9527 50.1949 15.2839 55.4077 12.6068 59.59C11.3586 61.5399 9.67737 63.1633 8.32495 65.0368C7.15316 66.6601 6.36347 68.434 6.1921 70.4418C6.04389 72.1879 6.35653 74.0243 7.23885 75.5504C8.20221 77.2155 9.82327 78.3016 11.7106 78.6443C14.0565 79.0704 16.4256 78.5332 18.7784 78.4799C19.9803 78.4544 21.159 78.5818 22.3031 78.957C23.4471 79.3321 24.4428 79.881 25.4201 80.5132C27.4094 81.8031 29.1809 83.3987 31.0868 84.802C32.9927 86.2054 35.1858 87.5694 37.5039 88.4286C39.822 89.2877 42.2883 89.6351 44.706 89.2506C46.6142 88.9496 48.3649 88.1252 49.8702 86.9279C52.5195 84.8205 54.2586 81.7915 55.9978 78.9477C57.7254 76.1224 59.5456 73.0934 62.3778 71.2431C64.0544 70.1477 65.9511 69.7008 67.9102 69.4159C70.0569 69.1056 72.2917 68.9319 74.2508 67.9199C78.0117 65.977 78.9866 61.3871 79.0052 57.5012C79.0144 55.7852 78.7875 54.0645 78.5443 52.3694C78.2572 50.3824 77.8959 48.4071 77.4837 46.4433C77.1525 44.8662 76.7959 43.2915 76.3559 41.7376C76.2355 41.3069 75.5639 41.4898 75.6866 41.9229H75.6889Z" fill="#395F20"/>
<path d="M73.3106 42.254C74.2138 45.4545 74.8506 48.7545 75.3277 52.0429C75.8094 55.3614 76.0826 58.893 74.8275 62.0865C74.1235 63.8789 72.829 65.3193 71.0203 66.0303C69.2117 66.7412 67.1344 66.8454 65.1892 67.1719C63.4824 67.4591 61.8544 67.9871 60.4233 68.9806C59.2028 69.8305 58.1723 70.9096 57.2645 72.0814C55.3494 74.55 53.946 77.3614 52.1513 79.9111C50.2778 82.5766 47.8671 84.8576 44.537 85.4065C39.9378 86.1614 35.6049 83.7877 32.0548 81.1246C30.3435 79.8416 28.7386 78.4035 26.9231 77.2595C25.1445 76.141 23.2132 75.4347 21.0989 75.4162C18.9845 75.3976 16.773 75.9279 14.6146 75.6477C12.8106 75.4138 11.2845 74.4482 10.4277 72.8341C9.67043 71.4075 9.47821 69.6892 9.72601 68.1052C10.0201 66.2178 10.9927 64.6292 12.1692 63.1587C13.4683 61.5353 14.9527 60.0277 15.9532 58.1867C16.9536 56.3456 17.4306 54.1989 17.5117 52.0799C17.69 47.4599 16.1431 43.0623 15.1172 38.6206C14.5892 36.3303 14.126 33.9103 14.3136 31.5482C14.3946 30.5292 14.7003 29.5218 15.4367 28.7831C16.0226 28.1949 16.7915 27.8452 17.5788 27.6136C19.2786 27.1134 21.0687 27.0926 22.7894 26.6966C24.6513 26.2682 26.3927 25.3789 27.8679 24.1724C29.3431 22.9658 30.5172 21.3911 31.3207 19.638C32.1243 17.885 32.6523 15.9837 33.5254 14.2446C34.3984 12.5054 35.7439 10.9932 37.6359 10.2498C39.5742 9.48794 41.7163 9.45089 43.738 9.8492C46.07 10.3077 48.2607 11.2688 50.4283 12.2136C52.5797 13.1515 54.7357 14.0964 56.9658 14.8305C59.1959 15.5646 61.3519 16.0208 63.6306 16.1482C65.5296 16.2524 67.4772 16.1945 69.3321 16.6762C71.1871 17.1578 72.7016 18.3088 73.3593 20.1406C74.017 21.9724 73.8942 24.0172 73.6325 25.9138C73.3407 28.0444 72.9332 30.205 73.2736 32.354C73.445 33.4286 73.8548 34.3642 74.3991 35.2974C74.6515 35.7328 74.9062 36.189 74.9317 36.7031C74.9525 37.0968 74.853 37.4812 74.7071 37.8448C74.142 39.269 72.8614 40.5543 73.2574 42.2008C73.3616 42.6362 74.0308 42.4509 73.9266 42.0155C73.7275 41.1888 74.1304 40.4037 74.5218 39.6997C74.9132 38.9957 75.3856 38.257 75.557 37.4442C75.7654 36.4553 75.3972 35.6309 74.9039 34.7903C74.325 33.8084 73.9776 32.7732 73.878 31.6362C73.5167 27.565 75.594 23.297 73.7831 19.3671C71.9721 15.4372 67.4054 15.6503 63.7951 15.465C58.9643 15.2172 54.5666 13.2627 50.1944 11.3637C46.1881 9.62457 41.5913 7.86457 37.2793 9.64773C35.429 10.4143 34.0441 11.7945 33.0993 13.5452C32.1544 15.2959 31.6172 17.2528 30.8066 19.0776C29.9961 20.9025 28.8405 22.498 27.2797 23.7532C25.7188 25.0084 23.901 25.8073 21.9626 26.157C20.2235 26.4696 18.3917 26.5136 16.7313 27.169C15.9647 27.4724 15.2468 27.9054 14.7119 28.5423C14.038 29.3435 13.7346 30.3277 13.6281 31.3559C13.385 33.7088 13.8458 36.1705 14.3576 38.4585C14.8694 40.7465 15.6012 43.2035 16.1245 45.6004C17.0671 49.9008 17.3727 54.7199 14.8995 58.585C13.7439 60.3913 12.1877 61.8919 10.9348 63.6265C9.84874 65.1317 9.11463 66.7806 8.95716 68.6448C8.82053 70.2658 9.11 71.9703 9.92979 73.3875C10.826 74.9345 12.3313 75.9442 14.0843 76.2637C16.2588 76.6597 18.4542 76.1618 20.6357 76.1132C21.7473 76.0877 22.8357 76.2058 23.894 76.5555C24.9176 76.8936 25.8717 77.4077 26.7725 77.9936C28.6159 79.1886 30.2532 80.6661 32.0201 81.9652C33.8588 83.3176 35.818 84.5288 37.9671 85.3254C40.1161 86.1221 42.4064 86.4416 44.6504 86.0873C46.422 85.8071 48.0454 85.0406 49.4441 83.9313C51.8988 81.9791 53.5106 79.1724 55.1224 76.537C56.7342 73.9016 58.4016 71.1227 61.0207 69.4136C62.57 68.4016 64.3254 67.9871 66.1363 67.7254C68.1256 67.4383 70.1982 67.2761 72.0138 66.3383C75.5037 64.5343 76.4115 60.2755 76.4277 56.6698C76.4346 55.0789 76.2262 53.4833 75.9993 51.9132C75.733 50.0745 75.3995 48.245 75.0174 46.4271C74.7117 44.9658 74.3805 43.5092 73.973 42.0711C73.8525 41.6404 73.181 41.8233 73.3037 42.2564L73.3106 42.254Z" fill="#395F20"/>
<path d="M70.9323 42.5851C71.7637 45.5285 72.3496 48.5645 72.7896 51.5913C73.2296 54.618 73.482 57.8832 72.3311 60.815C71.6873 62.4546 70.5039 63.7723 68.8481 64.423C67.1414 65.0946 65.2749 65.171 63.4824 65.4744C61.91 65.7407 60.4094 66.2247 59.0917 67.1418C57.9662 67.9245 57.0168 68.918 56.1808 69.9971C54.4161 72.2689 53.1262 74.858 51.4728 77.2062C49.8193 79.5544 47.5429 81.7451 44.486 82.2477C40.2643 82.9424 36.2835 80.7563 33.0252 78.3131C31.4504 77.1321 29.973 75.8098 28.3033 74.7584C26.6336 73.707 24.8829 73.0771 22.9306 73.0586C20.9784 73.0401 18.9498 73.531 16.9675 73.2717C15.3186 73.0563 13.9245 72.174 13.1395 70.6988C12.4471 69.3927 12.2711 67.818 12.4957 66.3706C12.7643 64.6407 13.6559 63.1818 14.7374 61.834C15.9347 60.338 17.301 58.9508 18.2227 57.2557C19.1443 55.5605 19.5843 53.5782 19.6608 51.6237C19.8252 47.3719 18.401 43.3239 17.4561 39.2365C16.9698 37.1315 16.546 34.9083 16.7197 32.7384C16.7938 31.8075 17.0717 30.8881 17.7456 30.2142C18.2829 29.6769 18.9846 29.3574 19.7024 29.1443C21.2656 28.6835 22.9144 28.6649 24.4961 28.3014C26.2144 27.9054 27.8193 27.0856 29.1787 25.9717C30.538 24.8578 31.6195 23.4081 32.3582 21.794C33.1016 20.1683 33.5833 18.4315 34.3869 16.8336C35.1904 15.2357 36.4178 13.8531 38.1523 13.1723C39.9285 12.4729 41.8947 12.4382 43.7519 12.8041C45.894 13.2256 47.9064 14.1079 49.9003 14.9763C51.8942 15.8447 53.8673 16.7085 55.9214 17.387C57.9755 18.0656 59.9624 18.4847 62.0605 18.6005C63.8043 18.6978 65.5944 18.6422 67.2989 19.0845C69.0033 19.5268 70.3812 20.5759 70.9833 22.2502C71.5854 23.9245 71.4742 25.8049 71.2357 27.5464C70.9671 29.5125 70.5919 31.5018 70.9069 33.4864C71.0643 34.4753 71.4441 35.3414 71.9443 36.2005C72.1759 36.5965 72.4052 37.011 72.4307 37.4788C72.4492 37.8378 72.3565 38.1898 72.2269 38.5209C71.7035 39.8386 70.5271 41.0197 70.893 42.5411C70.9972 42.9765 71.6664 42.7913 71.5622 42.3559C71.3816 41.6033 71.7521 40.8877 72.1064 40.2462C72.4608 39.6047 72.9031 38.9146 73.0605 38.1643C73.2528 37.2449 72.9147 36.483 72.4561 35.7026C71.9281 34.8041 71.6085 33.8569 71.5159 32.8148C71.1824 29.0632 73.0953 25.138 71.4256 21.5138C69.7814 17.9451 65.5458 18.0818 62.2134 17.9104C57.7763 17.6835 53.7353 15.8864 49.7174 14.1426C46.0237 12.5378 41.7904 10.919 37.8165 12.5609C36.1075 13.2673 34.8269 14.5409 33.9538 16.1597C33.0808 17.7784 32.5898 19.5708 31.8441 21.2498C31.1008 22.9264 30.0401 24.3923 28.6043 25.5456C27.1685 26.6988 25.5035 27.4306 23.725 27.7479C22.1248 28.035 20.4412 28.0744 18.9128 28.6788C18.2041 28.959 17.5372 29.3597 17.0416 29.9502C16.4163 30.6936 16.1361 31.6037 16.0365 32.5578C15.8142 34.723 16.238 36.9925 16.7081 39.0999C17.1782 41.2072 17.8521 43.4651 18.3338 45.6698C19.1976 49.6182 19.4824 54.0437 17.2083 57.5915C16.1454 59.2519 14.7119 60.6344 13.561 62.23C12.5582 63.6195 11.8843 65.1409 11.7384 66.8592C11.6111 68.3552 11.8797 69.9277 12.637 71.2361C13.4637 72.6649 14.8555 73.6005 16.4765 73.8946C18.4797 74.2582 20.5014 73.802 22.5092 73.758C23.5281 73.7348 24.5262 73.8437 25.4989 74.1632C26.4715 74.4828 27.3121 74.946 28.1412 75.4833C29.8363 76.5809 31.3439 77.9403 32.9673 79.1352C34.5907 80.3302 36.4641 81.495 38.4441 82.2291C40.4241 82.9632 42.5361 83.2573 44.6064 82.9308C46.2391 82.6715 47.7374 81.9651 49.0273 80.9393C51.2875 79.1422 52.7719 76.5578 54.254 74.1331C55.7361 71.7085 57.2645 69.1611 59.6707 67.5887C61.0949 66.6578 62.7043 66.2803 64.3694 66.0371C66.2012 65.7708 68.1094 65.6226 69.7814 64.7588C73.0003 63.0961 73.841 59.1685 73.8572 55.8407C73.8641 54.3748 73.6719 52.9043 73.4612 51.4569C73.218 49.7664 72.9077 48.0828 72.558 46.4108C72.2755 45.0677 71.9721 43.7268 71.5993 42.4045C71.4789 41.9738 70.8073 42.1567 70.93 42.5898L70.9323 42.5851Z" fill="#395F20"/>
<path d="M68.5517 42.9163C69.309 45.6026 69.8462 48.3746 70.2469 51.1374C70.6475 53.9001 70.8768 56.869 69.8277 59.5414C69.2441 61.0258 68.1696 62.2254 66.669 62.8136C65.1683 63.4018 63.406 63.4968 61.7711 63.7723C60.333 64.0155 58.962 64.4601 57.7555 65.2984C56.725 66.014 55.8566 66.9218 55.09 67.9106C53.4782 69.9879 52.2972 72.35 50.7873 74.4967C49.2218 76.7222 47.2094 78.6281 44.4281 79.0843C40.5839 79.7165 36.9574 77.7203 33.9909 75.4949C32.5528 74.4157 31.205 73.2092 29.6812 72.2504C28.1806 71.3056 26.5479 70.7104 24.7624 70.6942C22.9492 70.678 21.129 71.1273 19.318 70.8887C17.822 70.6919 16.5599 69.893 15.849 68.5544C15.2214 67.3711 15.0593 65.9399 15.2654 64.6269C15.5109 63.0521 16.3214 61.7252 17.3033 60.4978C18.3963 59.1315 19.6469 57.8624 20.4898 56.3109C21.3328 54.7593 21.738 52.9437 21.8052 51.1559C21.9557 47.2723 20.6542 43.574 19.7928 39.8386C19.3505 37.9189 18.9637 35.8925 19.1212 33.9149C19.1883 33.0742 19.4408 32.2429 20.0498 31.6315C20.5361 31.1452 21.173 30.8557 21.8237 30.6635C23.2502 30.242 24.7555 30.2258 26.2006 29.8923C27.773 29.5288 29.2435 28.7784 30.4894 27.7572C31.7353 26.7359 32.7218 25.4136 33.398 23.9384C34.0742 22.4633 34.5166 20.87 35.2483 19.4088C35.9801 17.9475 37.0917 16.6993 38.6665 16.0786C40.2829 15.4418 42.073 15.4094 43.7612 15.7405C45.7157 16.125 47.5498 16.9285 49.3654 17.7205C51.1763 18.5102 52.9896 19.3045 54.87 19.9229C56.6926 20.525 58.5637 20.9256 60.4835 21.0321C62.0745 21.1201 63.7048 21.0692 65.2563 21.4744C66.8079 21.8797 68.0538 22.8245 68.6003 24.3437C69.1469 25.8629 69.0473 27.5789 68.8296 29.1629C68.5841 30.9622 68.2414 32.7848 68.5286 34.6003C68.6721 35.5058 69.0218 36.2978 69.4803 37.0852C69.6888 37.4418 69.8972 37.8146 69.9203 38.2361C69.9389 38.5603 69.8532 38.8799 69.7351 39.1786C69.2534 40.3875 68.1812 41.4666 68.517 42.8654C68.6212 43.3008 69.2905 43.1155 69.1862 42.6801C69.0241 42.0016 69.3599 41.3555 69.6795 40.7789C70.0153 40.1721 70.409 39.5584 70.5526 38.8706C70.7309 38.0231 70.4229 37.3191 69.9968 36.5989C69.5174 35.7837 69.2256 34.9222 69.1422 33.9774C68.8366 30.5454 70.5827 26.9629 69.0566 23.6466C68.3827 22.1831 67.0511 21.2405 65.525 20.826C63.9989 20.4115 62.2551 20.4277 60.6225 20.3443C56.5768 20.1382 52.8923 18.4986 49.2288 16.9077C45.85 15.4395 41.978 13.9597 38.3422 15.4626C36.7745 16.1111 35.598 17.2782 34.7991 18.7603C34.0001 20.2424 33.5532 21.8751 32.8747 23.4058C32.1961 24.9365 31.2305 26.2704 29.922 27.3218C28.6136 28.3732 27.0991 29.0355 25.4803 29.325C24.0191 29.5866 22.4837 29.6237 21.0873 30.1749C20.4342 30.4319 19.8229 30.8001 19.3667 31.342C18.79 32.0275 18.5307 32.8635 18.4403 33.7435C18.2366 35.7235 18.6233 37.7984 19.0563 39.7229C19.4894 41.6473 20.1008 43.7083 20.5408 45.7208C21.3281 49.3172 21.5875 53.3466 19.5172 56.5818C18.5469 58.0986 17.2384 59.3584 16.1871 60.8151C15.2677 62.0887 14.6517 63.4829 14.5197 65.0553C14.4039 66.4239 14.6517 67.8666 15.3441 69.0662C16.1037 70.377 17.3797 71.2361 18.8665 71.5071C20.6982 71.8405 22.5462 71.4237 24.3827 71.382C25.3113 71.3612 26.2191 71.4584 27.1037 71.7502C27.9883 72.042 28.7549 72.4635 29.5075 72.9521C31.0545 73.9549 32.43 75.1961 33.9121 76.2869C35.3942 77.3776 37.1102 78.4429 38.9189 79.1144C40.7275 79.786 42.6658 80.0546 44.5601 79.7536C46.0561 79.5174 47.4294 78.8666 48.6081 77.9287C50.6715 76.2869 52.0286 73.9247 53.3833 71.7085C54.738 69.4923 56.1252 67.1765 58.3159 65.7454C59.6128 64.8978 61.081 64.5527 62.5978 64.3327C64.2745 64.0896 66.0159 63.953 67.5467 63.161C70.4947 61.6372 71.2658 58.0408 71.282 54.9932C71.289 53.6523 71.1107 52.3092 70.9208 50.9845C70.6985 49.4399 70.4159 47.9045 70.0963 46.3784C69.8393 45.1511 69.5614 43.9283 69.221 42.7218C69.1006 42.2911 68.429 42.474 68.5517 42.9071V42.9163Z" fill="#395F20"/>
<path d="M66.1734 43.2475C66.8566 45.6652 67.3382 48.1593 67.6995 50.6441C68.0608 53.1289 68.2738 55.8153 67.3382 58.2353C66.8172 59.5807 65.8469 60.6738 64.4921 61.2087C63.1374 61.7437 61.5719 61.8247 60.106 62.0702C58.7953 62.2879 57.5425 62.6862 56.4425 63.4458C55.5138 64.0873 54.7265 64.9024 54.034 65.7894C52.5635 67.6744 51.4913 69.8212 50.1203 71.7734C48.7494 73.7256 46.8921 75.5134 44.3749 75.9279C40.9244 76.4953 37.6637 74.7075 34.9982 72.7159C33.6945 71.7409 32.4764 70.6479 31.0985 69.7748C29.7206 68.9018 28.2222 68.3506 26.578 68.3391C24.9338 68.3275 23.2456 68.7513 21.5921 68.5035C20.2559 68.3043 19.1536 67.5725 18.533 66.3683C17.9772 65.2892 17.8475 63.9854 18.049 62.7974C18.2921 61.3824 19.0378 60.1991 19.9271 59.0967C20.9229 57.8624 22.053 56.7045 22.801 55.2919C23.549 53.8793 23.8963 52.2559 23.9519 50.6487C24.0747 47.1496 22.9052 43.8172 22.1271 40.4523C21.7265 38.7201 21.3791 36.8883 21.5203 35.1028C21.5806 34.3479 21.8075 33.6022 22.354 33.0557C22.7963 32.6134 23.3776 32.3563 23.9705 32.1849C25.2673 31.8098 26.6336 31.7959 27.942 31.4879C29.3848 31.1475 30.7279 30.4481 31.8627 29.4986C32.9974 28.5492 33.8589 27.3565 34.461 26.018C35.0631 24.6795 35.466 23.2391 36.1376 21.9237C36.8138 20.6037 37.8073 19.5292 39.213 18.9873C40.702 18.4153 42.337 18.4014 43.8839 18.7233C45.674 19.0938 47.3507 19.8464 49.018 20.5713C50.6854 21.2961 52.2717 21.9862 53.9599 22.5327C55.6481 23.0793 57.2923 23.4058 59.0222 23.4938C60.4418 23.5656 61.8985 23.5285 63.281 23.906C64.6635 24.2835 65.7635 25.1658 66.2313 26.5367C66.6991 27.9077 66.6018 29.4268 66.405 30.8418C66.178 32.4767 65.8723 34.1348 66.1456 35.7837C66.2799 36.5873 66.5949 37.2936 67.0025 37.9929C67.1877 38.3102 67.3753 38.6437 67.3961 39.0188C67.4123 39.3106 67.3359 39.5955 67.2294 39.8641C66.7894 40.9664 65.8214 41.9414 66.1294 43.2174C66.2336 43.6527 66.9029 43.4675 66.7987 43.0321C66.6574 42.4416 66.9469 41.8765 67.2248 41.3694C67.5351 40.8066 67.9033 40.2393 68.0376 39.6024C68.1974 38.8475 67.9357 38.206 67.5559 37.5622C67.1252 36.8281 66.8496 36.0685 66.7686 35.2163C66.4698 32.097 68.0585 28.8641 66.6991 25.8443C66.097 24.5081 64.8951 23.6374 63.5079 23.2506C62.0976 22.8569 60.6039 22.8778 59.1542 22.8083C55.5046 22.6346 52.1883 21.2012 48.8814 19.7631C45.8037 18.4245 42.2745 17.0212 38.9443 18.3551C37.5086 18.9294 36.4201 19.9645 35.6768 21.3123C34.9334 22.6601 34.5443 24.0936 33.9469 25.4692C33.3494 26.8447 32.4856 28.0953 31.2999 29.0656C30.1142 30.0359 28.7364 30.6519 27.2612 30.9205C25.925 31.1637 24.517 31.1915 23.241 31.7009C22.6505 31.9348 22.097 32.2683 21.6825 32.7569C21.1637 33.3706 20.9252 34.1186 20.8372 34.9083C20.638 36.6984 20.99 38.5812 21.3791 40.3226C21.7844 42.1428 22.3216 43.9306 22.7222 45.7532C23.4332 48.9767 23.6902 52.6033 21.8608 55.5212C20.9947 56.9014 19.8136 58.043 18.8549 59.3538C18.0119 60.507 17.4353 61.7622 17.294 63.1934C17.1713 64.4485 17.3867 65.7732 18.0096 66.8801C18.6905 68.0866 19.853 68.8925 21.2124 69.1473C22.8913 69.4622 24.5865 69.0732 26.2724 69.0407C27.1037 69.0245 27.9166 69.1148 28.7062 69.3788C29.4959 69.6428 30.2138 70.0365 30.8993 70.4835C32.2957 71.3959 33.5416 72.5167 34.8848 73.5033C36.2279 74.4898 37.7865 75.4508 39.4284 76.0506C41.0702 76.6504 42.7978 76.8797 44.4999 76.6111C45.8616 76.3957 47.1098 75.8005 48.1843 74.946C50.0601 73.4523 51.2898 71.3009 52.5218 69.2862C53.7538 67.2715 54.9974 65.2035 56.9774 63.9205C58.1561 63.1563 59.49 62.8529 60.8656 62.6538C62.3709 62.4384 63.9317 62.3064 65.305 61.5978C67.989 60.2106 68.693 56.9292 68.6999 54.1525C68.7022 52.946 68.5425 51.7372 68.3711 50.5445C68.1696 49.1481 67.9149 47.7586 67.6254 46.3761C67.3915 45.2668 67.1414 44.1599 66.8334 43.0668C66.713 42.6361 66.0414 42.8191 66.1641 43.2521L66.1734 43.2475Z" fill="#395F20"/>
<path d="M63.7951 43.5786C64.4088 45.7531 64.8418 47.9948 65.166 50.2319C65.4903 52.4689 65.6802 54.8889 64.8094 57.0426C64.3231 58.2445 63.4362 59.187 62.2088 59.6409C60.9814 60.0948 59.5827 60.162 58.2696 60.3913C57.121 60.5904 56.0256 60.9609 55.0669 61.6348C54.2309 62.2207 53.5269 62.9595 52.9039 63.7654C50.4145 66.9797 48.8073 72.1439 44.1919 72.7877C41.1235 73.2161 38.2705 71.6298 35.9037 69.8536C34.7319 68.9736 33.6366 67.9894 32.3884 67.2136C31.1517 66.4447 29.8109 65.9793 28.345 65.9769C26.8791 65.9746 25.3877 66.3498 23.9265 66.1205C22.7315 65.9329 21.7635 65.266 21.2216 64.1822C20.7399 63.2188 20.6381 62.0586 20.8279 61.0096C21.0526 59.766 21.7195 58.7239 22.5046 57.7536C23.3962 56.6513 24.4035 55.6161 25.0705 54.3517C25.7374 53.0873 26.0547 51.6075 26.101 50.1555C26.2029 47.006 25.1423 44.0117 24.4498 40.9803C24.0978 39.4357 23.7783 37.7845 23.9334 36.1936C23.9983 35.5289 24.2206 34.8921 24.7138 34.4266C25.1145 34.0468 25.6378 33.8315 26.1635 33.6856C27.326 33.3637 28.5465 33.3521 29.7183 33.0649C30.9943 32.75 32.1823 32.1224 33.1873 31.2795C34.1924 30.4365 34.9728 29.3504 35.5124 28.1462C36.0519 26.942 36.4086 25.6567 37.0153 24.4826C37.622 23.3085 38.5391 22.3382 39.8197 21.8681C41.1536 21.3795 42.6056 21.3864 43.9835 21.6852C45.5328 22.0209 46.9871 22.667 48.4345 23.2969C49.8818 23.9268 51.3246 24.5544 52.8229 25.0454C54.2934 25.527 55.801 25.8443 57.3479 25.9277C58.6332 25.9972 59.9509 25.9555 61.2037 26.2889C62.4566 26.6224 63.4338 27.3936 63.8553 28.6186C64.2768 29.8437 64.1865 31.2216 64.0082 32.4976C63.8044 33.9565 63.5357 35.4363 63.7835 36.9068C63.9016 37.6131 64.1772 38.2407 64.5362 38.8544C64.7006 39.1369 64.8743 39.431 64.8997 39.7645C64.9183 40.0216 64.8511 40.274 64.7585 40.5102C64.3625 41.5153 63.4917 42.3814 63.7673 43.5439C63.8715 43.9793 64.5408 43.794 64.4366 43.3586C64.3092 42.8214 64.5848 42.3119 64.8372 41.8557C65.1128 41.3578 65.4393 40.8483 65.5505 40.2809C65.6848 39.5839 65.4347 39.0142 65.0873 38.4237C64.6959 37.7567 64.4644 37.062 64.4018 36.2885C64.1749 33.5073 65.5713 30.6102 64.3185 27.9239C63.0656 25.2376 59.9231 25.3649 57.4336 25.2353C54.173 25.0662 51.2018 23.7416 48.2492 22.4609C45.5282 21.2799 42.4065 20.0826 39.47 21.259C38.1871 21.7732 37.2075 22.6972 36.5406 23.9014C35.8736 25.1056 35.5216 26.3955 34.9867 27.6321C34.4517 28.8687 33.6875 29.9734 32.6315 30.8418C31.5755 31.7102 30.3551 32.2567 29.042 32.4976C27.8448 32.7176 26.5827 32.743 25.4387 33.1946C24.9037 33.4054 24.3989 33.7041 24.0237 34.1487C23.5536 34.7045 23.3336 35.3784 23.2549 36.094C23.0743 37.6988 23.3892 39.3894 23.7366 40.9525C24.0839 42.5157 24.5818 44.19 24.9431 45.8249C25.5799 48.7197 25.7999 51.9664 24.1418 54.574C23.3591 55.8037 22.2985 56.8273 21.4463 58.006C20.7006 59.0365 20.2004 60.1597 20.0823 61.4334C19.9781 62.5519 20.1726 63.7329 20.7284 64.7171C21.3305 65.7894 22.3587 66.5119 23.5629 66.7527C25.0519 67.0492 26.5595 66.7134 28.0555 66.6717C28.8058 66.6508 29.5399 66.7203 30.2555 66.9496C30.9711 67.1788 31.5941 67.5193 32.2054 67.9129C33.4698 68.7281 34.593 69.7424 35.8042 70.634C37.0153 71.5256 38.3932 72.3778 39.8591 72.922C41.325 73.4662 42.8604 73.6816 44.3818 73.4569C45.6138 73.274 46.7463 72.7576 47.7212 71.991C49.4094 70.6664 50.521 68.7513 51.6233 66.9473C52.7256 65.1433 53.8279 63.2837 55.5879 62.1212C56.6347 61.4287 57.818 61.1462 59.0477 60.9679C60.4025 60.771 61.8035 60.6599 63.0448 60.0323C65.4833 58.8026 66.1271 55.8569 66.1433 53.3513C66.1503 52.2744 66.0067 51.1929 65.8538 50.1277C65.6755 48.8748 65.4463 47.6289 65.1869 46.39C64.9762 45.3849 64.7492 44.3822 64.4713 43.3957C64.3509 42.9649 63.6793 43.1479 63.802 43.5809L63.7951 43.5786Z" fill="#395F20"/>
<path d="M61.4168 43.9098C61.9564 45.8249 62.3385 47.798 62.6256 49.7664C62.9128 51.7348 63.0818 53.8746 62.3084 55.7712C61.8846 56.8064 61.1204 57.6262 60.062 58.0222C58.9366 58.4437 57.7161 58.4877 56.5444 58.6938C55.5324 58.8721 54.5667 59.2032 53.7214 59.8007C52.9896 60.3171 52.3736 60.9632 51.8248 61.6672C49.6387 64.4832 48.233 69.0106 44.2058 69.615C41.4686 70.0249 38.9142 68.5776 36.8092 66.9889C35.7972 66.2247 34.8431 65.3725 33.7616 64.7009C32.6801 64.0294 31.469 63.6102 30.1675 63.6148C28.8869 63.6171 27.5877 63.9413 26.3117 63.7445C25.258 63.5824 24.4105 62.9965 23.9357 62.0401C23.5096 61.1786 23.4309 60.1365 23.6161 59.2009C23.8361 58.087 24.466 57.1653 25.177 56.3016C25.9806 55.3243 26.8698 54.3887 27.4326 53.2424C27.9953 52.0961 28.2315 50.834 28.257 49.5672C28.3126 46.8022 27.377 44.1784 26.7772 41.5176C26.4761 40.179 26.2052 38.7479 26.3441 37.3723C26.402 36.8049 26.5966 36.2584 27.0157 35.8601C27.3677 35.5266 27.8262 35.339 28.2871 35.214C29.3246 34.9291 30.413 34.9222 31.4551 34.6582C32.569 34.3757 33.6018 33.8268 34.4818 33.0904C35.3873 32.3331 36.0774 31.3698 36.5545 30.2952C37.0315 29.2207 37.3372 28.1277 37.8629 27.1018C38.3886 26.0759 39.1806 25.219 40.2945 24.8022C41.4778 24.3599 42.7677 24.3691 43.9905 24.6355C45.3475 24.9319 46.6235 25.4969 47.8902 26.0504C49.1848 26.6131 50.4816 27.1805 51.8271 27.6159C53.1147 28.0327 54.4324 28.3037 55.7848 28.3778C56.9033 28.438 58.0496 28.4056 59.1427 28.6904C60.2357 28.9752 61.1157 29.663 61.4816 30.7538C61.8475 31.8445 61.7595 33.014 61.6067 34.1209C61.426 35.4178 61.1875 36.7331 61.4098 38.0416C61.521 38.6877 61.7804 39.2481 62.1069 39.8108C62.3894 40.3041 62.4681 40.7163 62.2435 41.2466C61.8753 42.1127 61.1574 42.8746 61.3936 43.8843C61.4955 44.3197 62.1648 44.1344 62.0629 43.699C61.9494 43.2173 62.2157 42.7588 62.4427 42.3536C62.6812 41.9251 62.9545 41.4851 63.0471 40.9965C63.1652 40.3782 62.9429 39.8618 62.6326 39.3361C62.2921 38.7548 62.086 38.1435 62.0328 37.4696C61.8336 35.0032 63.0726 32.4327 61.9448 30.0567C60.8471 27.7409 58.1006 27.7965 55.9145 27.69C53.0336 27.5487 50.4121 26.3931 47.8046 25.2607C45.3915 24.2117 42.638 23.1441 40.0281 24.1653C38.8865 24.6123 38.0041 25.4228 37.4044 26.4881C36.8046 27.5533 36.4942 28.6904 36.0265 29.7835C35.5587 30.8765 34.9056 31.8352 33.9909 32.5995C33.0761 33.3637 31.953 33.8801 30.7742 34.0955C29.7182 34.2877 28.6067 34.3108 27.5993 34.7115C26.4831 35.1561 25.8115 36.0338 25.6633 37.231C25.4919 38.6182 25.7536 40.0841 26.0477 41.4388C26.358 42.87 26.7795 44.2757 27.1037 45.7045C27.6827 48.2565 27.9397 51.1512 26.5062 53.4786C25.8208 54.5902 24.8713 55.5049 24.1025 56.554C23.4401 57.4571 22.9886 58.4367 22.8635 59.5552C22.6273 61.6696 23.681 63.8997 25.8949 64.3721C27.2102 64.6523 28.5488 64.3605 29.8711 64.3165C30.5218 64.2957 31.1587 64.3443 31.7862 64.5365C32.4138 64.7287 32.9881 65.0321 33.5347 65.3818C34.6532 66.095 35.642 66.9889 36.7073 67.7763C37.8235 68.6007 39.0138 69.3348 40.3199 69.8211C41.626 70.3074 42.9924 70.4973 44.3448 70.2959C45.4401 70.1338 46.4452 69.6706 47.3136 68.9874C48.7957 67.8203 49.773 66.1413 50.7433 64.555C51.6997 62.9919 52.6978 61.2967 54.2679 60.2731C56.2479 58.9832 58.7467 59.495 60.8124 58.4529C62.9822 57.3599 63.5589 54.7338 63.5658 52.5037C63.5681 51.5542 63.4431 50.6047 63.3088 49.6668C63.1513 48.5668 62.9521 47.4738 62.7229 46.3853C62.5376 45.4938 62.3361 44.6068 62.0884 43.7291C61.9679 43.2984 61.2964 43.4813 61.4191 43.9144L61.4168 43.9098Z" fill="#395F20"/>
<path d="M59.0384 44.241C59.5062 45.8991 59.8374 47.6081 60.0852 49.3125C60.333 51.0193 60.4789 52.8626 59.8073 54.4976C59.4344 55.4077 58.7513 56.1071 57.818 56.4359C56.8848 56.7648 55.8033 56.8157 54.7959 56.9987C53.9136 57.1584 53.0753 57.4595 52.3435 57.9875C51.6997 58.453 51.1624 59.0273 50.6808 59.6549C48.8142 62.0888 47.573 66.021 44.0692 66.461C41.7001 66.7574 39.5302 65.4999 37.717 64.1197C35.9987 62.8113 34.3683 61.2597 32.0711 61.2481C30.941 61.2412 29.7923 61.5376 28.6645 61.3593C27.7614 61.2157 27.0412 60.7062 26.6405 59.8818C26.2816 59.1408 26.2237 58.2445 26.3881 57.4456C26.5873 56.4845 27.1431 55.6902 27.7591 54.9445C28.433 54.1271 29.1763 53.3397 29.6557 52.3833C30.1351 51.4269 30.3666 50.3106 30.4014 49.2176C30.4732 46.8092 29.6627 44.5189 29.1347 42.2031C28.8683 41.0405 28.6344 39.8062 28.7433 38.609C28.7873 38.1111 28.9517 37.6294 29.3222 37.282C29.621 36.9995 30.0147 36.8443 30.406 36.7378C31.2883 36.497 32.2146 36.4854 33.1016 36.2677C34.0835 36.0269 34.9936 35.5452 35.7694 34.8991C36.5452 34.253 37.1334 33.4494 37.5479 32.5439C37.9624 31.6384 38.2403 30.6403 38.6965 29.7372C39.1528 28.834 39.8128 28.0976 40.7715 27.7317C41.7302 27.3658 42.8626 27.3426 43.8955 27.558C45.0974 27.8081 46.2275 28.3083 47.3483 28.797C48.4692 29.2856 49.546 29.7534 50.6831 30.1285C51.8201 30.5037 52.9618 30.7469 54.1452 30.814C55.1155 30.8696 56.1066 30.8349 57.0561 31.0734C58.0056 31.3119 58.7605 31.87 59.0824 32.7963C59.4043 33.7226 59.3395 34.7671 59.2052 35.7328C59.05 36.8559 58.8462 37.986 59.0292 39.1184C59.1172 39.665 59.3256 40.1582 59.6035 40.633C59.8652 41.0822 59.9601 41.4389 59.7471 41.9252C59.4159 42.6801 58.8184 43.3355 59.0199 44.2178C59.1195 44.6532 59.7888 44.4679 59.6892 44.0325C59.5942 43.6203 59.8328 43.2267 60.025 42.8793C60.2357 42.5018 60.4719 42.1128 60.546 41.6797C60.6386 41.1448 60.4418 40.6978 60.1778 40.2416C59.8791 39.7275 59.7031 39.1902 59.6591 38.5928C59.5062 36.4553 60.5645 34.2344 59.5688 32.178C58.573 30.1216 56.1854 30.2212 54.2702 30.1239C51.7808 29.9965 49.5113 28.9822 47.258 28.005C45.1576 27.0949 42.7654 26.1871 40.5005 27.0925C39.5279 27.4816 38.773 28.1763 38.2565 29.0818C37.7401 29.9873 37.4576 30.997 37.0523 31.9511C36.2302 33.8871 34.5976 35.3043 32.5064 35.6818C31.5894 35.8462 30.626 35.8694 29.753 36.2214C28.7873 36.6104 28.2014 37.3816 28.0694 38.4168C27.9165 39.621 28.1412 40.8923 28.3936 42.0688C28.6692 43.3494 29.049 44.6045 29.3338 45.8829C29.8271 48.0898 30.017 50.5746 28.7525 52.5685C28.1574 53.5088 27.3469 54.2892 26.6961 55.1877C26.1264 55.9728 25.7443 56.8273 25.6401 57.7976C25.4433 59.6248 26.3511 61.5445 28.2477 61.9845C29.3778 62.2462 30.5334 61.9984 31.6728 61.9521C32.8121 61.9058 33.8728 62.2115 34.8662 62.8391C35.8597 63.4667 36.6911 64.2239 37.6104 64.9071C38.5298 65.5902 39.5742 66.2433 40.6858 66.674C42.6982 67.4544 45.0279 67.4104 46.7879 66.0673C48.1149 65.0553 48.9856 63.5894 49.8424 62.186C50.6993 60.7826 51.5191 59.3723 52.8599 58.4761C54.5829 57.3252 56.7643 57.7768 58.5706 56.869C60.377 55.9612 60.9744 53.6477 60.9883 51.7024C60.9953 50.8826 60.8864 50.0605 60.773 49.25C60.6363 48.282 60.4603 47.3186 60.2589 46.3599C60.0968 45.5888 59.9231 44.8176 59.7077 44.058C59.5873 43.6273 58.9157 43.8102 59.0384 44.2433V44.241Z" fill="#395F20"/>
<path d="M56.6578 44.5721C57.0515 45.9709 57.3317 47.4113 57.5401 48.8494C57.7486 50.2875 57.8713 51.8136 57.3201 53.1846C57.0144 53.9465 56.4494 54.5393 55.669 54.8172C54.8469 55.109 53.9646 55.1414 53.1123 55.2943C51.6742 55.5536 50.565 56.3248 49.6757 57.4641C48.0824 59.5044 47.0542 62.8437 44.1317 63.286C42.1517 63.5848 40.3014 62.5311 38.7822 61.3825C37.2631 60.2338 35.9338 58.9277 33.9839 58.8884C32.4046 58.8559 30.2694 59.5761 29.3755 57.7907C29.0698 57.1793 29.0142 56.4313 29.1462 55.769C29.3107 54.9492 29.7808 54.273 30.3064 53.6385C30.8854 52.9391 31.5199 52.2652 31.9229 51.4431C32.3258 50.621 32.5227 49.6623 32.5481 48.7244C32.5968 46.7235 31.9368 44.8176 31.4898 42.8932C31.2606 41.9044 31.0637 40.8646 31.1378 39.8456C31.1702 39.4172 31.2999 39.0004 31.6218 38.7016C31.8789 38.4631 32.2193 38.3357 32.5528 38.2477C33.3123 38.0486 34.1067 38.0416 34.8662 37.8425C35.6814 37.6271 36.4387 37.2195 37.0824 36.6799C37.7262 36.1404 38.2334 35.4503 38.5831 34.6837C38.9328 33.9172 39.162 33.102 39.5349 32.3471C39.9077 31.5921 40.445 30.9761 41.237 30.6566C42.0776 30.3208 43.0155 30.3138 43.8932 30.4968C44.9029 30.7075 45.8523 31.129 46.7949 31.5389C47.7374 31.9488 48.6614 32.3517 49.6271 32.669C50.5928 32.9863 51.5399 33.1877 52.5311 33.2479C53.3486 33.2966 54.1869 33.2641 54.9881 33.461C55.7894 33.6578 56.4332 34.1233 56.7018 34.9153C56.9704 35.7073 56.901 36.6105 56.7829 37.4395C56.6486 38.382 56.4888 39.3361 56.6578 40.2856C56.7366 40.7372 56.9172 41.1401 57.1441 41.5338C57.3711 41.9275 57.429 42.21 57.2368 42.6199C56.9403 43.2498 56.4749 43.8056 56.6416 44.5444C56.7389 44.9797 57.4081 44.7968 57.3109 44.3591C57.2368 44.0256 57.4313 43.7084 57.5888 43.4281C57.7671 43.1086 57.9686 42.7797 58.0357 42.4138C58.1191 41.9576 57.9732 41.5709 57.7462 41.1795C57.4869 40.7303 57.3248 40.2764 57.29 39.7576C57.165 37.9374 58.0658 36.0408 57.1951 34.2947C56.3243 32.5486 54.3304 32.6412 52.7071 32.5601C50.5951 32.4536 48.6753 31.5968 46.7648 30.7677C44.9932 30.0012 42.9738 29.237 41.061 29.9827C40.2134 30.3138 39.5534 30.9044 39.1018 31.6917C38.6502 32.4791 38.4279 33.2896 38.0944 34.0886C37.4113 35.7281 36.0473 36.9347 34.278 37.2566C33.486 37.4001 32.657 37.4187 31.9043 37.729C31.0892 38.0648 30.589 38.7248 30.4755 39.6001C30.3412 40.6237 30.5311 41.7052 30.7441 42.7033C30.9688 43.7593 31.2814 44.7945 31.5222 45.8481C31.9576 47.7564 32.1406 49.9008 31.0243 51.6214C30.5102 52.4134 29.8248 53.0734 29.2782 53.8399C28.7989 54.5115 28.4886 55.2479 28.4144 56.0747C28.2709 57.6332 29.0675 59.2473 30.6816 59.6109C31.645 59.8286 32.6269 59.6178 33.5972 59.5808C34.5675 59.5437 35.4475 59.8124 36.2835 60.345C37.1195 60.8776 37.8258 61.5214 38.6039 62.0957C39.4237 62.7001 40.2944 63.2351 41.2486 63.5964C42.9692 64.2448 44.933 64.1707 46.422 63.0244C47.5336 62.1675 48.2677 60.9309 48.9879 59.7521C49.7081 58.5734 50.4191 57.346 51.5747 56.598C53.0406 55.6486 54.9071 56.0469 56.4239 55.2364C57.9848 54.4027 58.4039 52.5014 58.4201 50.8711C58.4363 49.3612 58.1121 47.8166 57.8041 46.3437C57.6675 45.686 57.517 45.0284 57.3363 44.3799C57.2159 43.9492 56.5443 44.1321 56.6671 44.5652L56.6578 44.5721Z" fill="#395F20"/>
<path d="M54.2795 44.9033C54.6037 46.0543 54.833 47.2399 55.0043 48.4233C55.1757 49.6067 55.2683 50.8132 54.8214 51.9109C54.5643 52.5408 54.0942 53.0086 53.4435 53.2239C52.7928 53.4393 52.1027 53.4671 51.4334 53.5875C50.2523 53.8006 49.3307 54.4305 48.5989 55.366C47.3136 57.0056 46.4799 59.7174 44.1456 60.1111C42.5315 60.382 41.01 59.5113 39.7688 58.578C38.5553 57.6633 37.4159 56.554 35.8018 56.5239C34.5443 56.5008 32.8144 57.0844 32.0966 55.6648C31.8511 55.1785 31.8071 54.581 31.9113 54.0507C32.0433 53.386 32.4277 52.8418 32.8515 52.3277C33.3309 51.7488 33.8589 51.186 34.1877 50.5029C34.5166 49.8197 34.6601 49.1111 34.6879 48.377C34.7551 46.7143 34.2039 45.1279 33.8311 43.53C33.6458 42.7357 33.4883 41.9067 33.5347 41.0869C33.5763 40.3528 33.9816 39.9498 34.6671 39.7738C35.2877 39.614 35.9361 39.6094 36.5544 39.4427C37.2098 39.269 37.8142 38.9425 38.3376 38.514C38.861 38.0856 39.3126 37.4928 39.6067 36.8559C39.9008 36.2191 40.0721 35.5938 40.3639 34.9871C40.6719 34.3479 41.1142 33.8176 41.7904 33.5559C42.4667 33.2943 43.2702 33.3012 43.9974 33.4679C45.6092 33.8362 47.0589 34.73 48.6267 35.2372C49.4024 35.4873 50.1968 35.6517 51.0119 35.698C51.665 35.7351 52.3342 35.7119 52.9734 35.8717C53.6126 36.0315 54.1406 36.4368 54.3397 37.0991C54.5389 37.7614 54.4578 38.4816 54.3606 39.1578C54.254 39.9058 54.1406 40.6631 54.2772 41.4157C54.342 41.777 54.4856 42.1058 54.6709 42.4208C54.8561 42.7357 54.9024 42.9488 54.7473 43.2776C54.4972 43.8079 54.129 44.2618 54.2633 44.8825C54.3582 45.3202 55.0275 45.1349 54.9326 44.6972C54.877 44.4332 55.0437 44.1785 55.1664 43.9585C55.3239 43.6783 55.486 43.3911 55.5323 43.0692C55.5833 42.7149 55.4652 42.4115 55.2915 42.1082C55.0784 41.7353 54.9395 41.3717 54.9117 40.9364C54.8144 39.4357 55.5486 37.8842 54.8214 36.446C54.129 35.0751 52.5102 35.0705 51.1833 35.0079C49.4279 34.9269 47.8462 34.2275 46.2576 33.5397C44.7824 32.9006 43.1104 32.2823 41.5218 32.9145C40.8595 33.1785 40.3315 33.6439 39.9633 34.2553C39.5951 34.8667 39.3843 35.5915 39.1064 36.2631C38.5298 37.6595 37.3835 38.6252 35.8806 38.8707C35.2368 38.9749 34.5721 39.0073 33.97 39.2783C33.3378 39.5631 32.958 40.1143 32.8631 40.7974C32.745 41.6519 32.9048 42.5574 33.0854 43.3934C33.2753 44.2804 33.5393 45.1488 33.7361 46.0334C34.0858 47.6035 34.1947 49.3334 33.2452 50.7229C32.8191 51.3482 32.2679 51.8785 31.8372 52.5014C31.4528 53.0595 31.2142 53.6778 31.1656 54.3587C31.0753 55.6486 31.7608 56.957 33.0923 57.2465C33.8913 57.4201 34.6949 57.2465 35.4984 57.2187C36.302 57.1909 36.9713 57.4109 37.6359 57.837C38.3006 58.2631 38.9212 58.8189 39.5719 59.2983C40.2574 59.8008 40.9869 60.2431 41.7881 60.5326C43.2147 61.0467 44.8149 60.9471 46.0307 59.9953C46.9269 59.2936 47.522 58.2886 48.1056 57.3322C48.6892 56.3757 49.2797 55.3545 50.2361 54.7524C51.4288 53.9997 52.9456 54.3216 54.173 53.6593C55.4559 52.9646 55.8102 51.4037 55.8264 50.0536C55.8403 48.8031 55.5717 47.5225 55.317 46.3044C55.2058 45.7717 55.0854 45.2414 54.9372 44.718C54.8168 44.2873 54.1452 44.4703 54.2679 44.9033H54.2795Z" fill="#395F20"/>
</g>
<defs>
<clipPath id="clip0_23_1602">
<rect width="95.7509" height="83.5606" fill="white" transform="matrix(0 1 -1 0 84.1579 0)"/>
</clipPath>
</defs>
</svg>
