<svg width="112" height="121" viewBox="0 0 112 121" fill="none" xmlns="http://www.w3.org/2000/svg">
<g clip-path="url(#clip0_23_1617)">
<path d="M67.0781 32.5598C75.2239 31.3217 83.8036 32.1309 91.358 35.5303C98.3126 38.6599 104.155 44.0396 107.586 50.8786C109.25 54.1943 110.314 57.8265 110.58 61.5308C110.858 65.4077 110.317 69.6716 107.557 72.627C105.292 75.053 102.055 76.075 98.8806 76.6681C95.4963 77.2997 92.0416 77.5041 88.6807 78.2681C85.3366 79.0287 81.7027 80.5199 80.2384 83.874C78.7288 87.3337 79.8647 91.1754 79.662 94.7943C79.3152 101.033 76.1705 107.155 72.2785 111.925C70.4054 114.222 68.2358 116.342 65.716 117.923C63.6569 119.215 61.2443 120.208 58.7681 120.028C56.2667 119.845 53.6112 118.538 51.8085 116.819C50.0912 115.182 49.0541 113.019 48.4928 110.737C47.2614 105.735 47.9148 100.424 48.1377 95.3421C48.2432 92.9497 48.3102 90.5321 47.9969 88.1513C47.8411 86.9601 47.5781 85.7856 47.1542 84.6598C46.5192 82.971 45.3632 81.8267 43.5672 81.4614C40.0857 80.7561 36.2976 82.2505 33.3254 83.9461C30.0215 85.8309 27.1063 88.3004 24.0253 90.5103C21.224 92.5208 18.1882 94.1208 14.7955 94.8579C11.701 95.5298 8.21451 95.4745 5.51376 93.6299C2.18139 91.353 1.47771 87.2081 0.956665 83.4903C0.387032 79.4241 0.041893 75.0681 2.33552 71.4408C3.96066 68.8725 6.50057 67.0563 9.00195 65.4178C11.5033 63.7792 14.2141 62.2144 16.4742 60.157C18.8918 57.9555 20.5673 55.1442 20.971 51.8621C21.4452 48.0103 20.2238 44.1402 18.6037 40.6922C15.092 33.2216 8.66519 26.9673 7.3366 18.5518C6.72675 14.6849 7.65995 10.7377 10.2686 7.77222C12.5572 5.17032 15.7387 3.50832 18.9907 2.43774C22.8575 1.16611 26.9723 0.66181 31.0268 0.531129C35.6576 0.380342 40.3052 0.817622 44.8254 1.84129C48.7106 2.72088 52.5021 4.12654 54.7991 7.5762C56.7023 10.4344 57.3323 13.9377 57.5501 17.3069C57.6623 19.0443 57.664 20.7851 57.6288 22.5241C57.5953 24.161 57.3675 25.8783 57.592 27.5051C57.9153 29.8473 59.5002 31.5093 61.7235 32.2029C63.4073 32.729 65.2703 32.7776 67.006 32.5028C67.3244 32.4526 67.1887 31.9684 66.872 32.0186C64.9939 32.3185 62.8778 32.2197 61.122 31.4473C60.0565 30.9782 59.1467 30.2176 58.6123 29.1721C57.8818 27.7397 58.0259 26.143 58.0745 24.5899C58.2789 18.1815 58.5955 10.2367 53.6196 5.37137C50.6323 2.44946 46.2646 1.51794 42.2855 0.824324C37.7133 0.0285079 33.044 -0.192645 28.4182 0.179294C21.5825 0.728826 13.5607 2.46622 9.20634 8.29159C6.94791 11.3123 6.26434 15.1038 6.86581 18.7863C7.53932 22.9112 9.55483 26.7327 11.7228 30.2528C13.9477 33.8649 16.4625 37.271 18.2535 41.1362C20.0445 45.0013 21.1821 49.0357 20.2489 53.0902C18.6858 59.8806 11.7965 62.6835 6.69157 66.3979C4.35103 68.1018 2.17636 70.1474 1.02703 72.8582C-0.631615 76.7636 0.0620041 81.2453 0.720444 85.2981C1.29678 88.8483 2.48464 92.4638 5.75838 94.3838C8.4608 95.9687 11.7764 96.0022 14.7687 95.3807C18.1597 94.6753 21.2458 93.1071 24.0504 91.1117C27.1918 88.8768 30.1472 86.3553 33.4997 84.4286C35.1583 83.4753 36.9175 82.6811 38.7805 82.2271C40.6436 81.7731 42.8702 81.4799 44.6394 82.3444C46.3048 83.1586 46.8761 85.0719 47.248 86.7591C47.4943 87.8782 47.6116 89.0225 47.6702 90.1651C47.9333 95.379 47.1106 100.586 47.3402 105.803C47.5496 110.565 48.7592 115.546 52.9343 118.369C54.97 119.746 57.592 120.735 60.0766 120.525C62.5712 120.316 64.9101 119.15 66.9273 117.722C71.992 114.138 75.8589 108.675 78.1893 102.975C79.3202 100.211 80.1094 97.2471 80.1864 94.2481C80.2836 90.3762 78.955 85.8292 81.6457 82.5136C84.0147 79.5934 88.1077 78.7808 91.6277 78.2329C95.0422 77.7018 98.5405 77.4756 101.868 76.4855C105.008 75.5506 107.862 73.7747 109.471 70.836C111.29 67.5104 111.403 63.4643 110.902 59.7935C109.9 52.4485 105.932 45.6748 100.429 40.7776C94.4676 35.4716 86.7339 32.5414 78.8511 31.7439C74.8855 31.3418 70.8829 31.4792 66.9457 32.0773C66.6274 32.1259 66.7631 32.6101 67.0798 32.5615L67.0781 32.5598Z" fill="#395F20"/>
<path d="M66.2688 34.2923C73.8919 33.1162 81.9271 33.855 89.0074 37.0215C95.5263 39.9367 101.008 44.9629 104.237 51.3596C105.813 54.4842 106.822 57.9121 107.068 61.4087C107.321 65.0108 106.815 68.9647 104.259 71.7141C102.144 73.9893 99.1167 74.9526 96.1462 75.5139C92.9781 76.1137 89.7412 76.3114 86.5948 77.0351C83.4601 77.7556 80.0523 79.1629 78.6886 82.3127C77.2728 85.5814 78.3602 89.2019 78.1658 92.6164C77.8341 98.4585 74.8921 104.192 71.2481 108.66C69.4973 110.808 67.4684 112.792 65.1094 114.266C63.1978 115.461 60.9628 116.379 58.6675 116.216C56.3152 116.049 53.8172 114.822 52.1251 113.205C50.525 111.677 49.56 109.659 49.0323 107.532C47.8796 102.883 48.4677 97.9442 48.667 93.2179C48.7625 90.9628 48.8228 88.6825 48.5296 86.4375C48.3889 85.3652 48.1544 84.3131 47.7908 83.2944C47.2094 81.6693 46.1623 80.5116 44.4333 80.1397C41.1796 79.4393 37.606 80.845 34.8249 82.4299C31.7287 84.1925 29.0012 86.5112 26.1228 88.5904C23.4807 90.5004 20.6258 92.0283 17.4191 92.732C14.5491 93.3619 11.3139 93.3268 8.79078 91.6413C5.65443 89.5454 4.96081 85.697 4.46489 82.2222C3.92038 78.4157 3.55515 74.3193 5.67955 70.9032C7.19411 68.4671 9.58492 66.7465 11.9422 65.1951C14.2995 63.6437 16.7791 62.2045 18.8817 60.2945C21.1452 58.2405 22.7351 55.6135 23.1222 52.5441C23.5796 48.9001 22.4302 45.2494 20.8889 41.9908C17.5833 35.0027 11.5502 29.1572 10.2886 21.2778C9.71392 17.6924 10.5566 14.0183 12.9575 11.2455C15.097 8.77424 18.0926 7.19266 21.1586 6.17737C24.7423 4.98951 28.5572 4.50867 32.3185 4.36961C36.6544 4.21045 41.0088 4.59914 45.2442 5.53904C48.915 6.35329 52.5154 7.65005 54.6934 10.9054C56.4811 13.5759 57.0792 16.853 57.2886 20.0061C57.3975 21.633 57.4026 23.2648 57.3741 24.8933C57.3456 26.428 57.1379 28.0363 57.3506 29.561C57.6572 31.7608 59.1534 33.3206 61.2409 33.9673C62.8225 34.4565 64.5699 34.5 66.1984 34.237C66.5168 34.1851 66.3811 33.7009 66.0644 33.7528C64.3086 34.036 62.3333 33.9488 60.6897 33.2318C59.6928 32.7962 58.8401 32.0875 58.3391 31.1107C57.6522 29.7737 57.7846 28.2793 57.8281 26.8267C58.0074 20.7986 58.2855 13.3096 53.5558 8.76921C50.7512 6.07684 46.6833 5.22071 42.9774 4.58239C38.6917 3.84521 34.3155 3.64751 29.9813 4.00605C23.5494 4.53715 16.0017 6.19747 11.9439 11.7146C7.18575 18.1816 10.6689 26.2236 14.3933 32.2366C16.4859 35.6142 18.8482 38.8008 20.5353 42.418C22.1488 45.881 23.3081 49.8635 22.4085 53.6851C20.9207 60.0147 14.4603 62.6351 9.70721 66.1249C7.51579 67.735 5.49861 69.6667 4.43641 72.22C2.91012 75.8908 3.58363 80.1129 4.21693 83.9093C4.77148 87.2333 5.92416 90.5958 9.00858 92.3634C11.5368 93.8109 14.6212 93.8311 17.4023 93.2463C20.5789 92.5779 23.4673 91.1035 26.091 89.2271C29.0531 87.111 31.8359 84.7185 35.0024 82.9041C36.5555 82.0144 38.2025 81.2739 39.9482 80.8551C41.694 80.4362 43.7782 80.1665 45.4167 81.0059C46.9347 81.7849 47.4574 83.5759 47.7992 85.134C48.0287 86.1795 48.1393 87.2467 48.1946 88.3156C48.4459 93.2061 47.6852 98.0899 47.9198 102.982C48.1326 107.414 49.2769 112.039 53.1554 114.673C55.0587 115.965 57.5182 116.896 59.8436 116.709C62.1691 116.521 64.3706 115.434 66.2621 114.1C71.0102 110.748 74.6307 105.623 76.8138 100.283C77.8827 97.6694 78.6282 94.8665 78.6936 92.0317C78.7774 88.4061 77.5242 84.159 80.0306 81.0477C82.2371 78.3085 86.0737 77.5394 89.3659 77.0201C92.5391 76.5191 95.7877 76.2996 98.8822 75.3832C101.977 74.4668 104.508 72.8651 106.031 70.1241C107.765 67.0062 107.869 63.198 107.398 59.7433C106.463 52.8725 102.746 46.5328 97.6005 41.9489C91.9929 36.9545 84.7133 34.2052 77.2929 33.4697C73.5752 33.1011 69.8257 33.2385 66.1364 33.8081C65.8181 33.8567 65.9538 34.3409 66.2705 34.2923H66.2688Z" fill="#395F20"/>
<path d="M65.4596 36.0246C72.56 34.9105 80.0507 35.579 86.6551 38.5126C92.7385 41.215 97.8602 45.8844 100.884 51.8388C102.36 54.7456 103.309 57.9372 103.547 61.1942C103.793 64.5718 103.322 68.2812 100.911 70.8496C98.9308 72.9589 96.1044 73.8468 93.34 74.3712C90.3862 74.9308 87.3688 75.1252 84.4369 75.8154C81.4982 76.5074 78.3501 77.8561 77.1053 80.8232C75.8605 83.7904 76.8557 87.2434 76.6714 90.4183C76.3564 95.8432 73.6423 101.168 70.268 105.328C68.6462 107.326 66.7681 109.174 64.5834 110.553C62.7991 111.679 60.7115 112.547 58.5636 112.4C56.3772 112.249 54.0501 111.113 52.4719 109.613C50.9908 108.206 50.0878 106.348 49.5902 104.388C48.4878 100.043 49.0273 95.4176 49.2032 90.9963C49.2869 88.892 49.3372 86.7675 49.0591 84.675C48.9267 83.6748 48.7056 82.693 48.3621 81.7413C47.8143 80.2201 46.8325 79.1394 45.2124 78.796C42.1715 78.1493 38.8391 79.4695 36.2456 80.9556C33.3639 82.6059 30.8257 84.7738 28.1467 86.7206C25.6889 88.5066 23.0317 89.9391 20.0445 90.6025C17.3521 91.2007 14.3163 91.1688 11.9556 89.5739C9.04211 87.6036 8.41551 83.9931 7.9464 80.7562C7.43708 77.2446 7.11037 73.4682 9.0572 70.3118C10.4511 68.0516 12.6543 66.4466 14.8323 65.0041C17.0103 63.5616 19.3492 62.1961 21.3161 60.4084C23.4171 58.4985 24.9015 56.0641 25.2734 53.2143C25.7174 49.8182 24.6485 46.4105 23.2127 43.3713C20.1299 36.8506 14.4905 31.424 13.2558 24.0907C12.6895 20.7282 13.4551 17.2735 15.7018 14.6633C17.6721 12.3747 20.4315 10.9003 23.2579 9.94533C26.5852 8.82113 30.1304 8.35872 33.6286 8.21296C37.7032 8.04375 41.7962 8.39391 45.7803 9.26679C49.1998 10.0157 52.559 11.2136 54.5946 14.2394C56.2516 16.7006 56.8212 19.723 57.0307 22.6348C57.1412 24.1762 57.1513 25.7226 57.1278 27.2673C57.106 28.6998 56.9167 30.2009 57.1178 31.6217C57.4093 33.6791 58.8133 35.135 60.7685 35.7348C62.2479 36.1888 63.8814 36.224 65.401 35.9744C65.7193 35.9224 65.5836 35.4382 65.2669 35.4902C63.6351 35.7583 61.7972 35.6812 60.2659 35.0194C59.3377 34.6173 58.5435 33.9605 58.0744 33.0542C57.4328 31.811 57.5534 30.4204 57.5886 29.07C57.741 23.4407 57.9789 16.4593 53.5559 12.2289C50.9104 9.70072 47.0654 8.91328 43.5755 8.33024C39.5746 7.66176 35.4917 7.49589 31.4506 7.8494C25.4594 8.3738 18.4294 9.96041 14.6916 15.1374C10.3054 21.2124 13.616 28.7065 17.1159 34.304C19.0794 37.4471 21.2843 40.4125 22.8575 43.7868C24.4307 47.161 25.4309 50.7213 24.5731 54.2731C23.1641 60.1152 17.2013 62.5613 12.8034 65.8032C10.7527 67.3145 8.86787 69.1272 7.87938 71.5231C6.47205 74.9292 7.10032 78.8295 7.68839 82.3478C8.20776 85.454 9.26662 88.6138 12.1416 90.2825C14.5156 91.6597 17.4225 91.6782 20.0395 91.1186C23.0016 90.4869 25.6923 89.1047 28.1367 87.3472C30.8927 85.3669 33.4829 83.1302 36.4316 81.4297C37.8775 80.597 39.4088 79.9034 41.0339 79.508C42.6323 79.1193 44.5941 78.858 46.1204 79.6337C47.5345 80.3541 48.0237 82.0195 48.3454 83.467C48.5615 84.4404 48.667 85.4339 48.7207 86.4274C48.9669 90.9862 48.2683 95.5433 48.4995 100.104C48.7106 104.26 49.8013 108.595 53.462 111.037C55.2464 112.229 57.5383 113.08 59.7079 112.889C61.8776 112.698 63.9182 111.679 65.6741 110.428C70.0787 107.293 73.4328 102.523 75.455 97.5521C76.4452 95.1178 77.1372 92.5125 77.1991 89.8737C77.2796 86.5146 76.1018 82.6075 78.3384 79.6823C80.3405 77.0636 83.956 76.3181 87.0271 75.8205C90.0093 75.3363 93.0635 75.1285 95.9704 74.259C98.6862 73.4464 101.171 71.9268 102.595 69.4037C104.232 66.5019 104.337 62.9383 103.898 59.7132C103.022 53.2763 99.5373 47.3403 94.7037 43.058C89.4581 38.4104 82.6626 35.8655 75.7365 35.1953C72.2684 34.8602 68.7702 34.9976 65.3289 35.5388C65.0106 35.589 65.1463 36.0732 65.463 36.023L65.4596 36.0246Z" fill="#395F20"/>
<path d="M64.6504 37.7587C71.2549 36.7015 78.2312 37.3097 84.3783 40.0373C89.9909 42.5269 94.7189 46.826 97.5285 52.3079C98.8973 54.9802 99.7853 57.9138 100.023 60.9128C100.269 64.0139 99.8741 67.4385 97.7044 69.836C95.8883 71.8431 93.2596 72.6976 90.6778 73.2019C87.9402 73.7363 85.1423 73.9239 82.4231 74.5639C79.6721 75.2123 76.72 76.4706 75.559 79.2534C74.3979 82.0362 75.3328 85.1759 75.1837 88.1079C74.9257 93.1358 72.4343 98.0816 69.3281 101.95C67.822 103.827 66.0728 105.564 64.0339 106.859C62.3853 107.906 60.4535 108.717 58.4632 108.586C56.4728 108.456 54.2914 107.412 52.8288 106.035C51.4449 104.731 50.5988 103.004 50.1314 101.181C49.1044 97.1668 49.5869 92.8895 49.7377 88.8032C49.8097 86.8698 49.8499 84.9179 49.5969 82.9963C49.4746 82.0647 49.2719 81.1533 48.9569 80.267C48.4543 78.8513 47.568 77.8075 46.0585 77.4691C44.6562 77.1541 43.1366 77.3686 41.7628 77.7321C40.3889 78.0957 38.995 78.7206 37.725 79.4478C35.0293 80.9908 32.6637 83.0281 30.1639 84.8559C27.9089 86.5062 25.4728 87.8315 22.7285 88.4631C20.2389 89.0344 17.4242 89.0327 15.2227 87.5818C12.4818 85.7741 11.8836 82.4082 11.4363 79.3925C10.9555 76.1405 10.6405 72.6439 12.4348 69.7137C13.7199 67.6161 15.7572 66.1233 17.7693 64.7813C19.8133 63.4192 21.9545 62.1626 23.7756 60.4973C25.7426 58.6979 27.1181 56.4043 27.4414 53.7253C27.8201 50.5956 26.8215 47.461 25.4896 44.6664C22.6129 38.6283 17.3672 33.6121 16.2011 26.8133C15.6684 23.7021 16.3653 20.5021 18.4378 18.0778C20.2724 15.9333 22.8508 14.5544 25.4913 13.6614C28.6109 12.6076 31.9382 12.1737 35.2186 12.0396C38.9648 11.8888 42.7295 12.2105 46.3936 13.0097C49.5567 13.6999 52.6478 14.8191 54.5193 17.6221C56.0606 19.9308 56.5834 22.7572 56.7744 25.4797C56.8749 26.9105 56.8849 28.3446 56.8648 29.7771C56.8464 31.0688 56.6822 32.4226 56.8732 33.7042C57.158 35.6243 58.4916 36.9679 60.3178 37.5124C61.6833 37.9179 63.1861 37.9447 64.5868 37.7101C64.9051 37.6565 64.7694 37.1723 64.4527 37.2259C62.9633 37.4756 61.2946 37.4102 59.8873 36.8305C59.0278 36.477 58.2806 35.8856 57.8299 35.0613C57.2183 33.9405 57.3021 32.6806 57.3323 31.4475C57.4596 26.2202 57.6975 19.7398 53.638 15.7774C51.212 13.4084 47.6803 12.6662 44.4484 12.1234C40.7357 11.4985 36.9477 11.341 33.1964 11.6643C27.6123 12.1452 21.0732 13.6044 17.5499 18.3894C15.7304 20.8589 15.2026 23.9551 15.7153 26.944C16.2933 30.3132 17.9737 33.4245 19.7748 36.286C21.606 39.1962 23.6584 41.9405 25.126 45.0668C26.525 48.0474 27.5285 51.4836 26.7461 54.7758C25.4561 60.194 19.9356 62.4759 15.8694 65.4933C13.9662 66.9057 12.2221 68.5928 11.309 70.8228C10.0022 74.0094 10.6087 77.6668 11.1749 80.9523C11.6709 83.8306 12.6912 86.7458 15.3752 88.262C17.5984 89.5169 20.2992 89.5119 22.7302 88.9741C25.4795 88.3659 27.9658 87.0641 30.231 85.4222C32.7793 83.5743 35.1768 81.4951 37.911 79.9169C39.2497 79.1445 40.6704 78.5062 42.1766 78.1443C43.6526 77.7891 45.4754 77.5495 46.8727 78.2951C48.1477 78.9753 48.59 80.515 48.8849 81.8369C49.0843 82.7366 49.1831 83.6547 49.2351 84.5728C49.4696 88.7898 48.8397 93.0051 49.0658 97.2238C49.2719 101.072 50.2906 105.085 53.6765 107.348C55.3302 108.454 57.4613 109.246 59.4718 109.077C61.4822 108.908 63.4475 107.93 65.0978 106.74C69.1723 103.803 72.2668 99.3616 74.1215 94.7341C75.0279 92.474 75.6545 90.0514 75.6964 87.6053C75.75 84.484 74.6459 80.8166 76.787 78.1242C78.6786 75.7485 81.9875 75.0682 84.8256 74.6025C87.59 74.1501 90.4215 73.9441 93.1105 73.1214C95.6604 72.3407 97.9725 70.8764 99.2642 68.4755C100.729 65.7564 100.785 62.4608 100.357 59.4719C99.5038 53.5427 96.2435 48.0842 91.7752 44.1554C86.8981 39.8664 80.5868 37.5275 74.165 36.9277C70.9449 36.6261 67.6997 36.7652 64.508 37.2745C64.1897 37.3248 64.3254 37.8107 64.642 37.7587H64.6504Z" fill="#395F20"/>
<path d="M63.8412 39.4911C69.9212 38.496 76.3514 39.0321 82.0227 41.5251C87.2214 43.8103 91.6093 47.776 94.2112 52.8474C95.4728 55.3069 96.2921 58.0094 96.5115 60.7687C96.731 63.5281 96.3708 66.765 94.3653 68.9631C92.6983 70.7893 90.3025 71.5751 87.9419 72.0442C85.4371 72.5418 82.8771 72.7244 80.3891 73.3142C77.8794 73.9089 75.1468 75.0499 74.0561 77.5781C72.9654 80.1062 73.8216 83.1102 73.6926 85.8562C73.4731 90.4854 71.1912 95.0508 68.3463 98.6245C66.9658 100.358 65.3591 101.965 63.486 103.165C61.9714 104.135 60.1989 104.887 58.366 104.773C56.5331 104.659 54.5343 103.711 53.1856 102.454C51.909 101.265 51.1249 99.6883 50.6859 98.0163C49.7176 94.3204 50.1481 90.3731 50.2755 86.6034C50.3358 84.8242 50.3676 83.0298 50.1331 81.2623C50.0208 80.4145 49.8382 79.5852 49.555 78.7793C49.0926 77.4658 48.3018 76.474 46.9012 76.1422C45.6095 75.8356 44.1988 76.0317 42.9305 76.3651C41.6203 76.7085 40.3755 77.2731 39.2027 77.945C36.7181 79.3691 34.5418 81.2522 32.2465 82.9477C30.1556 84.4924 27.9021 85.7406 25.3522 86.3371C23.082 86.8665 20.5153 86.8816 18.4897 85.5814C15.9498 83.9513 15.3685 80.8736 14.9463 78.1041C14.4872 75.0901 14.1638 71.8415 15.8208 69.1156C16.997 67.1805 18.8667 65.8 20.7163 64.5568C22.5978 63.2936 24.5698 62.1275 26.2435 60.5844C28.0563 58.9141 29.3162 56.793 29.6077 54.3168C29.9512 51.4016 28.9995 48.4847 27.743 45.8912C25.059 40.3473 20.207 35.7332 19.1448 29.4639C18.6606 26.6056 19.3157 23.667 21.224 21.4487C22.9178 19.4785 25.2935 18.2085 27.7246 17.3842C30.6046 16.4091 33.6773 16.002 36.7064 15.8763C40.1879 15.7306 43.6844 16.0288 47.0888 16.7727C49.9605 17.401 52.7433 18.4431 54.4405 20.9846C55.8478 23.094 56.3354 25.6758 56.5197 28.1637C56.6169 29.4722 56.6319 30.7858 56.6185 32.0976C56.6068 33.3056 56.4577 34.5705 56.6386 35.7684C56.9067 37.5426 58.1482 38.7858 59.8403 39.2817C61.1036 39.652 62.4942 39.6721 63.7876 39.4509C64.1059 39.3973 63.9702 38.9115 63.6535 38.9667C62.2847 39.2013 60.7501 39.146 59.4533 38.6183C58.6642 38.2966 57.9773 37.7571 57.5635 37.0032C56.9988 35.9761 57.0709 34.8218 57.0943 33.6909C57.1949 28.8791 57.3926 22.9248 53.6698 19.2724C51.4399 17.0843 48.2013 16.4007 45.2241 15.9048C41.7996 15.3335 38.3047 15.1928 34.845 15.496C29.6647 15.9501 23.598 17.3122 20.3394 21.7637C18.6656 24.0506 18.1898 26.9139 18.6723 29.6716C19.2118 32.751 20.7515 35.5958 22.4052 38.2111C24.0588 40.8264 26.0056 43.4116 27.3761 46.2849C28.7465 49.1582 29.6362 52.1773 28.9493 55.2165C27.81 60.2527 22.7034 62.3838 18.9505 65.1901C17.1963 66.502 15.5913 68.0668 14.7536 70.1292C13.5574 73.0746 14.1287 76.4505 14.6631 79.478C15.1339 82.1536 16.1006 84.861 18.6154 86.2416C20.6845 87.3775 23.1809 87.3507 25.4259 86.8363C27.9625 86.255 30.2444 85.0353 32.3319 83.5073C34.6724 81.7917 36.8773 79.8683 39.3988 78.4141C40.6319 77.702 41.9387 77.1156 43.3276 76.7856C44.7165 76.4555 46.3651 76.2428 47.635 76.9531C48.776 77.5915 49.1747 79.0038 49.4428 80.2051C49.6271 81.0311 49.7192 81.8738 49.7678 82.7182C49.994 86.6101 49.426 90.5021 49.6539 94.3957C49.8616 97.9392 50.825 101.623 53.9513 103.693C55.4809 104.704 57.4479 105.428 59.3009 105.264C61.1991 105.097 62.9683 104.193 64.4896 103.088C68.2408 100.364 71.0823 96.2554 72.7795 91.9781C73.6088 89.8889 74.1784 87.6522 74.2103 85.3955C74.2488 82.5238 73.2201 79.1496 75.1786 76.665C76.9043 74.4769 79.9418 73.8386 82.5454 73.4013C85.0937 72.9724 87.7073 72.7763 90.1869 72.009C92.5224 71.2869 94.6451 69.9483 95.8397 67.7535C97.2051 65.2437 97.2604 62.2029 96.8634 59.4385C96.0726 53.9465 93.0401 48.8935 88.8885 45.2696C84.3716 41.3274 78.5445 39.1912 72.6169 38.6568C69.6465 38.3887 66.6508 38.5278 63.7088 39.0086C63.3905 39.0606 63.5262 39.5448 63.8429 39.4928L63.8412 39.4911Z" fill="#395F20"/>
<path d="M63.032 41.2234C68.5876 40.2902 74.4682 40.756 79.6653 43.0127C84.4302 45.0819 88.4579 48.694 90.857 53.3215C92.0198 55.5648 92.7787 58.031 92.9898 60.5525C93.2009 63.074 92.8792 66.0679 91.0279 68.0868C89.5016 69.7505 87.3052 70.4642 85.1506 70.8965C82.8587 71.3572 80.5164 71.5348 78.2429 72.091C75.946 72.6523 73.468 73.7229 72.4913 76.0466C71.5145 78.3704 72.317 81.1265 72.1981 83.6463C72.0004 87.8817 69.9262 92.0635 67.3277 95.3372C66.0728 96.9188 64.6152 98.3848 62.913 99.4805C61.5375 100.365 59.9274 101.054 58.2621 100.957C56.5967 100.859 54.7907 100.013 53.5592 98.8874C52.3831 97.8118 51.6526 96.381 51.2405 94.8564C50.3291 91.4821 50.706 87.8683 50.8099 84.422C50.8585 82.7801 50.8819 81.1248 50.6608 79.4929C50.5552 78.7156 50.3843 77.9532 50.1196 77.2127C49.689 76.0064 48.9569 75.0933 47.6668 74.7934C46.484 74.5187 45.1973 74.7013 44.0379 75.0079C42.8785 75.3145 41.7175 75.8372 40.6536 76.4504C38.4019 77.7455 36.4299 79.4594 34.3574 81.0109C32.4508 82.4383 30.4102 83.6061 28.0797 84.1807C25.9955 84.6951 23.6265 84.7436 21.745 83.5709C19.4095 82.1149 18.8483 79.3204 18.4512 76.7972C18.0173 74.0412 17.6889 71.064 19.1783 68.5526C20.2338 66.7733 21.9343 65.5 23.6164 64.3557C25.3337 63.1879 27.1381 62.114 28.6711 60.7C30.3114 59.1871 31.4724 57.2687 31.7556 55.027C32.0923 52.3581 31.2379 49.6892 30.0919 47.3101C27.6307 42.2069 23.1406 37.9999 22.1103 32.2516C21.6428 29.6447 22.2058 26.9507 23.9297 24.9033C25.4594 23.0872 27.619 21.9077 29.8355 21.1404C32.4575 20.2323 35.2605 19.8419 38.0232 19.7096C41.2065 19.5571 44.4082 19.8084 47.5261 20.4702C50.1766 21.0331 52.7601 21.9647 54.3349 24.3035C55.6284 26.2252 56.0841 28.5825 56.2633 30.856C56.3572 32.0539 56.3756 33.2552 56.3689 34.4565C56.3622 35.5639 56.2315 36.7233 56.4024 37.8223C56.6554 39.4525 57.8047 40.5918 59.3611 41.0408C60.5239 41.3759 61.7989 41.3893 62.985 41.1815C63.3034 41.1262 63.1677 40.642 62.851 40.6973C61.6012 40.9168 60.2022 40.8716 59.016 40.3941C58.2839 40.0992 57.6506 39.5999 57.2719 38.8996C56.7626 37.9564 56.8346 36.8925 56.8531 35.8571C56.9268 31.4474 57.0692 25.989 53.6179 22.6767C51.5487 20.6914 48.5632 20.0849 45.8273 19.6459C42.6875 19.1416 39.4859 19.031 36.3193 19.3292C31.5964 19.7732 26.0759 21.0499 23.1239 25.1245C21.5842 27.2489 21.1653 29.901 21.6378 32.451C22.1588 35.269 23.5863 37.8642 25.1159 40.2533C26.6925 42.7162 28.4584 45.0383 29.7199 47.6921C30.9078 50.1918 31.7589 53.0752 31.1021 55.843C30.0232 60.39 25.3756 62.3351 21.9863 64.9035C20.3829 66.1182 18.9253 67.5658 18.1747 69.469C17.0991 72.1966 17.652 75.3346 18.1697 78.1241C18.6187 80.5501 19.5486 82.9828 21.8422 84.2042C23.7723 85.2329 26.086 85.1793 28.1601 84.6766C30.4822 84.1137 32.553 82.9711 34.4596 81.557C36.5723 79.9872 38.5694 78.2381 40.8547 76.9128C41.9705 76.2661 43.1533 75.7333 44.4115 75.4301C45.6379 75.1352 47.1692 74.9275 48.3253 75.5675C49.3674 76.1455 49.7343 77.4322 49.9822 78.5229C50.1531 79.2768 50.2403 80.0458 50.2888 80.8165C50.51 84.3784 50.0057 87.9437 50.2302 91.5056C50.4363 94.7726 51.3427 98.1586 54.2445 100.04C55.6535 100.955 57.4579 101.602 59.1534 101.436C60.874 101.268 62.474 100.449 63.8512 99.4419C67.2841 96.9355 69.876 93.1625 71.4207 89.2354C72.1729 87.3254 72.689 85.2798 72.7141 83.219C72.7476 80.5937 71.791 77.5394 73.5267 75.2408C75.0714 73.1934 77.8978 72.5953 80.2836 72.1832C82.5973 71.7844 84.9697 71.5934 87.2214 70.8965C89.3575 70.2347 91.3127 69.0167 92.4135 67.0112C93.6767 64.7109 93.7287 61.9213 93.3601 59.3831C92.6313 54.3535 89.8468 49.7277 86.0386 46.4155C81.8786 42.7949 76.5139 40.8464 71.0571 40.3773C68.3346 40.1428 65.592 40.2818 62.8996 40.7342C62.5813 40.7878 62.717 41.272 63.0336 41.2184L63.032 41.2234Z" fill="#395F20"/>
<path d="M62.2244 42.9574C67.2556 42.0862 72.5901 42.4816 77.3097 44.5022C81.6373 46.3551 85.3048 49.6088 87.5012 53.7889C88.5601 55.8027 89.2587 58.0193 89.4681 60.2878C89.6776 62.5563 89.4195 65.2872 87.7676 67.1335C86.3904 68.6715 84.39 69.3366 82.4247 69.7421C80.3472 70.1693 78.2212 70.3419 76.1604 70.8579C74.0997 71.3739 71.8228 72.3691 70.9415 74.4885C70.0251 76.6933 70.8041 79.1042 70.7087 81.3928C70.5478 85.2329 68.6881 89.0276 66.3509 92.0099C65.2133 93.4591 63.8864 94.8061 62.3333 95.8097C61.0918 96.6122 59.6376 97.2338 58.1314 97.1433C56.6252 97.0528 54.9816 96.2888 53.8675 95.2635C52.812 94.2951 52.1552 93.0084 51.78 91.6379C50.9456 88.587 51.2706 85.315 51.3477 82.1937C51.3846 80.7109 51.3963 79.2165 51.1919 77.7438C51.0964 77.0502 50.9423 76.37 50.7077 75.7099C50.3173 74.6075 49.669 73.7513 48.4895 73.4632C47.4155 73.2001 46.2394 73.3677 45.1839 73.6474C44.1284 73.9272 43.0746 74.4014 42.1079 74.9593C40.0672 76.1388 38.2829 77.7002 36.4115 79.121C34.6892 80.4278 32.8496 81.5068 30.7386 82.0479C28.842 82.5338 26.6774 82.6008 24.9551 81.5403C22.834 80.2335 22.3163 77.7053 21.9444 75.4217C21.5389 72.9304 21.2256 70.233 22.5626 67.9544C23.5109 66.3393 25.0422 65.1766 26.5618 64.1328C28.0814 63.0891 29.7769 62.0654 31.1708 60.7586C32.6686 59.3546 33.6973 57.5803 33.9285 55.5179C34.1983 53.1087 33.3991 50.7011 32.3503 48.5667C30.1036 43.9878 26.0625 40.2198 25.0741 35.0596C24.625 32.7157 25.0841 30.278 26.6054 28.4049C27.9591 26.7379 29.9042 25.6421 31.9013 24.9268C34.2821 24.0723 36.832 23.6987 39.3501 23.5596C42.2352 23.4005 45.142 23.6065 47.9734 24.1879C50.3776 24.6805 52.745 25.493 54.1976 27.599C55.3888 29.3264 55.821 31.4541 55.9986 33.5115C56.0924 34.5972 56.1159 35.6879 56.1159 36.7785C56.1159 37.8039 56.0003 38.8762 56.1628 39.8931C56.399 41.3792 57.4579 42.4146 58.877 42.8184C59.9375 43.1199 61.1002 43.125 62.1792 42.929C62.4975 42.872 62.3618 42.3878 62.0451 42.4448C60.9075 42.6508 59.6259 42.6157 58.5452 42.1767C57.8969 41.9137 57.3389 41.4697 57.0005 40.8515C56.5347 40.002 56.5984 39.0403 56.6085 38.1038C56.6554 34.0946 56.7576 29.1337 53.6061 26.1397C51.6995 24.3286 48.9536 23.7925 46.4421 23.4072C43.5638 22.9665 40.6318 22.8878 37.7351 23.1877C33.4578 23.63 28.4617 24.843 25.8481 28.5858C22.7653 33.0005 25.2466 38.345 27.8284 42.3191C29.2508 44.5089 30.8324 46.5763 31.975 48.9369C33.0573 51.1719 33.8515 53.7587 33.307 56.2501C32.3922 60.4369 28.1534 62.2363 25.064 64.6003C23.6097 65.7127 22.2895 67.038 21.6143 68.7754C20.6493 71.2583 21.1653 74.1082 21.6495 76.6431C22.0701 78.8462 22.9279 81.0594 25.0204 82.1585C26.783 83.085 28.8856 83.028 30.7738 82.5606C32.8797 82.0395 34.7579 80.9924 36.4819 79.6973C38.4069 78.2515 40.2264 76.6397 42.3139 75.4251C43.3242 74.837 44.3948 74.3545 45.5341 74.0814C46.6733 73.8083 48.0673 73.624 49.1094 74.2523C50.0007 74.7901 50.319 75.9562 50.5351 76.9162C50.6893 77.5964 50.768 78.29 50.8133 78.9836C51.021 82.197 50.5871 85.4155 50.8049 88.6306C51.0042 91.5826 51.8336 94.6419 54.4489 96.3508C55.7222 97.1835 57.3674 97.7766 58.9038 97.6375C60.4401 97.4985 61.9446 96.7445 63.2045 95.8231C66.3191 93.5395 68.663 90.1032 70.0569 86.533C70.7405 84.7805 71.2062 82.904 71.223 81.0159C71.2431 78.6536 70.3685 75.9176 71.8865 73.8284C73.2636 71.9335 75.8521 71.3739 78.0218 70.9886C80.1194 70.6166 82.2723 70.4324 84.3129 69.789C86.3536 69.1456 88.0608 68.0365 89.0493 66.1785C90.1684 64.0759 90.1953 61.5427 89.8434 59.239C89.1498 54.7037 86.6166 50.542 83.1686 47.5614C79.3671 44.276 74.4733 42.5202 69.5024 42.1197C67.0295 41.9204 64.5381 42.0577 62.0937 42.4816C61.7754 42.5369 61.9111 43.0211 62.2278 42.9658L62.2244 42.9574Z" fill="#395F20"/>
<path d="M61.4152 44.6898C65.9371 43.8789 70.7271 44.2107 74.9843 46.0033C78.8796 47.6436 82.1902 50.5638 84.1739 54.3083C85.1355 56.1245 85.7722 58.1266 85.9598 60.1756C86.1525 62.295 85.9046 64.6405 84.4134 66.2791C83.1787 67.6361 81.3977 68.2259 79.652 68.5928C77.8006 68.9815 75.9058 69.149 74.0712 69.6215C72.2366 70.094 70.1759 71.0104 69.3918 72.9271C68.5742 74.9258 69.2996 77.1038 69.2192 79.1746C69.0835 82.631 67.4198 86.0572 65.3206 88.7462C64.3137 90.0346 63.1375 91.2342 61.7603 92.1289C60.6445 92.8543 59.3344 93.4156 57.979 93.3234C56.6118 93.2296 55.1509 92.5443 54.154 91.6145C53.2208 90.7433 52.6411 89.5906 52.3077 88.3693C51.5638 85.6367 51.8369 82.7097 51.8872 79.9135C51.9107 78.5849 51.909 77.2479 51.7163 75.9294C51.6242 75.3011 51.4767 74.6846 51.2572 74.0881C50.8836 73.0745 50.2503 72.3189 49.1563 72.0927C48.1795 71.89 47.1257 72.0559 46.1774 72.3239C45.2291 72.592 44.2892 73.0326 43.4247 73.547C41.5885 74.6377 39.9885 76.0684 38.2947 77.3585C36.7583 78.5296 35.0997 79.4829 33.2115 79.9554C31.5143 80.3793 29.5826 80.4161 28.063 79.4343C26.2167 78.2448 25.771 75.9947 25.4309 73.9792C25.054 71.7409 24.7775 69.3266 25.9888 67.2826C26.8399 65.8485 28.2037 64.8097 29.5507 63.8732C30.9464 62.9031 32.414 62.0068 33.6504 60.829C34.9857 59.5557 35.8988 57.9557 36.0949 56.101C36.3261 53.9129 35.5788 51.7316 34.6105 49.8015C32.5497 45.6984 28.8789 42.3175 28.0077 37.6615C27.6173 35.5756 28.0462 33.4093 29.4033 31.749C30.6129 30.2713 32.3353 29.2929 34.1078 28.6479C36.2322 27.8755 38.5091 27.527 40.7592 27.388C43.3678 27.2271 45.9982 27.4014 48.5632 27.914C50.7094 28.3446 52.8137 29.0684 54.1121 30.9415C55.1743 32.4745 55.5731 34.366 55.7423 36.1939C55.8328 37.1773 55.8613 38.1658 55.8663 39.1526C55.8713 40.059 55.7792 41.0039 55.9199 41.902C56.1327 43.2607 57.0943 44.2107 58.3978 44.5726C59.3561 44.8373 60.4049 44.8373 61.3783 44.6546C61.6967 44.596 61.561 44.1101 61.2443 44.1705C60.2273 44.3615 59.083 44.3363 58.113 43.9493C57.5249 43.7148 57.019 43.3127 56.7174 42.7514C56.3052 41.9891 56.3639 41.1229 56.3689 40.2869C56.3873 36.6898 56.4409 32.2433 53.5961 29.576C51.8855 27.9727 49.4445 27.5002 47.2028 27.1668C44.6126 26.7815 41.9789 26.7211 39.3753 27.0009C35.5152 27.4148 31.0134 28.5255 28.6611 31.9082C27.4414 33.6623 27.1382 35.827 27.547 37.8978C27.9976 40.1746 29.1738 42.2655 30.432 44.1872C31.7271 46.1659 33.1763 48.0256 34.2318 50.1533C35.227 52.1621 35.9709 54.4926 35.4934 56.746C34.7009 60.4839 30.9413 62.1291 28.192 64.2435C26.8902 65.2453 25.7074 66.4315 25.0908 67.983C24.2045 70.2196 24.6787 72.7813 25.121 75.0666C25.5013 77.0335 26.2485 79.0155 28.0965 80.0324C29.6663 80.897 31.5612 80.8668 33.2618 80.4563C35.1667 79.9973 36.8756 79.0557 38.4287 77.8812C40.1544 76.5761 41.7761 75.1168 43.6375 74.001C44.5355 73.4632 45.4905 73.0142 46.5058 72.7511C47.5211 72.4881 48.7559 72.2988 49.7092 72.8081C50.5519 73.2588 50.8568 74.2942 51.0662 75.1671C51.2103 75.7685 51.2891 76.3851 51.336 77.0016C51.5521 79.8867 51.1785 82.7818 51.3812 85.6685C51.5689 88.329 52.3094 91.0951 54.6633 92.6415C55.806 93.3921 57.292 93.9316 58.6726 93.8143C60.0531 93.697 61.4068 93.0252 62.5377 92.1975C65.3507 90.1368 67.4517 87.0239 68.6982 83.7954C69.308 82.2155 69.7219 80.525 69.7319 78.8245C69.7436 76.7101 68.9378 74.2707 70.2546 72.3809C71.4592 70.6502 73.7981 70.1275 75.7449 69.7689C77.6147 69.4238 79.533 69.2479 81.3525 68.6699C83.1033 68.1153 84.705 67.1134 85.6063 65.4648C86.6468 63.5632 86.6685 61.2562 86.3418 59.1653C85.7035 55.074 83.3965 51.3244 80.2685 48.6538C76.8457 45.7319 72.4578 44.1788 68.0012 43.8371C65.7579 43.6645 63.4994 43.8019 61.2862 44.1989C60.9679 44.2559 61.1036 44.7401 61.4202 44.6831L61.4152 44.6898Z" fill="#395F20"/>
<path d="M60.606 46.4222C64.6153 45.6699 68.8675 45.9363 72.6572 47.5028C76.1152 48.932 79.0606 51.5054 80.8365 54.8109C81.6843 56.3892 82.2539 58.1299 82.4365 59.9142C82.6309 61.8091 82.4315 63.9134 81.0979 65.3844C80.0256 66.5656 78.4843 67.0933 76.9663 67.4267C75.3261 67.7886 73.6457 67.9494 72.0189 68.3767C70.3284 68.8207 68.5324 69.6416 67.8388 71.3673C67.125 73.1449 67.7835 75.0749 67.7265 76.9128C67.631 79.9721 66.1835 83.0029 64.3522 85.3988C63.4676 86.5565 62.4239 87.6354 61.2025 88.4379C60.2324 89.0763 59.0948 89.5755 57.9103 89.5119C56.7091 89.4465 55.4157 88.8585 54.5294 88.0559C53.6883 87.2936 53.1606 86.28 52.8556 85.1977C52.1721 82.7818 52.3949 80.1849 52.42 77.7053C52.4318 76.5174 52.4217 75.3229 52.2408 74.1468C52.1553 73.5972 52.023 73.0594 51.8269 72.5384C51.4986 71.6621 50.9608 70.9836 50.0125 70.7658C49.148 70.5681 48.2097 70.7105 47.3653 70.9451C46.5209 71.1796 45.6983 71.5633 44.936 72.014C43.331 72.9656 41.9303 74.2188 40.4677 75.3681C39.1006 76.4421 37.6363 77.3384 35.9441 77.7958C34.453 78.1996 32.7441 78.2833 31.372 77.4624C29.6966 76.4605 29.2559 74.4936 28.9376 72.7076C28.5858 70.7273 28.2909 68.5794 29.328 66.7465C30.0601 65.4531 31.2647 64.5132 32.4576 63.6705C33.6807 62.806 34.9674 62.0051 36.0564 60.9664C37.2643 59.8154 38.0886 58.3678 38.2528 56.6874C38.4422 54.759 37.7753 52.839 36.9142 51.1435C35.0629 47.5028 31.764 44.5223 30.9565 40.3874C30.5946 38.5378 30.9665 36.6077 32.1694 35.1333C33.2467 33.8131 34.7797 32.9386 36.3613 32.3606C38.2495 31.6686 40.275 31.3503 42.2738 31.2213C44.5842 31.0705 46.9147 31.2146 49.1865 31.6619C51.0697 32.0322 52.9042 32.6806 54.0368 34.3241C54.9733 35.6829 55.3285 37.3566 55.486 38.975C55.5698 39.8412 55.5983 40.7108 55.61 41.5803C55.6201 42.3778 55.5463 43.2121 55.6804 44.0012C55.8848 45.1992 56.756 46.0335 57.907 46.3418C58.7631 46.573 59.6997 46.5646 60.5675 46.3954C60.8842 46.3334 60.7501 45.8492 60.4335 45.9112C59.5371 46.0854 58.5302 46.072 57.6724 45.7386C57.1715 45.5443 56.7342 45.2092 56.4645 44.7401C56.0825 44.0766 56.121 43.3177 56.1193 42.5788C56.1126 39.3989 56.1394 35.4902 53.6615 33.1128C52.152 31.6636 49.994 31.2414 47.9936 30.9515C45.6749 30.6148 43.3176 30.5695 40.9888 30.8343C37.5525 31.223 33.5533 32.2299 31.4641 35.2456C30.3818 36.8054 30.112 38.7321 30.4823 40.5717C30.8911 42.6073 31.9567 44.472 33.0959 46.1809C34.267 47.9401 35.5772 49.5921 36.5288 51.4903C37.4151 53.2595 38.0803 55.3152 37.6581 57.3056C36.9611 60.5944 33.6488 62.0755 31.2379 63.9586C30.0735 64.8684 29.0214 65.9557 28.497 67.3631C27.7497 69.3668 28.1971 71.6554 28.6159 73.6843C28.9778 75.4368 29.6982 77.1876 31.377 78.0421C32.8027 78.7675 34.4899 78.7022 36.0028 78.3068C37.6882 77.8645 39.1793 77.0033 40.5481 75.9445C42.056 74.7801 43.4767 73.485 45.1153 72.4982C45.9144 72.0173 46.7639 71.6186 47.6703 71.389C48.5465 71.1662 49.6472 71.002 50.4715 71.4812C51.1618 71.8833 51.4198 72.7696 51.6024 73.5017C51.7365 74.0395 51.8102 74.5891 51.8554 75.1403C52.0632 77.7003 51.7515 80.272 51.9559 82.832C52.1453 85.1927 52.8288 87.6371 54.9298 88.9925C55.9568 89.6543 57.2904 90.1234 58.5235 90.0044C59.7801 89.8821 60.9428 89.2807 61.943 88.5351C64.4276 86.6804 66.2739 83.8993 67.3579 81.0176C67.8857 79.6153 68.2375 78.1158 68.2341 76.6113C68.2291 74.7298 67.4919 72.5568 68.6748 70.8747C69.732 69.3702 71.7676 68.9011 73.4648 68.5727C75.1351 68.251 76.8491 68.0818 78.4725 67.549C80.096 67.0162 81.4263 66.14 82.212 64.6757C83.1234 62.9768 83.1301 60.9278 82.8269 59.0698C82.2388 55.4643 80.1865 52.1638 77.417 49.8182C74.3477 47.2163 70.4189 45.8509 66.4331 45.5761C64.441 45.4387 62.4373 45.5761 60.4754 45.9447C60.157 46.005 60.2927 46.4892 60.6094 46.4289L60.606 46.4222Z" fill="#395F20"/>
<path d="M59.7968 48.1546C63.2833 47.4643 66.9842 47.662 70.2998 48.9906C73.3072 50.1952 75.884 52.3967 77.4572 55.2365C78.2195 56.612 78.7405 58.1333 78.9164 59.6998C79.0991 61.3283 78.955 63.1477 77.8291 64.4328C76.9076 65.4849 75.5623 65.9624 74.2354 66.269C72.8079 66.5991 71.3436 66.7549 69.9279 67.1402C68.4402 67.5473 66.8804 68.2862 66.2822 69.8125C65.6657 71.3857 66.2772 73.0896 66.232 74.7097C66.1583 77.3669 64.9235 80.0006 63.3503 82.0949C62.5947 83.1018 61.6983 84.0417 60.6495 84.7454C59.8102 85.3083 58.8233 85.7506 57.793 85.697C56.7626 85.6434 55.6401 85.1491 54.8727 84.4622C54.1439 83.8122 53.6782 82.9443 53.4051 82.0144C52.7869 79.9202 52.9561 77.6617 52.9578 75.5072C52.9578 74.4802 52.9393 73.4481 52.7785 72.4328C52.5892 71.2332 52.177 69.7723 50.8501 69.4355C50.0962 69.2445 49.2719 69.3702 48.533 69.5729C47.7942 69.7756 47.0855 70.1057 46.4254 70.4977C45.0247 71.3304 43.8101 72.4328 42.5451 73.4515C41.3606 74.4064 40.1007 75.219 38.6264 75.6479C37.3313 76.0266 35.8318 76.1355 34.6188 75.4452C33.1445 74.6058 32.7323 72.9086 32.4391 71.3589C32.1107 69.6248 31.8226 67.7333 32.729 66.1182C33.3556 64.9991 34.3859 64.1781 35.4096 63.4393C36.4333 62.7004 37.5943 61.9582 38.5376 61.0384C39.5713 60.0281 40.275 58.7699 40.414 57.314C40.5765 55.6118 39.9734 53.9213 39.1977 52.4335C37.5524 49.2771 34.649 46.707 33.9084 43.1116C33.5767 41.4999 33.8883 39.8144 34.9321 38.521C35.8536 37.3784 37.1704 36.6127 38.5275 36.1001C40.1711 35.4802 41.937 35.1836 43.6827 35.0529C45.6564 34.9055 47.6501 35.0043 49.5969 35.3595C51.2639 35.6628 52.9092 36.1955 53.9278 37.6414C54.7538 38.8142 55.0788 40.2651 55.2296 41.6691C55.3083 42.4113 55.3419 43.1568 55.3603 43.9041C55.3787 44.6513 55.3167 45.3583 55.4441 46.0603C55.6351 47.1141 56.4108 47.8446 57.4277 48.1077C58.1833 48.302 59.0043 48.2886 59.7649 48.1328C60.0816 48.0674 59.9475 47.5833 59.6309 47.6486C58.8585 47.8078 57.9873 47.8027 57.2384 47.5229C56.8078 47.3621 56.4275 47.0773 56.193 46.6785C55.8562 46.1072 55.8847 45.4521 55.8763 44.8121C55.8428 42.0209 55.8294 38.583 53.6179 36.5306C52.2775 35.2875 50.3961 34.944 48.6453 34.7061C46.6331 34.4347 44.5908 34.4163 42.5753 34.6626C39.5612 35.0311 36.058 35.9442 34.2485 38.6098C33.3137 39.987 33.0925 41.6791 33.4326 43.2892C33.8079 45.0635 34.7545 46.6836 35.7631 48.1663C36.7717 49.649 37.9562 51.12 38.8023 52.767C39.5864 54.2932 40.1862 56.0742 39.836 57.8032C39.2597 60.6665 36.3914 61.9884 34.3105 63.6437C33.2952 64.4512 32.3805 65.4162 31.9331 66.656C31.2931 68.4269 31.7086 70.4441 32.1007 72.2251C32.4374 73.7581 33.1009 75.2827 34.5903 75.9997C35.877 76.6196 37.3815 76.5309 38.7235 76.1438C40.2012 75.72 41.4863 74.9292 42.6808 73.9809C43.9709 72.9555 45.1923 71.8263 46.6097 70.9719C47.2983 70.5564 48.0287 70.2146 48.8111 70.0186C49.5936 69.8225 50.5184 69.6868 51.2137 70.1291C51.7766 70.486 51.9944 71.2483 52.1485 71.8615C52.2658 72.3256 52.3328 72.7997 52.3764 73.2772C52.5741 75.4955 52.3295 77.7288 52.5289 79.9487C52.7148 82.0128 53.3314 84.1472 55.1793 85.3183C56.079 85.8896 57.2485 86.2934 58.3241 86.1845C59.3997 86.0756 60.4485 85.5412 61.323 84.8777C63.4692 83.2492 65.0525 80.8283 65.9823 78.3219C66.4414 77.0871 66.7463 75.7652 66.7396 74.4416C66.7312 72.788 66.046 70.8814 67.068 69.392C67.9761 68.0684 69.762 67.6479 71.2414 67.348C72.7208 67.0481 74.165 66.8923 75.5656 66.4181C76.9663 65.944 78.1692 65.1398 78.8427 63.8296C79.6134 62.3285 79.5967 60.5391 79.3102 58.9157C78.7573 55.7776 76.9344 52.9211 74.4967 50.9006C71.8044 48.6672 68.3798 47.5095 64.9118 47.2968C63.1559 47.1895 61.3901 47.3269 59.6661 47.667C59.3494 47.729 59.4834 48.2149 59.8001 48.1512L59.7968 48.1546Z" fill="#395F20"/>
<path d="M58.9875 49.8886C61.963 49.2586 65.1279 49.3876 67.9777 50.4934C70.5545 51.4936 72.7744 53.3533 74.1365 55.7676C74.7883 56.9202 75.2389 58.2002 75.4014 59.5171C75.5723 60.9027 75.4618 62.4574 74.5018 63.5531C73.7244 64.4394 72.5935 64.8482 71.4793 65.1196C70.263 65.4162 69.0131 65.5653 67.8085 65.9155C66.6039 66.2656 65.2519 66.9274 64.7459 68.2175C64.2148 69.5695 64.7593 71.0271 64.7459 72.416C64.7208 74.6879 63.6971 76.953 62.3769 78.7608C61.7469 79.6236 60.998 80.4328 60.1168 81.041C59.4064 81.5302 58.5704 81.9223 57.6874 81.882C56.8045 81.8418 55.873 81.4397 55.2196 80.8701C54.5661 80.3005 54.1909 79.5934 53.9479 78.8077C53.4034 77.0401 53.5173 75.1268 53.4956 73.3006C53.4855 72.4194 53.457 71.5314 53.3096 70.6602C53.137 69.6466 52.7768 68.4051 51.6677 68.1002C51.0109 67.9192 50.2821 68.0349 49.6388 68.2175C48.9954 68.4001 48.3806 68.6933 47.8093 69.0434C46.6298 69.7655 45.6094 70.7138 44.5489 71.5934C43.5537 72.4194 42.4966 73.1314 41.2501 73.5184C40.1527 73.8602 38.8693 73.9825 37.8255 73.4062C36.5539 72.7042 36.1937 71.2533 35.9273 69.9314C35.6308 68.4654 35.3711 66.8688 36.1267 65.4933C36.6511 64.54 37.5189 63.8313 38.3801 63.1929C39.2898 62.5194 40.2482 61.8912 41.0457 61.0803C41.9185 60.1923 42.4966 59.0916 42.5837 57.8367C42.6859 56.3841 42.1497 54.955 41.4695 53.6984C40.032 51.0396 37.5407 48.8884 36.8655 45.8458C36.564 44.4887 36.8019 43.0747 37.6546 41.9606C38.417 40.9671 39.5445 40.2919 40.6955 39.8395C42.0878 39.2916 43.5889 39.0186 45.075 38.8879C46.7672 38.7388 48.4828 38.8008 50.1582 39.0856C51.5555 39.3235 52.9427 39.7541 53.8139 40.9486C54.531 41.9338 54.8275 43.1618 54.9716 44.353C55.0487 44.9914 55.0855 45.6347 55.109 46.2764C55.1308 46.8745 55.0922 47.4994 55.2011 48.0909C55.3703 49.004 56.0422 49.6406 56.9285 49.8634C57.5869 50.0276 58.3023 50.0092 58.9624 49.8634C59.2774 49.7947 59.145 49.3089 58.8284 49.3792C58.1934 49.5183 57.4462 49.53 56.8045 49.3005C56.4376 49.1698 56.1125 48.9302 55.9132 48.5918C55.6284 48.1093 55.6485 47.5531 55.6351 47.0136C55.5731 44.6362 55.5178 41.7193 53.6212 39.9869C52.4568 38.9214 50.8384 38.6466 49.3255 38.459C47.6032 38.2462 45.8574 38.2579 44.1384 38.4891C41.5567 38.8343 38.556 39.6619 37.0347 41.9706C36.2456 43.1685 36.0747 44.6312 36.3897 46.0134C36.7332 47.5263 37.5625 48.9001 38.4438 50.1583C39.3401 51.4366 40.3336 52.6346 41.0725 54.0184C41.751 55.2901 42.2888 56.7812 42.0341 58.2421C41.6052 60.7117 39.1709 61.8794 37.405 63.3169C36.5489 64.0139 35.7765 64.8432 35.3962 65.8987C34.845 67.4267 35.222 69.1574 35.5755 70.687C35.8821 72.0123 36.4668 73.3341 37.7669 73.939C38.8827 74.4583 40.1728 74.3695 41.3254 74.0211C42.6004 73.6357 43.6995 72.9354 44.7215 72.0994C45.8071 71.2114 46.8358 70.2347 48.0338 69.4941C48.6151 69.1356 49.2333 68.839 49.8968 68.6681C50.5603 68.4973 51.3343 68.375 51.9157 68.7553C52.3814 69.0585 52.5674 69.7036 52.6997 70.2162C52.8019 70.6066 52.8639 71.007 52.9041 71.4091C53.0918 73.2906 52.9125 75.1888 53.1069 77.0703C53.2895 78.8395 53.8407 80.6624 55.4357 81.6525C56.2181 82.1384 57.23 82.4718 58.1582 82.3696C59.0864 82.2674 59.9643 81.8 60.7082 81.227C62.5461 79.8096 63.8847 77.6902 64.6521 75.5189C65.024 74.465 65.2669 73.3375 65.2468 72.215C65.22 70.806 64.6068 69.1741 65.4764 67.8975C66.2286 66.7934 67.7063 66.4181 68.9361 66.15C70.1658 65.882 71.4307 65.7261 72.6236 65.309C73.7813 64.9052 74.8385 64.2099 75.4165 63.0958C76.085 61.8057 76.0649 60.266 75.8086 58.8687C75.3143 56.1764 73.726 53.7336 71.6134 52.0214C69.2779 50.1265 66.3241 49.1648 63.3402 49.0224C61.8374 48.9503 60.3279 49.0877 58.8569 49.3994C58.5402 49.4664 58.6742 49.9506 58.9909 49.8835L58.9875 49.8886Z" fill="#395F20"/>
<path d="M58.1783 51.621C60.6362 51.0513 63.2632 51.11 65.6423 51.9879C67.7801 52.777 69.6347 54.2798 70.7908 56.2501C71.3487 57.2017 71.7357 58.2572 71.8898 59.3513C72.044 60.4453 71.9619 61.7856 71.1594 62.687C70.5177 63.4091 69.5895 63.7458 68.6781 63.9804C67.6795 64.2367 66.6542 64.3825 65.6724 64.6958C64.6387 65.0258 63.5882 65.5921 63.1895 66.6661C62.7656 67.812 63.2531 69.0284 63.2531 70.1961C63.2531 72.0759 62.4372 73.9591 61.3666 75.472C60.8556 76.1924 60.2424 76.876 59.5136 77.3836C58.939 77.784 58.2621 78.104 57.5467 78.0688C56.8313 78.0337 56.0489 77.712 55.5111 77.2379C55.0018 76.7905 54.6717 76.1907 54.469 75.549C54.0116 74.0981 54.077 72.53 54.0284 71.0271C54.0049 70.3034 53.9681 69.5729 53.8307 68.8592C53.6648 67.998 53.3264 66.9559 52.3647 66.7364C51.2991 66.4935 50.1079 67.0078 49.2233 67.5658C48.2566 68.1756 47.4256 68.9731 46.5644 69.7186C45.7033 70.4642 44.879 71.0489 43.8402 71.3957C42.9439 71.6939 41.8867 71.823 41.0189 71.3622C39.9684 70.8043 39.6534 69.6215 39.4155 68.5442C39.1508 67.3496 38.9045 66.0361 39.5026 64.8985C39.9248 64.0943 40.6402 63.4912 41.3489 62.945C42.0911 62.3737 42.8752 61.8392 43.5186 61.154C44.2256 60.4017 44.6863 59.4786 44.7416 58.4365C44.8053 57.2235 44.3378 56.0373 43.7515 54.9986C42.52 52.8189 40.4174 51.0748 39.8126 48.5667C39.5445 47.4526 39.7204 46.2949 40.4057 45.3633C41.0239 44.5206 41.9722 43.9426 42.9288 43.5539C44.0798 43.0865 45.3263 42.8385 46.5594 42.7145C47.945 42.5738 49.3523 42.6023 50.7278 42.8167C51.8805 42.996 53.0114 43.3411 53.7335 44.3179C54.3283 45.1204 54.5779 46.124 54.7153 47.0974C54.789 47.6201 54.8275 48.1478 54.856 48.6756C54.8845 49.2033 54.8577 49.7026 54.9666 50.1935C55.1358 50.9525 55.7205 51.4718 56.4661 51.6377C57.0156 51.76 57.607 51.7332 58.1532 51.6042C58.4682 51.5288 58.3341 51.0446 58.0192 51.12C57.4964 51.2457 56.8833 51.2691 56.3471 51.0848C56.0439 50.981 55.7792 50.7849 55.6166 50.5051C55.3821 50.103 55.4022 49.6306 55.3821 49.1816C55.2916 47.2079 55.181 44.7736 53.5475 43.3914C52.554 42.5503 51.2204 42.3476 49.9655 42.2169C48.5465 42.0695 47.114 42.1097 45.7033 42.3208C43.5471 42.6442 41.0407 43.3897 39.8092 45.3483C39.1726 46.3602 39.0519 47.5849 39.3368 48.7326C39.645 49.9757 40.3437 51.0966 41.0892 52.1202C41.8348 53.1439 42.6993 54.1475 43.336 55.2834C43.924 56.3322 44.4032 57.572 44.2021 58.795C43.8671 60.8373 41.8499 61.8292 40.4208 63.0522C39.7137 63.657 39.0855 64.3791 38.8023 65.2822C38.4036 66.5588 38.7386 67.9796 39.0603 69.2361C39.3384 70.3235 39.8528 71.3974 40.9317 71.8782C41.875 72.2988 42.954 72.21 43.9156 71.8983C44.9728 71.5566 45.8809 70.9584 46.7203 70.243C47.6049 69.4908 48.4392 68.6648 49.421 68.0349C49.8918 67.7316 50.3944 67.4786 50.9356 67.3278C51.4767 67.1771 52.1268 67.0564 52.6026 67.3764C52.9762 67.6294 53.1337 68.1622 53.246 68.581C53.3331 68.9027 53.3884 69.2311 53.4269 69.5612C53.6028 71.1109 53.4872 72.6791 53.6832 74.2288C53.8675 75.6915 54.3551 77.1893 55.6904 77.9868C56.3471 78.3805 57.1932 78.6452 57.9622 78.5547C58.7312 78.4642 59.4768 78.0588 60.0983 77.5679C61.6062 76.3767 62.6885 74.584 63.295 72.7796C63.5932 71.89 63.7826 70.9417 63.7507 70.0001C63.7105 68.8257 63.1593 67.4569 63.8881 66.3896C64.5063 65.4832 65.721 65.1666 66.7262 64.9287C67.7315 64.6908 68.7769 64.5417 69.7503 64.1731C70.7237 63.8045 71.5665 63.2198 72.0272 62.2866C72.5684 61.1875 72.5282 59.8958 72.2852 58.723C71.8262 56.5031 70.4741 54.5093 68.7015 53.1238C66.7329 51.5841 64.2684 50.8251 61.7855 50.7514C60.5289 50.7129 59.2673 50.8519 58.0426 51.1351C57.7277 51.2088 57.8617 51.693 58.1767 51.6193L58.1783 51.621Z" fill="#395F20"/>
</g>
<defs>
<clipPath id="clip0_23_1617">
<rect width="120.55" height="111.158" fill="white" transform="matrix(0 1 -1 0 111.158 0)"/>
</clipPath>
</defs>
</svg>
