<svg width="112" height="121" viewBox="0 0 112 121" fill="none" xmlns="http://www.w3.org/2000/svg">
<g clip-path="url(#clip0_23_1647)">
<path d="M67.0781 32.5598C75.2239 31.3217 83.8037 32.1309 91.3581 35.5303C98.3126 38.66 104.155 44.0397 107.586 50.8787C109.25 54.1943 110.314 57.8266 110.58 61.5309C110.846 65.2352 110.317 69.6717 107.558 72.6271C105.292 75.053 102.055 76.075 98.8806 76.6681C95.4963 77.2998 92.0416 77.5042 88.6808 78.2682C85.3367 79.0288 81.7027 80.5199 80.2384 83.874C78.7289 87.3337 79.8648 91.1754 79.6621 94.7943C79.3153 101.034 76.1705 107.155 72.2786 111.925C70.4055 114.222 68.2358 116.342 65.716 117.923C63.657 119.215 61.2444 120.208 58.7681 120.028C56.2668 119.845 53.6112 118.538 51.8085 116.819C50.0912 115.182 49.0542 113.019 48.4929 110.737C47.2615 105.735 47.9149 100.424 48.1377 95.3422C48.2433 92.9497 48.3103 90.5321 47.997 88.1513C47.8412 86.9601 47.5781 85.7857 47.1543 84.6598C46.5193 82.971 45.3632 81.8267 43.5672 81.4615C40.0857 80.7561 36.2976 82.2506 33.3255 83.9461C30.0216 85.8309 27.1064 88.3004 24.0253 90.5103C21.2241 92.5208 18.1882 94.1208 14.7955 94.858C11.7011 95.5298 8.21455 95.4745 5.51381 93.6299C2.18143 91.353 1.47776 87.2081 0.956711 83.4904C0.387077 79.4242 0.0419388 75.0681 2.33556 71.4409C3.96071 68.8725 6.50062 67.0564 9.002 65.4178C11.5469 63.7525 14.2142 62.2144 16.4743 60.157C18.8919 57.9556 20.5673 55.1442 20.9711 51.8621C21.4452 48.0104 20.2238 44.1402 18.6037 40.6922C15.0921 33.2216 8.66524 26.9673 7.33665 18.5518C6.7268 14.685 7.66 10.7377 10.2686 7.77225C12.5572 5.17035 15.7388 3.50835 18.9907 2.43777C22.8576 1.16614 26.9724 0.66184 31.0268 0.531159C35.6576 0.380373 40.3052 0.817653 44.8254 1.84132C48.7107 2.72091 52.5021 4.12657 54.7991 7.57623C56.7024 10.4345 57.3323 13.9377 57.5501 17.307C57.6624 19.0444 57.664 20.7851 57.6289 22.5242C57.5954 24.161 57.3675 25.8783 57.592 27.5051C57.9154 29.8473 59.5003 31.5093 61.7235 32.203C63.4073 32.729 65.2704 32.7776 67.0061 32.5029C67.3244 32.4526 67.1887 31.9684 66.8721 32.0187C64.9939 32.3186 62.8779 32.2197 61.1221 31.4474C60.0565 30.9782 59.1468 30.2176 58.6123 29.1722C57.8818 27.7397 58.0259 26.143 58.0745 24.5899C58.2789 18.1815 58.5956 10.2368 53.6196 5.3714C50.6324 2.44949 46.2646 1.51797 42.2855 0.824354C37.7134 0.0285384 33.044 -0.192615 28.4182 0.179325C21.5826 0.728857 13.5608 2.46625 9.20639 8.29162C6.94795 11.3124 6.26439 15.1038 6.86586 18.7863C7.53937 22.9112 9.55488 26.7328 11.7228 30.2528C13.9478 33.865 16.4626 37.2711 18.2536 41.1362C19.9574 44.812 21.1822 49.0357 20.249 53.0902C18.6858 59.8806 11.7966 62.6836 6.69161 66.3979C4.35107 68.1018 2.17641 70.1475 1.02708 72.8583C-0.631569 76.7636 0.0620499 81.2453 0.72049 85.2981C1.29682 88.8483 2.48469 92.4638 5.75842 94.3838C8.46085 95.9688 11.7765 96.0023 14.7687 95.3807C18.1597 94.6754 21.2458 93.1072 24.0505 91.1118C27.1918 88.8768 30.1472 86.3553 33.4997 84.4286C35.1584 83.4753 36.9175 82.6812 38.7806 82.2271C40.6436 81.7731 42.8702 81.4799 44.6395 82.3444C46.3048 83.1586 46.8761 85.072 47.2481 86.7591C47.4944 87.8783 47.6116 89.0225 47.6703 90.1652C47.9333 95.379 47.1107 100.586 47.3402 105.803C47.5496 110.565 48.7593 115.546 52.9344 118.369C54.97 119.746 57.592 120.735 60.0766 120.525C62.5612 120.316 64.9102 119.15 66.9273 117.722C71.9921 114.139 75.8589 108.675 78.1894 102.975C79.3203 100.211 80.1094 97.2471 80.1865 94.2481C80.2836 90.3763 78.9551 85.8292 81.6457 82.5136C84.0148 79.5934 88.1078 78.7808 91.6278 78.233C95.0423 77.7019 98.5405 77.4757 101.868 76.4855C105.008 75.5506 107.862 73.7747 109.471 70.8361C111.29 67.5104 111.403 63.4643 110.902 59.7935C109.9 52.4485 105.932 45.6749 100.429 40.7777C94.4676 35.4717 86.7339 32.5414 78.8512 31.7439C74.8855 31.3418 70.883 31.4792 66.9458 32.0773C66.6274 32.1259 66.7632 32.6101 67.0798 32.5615L67.0781 32.5598Z" fill="#4B2C20"/>
<path d="M66.2689 34.2921C73.892 33.116 81.9272 33.8548 89.0074 37.0213C95.5264 39.9365 101.008 44.9627 104.237 51.3594C105.813 54.4841 106.822 57.9119 107.068 61.4085C107.315 64.9051 106.815 68.9646 104.259 71.7139C102.144 73.9891 99.1168 74.9524 96.1463 75.5137C92.9782 76.1135 89.7413 76.3112 86.5949 77.035C83.4602 77.7554 80.0524 79.1627 78.6886 82.3125C77.2729 85.5812 78.3603 89.2017 78.1659 92.6162C77.8342 98.4583 74.8922 104.192 71.2482 108.66C69.4974 110.808 67.4685 112.791 65.1095 114.266C63.1979 115.46 60.9629 116.378 58.6676 116.216C56.3153 116.048 53.8173 114.822 52.1251 113.205C50.5251 111.677 49.5601 109.658 49.0324 107.532C47.8797 102.883 48.4677 97.944 48.6671 93.2177C48.7626 90.9626 48.8229 88.6824 48.5297 86.4373C48.389 85.3651 48.1544 84.3129 47.7909 83.2943C47.2095 81.6691 46.1624 80.5114 44.4334 80.1395C41.1797 79.4392 37.6061 80.8448 34.825 82.4298C31.7288 84.1923 29.0013 86.511 26.1229 88.5902C23.4808 90.5002 20.6259 92.0281 17.4192 92.7318C14.5492 93.3618 11.314 93.3266 8.79087 91.6411C5.65452 89.5452 4.9609 85.6968 4.46498 82.222C3.92047 78.4155 3.55524 74.3191 5.67964 70.903C7.19421 68.467 9.58501 66.7463 11.9423 65.1949C14.2996 63.6435 16.7792 62.2043 18.8818 60.2943C21.1453 58.2403 22.7352 55.6133 23.1223 52.5439C23.5796 48.8999 22.4303 45.2492 20.8889 41.9906C17.5834 35.0025 11.5503 29.157 10.2887 21.2776C9.71401 17.6922 10.5567 14.0181 12.9576 11.2453C15.0971 8.77406 18.0927 7.19248 21.1587 6.17718C24.7424 4.98932 28.5573 4.50848 32.3185 4.36943C36.6545 4.21026 41.0089 4.59896 45.2443 5.53886C48.9151 6.3531 52.5155 7.64986 54.6935 10.9052C56.4812 13.5758 57.0793 16.8528 57.2887 20.006C57.3976 21.6328 57.4027 23.2646 57.3742 24.8931C57.3457 26.4278 57.138 28.0362 57.3507 29.5608C57.6573 31.7606 59.1535 33.3204 61.241 33.9671C62.8226 34.4563 64.57 34.4999 66.1985 34.2368C66.5168 34.1849 66.3811 33.7007 66.0645 33.7526C64.3087 34.0358 62.3334 33.9487 60.6898 33.2316C59.6929 32.796 58.8402 32.0873 58.3392 31.1105C57.6523 29.7735 57.7847 28.2791 57.8282 26.8265C58.0075 20.7984 58.2856 13.3094 53.5559 8.76903C50.7513 6.07666 46.6834 5.22053 42.9774 4.5822C38.6918 3.84503 34.3156 3.64733 29.9814 4.00586C23.5495 4.53697 16.0018 6.19729 11.944 11.7144C7.18584 18.1814 10.669 26.2234 14.3934 32.2364C16.486 35.614 18.8483 38.8006 20.5354 42.4178C22.1488 45.8809 23.3082 49.8633 22.4085 53.6849C20.9208 60.0146 14.4604 62.6349 9.70731 66.1247C7.51588 67.7348 5.4987 69.6665 4.4365 72.2199C2.91021 75.8907 3.58372 80.1127 4.21702 83.9091C4.77158 87.2331 5.92426 90.5957 9.00867 92.3632C11.5368 93.8108 14.6213 93.8309 17.4024 93.2462C20.579 92.5777 23.4674 91.1033 26.0911 89.2269C29.0532 87.1108 31.836 84.7184 35.0025 82.9039C36.5556 82.0143 38.2026 81.2737 39.9483 80.8549C41.6673 80.4411 43.7783 80.1663 45.4168 81.0057C46.9347 81.7847 47.4575 83.5757 47.7993 85.1339C48.0288 86.1793 48.1394 87.2465 48.1947 88.3155C48.446 93.2059 47.6853 98.0897 47.9199 102.982C48.1327 107.413 49.277 112.039 53.1555 114.673C55.0588 115.965 57.5183 116.896 59.8437 116.708C62.1692 116.521 64.3707 115.434 66.2622 114.1C71.0103 110.747 74.6308 105.622 76.8139 100.283C77.8828 97.6692 78.6283 94.8663 78.6937 92.0315C78.7774 88.4059 77.5242 84.1588 80.0306 81.0476C82.2372 78.3083 86.0738 77.5393 89.366 77.0199C92.6581 76.5005 95.7878 76.2995 98.8823 75.383C101.823 74.5118 104.508 72.8649 106.031 70.1239C107.765 67.006 107.869 63.1978 107.398 59.7431C106.463 52.8723 102.746 46.5326 97.6006 41.9487C91.993 36.9543 84.7134 34.205 77.293 33.4695C73.5753 33.1009 69.8258 33.2383 66.1365 33.8079C65.8182 33.8565 65.9539 34.3407 66.2706 34.2921H66.2689Z" fill="#4B2C20"/>
<path d="M65.4597 36.0245C72.56 34.9103 80.0507 35.5788 86.6552 38.5124C92.7386 41.2149 97.8603 45.8842 100.884 51.8386C102.36 54.7454 103.309 57.937 103.547 61.194C103.793 64.5716 103.322 68.281 100.911 70.8494C98.9308 72.9587 96.1044 73.8467 93.34 74.3711C90.3863 74.9306 87.3689 75.125 84.4369 75.8153C81.4983 76.5072 78.3502 77.8559 77.1054 80.823C75.8254 83.8739 76.8557 87.2432 76.6715 90.4181C76.3565 95.843 73.6423 101.167 70.2681 105.327C68.6463 107.326 66.7682 109.174 64.5834 110.553C62.7991 111.679 60.7116 112.547 58.5637 112.399C56.3773 112.249 54.0502 111.113 52.4719 109.613C50.9909 108.206 50.0878 106.348 49.5903 104.388C48.4878 100.043 49.0273 95.4175 49.2032 90.9961C49.287 88.8918 49.3373 86.7674 49.0592 84.6748C48.9268 83.6746 48.7056 82.6928 48.3622 81.7412C47.8143 80.2199 46.8325 79.1393 45.2124 78.7958C42.1716 78.1491 38.8392 79.4693 36.2457 80.9554C33.364 82.6057 30.8258 84.7736 28.1468 86.7205C25.689 88.5064 23.0318 89.9389 20.0445 90.6024C17.3522 91.2005 14.3163 91.1686 11.9557 89.5737C9.04218 87.6034 8.41557 83.9929 7.94646 80.756C7.43714 77.2444 7.11044 73.468 9.05726 70.3116C10.4512 68.0514 12.6543 66.4464 14.8324 65.0039C17.0389 63.5429 19.3493 62.1959 21.3162 60.4083C23.4171 58.4983 24.9015 56.0639 25.2735 53.2141C25.7175 49.818 24.6485 46.4103 23.2127 43.3711C20.13 36.8504 14.4906 31.4238 13.2558 24.0906C12.6895 20.728 13.4552 17.2734 15.7019 14.6631C17.6722 12.3745 20.4315 10.9001 23.258 9.94515C26.5853 8.82095 30.1305 8.35854 33.6287 8.21278C37.7033 8.04356 41.7963 8.39372 45.7804 9.26661C49.1999 10.0155 52.5591 11.2134 54.5947 14.2392C56.2517 16.7004 56.8213 19.7228 57.0307 22.6346C57.1413 24.176 57.1513 25.7224 57.1279 27.2671C57.1061 28.6996 56.9168 30.2008 57.1178 31.6215C57.4094 33.6789 58.8133 35.1348 60.7685 35.7346C62.2479 36.1886 63.8814 36.2238 65.401 35.9742C65.7194 35.9223 65.5836 35.4381 65.267 35.49C63.6352 35.7581 61.7972 35.681 60.2659 35.0192C59.3377 34.6171 58.5436 33.9604 58.0745 33.054C57.4328 31.8108 57.5534 30.4202 57.5886 29.0699C57.7411 23.4405 57.979 16.4591 53.5559 12.2287C50.9105 9.70054 47.0654 8.9131 43.5756 8.33006C39.5747 7.66157 35.4917 7.49571 31.4507 7.84922C25.4594 8.37362 18.4294 9.96022 14.6916 15.1372C10.3054 21.2122 13.616 28.7063 17.1159 34.3038C19.0795 37.4469 21.2843 40.4123 22.8575 43.7866C24.4307 47.1609 25.431 50.7211 24.5732 54.2729C23.1641 60.1151 17.2014 62.5612 12.8035 65.8031C10.7528 67.3143 8.86793 69.1271 7.87944 71.5229C6.47211 74.929 7.10038 78.8293 7.68845 82.3477C8.20782 85.4538 9.26668 88.6137 12.1417 90.2824C14.5157 91.6595 17.4225 91.678 20.0395 91.1184C23.0016 90.4868 25.6923 89.1045 28.1367 87.3471C30.8928 85.3667 33.4829 83.1301 36.4316 81.4295C37.8775 80.5969 39.4088 79.9032 41.034 79.5079C42.6323 79.1192 44.5942 78.8578 46.1205 79.6335C47.5345 80.3539 48.0238 82.0193 48.3454 83.4668C48.5616 84.4402 48.6671 85.4337 48.7207 86.4273C48.967 90.986 48.2684 95.5431 48.4996 100.104C48.7107 104.26 49.8014 108.595 53.4621 111.037C55.2464 112.228 57.5384 113.08 59.708 112.889C61.8777 112.698 63.9183 111.679 65.6741 110.427C70.0787 107.293 73.4329 102.523 75.4551 97.5519C76.4453 95.1176 77.1372 92.5123 77.1992 89.8736C77.2796 86.5144 76.1018 82.6073 78.3385 79.6821C80.3406 77.0634 83.9561 76.3179 87.0271 75.8203C90.0981 75.3227 93.0636 75.1283 95.9704 74.2588C98.6862 73.4462 101.171 71.9267 102.595 69.4035C104.232 66.5017 104.337 62.9381 103.898 59.713C103.022 53.2761 99.5373 47.3401 94.7038 43.0578C89.4581 38.4102 82.6627 35.8653 75.7366 35.1951C72.2685 34.8601 68.7703 34.9974 65.329 35.5386C65.0107 35.5889 65.1464 36.073 65.463 36.0228L65.4597 36.0245Z" fill="#4B2C20"/>
<path d="M64.6505 37.7585C71.2549 36.7014 78.2313 37.3095 84.3783 40.0371C89.9909 42.5267 94.7189 46.8258 97.5285 52.3077C98.8973 54.98 99.7853 57.9136 100.023 60.9126C100.27 64.0138 99.8741 67.4383 97.7045 69.8358C95.8883 71.8429 93.2596 72.6974 90.6778 73.2017C87.9402 73.7361 85.1423 73.9238 82.4231 74.5638C79.6721 75.2121 76.7201 76.4704 75.559 79.2532C74.3979 82.0361 75.3328 85.1758 75.1837 88.1077C74.9257 93.1356 72.4344 98.0814 69.3282 101.95C67.822 103.826 66.0729 105.564 64.0339 106.859C62.3853 107.906 60.4536 108.717 58.4632 108.586C56.4728 108.455 54.2914 107.412 52.8288 106.035C51.4449 104.731 50.5989 103.004 50.1314 101.181C49.1044 97.1666 49.5869 92.8893 49.7377 88.803C49.8097 86.8696 49.85 84.9178 49.597 82.9961C49.4747 82.0645 49.2719 81.1531 48.957 80.2668C48.4543 78.8511 47.5681 77.8074 46.0585 77.4689C44.6562 77.1539 43.1366 77.3684 41.7628 77.7319C40.389 78.0955 38.995 78.7204 37.7251 79.4476C35.0294 80.9906 32.6637 83.0279 30.164 84.8558C27.9089 86.506 25.4729 87.8313 22.7285 88.4629C20.2389 89.0342 17.4242 89.0325 15.2227 87.5816C12.4818 85.7739 11.8837 82.408 11.4363 79.3923C10.9555 76.1403 10.6405 72.6438 12.4349 69.7135C13.7199 67.6159 15.7572 66.1231 17.7694 64.7811C19.8134 63.419 21.9545 62.1624 23.7757 60.4971C25.7426 58.6977 27.1181 56.4041 27.4415 53.7251C27.8201 50.5955 26.8216 47.4608 25.4896 44.6662C22.6129 38.6281 17.3673 33.6119 16.2012 26.8131C15.6684 23.7019 16.3654 20.5019 18.4378 18.0776C20.2724 15.9331 22.8509 14.5542 25.4913 13.6612C28.6109 12.6074 31.9382 12.1735 35.2187 12.0394C38.9649 11.8887 42.7295 12.2103 46.3936 13.0095C49.5568 13.6998 52.6479 14.8189 54.5193 17.6219C56.0607 19.9306 56.5834 22.757 56.7744 25.4795C56.8749 26.9103 56.885 28.3444 56.8649 29.7769C56.8464 31.0687 56.6822 32.4224 56.8732 33.7041C57.1581 35.6241 58.4917 36.9677 60.3179 37.5122C61.6833 37.9177 63.1862 37.9445 64.5868 37.7099C64.9051 37.6563 64.7694 37.1721 64.4528 37.2258C62.9633 37.4754 61.2946 37.41 59.8873 36.8304C59.0278 36.4769 58.2806 35.8854 57.8299 35.0611C57.2184 33.9403 57.3021 32.6804 57.3323 31.4473C57.4596 26.22 57.6975 19.7396 53.638 15.7773C51.2121 13.4082 47.6803 12.666 44.4485 12.1232C40.7358 11.4983 36.9477 11.3408 33.1965 11.6641C27.6123 12.145 21.0733 13.6043 17.5499 18.3892C15.7304 20.8588 15.2026 23.9549 15.7153 26.9438C16.2933 30.313 17.9738 33.4243 19.7748 36.2859C21.5759 39.1474 23.6584 41.9403 25.126 45.0666C26.525 48.0472 27.5286 51.4834 26.7462 54.7756C25.4561 60.1938 19.9357 62.4757 15.8695 65.4931C13.9662 66.9055 12.2221 68.5926 11.309 70.8226C10.0022 74.0092 10.6087 77.6666 11.175 80.9521C11.6709 83.8304 12.6912 86.7456 15.3752 88.2619C17.5985 89.5167 20.2992 89.5117 22.7302 88.9739C25.4796 88.3657 27.9659 87.0639 30.231 85.4221C32.7793 83.5741 35.1768 81.4949 37.911 79.9167C39.2497 79.1443 40.6704 78.506 42.1766 78.1441C43.6526 77.7889 45.4755 77.5493 46.8728 78.2949C48.1477 78.9751 48.59 80.5148 48.8849 81.8367C49.0843 82.7364 49.1831 83.6545 49.2351 84.5726C49.4696 88.7896 48.8397 93.0049 49.0659 97.2236C49.2719 101.072 50.2906 105.085 53.6766 107.348C55.3302 108.454 57.4613 109.246 59.4718 109.077C61.4823 108.908 63.4475 107.929 65.0978 106.74C69.1724 103.803 72.2668 99.3614 74.1215 94.7339C75.0279 92.4738 75.6545 90.0512 75.6964 87.6051C75.75 84.4838 74.6459 80.8164 76.7871 78.124C78.6786 75.7483 81.9875 75.0681 84.8256 74.6023C87.5901 74.1499 90.4215 73.9439 93.1105 73.1212C95.6605 72.3405 97.9725 70.8762 99.2643 68.4754C100.729 65.7562 100.786 62.4607 100.357 59.4717C99.5038 53.5425 96.2435 48.084 91.7752 44.1552C86.8981 39.8662 80.5869 37.5273 74.1651 36.9275C70.9449 36.626 67.6997 36.765 64.508 37.2743C64.1897 37.3246 64.3254 37.8105 64.6421 37.7585H64.6505Z" fill="#4B2C20"/>
<path d="M63.8412 39.4908C69.9213 38.4956 76.3515 39.0318 82.0227 41.5248C87.2215 43.81 91.6094 47.7757 94.2113 52.8471C95.4728 55.3066 96.2921 58.009 96.5116 60.7684C96.7378 63.62 96.3708 66.7647 94.3654 68.9628C92.6984 70.789 90.3025 71.5748 87.9419 72.0439C85.4372 72.5415 82.8772 72.7241 80.3892 73.3138C77.9012 73.9036 75.1469 75.0496 74.0562 77.5777C72.9655 80.1059 73.8216 83.1099 73.6926 85.8559C73.4731 90.485 71.1912 95.0505 68.3464 98.6241C66.9659 100.358 65.3591 101.965 63.486 103.164C61.9715 104.135 60.1989 104.887 58.366 104.773C56.5331 104.659 54.5344 103.711 53.1857 102.454C51.909 101.265 51.1249 99.688 50.686 98.016C49.7176 94.32 50.1482 90.3728 50.2755 86.6031C50.3358 84.8239 50.3677 83.0295 50.1331 81.262C50.0209 80.4142 49.8382 79.5849 49.5551 78.779C49.0927 77.4655 48.3019 76.4737 46.9012 76.1419C45.6095 75.8353 44.1988 76.0313 42.9305 76.3648C41.6204 76.7082 40.3756 77.2728 39.2028 77.9447C36.7182 79.3688 34.5418 81.2519 32.2465 82.9474C30.1556 84.4921 27.9022 85.7403 25.3522 86.3368C23.0821 86.8662 20.5153 86.8813 18.4898 85.5811C15.9499 83.951 15.3685 80.8733 14.9463 78.1038C14.4872 75.0898 14.1639 71.8412 15.8209 69.1153C16.997 67.1802 18.8667 65.7997 20.7164 64.5565C22.5979 63.2933 24.5698 62.1272 26.2435 60.5841C28.0563 58.9138 29.3162 56.7927 29.6077 54.3165C29.9512 51.4013 28.9996 48.4844 27.743 45.8909C25.059 40.347 20.2071 35.7329 19.1449 29.4636C18.6607 26.6053 19.3158 23.6667 21.224 21.4484C22.9179 19.4782 25.2936 18.2082 27.7246 17.3839C30.6046 16.4088 33.6773 16.0017 36.7064 15.876C40.1879 15.7303 43.6845 16.0285 47.0889 16.7724C49.9605 17.4007 52.7434 18.4428 54.4406 20.9843C55.8479 23.0937 56.3354 25.6755 56.5197 28.1634C56.6169 29.4719 56.632 30.7854 56.6186 32.0973C56.6069 33.3053 56.4577 34.5702 56.6387 35.7681C56.9067 37.5423 58.1482 38.7855 59.8404 39.2814C61.1036 39.6517 62.4942 39.6718 63.7876 39.4506C64.106 39.397 63.9702 38.9111 63.6536 38.9664C62.2848 39.201 60.7501 39.1457 59.4534 38.618C58.6642 38.2963 57.9773 37.7568 57.5635 37.0029C56.9989 35.9758 57.0709 34.8215 57.0944 33.6906C57.1949 28.8788 57.3926 22.9245 53.6699 19.2721C51.4399 17.084 48.2014 16.4004 45.2242 15.9045C41.7996 15.3332 38.3048 15.1925 34.8451 15.4957C29.6647 15.9498 23.5981 17.3119 20.3394 21.7634C18.6657 24.0503 18.1899 26.9136 18.6724 29.6713C19.2119 32.7507 20.7516 35.5955 22.4052 38.2108C24.099 40.8898 26.0056 43.4113 27.3761 46.2846C28.6813 49.0205 29.6362 52.177 28.9493 55.2162C27.81 60.2524 22.7034 62.3835 18.9505 65.1898C17.1964 66.5017 15.5913 68.0665 14.7536 70.1289C13.5574 73.0743 14.1287 76.4502 14.6632 79.4777C15.1339 82.1533 16.1007 84.8607 18.6154 86.2412C20.6846 87.3772 23.1809 87.3504 25.4259 86.836C27.9625 86.2547 30.2444 85.035 32.332 83.507C34.6725 81.7914 36.8773 79.868 39.3988 78.4138C40.6319 77.7017 41.9387 77.1153 43.3276 76.7853C44.7165 76.4552 46.3651 76.2425 47.6351 76.9528C48.776 77.5911 49.1748 79.0035 49.4428 80.2048C49.6271 81.0308 49.7193 81.8735 49.7679 82.7179C49.994 86.6098 49.4261 90.5018 49.6539 94.3954C49.8617 97.9389 50.825 101.623 53.9513 103.692C55.481 104.704 57.4479 105.428 59.3009 105.264C61.1539 105.1 62.9684 104.193 64.4896 103.087C68.2408 100.363 71.0823 96.2551 72.7795 91.9778C73.6088 89.8886 74.1785 87.6519 74.2103 85.3952C74.2488 82.5235 73.2201 79.1493 75.1787 76.6647C76.9043 74.4766 79.9419 73.8382 82.5454 73.401C85.0937 72.9721 87.7073 72.776 90.1869 72.0087C92.5224 71.2866 94.6452 69.948 95.8397 67.7532C97.2052 65.2434 97.2605 62.2026 96.8634 59.4382C96.0726 53.9462 93.0401 48.8932 88.8885 45.2693C84.3716 41.3271 78.5446 39.1909 72.617 38.6565C69.6465 38.3884 66.6509 38.5275 63.7089 39.0083C63.3906 39.0603 63.5263 39.5444 63.8429 39.4925L63.8412 39.4908Z" fill="#4B2C20"/>
<path d="M63.032 41.2232C68.5876 40.29 74.4683 40.7558 79.6654 43.0126C84.4302 45.0817 88.4579 48.6938 90.8571 53.3213C92.0198 55.5647 92.7788 58.0309 92.9899 60.5523C93.201 63.0738 92.8793 66.0678 91.028 68.0866C89.5017 69.7503 87.3052 70.464 85.1507 70.8963C82.8587 71.357 80.5165 71.5346 78.243 72.0908C75.9695 72.6471 73.4681 73.7227 72.4913 76.0465C71.471 78.4691 72.3171 81.1263 72.1981 83.6461C72.0004 87.8815 69.9263 92.0633 67.3277 95.337C66.0729 96.9186 64.6153 98.3846 62.9131 99.4803C61.5376 100.365 59.9275 101.054 58.2621 100.956C56.5968 100.859 54.7907 100.013 53.5593 98.8872C52.3279 97.7613 51.6527 96.3808 51.2405 94.8562C50.3291 91.4819 50.7061 87.8681 50.81 84.4218C50.8585 82.7799 50.882 81.1246 50.6608 79.4928C50.5553 78.7154 50.3844 77.9531 50.1197 77.2125C49.6891 76.0062 48.957 75.0932 47.6669 74.7933C46.4841 74.5185 45.1974 74.7011 44.038 75.0077C42.8484 75.3227 41.7175 75.837 40.6537 76.4502C38.4019 77.7453 36.43 79.4592 34.3575 81.0107C32.4509 82.4381 30.4103 83.6059 28.0798 84.1805C25.9956 84.6949 23.6266 84.7435 21.7451 83.5707C19.4096 82.1148 18.8483 79.3202 18.4512 76.797C18.0173 74.041 17.6889 71.0638 19.1784 68.5524C20.2339 66.7731 21.9344 65.4998 23.6165 64.3555C25.3338 63.1877 27.1382 62.1138 28.6712 60.6998C30.3114 59.1869 31.4725 57.2685 31.7556 55.0269C32.0924 52.3579 31.2379 49.689 30.0919 47.31C27.6308 42.2067 23.1407 37.9997 22.1103 32.2514C21.6429 29.6445 22.2058 26.9505 23.9298 24.9031C25.4594 23.087 27.619 21.9075 29.8356 21.1402C32.4576 20.2321 35.2606 19.8417 38.0233 19.7094C41.2066 19.5569 44.4082 19.8082 47.5262 20.47C50.1767 21.033 52.7601 21.9645 54.335 24.3033C55.6284 26.225 56.0841 28.5823 56.2634 30.8558C56.3572 32.0537 56.3756 33.255 56.3689 34.4563C56.3622 35.5637 56.2316 36.7231 56.4025 37.8222C56.6554 39.4523 57.8048 40.5916 59.3612 41.0406C60.5239 41.3757 61.7989 41.3891 62.9851 41.1813C63.3034 41.126 63.1677 40.6419 62.8511 40.6971C61.6012 40.9166 60.2023 40.8714 59.0161 40.3939C58.2839 40.099 57.6506 39.5998 57.272 38.8994C56.7627 37.9562 56.8347 36.8923 56.8531 35.8569C56.9268 31.4473 57.0693 25.9888 53.6179 22.6765C51.5488 20.6912 48.5632 20.0847 45.8273 19.6457C42.6876 19.1414 39.4859 19.0308 36.3194 19.3291C31.5964 19.773 26.076 21.0497 23.1239 25.1243C21.5842 27.2487 21.1654 29.9009 21.6379 32.4508C22.1589 35.2688 23.5863 37.864 25.116 40.2532C26.6925 42.716 28.4584 45.0381 29.72 47.6919C30.9079 50.1916 31.759 53.075 31.1022 55.8428C30.0232 60.3898 25.3757 62.335 21.9863 64.9034C20.383 66.118 18.9254 67.5656 18.1748 69.4688C17.0992 72.1964 17.6521 75.3344 18.1698 78.124C18.6188 80.5499 19.5486 82.9826 21.8423 84.204C23.7723 85.2327 26.086 85.1791 28.1602 84.6765C30.4823 84.1135 32.5531 82.9709 34.4597 81.5569C36.5724 79.987 38.5695 78.2379 40.8547 76.9126C41.9705 76.2659 43.1534 75.7332 44.4116 75.4299C45.6698 75.1267 47.1693 74.9273 48.3253 75.5673C49.3674 76.1453 49.7343 77.432 49.9823 78.5227C50.1532 79.2766 50.2403 80.0456 50.2889 80.8163C50.5101 84.3782 50.0058 87.9435 50.2303 91.5054C50.4363 94.7724 51.3427 98.1584 54.2445 100.04C55.6535 100.955 57.458 101.601 59.1535 101.435C60.849 101.27 62.4741 100.449 63.8513 99.4418C67.2842 96.9354 69.876 93.1624 71.4208 89.2352C72.173 87.3253 72.689 85.2796 72.7142 83.2188C72.7477 80.5935 71.791 77.5392 73.5267 75.2406C75.0715 73.1932 77.8979 72.5951 80.2836 72.183C82.6694 71.7708 84.9697 71.5932 87.2215 70.8963C89.3576 70.2345 91.3128 69.0165 92.4135 67.011C93.6768 64.7107 93.7287 61.9211 93.3601 59.3829C92.6313 54.3533 89.8468 49.7276 86.0386 46.4153C81.8786 42.7948 76.514 40.8463 71.0572 40.3771C68.3347 40.1426 65.592 40.2816 62.8997 40.734C62.5813 40.7876 62.717 41.2718 63.0337 41.2182L63.032 41.2232Z" fill="#4B2C20"/>
<path d="M62.2245 42.9572C67.2557 42.086 72.5902 42.4814 77.3098 44.502C81.6374 46.355 85.3048 49.6086 87.5013 53.7887C88.5601 55.8026 89.2588 58.0191 89.4682 60.2876C89.6776 62.5561 89.4196 65.287 87.7677 67.1333C86.3905 68.6713 84.3901 69.3365 82.4248 69.7419C80.3473 70.1691 78.2212 70.3417 76.1605 70.8577C74.0997 71.3737 71.8229 72.3689 70.9416 74.4883C70.0252 76.6931 70.8042 79.1041 70.7087 81.3927C70.5479 85.2327 68.6882 89.0275 66.351 92.0097C65.2134 93.4589 63.8865 94.8059 62.3334 95.8095C61.0919 96.612 59.6377 97.2336 58.1315 97.1431C56.6253 97.0526 54.9817 96.2887 53.8676 95.2633C52.8121 94.2949 52.1553 93.0082 51.78 91.6377C50.9457 88.5868 51.2707 85.3148 51.3478 82.1935C51.3846 80.7108 51.3964 79.2163 51.192 77.7436C51.0965 77.05 50.9423 76.3698 50.7078 75.7097C50.3174 74.6073 49.669 73.7511 48.4895 73.463C47.4156 73.1999 46.2395 73.3675 45.184 73.6473C44.1285 73.9271 43.0746 74.4012 42.1079 74.9591C40.0673 76.1386 38.283 77.7001 36.4116 79.1208C34.6893 80.4276 32.8497 81.5066 30.7387 82.0477C28.8421 82.5336 26.6775 82.6006 24.9552 81.5401C22.8341 80.2333 22.3164 77.7051 21.9445 75.4215C21.539 72.9302 21.2257 70.2328 22.5627 67.9543C23.511 66.3392 25.0423 65.1764 26.5619 64.1327C28.1301 63.0554 29.777 62.0652 31.1709 60.7584C32.6687 59.3544 33.6974 57.5802 33.9286 55.5177C34.1984 53.1085 33.3992 50.701 32.3504 48.5665C30.1037 43.9876 26.0626 40.2196 25.0741 35.0594C24.6251 32.7155 25.0842 30.2778 26.6054 28.4047C27.9592 26.7377 29.9043 25.642 31.9014 24.9266C34.2821 24.0721 36.8321 23.6985 39.3502 23.5594C42.2353 23.4003 45.1421 23.6064 47.9735 24.1877C50.3777 24.6803 52.7451 25.4929 54.1976 27.5988C55.3888 29.3262 55.8211 31.4539 55.9987 33.5113C56.0925 34.597 56.116 35.6877 56.116 36.7784C56.116 37.8037 56.0004 38.876 56.1629 39.8929C56.3991 41.379 57.458 42.4144 58.877 42.8182C59.9376 43.1198 61.1003 43.1248 62.1793 42.9288C62.4976 42.8718 62.3619 42.3876 62.0452 42.4446C60.9076 42.6507 59.6259 42.6155 58.5453 42.1765C57.8969 41.9135 57.339 41.4695 57.0006 40.8513C56.5348 40.0018 56.5985 39.0402 56.6085 38.1036C56.6555 34.0944 56.7577 29.1335 53.6062 26.1396C51.6996 24.3285 48.9536 23.7923 46.4422 23.407C43.5639 22.9664 40.6319 22.8876 37.7351 23.1875C33.4578 23.6298 28.4618 24.8428 25.8482 28.5856C22.7654 33.0003 25.2467 38.3449 27.8285 42.3189C29.2509 44.5087 30.8325 46.5761 31.9751 48.9368C33.0574 51.1717 33.8516 53.7586 33.307 56.2499C32.3923 60.4367 28.1535 62.2361 25.0641 64.6001C23.6098 65.7126 22.2896 67.0378 21.6144 68.7752C20.6494 71.2581 21.1654 74.108 21.6496 76.6429C22.0701 78.846 22.9279 81.0592 25.0205 82.1583C26.783 83.0848 28.8857 83.0278 30.7738 82.5604C32.8798 82.0394 34.7579 80.9922 36.4819 79.6971C38.407 78.2513 40.2265 76.6395 42.314 75.4249C43.3243 74.8368 44.3949 74.3543 45.5341 74.0812C46.6734 73.8081 48.0673 73.6238 49.1094 74.2521C50.0008 74.7899 50.3191 75.956 50.5352 76.916C50.6893 77.5962 50.7681 78.2898 50.8133 78.9834C51.0211 82.1968 50.5871 85.4153 50.8049 88.6304C51.0043 91.5825 51.8336 94.6417 54.4489 96.3506C55.7223 97.1833 57.3675 97.7764 58.9038 97.6374C60.4402 97.4983 61.9447 96.7444 63.2046 95.8229C66.3192 93.5393 68.6631 90.1031 70.057 86.5328C70.7406 84.7803 71.2063 82.9039 71.2231 81.0157C71.2432 78.6534 70.3686 75.9174 71.8865 73.8282C73.2637 71.9333 75.8522 71.3737 78.0219 70.9884C80.1195 70.6165 82.2724 70.4322 84.313 69.7888C86.2749 69.1689 88.0609 68.0363 89.0494 66.1783C90.1685 64.0757 90.1953 61.5425 89.8435 59.2388C89.1499 54.7035 86.6167 50.5418 83.1687 47.5613C79.3672 44.2758 74.4734 42.52 69.5024 42.1195C67.0295 41.9202 64.5382 42.0576 62.0938 42.4814C61.7755 42.5367 61.9112 43.0209 62.2278 42.9656L62.2245 42.9572Z" fill="#4B2C20"/>
<path d="M61.4153 44.6896C65.9372 43.8788 70.7272 44.2105 74.9844 46.0032C78.8797 47.6434 82.1903 50.5636 84.1739 54.3081C85.1356 56.1243 85.7723 58.1264 85.9599 60.1754C86.1476 62.2244 85.9046 64.6403 84.4135 66.2789C83.1788 67.636 81.3978 68.2257 79.652 68.5926C77.8007 68.9813 75.9058 69.1488 74.0713 69.6213C72.2367 70.0938 70.176 71.0102 69.3919 72.9269C68.5743 74.9256 69.2997 77.1037 69.2193 79.1745C69.0836 82.6308 67.4199 86.057 65.3206 88.746C64.3137 90.0344 63.1376 91.234 61.7604 92.1287C60.6446 92.8541 59.3344 93.4154 57.979 93.3232C56.6119 93.2294 55.151 92.5442 54.1541 91.6143C53.2209 90.7431 52.6412 89.5904 52.3078 88.3691C51.5639 85.6365 51.837 82.7096 51.8873 79.9133C51.9107 78.5847 51.909 77.2477 51.7164 75.9292C51.6242 75.3009 51.4768 74.6844 51.2573 74.0879C50.8837 73.0743 50.2504 72.3187 49.1564 72.0925C48.1796 71.8898 47.1258 72.0557 46.1775 72.3237C45.2292 72.5918 44.2893 73.0324 43.4248 73.5468C41.5886 74.6375 39.9886 76.0683 38.2947 77.3583C36.7584 78.5294 35.0997 79.4827 33.2116 79.9552C31.5144 80.3791 29.5826 80.4159 28.0631 79.4341C26.2168 78.2446 25.7711 75.9945 25.431 73.979C25.054 71.7407 24.7776 69.3264 25.9889 67.2825C26.84 65.8483 28.2038 64.8096 29.5508 63.873C30.9464 62.9029 32.4141 62.0066 33.6505 60.8288C34.9858 59.5555 35.8989 57.9555 36.0949 56.1008C36.3261 53.9127 35.5789 51.7314 34.6105 49.8013C32.5498 45.6982 28.879 42.3173 28.0078 37.6613C27.6174 35.5755 28.0463 33.4092 29.4034 31.7488C30.613 30.2711 32.3353 29.2927 34.1079 28.6477C36.2323 27.8753 38.5092 27.5268 40.7593 27.3878C43.3679 27.2269 45.9982 27.4012 48.5633 27.9138C50.7095 28.3444 52.8138 29.0682 54.1122 30.9413C55.1744 32.4743 55.5732 34.3658 55.7424 36.1937C55.8328 37.1771 55.8613 38.1656 55.8664 39.1524C55.8714 40.0588 55.7792 41.0038 55.92 41.9018C56.1327 43.2605 57.0944 44.2105 58.3979 44.5724C59.3562 44.8371 60.405 44.8371 61.3784 44.6545C61.6968 44.5958 61.561 44.11 61.2444 44.1703C60.2274 44.3613 59.0831 44.3361 58.1131 43.9491C57.525 43.7146 57.019 43.3125 56.7175 42.7512C56.3053 41.9889 56.3639 41.1227 56.369 40.2867C56.3874 36.6896 56.441 32.2431 53.5962 29.5758C51.8856 27.9725 49.4445 27.5 47.2028 27.1666C44.6127 26.7813 41.9789 26.721 39.3754 27.0008C35.5152 27.4146 31.0134 28.5254 28.6612 31.908C27.4415 33.6622 27.1382 35.8268 27.547 37.8976C27.9977 40.1744 29.1739 42.2653 30.4321 44.187C31.7272 46.1657 33.1764 48.0254 34.2319 50.1531C35.2271 52.1619 35.971 54.4924 35.4935 56.7458C34.701 60.4837 30.9414 62.1289 28.1921 64.2433C26.8903 65.2452 25.7074 66.4313 25.0909 67.9828C24.2046 70.2194 24.6787 72.7811 25.121 75.0664C25.5014 77.0333 26.2486 79.0153 28.0966 80.0323C29.6664 80.8968 31.5613 80.8666 33.2618 80.4561C35.1668 79.9971 36.8757 79.0555 38.4288 77.881C40.1544 76.5759 41.7762 75.1166 43.6376 74.0008C44.5356 73.463 45.4906 73.014 46.5059 72.751C47.5212 72.4879 48.7559 72.2986 49.7093 72.8079C50.552 73.2586 50.8569 74.294 51.0663 75.1669C51.2104 75.7684 51.2892 76.3849 51.3361 77.0015C51.5522 79.8865 51.1786 82.7816 51.3813 85.6683C51.5689 88.3289 52.3095 91.0949 54.6634 92.6413C55.806 93.3919 57.2921 93.9314 58.6727 93.8141C60.0532 93.6968 61.4069 93.025 62.5378 92.1974C65.3508 90.1366 67.4518 87.0237 68.6983 83.7952C69.3081 82.2153 69.7219 80.5248 69.732 78.8243C69.7437 76.7099 68.9378 74.2706 70.2547 72.3807C71.4593 70.65 73.7982 70.1273 75.745 69.7687C77.6147 69.4236 79.5331 69.2477 81.3526 68.6697C83.1034 68.1151 84.705 67.1132 85.6064 65.4646C86.6468 63.5631 86.6686 61.256 86.3419 59.1651C85.7036 55.0738 83.3966 51.3242 80.2686 48.6537C76.8457 45.7318 72.4579 44.1786 68.0013 43.8369C65.7579 43.6643 63.4995 43.8017 61.2863 44.1988C60.9679 44.2557 61.1037 44.7399 61.4203 44.6829L61.4153 44.6896Z" fill="#4B2C20"/>
<path d="M60.6061 46.422C64.6153 45.6698 68.8675 45.9362 72.6572 47.5027C76.1153 48.9318 79.0606 51.5052 80.8365 54.8108C81.6843 56.389 82.2539 58.1297 82.4366 59.914C82.6309 61.8089 82.4315 63.9132 81.0979 65.3842C80.0256 66.5654 78.4843 67.0931 76.9664 67.4265C75.3261 67.7884 73.6457 67.9493 72.0189 68.3765C70.3284 68.8205 68.5324 69.6414 67.8388 71.3671C67.1251 73.1447 67.7835 75.0747 67.7265 76.9127C67.631 79.9719 66.1835 83.0027 64.3523 85.3986C63.4676 86.5563 62.4239 87.6352 61.2025 88.4377C60.2324 89.0761 59.0948 89.5754 57.9103 89.5117C56.7091 89.4463 55.4157 88.8583 54.5294 88.0558C53.6883 87.2935 53.1606 86.2798 52.8557 85.1975C52.1721 82.7816 52.3949 80.1847 52.42 77.7051C52.4318 76.5173 52.4217 75.3227 52.2408 74.1466C52.1553 73.597 52.023 73.0592 51.827 72.5382C51.4986 71.6619 50.9608 70.9834 50.0125 70.7656C49.148 70.5679 48.2098 70.7103 47.3654 70.9449C46.521 71.1794 45.6983 71.5631 44.936 72.0138C43.331 72.9654 41.9304 74.2186 40.4677 75.3679C39.1006 76.4419 37.6363 77.3382 35.9441 77.7956C34.453 78.1994 32.7441 78.2831 31.372 77.4622C29.6966 76.4603 29.2559 74.4934 28.9376 72.7074C28.5858 70.7271 28.2909 68.5792 29.328 66.7463C30.0601 65.4529 31.2647 64.513 32.4576 63.6703C33.6505 62.8276 34.9674 62.0049 36.0564 60.9662C37.2644 59.8152 38.0887 58.3676 38.2528 56.6872C38.4422 54.7588 37.7754 52.8388 36.9142 51.1433C35.0629 47.5027 31.764 44.5221 30.9565 40.3872C30.5946 38.5376 30.9665 36.6075 32.1695 35.1332C33.2467 33.8129 34.7797 32.9384 36.3613 32.3604C38.2495 31.6684 40.2751 31.3501 42.2738 31.2211C44.5842 31.0703 46.9147 31.2144 49.1865 31.6617C51.0697 32.032 52.9042 32.6804 54.0368 34.3239C54.9734 35.6827 55.3285 37.3564 55.486 38.9749C55.5698 39.841 55.5983 40.7106 55.61 41.5801C55.6201 42.3776 55.5463 43.212 55.6804 44.0011C55.8848 45.199 56.756 46.0333 57.907 46.3416C58.7631 46.5728 59.6997 46.5644 60.5675 46.3952C60.8842 46.3332 60.7501 45.849 60.4335 45.911C59.5372 46.0853 58.5302 46.0719 57.6724 45.7385C57.1715 45.5441 56.7342 45.209 56.4645 44.7399C56.0825 44.0765 56.121 43.3175 56.1193 42.5786C56.1126 39.3987 56.1394 35.49 53.6615 33.1126C52.152 31.6634 49.9941 31.2412 47.9936 30.9514C45.6749 30.6146 43.3176 30.5694 40.9888 30.8341C37.5525 31.2228 33.5533 32.2297 31.4641 35.2454C30.3818 36.8052 30.1121 38.7319 30.4823 40.5715C30.8911 42.6071 31.9567 44.4719 33.096 46.1808C34.2671 47.9399 35.5772 49.5919 36.5289 51.4901C37.4151 53.2593 38.0803 55.3151 37.6581 57.3054C36.9611 60.5942 33.6488 62.0753 31.2379 63.9585C30.0735 64.8682 29.0214 65.9555 28.497 67.3629C27.7497 69.3667 28.1971 71.6552 28.6159 73.6842C28.9778 75.4366 29.6982 77.1874 31.377 78.0419C32.8028 78.7673 34.4899 78.702 36.0028 78.3066C37.6882 77.8643 39.1793 77.0031 40.5481 75.9443C42.056 74.7799 43.4767 73.4848 45.1153 72.498C45.9145 72.0171 46.7639 71.6184 47.6703 71.3889C48.5767 71.1593 49.6473 71.0018 50.4716 71.481C51.1618 71.8831 51.4198 72.7694 51.6025 73.5015C51.7365 74.0393 51.8102 74.5889 51.8554 75.1401C52.0632 77.7001 51.7516 80.2718 51.956 82.8319C52.1453 85.1925 52.8288 87.6369 54.9298 88.9923C55.9568 89.6541 57.2904 90.1232 58.5235 90.0043C59.7566 89.8853 60.9428 89.2805 61.943 88.5349C64.4277 86.6803 66.2739 83.8991 67.3579 81.0174C67.8857 79.6151 68.2375 78.1156 68.2342 76.6111C68.2291 74.7296 67.492 72.5566 68.6748 70.8745C69.732 69.37 71.7676 68.9009 73.4648 68.5725C75.1351 68.2508 76.8491 68.0816 78.4725 67.5488C80.096 67.0161 81.4263 66.1398 82.212 64.6755C83.1235 62.9767 83.1302 60.9277 82.8269 59.0696C82.2389 55.4642 80.1865 52.1636 77.417 49.8181C74.3477 47.2162 70.4189 45.8507 66.4331 45.5759C64.4411 45.4386 62.4373 45.5759 60.4754 45.9445C60.1571 46.0048 60.2928 46.489 60.6094 46.4287L60.6061 46.422Z" fill="#4B2C20"/>
<path d="M59.7968 48.1544C63.2833 47.4641 66.9843 47.6618 70.2999 48.9904C73.3073 50.195 75.884 52.3965 77.4572 55.2363C78.2195 56.6118 78.7406 58.1331 78.9165 59.6996C79.0991 61.3281 78.955 63.1476 77.8292 64.4326C76.9077 65.4847 75.5623 65.9622 74.2354 66.2688C72.808 66.5989 71.3437 66.7547 69.928 67.14C68.4402 67.5472 66.8804 68.286 66.2823 69.8123C65.6657 71.3855 66.2773 73.0894 66.232 74.7095C66.1583 77.3667 64.9235 80.0004 63.3503 82.0947C62.5947 83.1016 61.6984 84.0415 60.6496 84.7452C59.8102 85.3081 58.8234 85.7504 57.793 85.6968C56.7627 85.6432 55.6401 85.1489 54.8728 84.462C54.144 83.812 53.6782 82.9441 53.4052 82.0143C52.7869 79.92 52.9561 77.6616 52.9578 75.507C52.9578 74.48 52.9394 73.4479 52.7786 72.4326C52.5892 71.233 52.1771 69.7721 50.8502 69.4353C50.0962 69.2443 49.2719 69.37 48.5331 69.5727C47.7942 69.7754 47.0855 70.1055 46.4254 70.4975C45.0248 71.3302 43.8101 72.4326 42.5452 73.4513C41.3607 74.4063 40.1008 75.2188 38.6264 75.6477C37.3313 76.0264 35.8319 76.1353 34.6189 75.445C33.1445 74.6056 32.7324 72.9085 32.4392 71.3587C32.1108 69.6247 31.8226 67.7331 32.729 66.118C33.3556 64.9989 34.386 64.1779 35.4097 63.4391C36.4333 62.7002 37.5944 61.958 38.5376 61.0382C39.5714 60.028 40.275 58.7697 40.4141 57.3138C40.5766 55.6116 39.9735 53.9211 39.1977 52.4334C37.5525 49.2769 34.649 46.7068 33.9085 43.1114C33.5768 41.4997 33.8884 39.8142 34.9322 38.5208C35.8536 37.3782 37.1705 36.6125 38.5276 36.0999C40.1712 35.48 41.937 35.1834 43.6828 35.0527C45.6564 34.9053 47.6501 35.0042 49.597 35.3593C51.264 35.6626 52.9092 36.1954 53.9279 37.6412C54.7539 38.814 55.0789 40.2649 55.2297 41.6689C55.3084 42.4111 55.3419 43.1567 55.3603 43.9039C55.3788 44.6511 55.3168 45.3581 55.4441 46.0601C55.6351 47.114 56.4108 47.8444 57.4278 48.1075C58.1834 48.3018 59.0043 48.2884 59.765 48.1326C60.0816 48.0673 59.9476 47.5831 59.631 47.6484C58.8586 47.8076 57.9874 47.8025 57.2385 47.5228C56.8079 47.3619 56.4276 47.0771 56.193 46.6784C55.8563 46.107 55.8848 45.452 55.8764 44.812C55.8429 42.0207 55.8295 38.5828 53.6179 36.5304C52.2776 35.2873 50.3961 34.9438 48.6453 34.7059C46.6332 34.4345 44.5909 34.4161 42.5754 34.6624C39.5613 35.031 36.058 35.9441 34.2486 38.6096C33.3137 39.9868 33.0926 41.679 33.4327 43.289C33.808 45.0633 34.7546 46.6834 35.7632 48.1661C36.8002 49.6907 37.9563 51.1198 38.8023 52.7668C39.5864 54.2931 40.1862 56.074 39.8361 57.803C39.2597 60.6663 36.3914 61.9882 34.3106 63.6435C33.2953 64.451 32.3805 65.4161 31.9332 66.6558C31.2932 68.4268 31.7087 70.4439 32.1007 72.2249C32.4375 73.7579 33.101 75.2825 34.5904 75.9996C35.8771 76.6195 37.3816 76.5307 38.7236 76.1437C40.2013 75.7198 41.4863 74.929 42.6809 73.9807C43.971 72.9554 45.1923 71.8261 46.6097 70.9717C47.2983 70.5562 48.0288 70.2144 48.8112 70.0184C49.5936 69.8224 50.5184 69.6866 51.2137 70.129C51.7767 70.4858 51.9945 71.2481 52.1486 71.8613C52.2659 72.3254 52.3329 72.7995 52.3765 73.277C52.5742 75.4953 52.3295 77.7286 52.5289 79.9485C52.7149 82.0126 53.3314 84.147 55.1794 85.3182C56.0791 85.8895 57.2485 86.2932 58.3241 86.1843C59.3997 86.0754 60.4485 85.541 61.3231 84.8775C63.4693 83.249 65.0525 80.8281 65.9824 78.3217C66.4415 77.0869 66.7464 75.765 66.7397 74.4414C66.7313 72.7878 66.0461 70.8812 67.0681 69.3918C67.9761 68.0682 69.7621 67.6477 71.2415 67.3478C72.684 67.0563 74.1651 66.8921 75.5657 66.4179C76.9663 65.9438 78.1693 65.1396 78.8428 63.8294C79.6135 62.3283 79.5967 60.539 79.3102 58.9155C78.7573 55.7775 76.9345 52.9209 74.4968 50.9004C71.8044 48.6671 68.3799 47.5094 64.9118 47.2966C63.156 47.1894 61.3901 47.3267 59.6661 47.6668C59.3495 47.7288 59.4835 48.2147 59.8002 48.151L59.7968 48.1544Z" fill="#4B2C20"/>
<path d="M58.9876 49.8884C61.9631 49.2584 65.1279 49.3874 67.9778 50.4932C70.5546 51.4934 72.7745 53.3531 74.1366 55.7674C74.7883 56.92 75.239 58.2001 75.4015 59.5169C75.5724 60.9025 75.4618 62.4573 74.5018 63.553C73.7244 64.4393 72.5935 64.8481 71.4794 65.1195C70.2631 65.416 69.0132 65.5651 67.8086 65.9153C66.604 66.2654 65.2519 66.9272 64.746 68.2173C64.2149 69.5693 64.7594 71.0269 64.746 72.4158C64.7208 74.6877 63.6972 76.9528 62.3769 78.7606C61.747 79.6234 60.9981 80.4326 60.1168 81.0408C59.4064 81.53 58.5704 81.9221 57.6875 81.8819C56.8045 81.8417 55.873 81.4396 55.2196 80.8699C54.5662 80.3003 54.1909 79.5933 53.948 78.8075C53.4035 77.04 53.5174 75.1266 53.4956 73.3005C53.4856 72.4192 53.4571 71.5312 53.3097 70.66C53.1371 69.6464 52.7769 68.4049 51.6678 68.1C51.011 67.9191 50.2822 68.0347 49.6389 68.2173C48.9938 68.3999 48.3806 68.6931 47.8093 69.0433C46.6298 69.7654 45.6095 70.7136 44.549 71.5932C43.5538 72.4192 42.4966 73.1312 41.2501 73.5183C40.1527 73.86 38.8694 73.9823 37.8256 73.406C36.554 72.704 36.1938 71.2531 35.9274 69.9312C35.6308 68.4652 35.3711 66.8686 36.1267 65.4931C36.6511 64.5398 37.519 63.8311 38.3801 63.1928C39.2899 62.5192 40.2482 61.891 41.0457 61.0801C41.9186 60.1921 42.4966 59.0914 42.5837 57.8365C42.6859 56.3839 42.1498 54.9548 41.4696 53.6983C40.0321 51.0394 37.5408 48.8882 36.8656 45.8456C36.564 44.4886 36.8019 43.0745 37.6547 41.9604C38.417 40.9669 39.5446 40.2917 40.6956 39.8393C42.0878 39.2915 43.589 39.0184 45.0751 38.8877C46.7672 38.7386 48.4828 38.8006 50.1582 39.0854C51.5555 39.3233 52.9427 39.7539 53.814 40.9484C54.531 41.9336 54.8276 43.1616 54.9717 44.3529C55.0487 44.9912 55.0856 45.6345 55.109 46.2762C55.1308 46.8743 55.0923 47.4993 55.2012 48.0907C55.3704 49.0038 56.0422 49.6404 56.9285 49.8633C57.587 50.0274 58.3024 50.009 58.9625 49.8633C59.2774 49.7946 59.1451 49.3087 58.8284 49.3791C58.1935 49.5181 57.4462 49.5299 56.8045 49.3003C56.4376 49.1696 56.1126 48.9301 55.9132 48.5916C55.6284 48.1091 55.6485 47.5529 55.6351 47.0134C55.5731 44.636 55.5178 41.7191 53.6213 39.9868C52.4569 38.9212 50.8384 38.6464 49.3256 38.4588C47.6032 38.246 45.8575 38.2577 44.1385 38.4889C41.5567 38.8341 38.5561 39.6617 37.0348 41.9704C36.2457 43.1683 36.0748 44.631 36.3898 46.0132C36.7332 47.5261 37.5626 48.8999 38.4438 50.1581C39.3402 51.4365 40.3337 52.6344 41.0725 54.0183C41.7511 55.2899 42.2889 56.781 42.0342 58.2419C41.6053 60.7115 39.1709 61.8792 37.4051 63.3167C36.5489 64.0137 35.7766 64.843 35.3963 65.8985C34.8451 67.4265 35.222 69.1572 35.5755 70.6868C35.8821 72.0121 36.4668 73.334 37.767 73.9388C38.8828 74.4582 40.1728 74.3694 41.3255 74.0209C42.6005 73.6355 43.6996 72.9352 44.7215 72.0992C45.8072 71.2112 46.8359 70.2345 48.0338 69.4939C48.6152 69.1354 49.2334 68.8389 49.8969 68.668C50.5302 68.5038 51.3344 68.3748 51.9157 68.7551C52.3815 69.0583 52.5675 69.7034 52.6998 70.216C52.802 70.6064 52.864 71.0068 52.9042 71.4089C53.0919 73.2904 52.9126 75.1886 53.1069 77.0701C53.2896 78.8393 53.8408 80.6622 55.4357 81.6523C56.2182 82.1382 57.2301 82.4716 58.1583 82.3694C59.0864 82.2672 59.9644 81.7998 60.7082 81.2268C62.5462 79.8094 63.8848 77.69 64.6521 75.5187C65.0241 74.4649 65.267 73.3373 65.2469 72.2148C65.2201 70.8058 64.6069 69.1739 65.4764 67.8973C66.2287 66.7932 67.7064 66.4179 68.9361 66.1498C70.1659 65.8818 71.4308 65.726 72.6237 65.3088C73.8166 64.8916 74.8386 64.2097 75.4166 63.0956C76.0851 61.8055 76.065 60.2658 75.8086 58.8685C75.3144 56.1762 73.7261 53.7334 71.6134 52.0212C69.2779 50.1263 66.3242 49.1646 63.3403 49.0222C61.8375 48.9502 60.3279 49.0875 58.8569 49.3992C58.5403 49.4662 58.6743 49.9504 58.9909 49.8834L58.9876 49.8884Z" fill="#4B2C20"/>
<path d="M58.1784 51.6208C60.6362 51.0511 63.2632 51.1098 65.6423 51.9877C67.7801 52.7768 69.6348 54.2796 70.7908 56.2499C71.3487 57.2015 71.7358 58.257 71.8899 59.3511C72.044 60.4451 71.9619 61.7854 71.1594 62.6868C70.5177 63.4089 69.5896 63.7457 68.6781 63.9802C67.6796 64.2365 66.6543 64.3823 65.6725 64.6956C64.6388 65.0257 63.5883 65.5919 63.1895 66.6659C62.7656 67.8119 63.2532 69.0282 63.2532 70.196C63.2532 72.0758 62.4373 73.9589 61.3667 75.4718C60.8557 76.1922 60.2425 76.8758 59.5137 77.3834C58.939 77.7838 58.2622 78.1038 57.5468 78.0687C56.8314 78.0335 56.049 77.7118 55.5112 77.2377C55.0018 76.7903 54.6718 76.1905 54.4691 75.5489C54.0117 74.098 54.077 72.5298 54.0284 71.027C54.005 70.3032 53.9681 69.5727 53.8307 68.859C53.6649 67.9978 53.3264 66.9557 52.3647 66.7362C51.2992 66.4933 50.108 67.0077 49.2234 67.5656C48.2567 68.1754 47.4257 68.9729 46.5645 69.7185C45.7034 70.464 44.8791 71.0487 43.8403 71.3955C42.944 71.6938 41.8868 71.8228 41.0189 71.362C39.9684 70.8041 39.6535 69.6213 39.4156 68.544C39.1509 67.3494 38.9046 66.0359 39.5027 64.8983C39.9249 64.0941 40.6403 63.491 41.349 62.9448C42.0912 62.3735 42.8753 61.839 43.5186 61.1538C44.2256 60.4016 44.6864 59.4784 44.7417 58.4363C44.8053 57.2233 44.3379 56.0371 43.7515 54.9984C42.5201 52.8187 40.4175 51.0746 39.8126 48.5665C39.5446 47.4524 39.7205 46.2947 40.4057 45.3631C41.024 44.5204 41.9722 43.9424 42.9289 43.5537C44.0799 43.0863 45.3264 42.8383 46.5595 42.7143C47.945 42.5736 49.3524 42.6021 50.7279 42.8165C51.8806 42.9958 53.0115 43.3409 53.7336 44.3177C54.3283 45.1202 54.578 46.1238 54.7153 47.0972C54.7891 47.6199 54.8276 48.1477 54.8561 48.6754C54.8846 49.2032 54.8577 49.7024 54.9667 50.1933C55.1359 50.9523 55.7206 51.4717 56.4661 51.6375C57.0157 51.7598 57.6071 51.733 58.1533 51.604C58.4682 51.5286 58.3342 51.0444 58.0192 51.1198C57.4965 51.2455 56.8833 51.2689 56.3472 51.0846C56.0439 50.9808 55.7792 50.7847 55.6167 50.505C55.3822 50.1029 55.4023 49.6304 55.3822 49.1814C55.2917 47.2078 55.1811 44.7734 53.5476 43.3912C52.5541 42.5501 51.2205 42.3474 49.9656 42.2167C48.5465 42.0693 47.114 42.1095 45.7034 42.3206C43.5471 42.644 41.0407 43.3895 39.8093 45.3481C39.1726 46.36 39.052 47.5847 39.3368 48.7324C39.6451 49.9755 40.3437 51.0964 41.0893 52.12C41.8349 53.1437 42.6994 54.1473 43.336 55.2832C43.9241 56.332 44.4032 57.5718 44.2022 58.7948C43.8671 60.8372 41.8499 61.829 40.4208 63.052C39.7138 63.6569 39.0855 64.379 38.8024 65.282C38.4036 66.5587 38.7387 67.9794 39.0604 69.2359C39.3385 70.3233 39.8528 71.3972 40.9318 71.8781C41.8751 72.2986 42.954 72.2098 43.9157 71.8982C44.9729 71.5564 45.8809 70.9583 46.7203 70.2429C47.6049 69.4906 48.4393 68.6646 49.4211 68.0347C49.8919 67.7314 50.3945 67.4784 50.9356 67.3277C51.4768 67.1769 52.1268 67.0562 52.6027 67.3762C52.9763 67.6292 53.1338 68.162 53.246 68.5809C53.3331 68.9025 53.3884 69.2309 53.427 69.561C53.6029 71.1107 53.4873 72.6789 53.6833 74.2286C53.8676 75.6913 54.3551 77.1891 55.6904 77.9866C56.3472 78.3803 57.1933 78.645 57.9623 78.5545C58.7313 78.4641 59.4768 78.0586 60.0984 77.5677C61.6063 76.3765 62.6886 74.5838 63.2951 72.7794C63.5933 71.8898 63.7826 70.9415 63.7508 69.9999C63.7106 68.8255 63.1594 67.4567 63.8882 66.3894C64.5064 65.483 65.7211 65.1664 66.7263 64.9285C67.7315 64.6906 68.777 64.5415 69.7504 64.1729C70.7238 63.8043 71.5665 63.2196 72.0273 62.2864C72.5684 61.1873 72.5282 59.8956 72.2853 58.7228C71.8262 56.5029 70.4742 54.5092 68.7016 53.1236C66.733 51.5839 64.2685 50.825 61.7855 50.7512C60.529 50.7127 59.2674 50.8518 58.0427 51.1349C57.7277 51.2086 57.8617 51.6928 58.1767 51.6191L58.1784 51.6208Z" fill="#4B2C20"/>
</g>
<defs>
<clipPath id="clip0_23_1647">
<rect width="120.55" height="111.158" fill="white" transform="matrix(0 1 -1 0 111.158 0)"/>
</clipPath>
</defs>
</svg>
