<svg width="112" height="121" viewBox="0 0 112 121" fill="none" xmlns="http://www.w3.org/2000/svg">
<g clip-path="url(#clip0_23_1707)">
<path d="M67.078 32.5598C75.2239 31.3217 83.8036 32.1309 91.358 35.5303C98.3126 38.66 104.155 44.0397 107.586 50.8787C109.25 54.1943 110.313 57.8266 110.58 61.5309C110.858 65.4078 110.317 69.6717 107.557 72.6271C105.292 75.053 102.055 76.075 98.8805 76.6681C95.4962 77.2998 92.0415 77.5042 88.6807 78.2682C85.3366 79.0288 81.7026 80.5199 80.2383 83.874C78.7288 87.3337 79.8647 91.1754 79.662 94.7943C79.3152 101.034 76.1705 107.155 72.2785 111.925C70.4054 114.222 68.2358 116.342 65.7159 117.923C63.6569 119.215 61.2443 120.208 58.7681 120.028C56.2667 119.845 53.6112 118.538 51.8084 116.819C50.0912 115.182 49.0541 113.019 48.4928 110.737C47.2614 105.735 47.9148 100.424 48.1376 95.3422C48.2432 92.9497 48.3102 90.5321 47.9969 88.1513C47.8411 86.9601 47.578 85.7857 47.1542 84.6598C46.5192 82.971 45.3632 81.8267 43.5671 81.4615C40.0857 80.7561 36.2976 82.2506 33.3254 83.9461C30.0215 85.8309 27.1063 88.3004 24.0252 90.5103C21.224 92.5208 18.1881 94.1208 14.7955 94.858C11.701 95.5298 8.21448 95.4745 5.51373 93.6299C2.18136 91.353 1.47768 87.2081 0.956635 83.4904C0.387001 79.4242 0.0418625 75.0681 2.33549 71.4409C3.96063 68.8725 6.50054 67.0564 9.00192 65.4178C11.5469 63.7525 14.2141 62.2144 16.4742 60.157C18.8918 57.9556 20.5672 55.1442 20.971 51.8621C21.4451 48.0104 20.2238 44.1402 18.6036 40.6922C15.092 33.2216 8.66516 26.9673 7.33657 18.5518C6.72672 14.685 7.65992 10.7377 10.2685 7.77225C12.5571 5.17035 15.7387 3.50835 18.9907 2.43777C22.8575 1.16614 26.9723 0.66184 31.0268 0.531159C35.6576 0.380373 40.3051 0.817653 44.8254 1.84132C48.7106 2.72091 52.5021 4.12657 54.799 7.57623C56.7023 10.4345 57.3322 13.9377 57.55 17.307C57.6623 19.0444 57.664 20.7851 57.6288 22.5242C57.5953 24.161 57.3674 25.8783 57.5919 27.5051C57.9153 29.8473 59.5002 31.5093 61.7235 32.203C63.4072 32.729 65.2703 32.7776 67.006 32.5029C67.3243 32.4526 67.1886 31.9684 66.872 32.0187C64.9939 32.3186 62.8778 32.2197 61.122 31.4474C60.0564 30.9782 59.1467 30.2176 58.6122 29.1722C57.8818 27.7397 58.0259 26.143 58.0744 24.5899C58.2788 18.1815 58.5955 10.2368 53.6195 5.3714C50.6323 2.44949 46.2645 1.51797 42.2855 0.824354C37.7133 0.0285384 33.0439 -0.192615 28.4182 0.179325C21.5825 0.728857 13.5607 2.46625 9.20631 8.29162C6.94788 11.3124 6.26431 15.1038 6.86578 18.7863C7.53929 22.9112 9.5548 26.7328 11.7228 30.2528C13.9477 33.865 16.4625 37.2711 18.2535 41.1362C19.9574 44.812 21.1821 49.0357 20.2489 53.0902C18.6857 59.8806 11.7965 62.6836 6.69154 66.3979C4.351 68.1018 2.17633 70.1475 1.027 72.8583C-0.631645 76.7636 0.0619736 81.2453 0.720413 85.2981C1.29675 88.8483 2.48461 92.4638 5.75835 94.3838C8.46077 95.9688 11.7764 96.0023 14.7687 95.3807C18.1597 94.6754 21.2458 93.1072 24.0504 91.1118C27.1918 88.8768 30.1472 86.3553 33.4996 84.4286C35.1583 83.4753 36.9175 82.6812 38.7805 82.2271C40.6436 81.7731 42.8702 81.4799 44.6394 82.3444C46.3047 83.1586 46.8761 85.072 47.248 86.7591C47.4943 87.8783 47.6116 89.0225 47.6702 90.1652C47.9332 95.379 47.1106 100.586 47.3401 105.803C47.5496 110.565 48.7592 115.546 52.9343 118.369C54.9699 119.746 57.5919 120.735 60.0765 120.525C62.5712 120.316 64.9101 119.15 66.9273 117.722C71.992 114.139 75.8588 108.675 78.1893 102.975C79.3202 100.211 80.1093 97.2471 80.1864 94.2481C80.2836 90.3763 78.955 85.8292 81.6457 82.5136C84.0147 79.5934 88.1077 78.7808 91.6277 78.233C95.0422 77.7019 98.5404 77.4757 101.868 76.4855C105.007 75.5506 107.862 73.7747 109.471 70.8361C111.29 67.5104 111.402 63.4643 110.902 59.7935C109.9 52.4485 105.932 45.6749 100.429 40.7777C94.4675 35.4717 86.7339 32.5414 78.8511 31.7439C74.8854 31.3418 70.8829 31.4792 66.9457 32.0773C66.6274 32.1259 66.7631 32.6101 67.0797 32.5615L67.078 32.5598Z" fill="#123487"/>
<path d="M66.2688 34.2921C73.8919 33.116 81.9271 33.8548 89.0074 37.0213C95.5264 39.9365 101.008 44.9627 104.237 51.3594C105.813 54.4841 106.822 57.9119 107.068 61.4085C107.321 65.0106 106.815 68.9646 104.259 71.7139C102.144 73.9891 99.1168 74.9524 96.1463 75.5137C92.9781 76.1135 89.7412 76.3112 86.5948 77.035C83.4484 77.7587 80.0524 79.1627 78.6886 82.3125C77.2729 85.5812 78.3602 89.2017 78.1659 92.6162C77.8341 98.4583 74.8921 104.192 71.2481 108.66C69.4973 110.808 67.4684 112.791 65.1095 114.266C63.1978 115.46 60.9628 116.378 58.6675 116.216C56.3722 116.053 53.8172 114.822 52.1251 113.205C50.5251 111.677 49.56 109.658 49.0323 107.532C47.8796 102.883 48.4677 97.944 48.6671 93.2177C48.7626 90.9626 48.8229 88.6824 48.5297 86.4373C48.3889 85.3651 48.1544 84.3129 47.7908 83.2943C47.2095 81.6691 46.1623 80.5114 44.4333 80.1395C41.1797 79.4392 37.6061 80.8448 34.8249 82.4298C31.7287 84.1923 29.0012 86.511 26.1228 88.5902C23.4807 90.5002 20.6258 92.0281 17.4191 92.7318C14.5492 93.3618 11.314 93.3266 8.79081 91.6411C5.65446 89.5452 4.96084 85.6968 4.46492 82.222C3.92041 78.4155 3.55518 74.3191 5.67958 70.903C7.19415 68.467 9.58495 66.7463 11.9422 65.1949C14.2995 63.6435 16.7791 62.2043 18.8818 60.2943C21.1452 58.2403 22.7352 55.6133 23.1222 52.5439C23.5796 48.8999 22.4303 45.2492 20.8889 41.9906C17.5833 35.0025 11.5502 29.157 10.2886 21.2776C9.71395 17.6922 10.5567 14.0181 12.9575 11.2453C15.097 8.77406 18.0926 7.19248 21.1586 6.17718C24.7423 4.98932 28.5572 4.50848 32.3185 4.36943C36.6544 4.21026 41.0088 4.59896 45.2442 5.53886C48.915 6.3531 52.5155 7.64986 54.6935 10.9052C56.4811 13.5758 57.0793 16.8528 57.2887 20.006C57.3976 21.6328 57.4026 23.2646 57.3741 24.8931C57.3456 26.4278 57.1379 28.0362 57.3507 29.5608C57.6573 31.7606 59.1534 33.3204 61.2409 33.9671C62.8225 34.4563 64.57 34.4999 66.1985 34.2368C66.5168 34.1849 66.3811 33.7007 66.0644 33.7526C64.3086 34.0358 62.3333 33.9487 60.6897 33.2316C59.6929 32.796 58.8401 32.0873 58.3391 31.1105C57.6522 29.7735 57.7846 28.2791 57.8282 26.8265C58.0074 20.7984 58.2855 13.3094 53.5559 8.76903C50.7513 6.07666 46.6834 5.22053 42.9774 4.5822C38.6917 3.84503 34.3156 3.64733 29.9813 4.00586C23.5494 4.53697 16.0017 6.19729 11.9439 11.7144C7.18578 18.1814 10.6689 26.2234 14.3933 32.2364C16.4859 35.614 18.8482 38.8006 20.5354 42.4178C22.2225 46.035 23.3082 49.8633 22.4085 53.6849C20.9207 60.0146 14.4604 62.6349 9.70724 66.1247C7.51582 67.7348 5.49864 69.6665 4.43644 72.2199C2.91015 75.8907 3.58366 80.1127 4.21696 83.9091C4.77151 87.2331 5.92419 90.5957 9.00861 92.3632C11.5368 93.8108 14.6212 93.8309 17.4024 93.2462C20.5789 92.5777 23.4673 91.1033 26.091 89.2269C29.0531 87.1108 31.836 84.7184 35.0025 82.9039C36.5556 82.0143 38.2025 81.2737 39.9483 80.8549C41.694 80.436 43.7782 80.1663 45.4168 81.0057C46.9347 81.7847 47.4574 83.5757 47.7992 85.1339C48.0287 86.1793 48.1393 87.2465 48.1946 88.3155C48.4459 93.2059 47.6853 98.0897 47.9198 102.982C48.1326 107.413 49.2769 112.039 53.1555 114.673C55.0587 115.965 57.5182 116.896 59.8437 116.708C62.1809 116.521 64.3706 115.434 66.2621 114.1C71.0102 110.747 74.6308 105.622 76.8138 100.283C77.8827 97.6692 78.6283 94.8663 78.6936 92.0315C78.7774 88.4059 77.5242 84.1588 80.0306 81.0476C82.2371 78.3083 86.0738 77.5393 89.3659 77.0199C92.5391 76.5189 95.7877 76.2995 98.8822 75.383C101.977 74.4666 104.508 72.8649 106.031 70.1239C107.765 67.006 107.869 63.1978 107.398 59.7431C106.463 52.8723 102.746 46.5326 97.6005 41.9487C91.993 36.9543 84.7133 34.205 77.293 33.4695C73.5753 33.1009 69.8257 33.2383 66.1365 33.8079C65.8181 33.8565 65.9539 34.3407 66.2705 34.2921H66.2688Z" fill="#123487"/>
<path d="M65.4596 36.0245C72.56 34.9103 80.0507 35.5788 86.6551 38.5124C92.7385 41.2149 97.8602 45.8842 100.884 51.8386C102.36 54.7454 103.309 57.937 103.547 61.194C103.784 64.451 103.322 68.281 100.911 70.8494C98.9308 72.9587 96.1044 73.8467 93.34 74.3711C90.3862 74.9306 87.3688 75.125 84.4369 75.8153C81.5049 76.5055 78.3501 77.8559 77.1053 80.823C75.8605 83.7902 76.8557 87.2432 76.6714 90.4181C76.3564 95.843 73.6423 101.167 70.268 105.327C68.6462 107.326 66.7681 109.174 64.5834 110.553C62.7991 111.679 60.7115 112.547 58.5636 112.399C56.3772 112.249 54.0501 111.113 52.4719 109.613C50.9908 108.206 50.0878 106.348 49.5902 104.388C48.4878 100.043 49.0273 95.4175 49.2032 90.9961C49.2869 88.8918 49.3372 86.7674 49.0591 84.6748C48.9267 83.6746 48.7056 82.6928 48.3621 81.7412C47.8143 80.2199 46.8325 79.1393 45.2124 78.7958C42.1715 78.1491 38.8391 79.4693 36.2456 80.9554C33.3639 82.6057 30.8257 84.7736 28.1467 86.7205C25.6889 88.5064 23.0317 89.9389 20.0445 90.6024C17.3521 91.2005 14.3163 91.1686 11.9556 89.5737C9.04211 87.6034 8.41551 83.9929 7.9464 80.756C7.43708 77.2444 7.11037 73.468 9.0572 70.3116C10.4511 68.0514 12.6543 66.4464 14.8323 65.0039C17.0388 63.5429 19.3492 62.1959 21.3161 60.4083C23.4171 58.4983 24.9015 56.0639 25.2734 53.2141C25.7174 49.818 24.6485 46.4103 23.2127 43.3711C20.1299 36.8504 14.4905 31.4238 13.2558 24.0906C12.6895 20.728 13.4551 17.2734 15.7018 14.6631C17.6721 12.3745 20.4315 10.9001 23.2579 9.94515C26.5852 8.82095 30.1304 8.35854 33.6286 8.21278C37.7032 8.04356 41.7962 8.39372 45.7803 9.26661C49.1998 10.0155 52.559 11.2134 54.5946 14.2392C56.2516 16.7004 56.8212 19.7228 57.0307 22.6346C57.1412 24.176 57.1513 25.7224 57.1278 27.2671C57.106 28.6996 56.9167 30.2008 57.1178 31.6215C57.4093 33.6789 58.8133 35.1348 60.7685 35.7346C62.2479 36.1886 63.8814 36.2238 65.401 35.9742C65.7193 35.9223 65.5836 35.4381 65.2669 35.49C63.6351 35.7581 61.7972 35.681 60.2659 35.0192C59.3377 34.6171 58.5435 33.9604 58.0744 33.054C57.4328 31.8108 57.5534 30.4202 57.5886 29.0699C57.741 23.4405 57.9789 16.4591 53.5559 12.2287C50.9104 9.70054 47.0654 8.9131 43.5755 8.33006C39.5746 7.66157 35.4917 7.49571 31.4506 7.84922C25.4594 8.37362 18.4294 9.96022 14.6916 15.1372C10.3054 21.2122 13.616 28.7063 17.1159 34.3038C19.0794 37.4469 21.2843 40.4123 22.8575 43.7866C24.3586 47.0101 25.4309 50.7211 24.5731 54.2729C23.1641 60.1151 17.2013 62.5612 12.8034 65.8031C10.7527 67.3143 8.86787 69.1271 7.87938 71.5229C6.47205 74.929 7.10032 78.8293 7.68839 82.3477C8.20776 85.4538 9.26662 88.6137 12.1416 90.2824C14.5156 91.6595 17.4225 91.678 20.0395 91.1184C23.0016 90.4868 25.6923 89.1045 28.1367 87.3471C30.8927 85.3667 33.4829 83.1301 36.4316 81.4295C37.8775 80.5969 39.4088 79.9032 41.0339 79.5079C42.6323 79.1192 44.5941 78.8578 46.1204 79.6335C47.5345 80.3539 48.0237 82.0193 48.3454 83.4668C48.5615 84.4402 48.667 85.4337 48.7207 86.4273C48.9669 90.986 48.2683 95.5431 48.4995 100.104C48.7106 104.26 49.8013 108.595 53.462 111.037C55.2464 112.228 57.5383 113.08 59.7079 112.889C61.8843 112.698 63.9182 111.679 65.6741 110.427C70.0787 107.293 73.4328 102.523 75.455 97.5519C76.4452 95.1176 77.1372 92.5123 77.1991 89.8736C77.2796 86.5144 76.1018 82.6073 78.3384 79.6821C80.3405 77.0634 83.956 76.3179 87.0271 75.8203C90.0981 75.3227 93.0635 75.1283 95.9704 74.2588C98.6862 73.4462 101.171 71.9267 102.595 69.4035C104.232 66.5017 104.337 62.9381 103.898 59.713C103.022 53.2761 99.5373 47.3401 94.7037 43.0578C89.4581 38.4102 82.6626 35.8653 75.7365 35.1951C72.2684 34.8601 68.7702 34.9974 65.3289 35.5386C65.0106 35.5889 65.1463 36.073 65.463 36.0228L65.4596 36.0245Z" fill="#123487"/>
<path d="M64.6504 37.7585C71.2548 36.7014 78.2312 37.3095 84.3783 40.0371C89.9908 42.5267 94.7188 46.8258 97.5285 52.3077C98.8973 54.98 99.7852 57.9136 100.023 60.9126C100.269 64.0138 99.874 67.4383 97.7044 69.8358C95.8883 71.8429 93.2596 72.6974 90.6778 73.2017C87.9402 73.7361 85.1422 73.9238 82.4231 74.5638C79.672 75.2121 76.72 76.4704 75.5589 79.2532C74.3828 82.0712 75.3328 85.1758 75.1836 88.1077C74.9256 93.1356 72.4343 98.0814 69.3281 101.95C67.8219 103.826 66.0728 105.564 64.0339 106.859C62.3853 107.906 60.4535 108.717 58.4631 108.586C56.4728 108.455 54.2914 107.412 52.8288 106.035C51.4449 104.731 50.5988 103.004 50.1314 101.181C49.1043 97.1666 49.5869 92.8893 49.7376 88.803C49.8097 86.8696 49.8499 84.9178 49.5969 82.9961C49.4746 82.0645 49.2719 81.1531 48.9569 80.2668C48.4543 78.8511 47.568 77.8074 46.0585 77.4689C44.6561 77.1539 43.1366 77.3684 41.7627 77.7319C40.3437 78.1072 38.995 78.7204 37.725 79.4476C35.0293 80.9906 32.6636 83.0279 30.1639 84.8558C27.9088 86.506 25.4728 87.8313 22.7285 88.4629C20.2388 89.0342 17.4242 89.0325 15.2227 87.5816C12.4817 85.7739 11.8836 82.408 11.4363 79.3923C10.9554 76.1403 10.6405 72.6438 12.4348 69.7135C13.7198 67.6159 15.7571 66.1231 17.7693 64.7811C19.8133 63.419 21.9545 62.1624 23.7756 60.4971C25.7425 58.6977 27.118 56.4041 27.4414 53.7251C27.82 50.5955 26.8215 47.4608 25.4895 44.6662C22.6129 38.6281 17.3672 33.6119 16.2011 26.8131C15.6683 23.7019 16.3653 20.5019 18.4378 18.0776C20.2723 15.9331 22.8508 14.5542 25.4912 13.6612C28.6108 12.6074 31.9382 12.1735 35.2186 12.0394C38.9648 11.8887 42.7294 12.2103 46.3935 13.0095C49.5567 13.6998 52.6478 14.8189 54.5192 17.6219C56.0606 19.9306 56.5833 22.757 56.7743 25.4795C56.8749 26.9103 56.8849 28.3444 56.8648 29.7769C56.8464 31.0687 56.6822 32.4224 56.8732 33.7041C57.158 35.6241 58.4916 36.9677 60.3178 37.5122C61.6833 37.9177 63.1861 37.9445 64.5867 37.7099C64.9051 37.6563 64.7694 37.1721 64.4527 37.2258C62.9633 37.4754 61.2946 37.41 59.8872 36.8304C59.0277 36.4769 58.2805 35.8854 57.8298 35.0611C57.2183 33.9403 57.3021 32.6804 57.3322 31.4473C57.4596 26.22 57.6975 19.7396 53.638 15.7773C51.212 13.4082 47.6802 12.666 44.4484 12.1232C40.7357 11.4983 36.9476 11.3408 33.1964 11.6641C27.6123 12.145 21.0732 13.6043 17.5498 18.3892C15.7303 20.8588 15.2026 23.9549 15.7153 26.9438C16.2933 30.313 17.9737 33.4243 19.7747 36.2859C21.606 39.196 23.6583 41.9403 25.126 45.0666C26.5936 48.1929 27.5285 51.4834 26.7461 54.7756C25.456 60.1938 19.9356 62.4757 15.8694 65.4931C13.9661 66.9055 12.222 68.5926 11.309 70.8226C10.0021 74.0092 10.6086 77.6666 11.1749 80.9521C11.6708 83.8304 12.6912 86.7456 15.3751 88.2619C17.5984 89.5167 20.2992 89.5117 22.7302 88.9739C25.4795 88.3657 27.9658 87.0639 30.2309 85.4221C32.7792 83.5741 35.1767 81.4949 37.911 79.9167C39.2496 79.1443 40.6704 78.506 42.1766 78.1441C43.6526 77.7889 45.4754 77.5493 46.8727 78.2949C48.1477 78.9751 48.59 80.5148 48.8849 81.8367C49.0842 82.7364 49.1831 83.6545 49.235 84.5726C49.4696 88.7896 48.8396 93.0049 49.0658 97.2236C49.2719 101.072 50.2905 105.085 53.6765 107.348C55.3301 108.454 57.4612 109.246 59.4717 109.077C61.5274 108.903 63.4475 107.929 65.0977 106.74C69.1723 103.803 72.2668 99.3614 74.1214 94.7339C75.0278 92.4738 75.6544 90.0512 75.6963 87.6051C75.7499 84.4838 74.6458 80.8164 76.787 78.124C78.6785 75.7483 81.9875 75.0681 84.8256 74.6023C87.59 74.1499 90.4214 73.9439 93.1104 73.1212C95.6604 72.3405 97.9725 70.8762 99.2642 68.4754C100.729 65.7562 100.785 62.4607 100.357 59.4717C99.5038 53.5425 96.2434 48.084 91.7752 44.1552C86.8981 39.8662 80.5868 37.5273 74.165 36.9275C70.9449 36.626 67.6996 36.765 64.508 37.2743C64.1897 37.3246 64.3254 37.8105 64.642 37.7585H64.6504Z" fill="#123487"/>
<path d="M63.8412 39.4908C69.9212 38.4956 76.3514 39.0318 82.0226 41.5248C87.2214 43.81 91.6093 47.7757 94.2112 52.8471C95.4728 55.3066 96.292 58.009 96.5115 60.7684C96.7377 63.62 96.3708 66.7647 94.3653 68.9628C92.6983 70.789 90.3025 71.5748 87.9418 72.0439C85.4371 72.5415 82.8771 72.7241 80.3891 73.3138C77.9011 73.9036 75.1468 75.0496 74.0561 77.5777C72.9202 80.2098 73.8215 83.1099 73.6925 85.8559C73.473 90.485 71.1912 95.0505 68.3463 98.6241C66.9658 100.358 65.3591 101.965 63.486 103.164C61.9714 104.135 60.1988 104.887 58.3659 104.773C56.5331 104.659 54.5343 103.711 53.1856 102.454C51.909 101.265 51.1249 99.688 50.6859 98.016C49.7175 94.32 50.1481 90.3728 50.2754 86.6031C50.3357 84.8239 50.3676 83.0295 50.133 81.262C50.0208 80.4142 49.8382 79.5849 49.555 78.779C49.0926 77.4655 48.3018 76.4737 46.9012 76.1419C45.6094 75.8353 44.1987 76.0313 42.9305 76.3648C41.6203 76.7082 40.3755 77.2728 39.2027 77.9447C36.7181 79.3688 34.5417 81.2519 32.2464 82.9474C30.1555 84.4921 27.9021 85.7403 25.3521 86.3368C23.082 86.8662 20.5153 86.8813 18.4897 85.5811C15.9498 83.951 15.3684 80.8733 14.9462 78.1038C14.4872 75.0898 14.1638 71.8412 15.8208 69.1153C16.9969 67.1802 18.8667 65.7997 20.7163 64.5565C22.566 63.3134 24.5697 62.1272 26.2435 60.5841C28.0563 58.9138 29.3162 56.7927 29.6077 54.3165C29.9511 51.4013 28.9995 48.4844 27.743 45.8909C25.059 40.347 20.207 35.7329 19.1448 29.4636C18.6606 26.6053 19.3157 23.6667 21.224 21.4484C22.9178 19.4782 25.2935 18.2082 27.7245 17.3839C30.6045 16.4088 33.6772 16.0017 36.7064 15.876C40.1878 15.7303 43.6844 16.0285 47.0888 16.7724C49.9605 17.4007 52.7433 18.4428 54.4405 20.9843C55.8478 23.0937 56.3354 25.6755 56.5197 28.1634C56.6168 29.4719 56.6319 30.7854 56.6185 32.0973C56.6068 33.3053 56.4577 34.5702 56.6386 35.7681C56.9067 37.5423 58.1481 38.7855 59.8403 39.2814C61.1036 39.6517 62.4941 39.6718 63.7876 39.4506C64.1059 39.397 63.9702 38.9111 63.6535 38.9664C62.2847 39.201 60.75 39.1457 59.4533 38.618C58.6642 38.2963 57.9773 37.7568 57.5634 37.0029C56.9988 35.9758 57.0709 34.8215 57.0943 33.6906C57.1948 28.8788 57.3925 22.9245 53.6698 19.2721C51.4398 17.084 48.2013 16.4004 45.2241 15.9045C41.7996 15.3332 38.3047 15.1925 34.845 15.4957C29.6646 15.9498 23.598 17.3119 20.3393 21.7634C18.6656 24.0503 18.1898 26.9136 18.6723 29.6713C19.2118 32.7507 20.7515 35.5955 22.4051 38.2108C24.099 40.8898 26.0056 43.4113 27.376 46.2846C28.6812 49.0205 29.6362 52.177 28.9492 55.2162C27.81 60.2524 22.7033 62.3835 18.9504 65.1898C17.1963 66.5017 15.5913 68.0665 14.7536 70.1289C13.5573 73.0743 14.1286 76.4502 14.6631 79.4777C15.1339 82.1533 16.1006 84.8607 18.6154 86.2412C20.6845 87.3772 23.1808 87.3504 25.4259 86.836C27.9624 86.2547 30.2443 85.035 32.3319 83.507C34.6724 81.7914 36.8772 79.868 39.3987 78.4138C40.6318 77.7017 41.9386 77.1153 43.3275 76.7853C44.6796 76.4636 46.365 76.2425 47.635 76.9528C48.776 77.5911 49.1747 79.0035 49.4428 80.2048C49.6271 81.0308 49.7192 81.8735 49.7678 82.7179C49.994 86.6098 49.426 90.5018 49.6539 94.3954C49.8616 97.9389 50.825 101.623 53.9513 103.692C55.4809 104.704 57.4478 105.428 59.3008 105.264C61.1538 105.1 62.9683 104.193 64.4895 103.087C68.2408 100.363 71.0822 96.2551 72.7794 91.9778C73.6088 89.8886 74.1784 87.6519 74.2102 85.3952C74.2488 82.5235 73.2201 79.1493 75.1786 76.6647C76.9043 74.4766 79.9418 73.8382 82.5454 73.401C85.0936 72.9721 87.7073 72.776 90.1869 72.0087C92.5224 71.2866 94.6451 69.948 95.8397 67.7532C97.2051 65.2434 97.2604 62.2026 96.8633 59.4382C96.0725 53.9462 93.0401 48.8932 88.8884 45.2693C84.3715 41.3271 78.5445 39.1909 72.6169 38.6565C69.6464 38.3884 66.6508 38.5275 63.7088 39.0083C63.3905 39.0603 63.5262 39.5444 63.8428 39.4925L63.8412 39.4908Z" fill="#123487"/>
<path d="M63.032 41.2232C68.5876 40.29 74.4682 40.7558 79.6653 43.0126C84.4302 45.0817 88.4579 48.6938 90.857 53.3213C92.0198 55.5647 92.7787 58.0309 92.9898 60.5523C93.2009 63.0738 92.8792 66.0678 91.0279 68.0866C89.5016 69.7503 87.3052 70.464 85.1506 70.8963C82.8587 71.357 80.5164 71.5346 78.2429 72.0908C75.9694 72.6471 73.468 73.7227 72.4913 76.0465C71.471 78.4691 72.317 81.1263 72.1981 83.6461C72.0004 87.8815 69.9262 92.0633 67.3277 95.337C66.0728 96.9186 64.6152 98.3846 62.913 99.4803C61.5375 100.365 59.9274 101.054 58.2621 100.956C56.5967 100.859 54.7907 100.013 53.5592 98.8872C52.3831 97.8116 51.6526 96.3808 51.2405 94.8562C50.3291 91.4819 50.706 87.8681 50.8099 84.4218C50.8585 82.7799 50.8819 81.1246 50.6608 79.4928C50.5552 78.7154 50.3843 77.9531 50.1196 77.2125C49.689 76.0062 48.9569 75.0932 47.6668 74.7933C46.484 74.5185 45.1973 74.7011 44.0379 75.0077C42.8484 75.3227 41.7175 75.837 40.6536 76.4502C38.4019 77.7453 36.4299 79.4592 34.3574 81.0107C32.4508 82.4381 30.4102 83.6059 28.0797 84.1805C25.9955 84.6949 23.6265 84.7435 21.745 83.5707C19.4095 82.1148 18.8483 79.3202 18.4512 76.797C18.0173 74.041 17.6889 71.0638 19.1783 68.5524C20.2338 66.7731 21.9343 65.4998 23.6164 64.3555C25.2985 63.2112 27.1381 62.1138 28.6711 60.6998C30.3114 59.1869 31.4724 57.2685 31.7556 55.0269C32.0923 52.3579 31.2379 49.689 30.0919 47.31C27.6307 42.2067 23.1406 37.9997 22.1103 32.2514C21.6428 29.6445 22.2058 26.9505 23.9297 24.9031C25.4594 23.087 27.619 21.9075 29.8355 21.1402C32.4575 20.2321 35.2605 19.8417 38.0232 19.7094C41.2065 19.5569 44.4082 19.8082 47.5261 20.47C50.1766 21.033 52.7601 21.9645 54.3349 24.3033C55.6284 26.225 56.0841 28.5823 56.2633 30.8558C56.3572 32.0537 56.3756 33.255 56.3689 34.4563C56.3622 35.5637 56.2315 36.7231 56.4024 37.8222C56.6554 39.4523 57.8047 40.5916 59.3611 41.0406C60.5239 41.3757 61.7989 41.3891 62.985 41.1813C63.3034 41.126 63.1677 40.6419 62.851 40.6971C61.6012 40.9166 60.2022 40.8714 59.016 40.3939C58.2839 40.099 57.6506 39.5998 57.2719 38.8994C56.7626 37.9562 56.8346 36.8923 56.8531 35.8569C56.9268 31.4473 57.0692 25.9888 53.6179 22.6765C51.5487 20.6912 48.5632 20.0847 45.8273 19.6457C42.6875 19.1414 39.4859 19.0308 36.3193 19.3291C31.5964 19.773 26.0759 21.0497 23.1239 25.1243C21.5842 27.2487 21.1653 29.9009 21.6378 32.4508C22.1588 35.2688 23.5863 37.864 25.1159 40.2532C26.6925 42.716 28.4584 45.0381 29.7199 47.6919C30.9078 50.1916 31.7589 53.075 31.1021 55.8428C30.0232 60.3898 25.3756 62.335 21.9863 64.9034C20.3829 66.118 18.9253 67.5656 18.1747 69.4688C17.0991 72.1964 17.652 75.3344 18.1697 78.124C18.6187 80.5499 19.5486 82.9826 21.8422 84.204C23.7723 85.2327 26.086 85.1791 28.1601 84.6765C30.4822 84.1135 32.553 82.9709 34.4596 81.5569C36.5723 79.987 38.5694 78.2379 40.8547 76.9126C41.9705 76.2659 43.1533 75.7332 44.4115 75.4299C45.6698 75.1267 47.1692 74.9273 48.3253 75.5673C49.3674 76.1453 49.7343 77.432 49.9822 78.5227C50.1531 79.2766 50.2403 80.0456 50.2888 80.8163C50.51 84.3782 50.0057 87.9435 50.2302 91.5054C50.4363 94.7724 51.3427 98.1584 54.2445 100.04C55.6535 100.955 57.4579 101.601 59.1534 101.435C60.8489 101.27 62.474 100.449 63.8512 99.4418C67.2841 96.9354 69.876 93.1624 71.4207 89.2352C72.1729 87.3253 72.689 85.2796 72.7141 83.2188C72.7476 80.5935 71.791 77.5392 73.5267 75.2406C75.0714 73.1932 77.8978 72.5951 80.2836 72.183C82.5973 71.7842 84.9697 71.5932 87.2214 70.8963C89.3575 70.2345 91.3127 69.0165 92.4135 67.011C93.6767 64.7107 93.7287 61.9211 93.3601 59.3829C92.6313 54.3533 89.8468 49.7276 86.0386 46.4153C81.8786 42.7948 76.5139 40.8463 71.0571 40.3771C68.3346 40.1426 65.592 40.2816 62.8996 40.734C62.5813 40.7876 62.717 41.2718 63.0336 41.2182L63.032 41.2232Z" fill="#123487"/>
<path d="M62.2244 42.9572C67.2556 42.086 72.5901 42.4814 77.3097 44.502C81.6373 46.355 85.3048 49.6086 87.5012 53.7887C88.5601 55.8026 89.2587 58.0191 89.4681 60.2876C89.6776 62.5561 89.4195 65.287 87.7676 67.1333C86.3904 68.6713 84.39 69.3365 82.4247 69.7419C80.3472 70.1691 78.2212 70.3417 76.1604 70.8577C74.0678 71.3804 71.8228 72.3689 70.9415 74.4883C70.0251 76.6931 70.8041 79.1041 70.7087 81.3927C70.5478 85.2327 68.6881 89.0275 66.3509 92.0097C65.2133 93.4589 63.8864 94.8059 62.3333 95.8095C61.0918 96.612 59.6376 97.2336 58.1314 97.1431C56.6252 97.0526 54.9816 96.2887 53.8675 95.2633C52.812 94.2949 52.1552 93.0082 51.78 91.6377C50.9456 88.5868 51.2706 85.3148 51.3477 82.1935C51.3846 80.7108 51.3963 79.2163 51.1919 77.7436C51.0964 77.05 50.9423 76.3698 50.7077 75.7097C50.3173 74.6073 49.669 73.7511 48.4895 73.463C47.4155 73.1999 46.2394 73.3675 45.1839 73.6473C44.1284 73.9271 43.0746 74.4012 42.1079 74.9591C40.0672 76.1386 38.2829 77.7001 36.4115 79.1208C34.6892 80.4276 32.8496 81.5066 30.7386 82.0477C28.842 82.5336 26.6774 82.6006 24.9551 81.5401C22.834 80.2333 22.3163 77.7051 21.9444 75.4215C21.5389 72.9302 21.2256 70.2328 22.5626 67.9543C23.5109 66.3392 25.0422 65.1764 26.5618 64.1327C28.0814 63.0889 29.7769 62.0652 31.1708 60.7584C32.6686 59.3544 33.6973 57.5802 33.9285 55.5177C34.1983 53.1085 33.3991 50.701 32.3503 48.5665C30.1036 43.9876 26.0625 40.2196 25.0741 35.0594C24.625 32.7155 25.0841 30.2778 26.6054 28.4047C27.9591 26.7377 29.9042 25.642 31.9013 24.9266C34.2821 24.0721 36.832 23.6985 39.3501 23.5594C42.2352 23.4003 45.142 23.6064 47.9734 24.1877C50.3776 24.6803 52.745 25.4929 54.1976 27.5988C55.3888 29.3262 55.821 31.4539 55.9986 33.5113C56.0924 34.597 56.1159 35.6877 56.1159 36.7784C56.1159 37.8037 56.0003 38.876 56.1628 39.8929C56.399 41.379 57.4579 42.4144 58.877 42.8182C59.9375 43.1198 61.1002 43.1248 62.1792 42.9288C62.4975 42.8718 62.3618 42.3876 62.0451 42.4446C60.9075 42.6507 59.6259 42.6155 58.5452 42.1765C57.8969 41.9135 57.3389 41.4695 57.0005 40.8513C56.5347 40.0018 56.5984 39.0402 56.6085 38.1036C56.6554 34.0944 56.7576 29.1335 53.6061 26.1396C51.6995 24.3285 48.9536 23.7923 46.4421 23.407C43.5638 22.9664 40.6318 22.8876 37.7351 23.1875C33.4578 23.6298 28.4617 24.8428 25.8481 28.5856C22.7653 33.0003 25.2466 38.3449 27.8284 42.3189C29.2508 44.5087 30.8324 46.5761 31.975 48.9368C33.0573 51.1717 33.8515 53.7586 33.307 56.2499C32.3922 60.4367 28.1534 62.2361 25.064 64.6001C23.6097 65.7126 22.2895 67.0378 21.6143 68.7752C20.6493 71.2581 21.1653 74.108 21.6495 76.6429C22.0701 78.846 22.9279 81.0592 25.0204 82.1583C26.783 83.0848 28.8856 83.0278 30.7738 82.5604C32.8797 82.0394 34.7579 80.9922 36.4819 79.6971C38.4069 78.2513 40.2264 76.6395 42.3139 75.4249C43.3242 74.8368 44.3948 74.3543 45.5341 74.0812C46.6733 73.8081 48.0673 73.6238 49.1094 74.2521C50.0007 74.7899 50.319 75.956 50.5351 76.916C50.6893 77.5962 50.768 78.2898 50.8133 78.9834C51.021 82.1968 50.5871 85.4153 50.8049 88.6304C51.0042 91.5825 51.8336 94.6417 54.4489 96.3506C55.7222 97.1833 57.3674 97.7764 58.9038 97.6374C60.4786 97.4949 61.9446 96.7444 63.2045 95.8229C66.3191 93.5393 68.663 90.1031 70.0569 86.5328C70.7405 84.7803 71.2062 82.9039 71.223 81.0157C71.2431 78.6534 70.3685 75.9174 71.8865 73.8282C73.2636 71.9333 75.8521 71.3737 78.0218 70.9884C80.1194 70.6165 82.2723 70.4322 84.3129 69.7888C86.2748 69.1689 88.0608 68.0363 89.0493 66.1783C90.1684 64.0757 90.1953 61.5425 89.8434 59.2388C89.1498 54.7035 86.6166 50.5418 83.1686 47.5613C79.3671 44.2758 74.4733 42.52 69.5024 42.1195C67.0295 41.9202 64.5381 42.0576 62.0937 42.4814C61.7754 42.5367 61.9111 43.0209 62.2278 42.9656L62.2244 42.9572Z" fill="#123487"/>
<path d="M61.4152 44.6896C65.9371 43.8788 70.7271 44.2105 74.9843 46.0032C78.8796 47.6434 82.1902 50.5636 84.1738 54.3081C85.1355 56.1243 85.7722 58.1264 85.9598 60.1754C86.1525 62.2948 85.9045 64.6403 84.4134 66.2789C83.1786 67.636 81.3977 68.2257 79.6519 68.5926C77.8006 68.9813 75.9057 69.1488 74.0712 69.6213C72.1863 70.1055 70.1759 71.0102 69.3918 72.9269C68.6077 74.8435 69.2996 77.1037 69.2192 79.1745C69.0835 82.6308 67.4198 86.057 65.3205 88.746C64.3136 90.0344 63.1375 91.234 61.7603 92.1287C60.6445 92.8541 59.3343 93.4154 57.9789 93.3232C56.6118 93.2294 55.1509 92.5442 54.154 91.6143C53.2208 90.7431 52.6411 89.5904 52.3077 88.3691C51.5638 85.6365 51.8369 82.7096 51.8872 79.9133C51.9106 78.5847 51.9089 77.2477 51.7163 75.9292C51.6241 75.3009 51.4767 74.6844 51.2572 74.0879C50.8836 73.0743 50.2503 72.3187 49.1563 72.0925C48.1795 71.8898 47.1257 72.0557 46.1774 72.3237C45.2291 72.5918 44.2892 73.0324 43.4247 73.5468C41.5885 74.6375 39.9885 76.0683 38.2946 77.3583C36.7583 78.5294 35.0996 79.4827 33.2115 79.9552C31.5143 80.3791 29.5825 80.4159 28.063 79.4341C26.2167 78.2446 25.771 75.9945 25.4309 73.979C25.0539 71.7407 24.7775 69.3264 25.9888 67.2825C26.8399 65.8483 28.2037 64.8096 29.5507 63.873C30.9463 62.9029 32.414 62.0066 33.6504 60.8288C34.9857 59.5555 35.8988 57.9555 36.0948 56.1008C36.326 53.9127 35.5788 51.7314 34.6104 49.8013C32.5497 45.6982 28.8789 42.3173 28.0077 37.6613C27.6173 35.5755 28.0462 33.4092 29.4033 31.7488C30.6129 30.2711 32.3352 29.2927 34.1078 28.6477C36.2322 27.8753 38.5091 27.5268 40.7591 27.3878C43.3677 27.2269 45.9981 27.4012 48.5632 27.9138C50.7094 28.3444 52.8137 29.0682 54.1121 30.9413C55.1743 32.4743 55.573 34.3658 55.7423 36.1937C55.8327 37.1771 55.8612 38.1656 55.8662 39.1524C55.8713 40.0588 55.7791 41.0038 55.9199 41.9018C56.1326 43.2605 57.0943 44.2105 58.3978 44.5724C59.3561 44.8371 60.4049 44.8371 61.3783 44.6545C61.6966 44.5958 61.5609 44.11 61.2443 44.1703C60.2273 44.3613 59.083 44.3361 58.113 43.9491C57.5249 43.7146 57.0189 43.3125 56.7174 42.7512C56.3052 41.9889 56.3638 41.1227 56.3689 40.2867C56.3873 36.6896 56.4409 32.2431 53.5961 29.5758C51.8855 27.9725 49.4444 27.5 47.2027 27.1666C44.6126 26.7813 41.9788 26.721 39.3753 27.0008C35.5151 27.4146 31.0133 28.5254 28.6611 31.908C27.4414 33.6622 27.1381 35.8268 27.5469 37.8976C27.9976 40.1744 29.1737 42.2653 30.432 44.187C31.7271 46.1657 33.1763 48.0254 34.2318 50.1531C35.227 52.1619 35.9708 54.4924 35.4934 56.7458C34.7009 60.4837 30.9413 62.1289 28.192 64.2433C26.8902 65.2452 25.7073 66.4313 25.0908 67.9828C24.2045 70.2194 24.6786 72.7811 25.1209 75.0664C25.5013 77.0333 26.2485 79.0153 28.0965 80.0323C29.6663 80.8968 31.5612 80.8666 33.2617 80.4561C35.1667 79.9971 36.8756 79.0555 38.4287 77.881C40.1543 76.5759 41.7761 75.1166 43.6375 74.0008C44.5355 73.463 45.4905 73.014 46.5058 72.751C47.5211 72.4879 48.7558 72.2986 49.7091 72.8079C50.5519 73.2586 50.8568 74.294 51.0662 75.1669C51.2103 75.7684 51.289 76.3849 51.336 77.0015C51.5521 79.8865 51.1785 82.7816 51.3812 85.6683C51.5688 88.3289 52.3094 91.0949 54.6633 92.6413C55.8059 93.3919 57.292 93.9314 58.6725 93.8141C60.0531 93.6968 61.4068 93.025 62.5377 92.1974C65.3507 90.1366 67.4517 87.0237 68.6982 83.7952C69.308 82.2153 69.7218 80.5248 69.7319 78.8243C69.7436 76.7099 68.9377 74.2706 70.2546 72.3807C71.4592 70.65 73.7981 70.1273 75.7449 69.7687C77.6146 69.4236 79.533 69.2477 81.3525 68.6697C83.1719 68.0917 84.7049 67.1132 85.6063 65.4646C86.6467 63.5631 86.6685 61.256 86.3418 59.1651C85.7035 55.0738 83.3965 51.3242 80.2685 48.6537C76.8456 45.7318 72.4578 44.1786 68.0012 43.8369C65.7578 43.6643 63.4994 43.8017 61.2862 44.1988C60.9678 44.2557 61.1036 44.7399 61.4202 44.6829L61.4152 44.6896Z" fill="#123487"/>
<path d="M60.606 46.422C64.6152 45.6698 68.8674 45.9362 72.6571 47.5027C76.1151 48.9318 79.0605 51.5052 80.8364 54.8108C81.6842 56.389 82.2538 58.1297 82.4364 59.914C82.6308 61.8089 82.4314 63.9132 81.0978 65.3842C80.0255 66.5654 78.4842 67.0931 76.9663 67.4265C75.326 67.7884 73.6456 67.9493 72.0188 68.3765C70.3283 68.8205 68.5323 69.6414 67.8387 71.3671C67.1249 73.1447 67.7834 75.0747 67.7264 76.9127C67.6309 79.9719 66.1834 83.0027 64.3522 85.3986C63.4675 86.5563 62.4238 87.6352 61.2024 88.4377C60.2323 89.0761 59.0947 89.5754 57.9102 89.5117C56.709 89.4463 55.4156 88.8583 54.5293 88.0558C53.6882 87.2935 53.1605 86.2798 52.8555 85.1975C52.172 82.7816 52.3948 80.1847 52.4199 77.7051C52.4317 76.5173 52.4216 75.3227 52.2407 74.1466C52.1552 73.597 52.0229 73.0592 51.8268 72.5382C51.4985 71.6619 50.9607 70.9834 50.0124 70.7656C49.1479 70.5679 48.2097 70.7103 47.3652 70.9449C46.5208 71.1794 45.6982 71.5631 44.9359 72.0138C43.3309 72.9654 41.9302 74.2186 40.4676 75.3679C39.1005 76.4419 37.6362 77.3382 35.944 77.7956C34.4529 78.1994 32.744 78.2831 31.3719 77.4622C29.6965 76.4603 29.2558 74.4934 28.9375 72.7074C28.5857 70.7271 28.2908 68.5792 29.3279 66.7463C30.06 65.4529 31.2646 64.513 32.4575 63.6703C33.6504 62.8276 34.9673 62.0049 36.0563 60.9662C37.2642 59.8152 38.0886 58.3676 38.2527 56.6872C38.4421 54.7588 37.7752 52.8388 36.9141 51.1433C35.0628 47.5027 31.7639 44.5221 30.9564 40.3872C30.5945 38.5376 30.9664 36.6075 32.1694 35.1332C33.2466 33.8129 34.7796 32.9384 36.3612 32.3604C38.2494 31.6684 40.275 31.3501 42.2737 31.2211C44.5841 31.0703 46.9146 31.2144 49.1864 31.6617C51.0696 32.032 52.9041 32.6804 54.0367 34.3239C54.9733 35.6827 55.3284 37.3564 55.4859 38.9749C55.5697 39.841 55.5982 40.7106 55.6099 41.5801C55.62 42.3776 55.5462 43.212 55.6803 44.0011C55.8847 45.199 56.7559 46.0333 57.9069 46.3416C58.763 46.5728 59.6996 46.5644 60.5674 46.3952C60.8841 46.3332 60.75 45.849 60.4334 45.911C59.537 46.0853 58.5301 46.0719 57.6723 45.7385C57.1714 45.5441 56.7341 45.209 56.4644 44.7399C56.0824 44.0765 56.1209 43.3175 56.1192 42.5786C56.1125 39.3987 56.1393 35.49 53.6614 33.1126C52.1519 31.6634 49.994 31.2412 47.9935 30.9514C45.6748 30.6146 43.3175 30.5694 40.9887 30.8341C37.5524 31.2228 33.5532 32.2297 31.464 35.2454C30.3817 36.8052 30.112 38.7319 30.4822 40.5715C30.891 42.6071 31.9566 44.4719 33.0959 46.1808C34.2351 47.8897 35.5771 49.5919 36.5287 51.4901C37.415 53.2593 38.0802 55.3151 37.658 57.3054C36.961 60.5942 33.6487 62.0753 31.2378 63.9585C30.0734 64.8682 29.0213 65.9555 28.4969 67.3629C27.7496 69.3667 28.197 71.6552 28.6158 73.6842C28.9777 75.4366 29.6981 77.1874 31.3769 78.0419C32.8027 78.7673 34.4898 78.702 36.0027 78.3066C37.6881 77.8643 39.1792 77.0031 40.548 75.9443C42.0559 74.7799 43.4766 73.4848 45.1152 72.498C45.9144 72.0171 46.7638 71.6184 47.6702 71.3889C48.5766 71.1593 49.6471 71.0018 50.4714 71.481C51.1617 71.8831 51.4197 72.7694 51.6023 73.5015C51.7364 74.0393 51.8101 74.5889 51.8553 75.1401C52.0631 77.7001 51.7515 80.2718 51.9559 82.8319C52.1452 85.1925 52.8287 87.6369 54.9297 88.9923C55.9567 89.6541 57.2903 90.1232 58.5234 90.0043C59.7565 89.8853 60.9427 89.2805 61.9429 88.5349C64.4275 86.6803 66.2738 83.8991 67.3578 81.0174C67.8856 79.6151 68.2374 78.1156 68.2341 76.6111C68.229 74.7296 67.4919 72.5566 68.6747 70.8745C69.7319 69.37 71.7675 68.9009 73.4647 68.5725C75.135 68.2508 76.849 68.0816 78.4724 67.5488C80.0172 67.0412 81.4262 66.1398 82.2119 64.6755C83.1234 62.9767 83.1301 60.9277 82.8268 59.0696C82.2387 55.4642 80.1864 52.1636 77.4169 49.8181C74.3476 47.2162 70.4188 45.8507 66.433 45.5759C64.4409 45.4386 62.4372 45.5759 60.4753 45.9445C60.1569 46.0048 60.2927 46.489 60.6093 46.4287L60.606 46.422Z" fill="#123487"/>
<path d="M59.7968 48.1544C63.2833 47.4641 66.9842 47.6618 70.2998 48.9904C73.3072 50.195 75.884 52.3965 77.4572 55.2363C78.2195 56.6118 78.7405 58.1331 78.9164 59.6996C79.0991 61.3281 78.955 63.1476 77.8291 64.4326C76.9076 65.4847 75.5623 65.9622 74.2354 66.2688C72.8079 66.5989 71.3436 66.7547 69.9279 67.14C68.4402 67.5472 66.8804 68.286 66.2822 69.8123C65.6841 71.3386 66.2772 73.0894 66.232 74.7095C66.1583 77.3667 64.9235 80.0004 63.3503 82.0947C62.5947 83.1016 61.6983 84.0415 60.6495 84.7452C59.8102 85.3081 58.8233 85.7504 57.793 85.6968C56.7626 85.6432 55.6401 85.1489 54.8727 84.462C54.1054 83.7751 53.6782 82.9441 53.4051 82.0143C52.7869 79.92 52.9561 77.6616 52.9578 75.507C52.9578 74.48 52.9393 73.4479 52.7785 72.4326C52.5892 71.233 52.177 69.7721 50.8501 69.4353C50.0962 69.2443 49.2719 69.37 48.533 69.5727C47.7942 69.7754 47.0855 70.1055 46.4254 70.4975C45.0247 71.3302 43.8101 72.4326 42.5451 73.4513C41.3606 74.4063 40.1007 75.2188 38.6264 75.6477C37.3313 76.0264 35.8318 76.1353 34.6188 75.445C33.1445 74.6056 32.7323 72.9085 32.4391 71.3587C32.1107 69.6247 31.8226 67.7331 32.729 66.118C33.3556 64.9989 34.3859 64.1779 35.4096 63.4391C36.4735 62.6701 37.5943 61.958 38.5376 61.0382C39.5713 60.028 40.275 58.7697 40.414 57.3138C40.5765 55.6116 39.9734 53.9211 39.1977 52.4334C37.5524 49.2769 34.649 46.7068 33.9084 43.1114C33.5767 41.4997 33.8883 39.8142 34.9321 38.5208C35.8536 37.3782 37.1704 36.6125 38.5275 36.0999C40.1711 35.48 41.937 35.1834 43.6827 35.0527C45.6564 34.9053 47.6501 35.0042 49.5969 35.3593C51.2639 35.6626 52.9092 36.1954 53.9278 37.6412C54.7538 38.814 55.0788 40.2649 55.2296 41.6689C55.3083 42.4111 55.3419 43.1567 55.3603 43.9039C55.3787 44.6511 55.3167 45.3581 55.4441 46.0601C55.6351 47.114 56.4108 47.8444 57.4277 48.1075C58.1833 48.3018 59.0043 48.2884 59.7649 48.1326C60.0816 48.0673 59.9475 47.5831 59.6309 47.6484C58.8585 47.8076 57.9873 47.8025 57.2384 47.5228C56.8078 47.3619 56.4275 47.0771 56.193 46.6784C55.8562 46.107 55.8847 45.452 55.8763 44.812C55.8428 42.0207 55.8294 38.5828 53.6179 36.5304C52.2775 35.2873 50.3961 34.9438 48.6453 34.7059C46.6331 34.4345 44.5908 34.4161 42.5753 34.6624C39.5612 35.031 36.058 35.9441 34.2485 38.6096C33.3137 39.9868 33.0925 41.679 33.4326 43.289C33.8079 45.0633 34.7545 46.6834 35.7631 48.1661C36.8002 49.6907 37.9562 51.1198 38.8023 52.7668C39.5864 54.2931 40.1862 56.074 39.836 57.803C39.2597 60.6663 36.3914 61.9882 34.3105 63.6435C33.2952 64.451 32.3805 65.4161 31.9331 66.6558C31.2931 68.4268 31.7086 70.4439 32.1007 72.2249C32.4374 73.7579 33.1009 75.2825 34.5903 75.9996C35.877 76.6195 37.3815 76.5307 38.7235 76.1437C40.2012 75.7198 41.4863 74.929 42.6808 73.9807C43.9709 72.9554 45.1923 71.8261 46.6097 70.9717C47.2983 70.5562 48.0287 70.2144 48.8111 70.0184C49.5936 69.8224 50.5184 69.6866 51.2137 70.129C51.7766 70.4858 51.9944 71.2481 52.1485 71.8613C52.2658 72.3254 52.3328 72.7995 52.3764 73.277C52.5741 75.4953 52.3295 77.7286 52.5289 79.9485C52.7148 82.0126 53.3314 84.147 55.1793 85.3182C56.079 85.8895 57.2485 86.2932 58.3241 86.1843C59.3997 86.0754 60.4485 85.541 61.323 84.8775C63.4692 83.249 65.0525 80.8281 65.9823 78.3217C66.4414 77.0869 66.7463 75.765 66.7396 74.4414C66.7312 72.7878 66.046 70.8812 67.068 69.3918C67.9761 68.0682 69.762 67.6477 71.2414 67.3478C72.7208 67.0479 74.165 66.8921 75.5656 66.4179C76.9294 65.9555 78.1692 65.1396 78.8427 63.8294C79.6134 62.3283 79.5967 60.539 79.3102 58.9155C78.7573 55.7775 76.9344 52.9209 74.4967 50.9004C71.8044 48.6671 68.3798 47.5094 64.9118 47.2966C63.1559 47.1894 61.3901 47.3267 59.6661 47.6668C59.3494 47.7288 59.4834 48.2147 59.8001 48.151L59.7968 48.1544Z" fill="#123487"/>
<path d="M58.9875 49.8884C61.963 49.2584 65.1279 49.3874 67.9777 50.4932C70.5545 51.4934 72.7744 53.3531 74.1365 55.7674C74.7883 56.92 75.2389 58.2001 75.4014 59.5169C75.5723 60.9025 75.4618 62.4573 74.5018 63.553C73.7244 64.4393 72.5935 64.8481 71.4793 65.1195C70.263 65.416 69.0131 65.5651 67.8085 65.9153C66.6039 66.2654 65.2519 66.9272 64.7459 68.2173C64.2148 69.5693 64.7593 71.0269 64.7459 72.4158C64.7208 74.6877 63.6971 76.9528 62.3769 78.7606C61.7469 79.6234 60.998 80.4326 60.1168 81.0408C59.4064 81.53 58.5704 81.9221 57.6874 81.8819C56.8045 81.8417 55.873 81.4396 55.2196 80.8699C54.5661 80.3003 54.1909 79.5933 53.9479 78.8075C53.4034 77.04 53.5173 75.1266 53.4956 73.3005C53.4855 72.4192 53.457 71.5312 53.3096 70.66C53.137 69.6464 52.7768 68.4049 51.6677 68.1C51.0109 67.9191 50.2821 68.0347 49.6388 68.2173C48.9954 68.3999 48.3806 68.6931 47.8093 69.0433C46.6298 69.7654 45.6094 70.7136 44.5489 71.5932C43.5537 72.4192 42.4966 73.1312 41.2501 73.5183C40.1527 73.86 38.8693 73.9823 37.8255 73.406C36.5539 72.704 36.1937 71.2531 35.9273 69.9312C35.6308 68.4652 35.3711 66.8686 36.1267 65.4931C36.6511 64.5398 37.5189 63.8311 38.3801 63.1928C39.2898 62.5192 40.2482 61.891 41.0457 61.0801C41.9185 60.1921 42.4966 59.0914 42.5837 57.8365C42.6859 56.3839 42.1497 54.9548 41.4695 53.6983C40.032 51.0394 37.5407 48.8882 36.8655 45.8456C36.564 44.4886 36.8019 43.0745 37.6546 41.9604C38.417 40.9669 39.5445 40.2917 40.6955 39.8393C42.0878 39.2915 43.5889 39.0184 45.075 38.8877C46.7672 38.7386 48.4828 38.8006 50.1582 39.0854C51.5555 39.3233 52.9427 39.7539 53.8139 40.9484C54.531 41.9336 54.8275 43.1616 54.9716 44.3529C55.0487 44.9912 55.0855 45.6345 55.109 46.2762C55.1308 46.8743 55.0922 47.4993 55.2011 48.0907C55.3703 49.0038 56.0422 49.6404 56.9285 49.8633C57.5869 50.0274 58.3023 50.009 58.9624 49.8633C59.2774 49.7946 59.145 49.3087 58.8284 49.3791C58.1934 49.5181 57.4462 49.5299 56.8045 49.3003C56.4376 49.1696 56.1125 48.9301 55.9132 48.5916C55.6284 48.1091 55.6485 47.5529 55.6351 47.0134C55.5731 44.636 55.5178 41.7191 53.6212 39.9868C52.4568 38.9212 50.8384 38.6464 49.3255 38.4588C47.6032 38.246 45.8574 38.2577 44.1384 38.4889C41.5567 38.8341 38.556 39.6617 37.0347 41.9704C36.2456 43.1683 36.0747 44.631 36.3897 46.0132C36.7332 47.5261 37.5625 48.8999 38.4438 50.1581C39.3401 51.4365 40.3336 52.6344 41.0725 54.0183C41.751 55.2899 42.2888 56.781 42.0341 58.2419C41.6052 60.7115 39.1709 61.8792 37.405 63.3167C36.5489 64.0137 35.7765 64.843 35.3962 65.8985C34.845 67.4265 35.222 69.1572 35.5755 70.6868C35.8821 72.0121 36.4668 73.334 37.7669 73.9388C38.8827 74.4582 40.1728 74.3694 41.3254 74.0209C42.6004 73.6355 43.6995 72.9352 44.7215 72.0992C45.8071 71.2112 46.8358 70.2345 48.0338 69.4939C48.6151 69.1354 49.2333 68.8389 49.8968 68.668C50.5301 68.5038 51.3343 68.3748 51.9157 68.7551C52.3814 69.0583 52.5674 69.7034 52.6997 70.216C52.8019 70.6064 52.8639 71.0068 52.9041 71.4089C53.0918 73.2904 52.9125 75.1886 53.1069 77.0701C53.2895 78.8393 53.8407 80.6622 55.4357 81.6523C56.2181 82.1382 57.23 82.4716 58.1582 82.3694C59.0864 82.2672 59.9643 81.7998 60.7082 81.2268C62.5461 79.8094 63.8847 77.69 64.6521 75.5187C65.024 74.4649 65.2669 73.3373 65.2468 72.2148C65.22 70.8058 64.6068 69.1739 65.4764 67.8973C66.2286 66.7932 67.7063 66.4179 68.9361 66.1498C70.1658 65.8818 71.4307 65.726 72.6236 65.3088C73.8165 64.8916 74.8385 64.2097 75.4165 63.0956C76.085 61.8055 76.0649 60.2658 75.8086 58.8685C75.3143 56.1762 73.726 53.7334 71.6134 52.0212C69.2779 50.1263 66.3241 49.1646 63.3402 49.0222C61.8374 48.9502 60.3279 49.0875 58.8569 49.3992C58.5402 49.4662 58.6742 49.9504 58.9909 49.8834L58.9875 49.8884Z" fill="#123487"/>
<path d="M58.1783 51.6208C60.6361 51.0511 63.2631 51.1098 65.6422 51.9877C67.78 52.7768 69.6347 54.2796 70.7907 56.2499C71.3486 57.2015 71.7357 58.257 71.8898 59.3511C72.0439 60.4451 71.9618 61.7854 71.1593 62.6868C70.5176 63.4089 69.5895 63.7457 68.6781 63.9802C67.6795 64.2365 66.6542 64.3823 65.6724 64.6956C64.6387 65.0257 63.5882 65.5919 63.1894 66.6659C62.7656 67.8119 63.2531 69.0282 63.2531 70.196C63.2531 72.0758 62.4372 73.9589 61.3666 75.4718C60.8556 76.1922 60.2424 76.8758 59.5136 77.3834C58.9389 77.7838 58.2621 78.1038 57.5467 78.0687C56.8313 78.0335 56.0489 77.7118 55.5111 77.2377C55.0017 76.7903 54.6717 76.1905 54.469 75.5489C54.0116 74.098 54.0769 72.5298 54.0283 71.027C54.0049 70.3032 53.968 69.5727 53.8306 68.859C53.6648 67.9978 53.3263 66.9557 52.3647 66.7362C51.2991 66.4933 50.1079 67.0077 49.2233 67.5656C48.2566 68.1754 47.4256 68.9729 46.5644 69.7185C45.7451 70.4272 44.879 71.0487 43.8402 71.3955C42.9439 71.6938 41.8867 71.8228 41.0188 71.362C39.9684 70.8041 39.6534 69.6213 39.4155 68.544C39.1508 67.3494 38.9045 66.0359 39.5026 64.8983C39.9248 64.0941 40.6402 63.491 41.3489 62.9448C42.0911 62.3735 42.8752 61.839 43.5185 61.1538C44.2256 60.4016 44.6863 59.4784 44.7416 58.4363C44.8052 57.2233 44.3378 56.0371 43.7514 54.9984C42.52 52.8187 40.4174 51.0746 39.8125 48.5665C39.5445 47.4524 39.7204 46.2947 40.4056 45.3631C41.0239 44.5204 41.9721 43.9424 42.9288 43.5537C44.0798 43.0863 45.3263 42.8383 46.5594 42.7143C47.945 42.5736 49.3523 42.6021 50.7278 42.8165C51.8805 42.9958 53.0114 43.3409 53.7335 44.3177C54.3282 45.1202 54.5779 46.1238 54.7152 47.0972C54.789 47.6199 54.8275 48.1477 54.856 48.6754C54.8845 49.2032 54.8577 49.7024 54.9666 50.1933C55.1358 50.9523 55.7205 51.4717 56.466 51.6375C57.0156 51.7598 57.607 51.733 58.1532 51.604C58.4682 51.5286 58.3341 51.0444 58.0191 51.1198C57.4964 51.2455 56.8832 51.2689 56.3471 51.0846C56.0438 50.9808 55.7791 50.7847 55.6166 50.505C55.3821 50.1029 55.4022 49.6304 55.3821 49.1814C55.2916 47.2078 55.181 44.7734 53.5475 43.3912C52.554 42.5501 51.2204 42.3474 49.9655 42.2167C48.5464 42.0693 47.114 42.1095 45.7033 42.3206C43.547 42.644 41.0406 43.3895 39.8092 45.3481C39.1725 46.36 39.0519 47.5847 39.3367 48.7324C39.645 49.9755 40.3437 51.0964 41.0892 52.12C41.8348 53.1437 42.6993 54.1473 43.3359 55.2832C43.924 56.332 44.4031 57.5718 44.2021 58.7948C43.867 60.8372 41.8498 61.829 40.4207 63.052C39.7137 63.6569 39.0854 64.379 38.8023 65.282C38.4035 66.5587 38.7386 67.9794 39.0603 69.2359C39.3384 70.3233 39.8528 71.3972 40.9317 71.8781C41.875 72.2986 42.9539 72.2098 43.9156 71.8982C44.9728 71.5564 45.8809 70.9583 46.7202 70.2429C47.6048 69.4906 48.4392 68.6646 49.421 68.0347C49.8918 67.7314 50.3944 67.4784 50.9355 67.3277C51.4767 67.1769 52.1268 67.0562 52.6026 67.3762C52.9762 67.6292 53.1337 68.162 53.2459 68.5809C53.333 68.9025 53.3883 69.2309 53.4269 69.561C53.6028 71.1107 53.4872 72.6789 53.6832 74.2286C53.8675 75.6913 54.355 77.1891 55.6903 77.9866C56.3471 78.3803 57.1932 78.645 57.9622 78.5545C58.7312 78.4641 59.4767 78.0586 60.0983 77.5677C61.6062 76.3765 62.6885 74.5838 63.295 72.7794C63.5932 71.8898 63.7825 70.9415 63.7507 69.9999C63.7105 68.8255 63.1593 67.4567 63.8881 66.3894C64.5063 65.483 65.721 65.1664 66.7262 64.9285C67.7314 64.6906 68.7769 64.5415 69.7503 64.1729C70.7237 63.8043 71.5664 63.2196 72.0272 62.2864C72.5683 61.1873 72.5281 59.8956 72.2852 58.7228C71.8261 56.5029 70.4741 54.5092 68.7015 53.1236C66.7329 51.5839 64.2684 50.825 61.7854 50.7512C60.5289 50.7127 59.2673 50.8518 58.0426 51.1349C57.7276 51.2086 57.8617 51.6928 58.1766 51.6191L58.1783 51.6208Z" fill="#123487"/>
</g>
<defs>
<clipPath id="clip0_23_1707">
<rect width="120.55" height="111.158" fill="white" transform="matrix(0 1 -1 0 111.158 0)"/>
</clipPath>
</defs>
</svg>
