<svg width="85" height="96" viewBox="0 0 85 96" fill="none" xmlns="http://www.w3.org/2000/svg">
<g clip-path="url(#clip0_23_1692)">
<path d="M80.448 41.2606C81.5689 45.2299 82.3586 49.3242 82.9514 53.4046C83.5512 57.536 83.8916 61.9337 82.3308 65.9076C81.4461 68.1609 79.8251 69.9625 77.551 70.8587C75.2491 71.7642 72.7318 71.8684 70.3165 72.276C68.2045 72.6326 66.1944 73.2811 64.4251 74.5131C62.9175 75.5621 61.6438 76.8983 60.523 78.3457C58.1516 81.4025 56.4171 84.8832 54.1939 88.0419C51.8573 91.3627 48.8514 94.2135 44.6992 94.8943C38.9699 95.8345 33.5765 92.8935 29.1533 89.575C27.0297 87.9817 25.0381 86.1985 22.7872 84.7813C20.5363 83.364 18.2135 82.5303 15.6036 82.5072C12.9937 82.484 10.2379 83.1371 7.56088 82.7943C5.29604 82.5025 3.37162 81.2914 2.29478 79.2651C1.34299 77.475 1.10678 75.3236 1.41478 73.3343C1.78068 70.9792 2.99878 68.9968 4.467 67.1628C6.07415 65.155 7.90825 63.2907 9.1472 61.0143C10.4024 58.7055 10.9674 56.0933 11.0693 53.4811C11.2916 47.7588 9.37183 42.3097 8.10278 36.8097C7.44509 33.9613 6.87078 30.9508 7.10468 28.0143C7.20657 26.7268 7.59331 25.4577 8.52425 24.5244C9.26299 23.7857 10.2287 23.3434 11.2175 23.0516C13.3249 22.431 15.548 22.4055 17.6809 21.9145C19.9758 21.3865 22.1249 20.2935 23.9428 18.8044C25.7607 17.3154 27.2196 15.3655 28.2131 13.1956C29.2158 11.0025 29.8666 8.6636 30.948 6.50528C32.0295 4.34697 33.7293 2.44339 36.096 1.51244C38.5137 0.560651 41.1861 0.518967 43.7104 1.01455C46.6097 1.58423 49.3331 2.78149 52.0287 3.9556C54.6918 5.11581 57.3573 6.28297 60.1177 7.19307C62.7971 8.07539 65.5436 8.66823 68.3642 8.82339C70.7287 8.95307 73.151 8.88128 75.4598 9.48107C77.7779 10.0832 79.6861 11.5375 80.5152 13.8371C81.3396 16.1251 81.1798 18.6748 80.8556 21.0438C80.4944 23.6699 79.9918 26.3377 80.411 28.9893C80.6217 30.3139 81.1289 31.4695 81.7981 32.6204C82.12 33.1739 82.4373 33.7529 82.472 34.4059C82.4975 34.8992 82.3725 35.3855 82.1918 35.844C81.5017 37.5901 79.9085 39.1857 80.3948 41.2028C80.499 41.6381 81.1682 41.4529 81.064 41.0175C80.8116 39.9661 81.3141 38.9773 81.8097 38.0788C82.3053 37.1802 82.8727 36.3025 83.0834 35.2998C83.3358 34.0956 82.8819 33.0952 82.2798 32.0716C81.555 30.8396 81.1219 29.5428 80.9946 28.1162C80.5476 23.0863 83.1251 17.7948 80.8904 12.9385C78.695 8.17033 73.0213 8.36718 68.575 8.14023C62.5678 7.83223 57.1002 5.40528 51.6628 3.04318C46.7139 0.894125 41.0333 -1.28272 35.707 0.92423C33.4306 1.86676 31.7331 3.56886 30.5729 5.72023C29.4127 7.8716 28.7341 10.3194 27.7291 12.5842C26.7217 14.8537 25.2836 16.8407 23.3407 18.4015C21.3977 19.9623 19.1283 20.9697 16.7083 21.4028C14.5499 21.7895 12.2805 21.8451 10.2194 22.6579C9.28152 23.0284 8.40383 23.5611 7.75078 24.3392C6.93099 25.3164 6.56046 26.5183 6.4331 27.7712C6.13204 30.6821 6.70172 33.7297 7.33625 36.5596C7.97078 39.3895 8.87857 42.4463 9.5293 45.4175C10.7011 50.7739 11.0832 56.7741 8.00089 61.5886C6.56741 63.828 4.63604 65.6922 3.08215 67.8436C1.74362 69.6985 0.835831 71.7295 0.641304 74.0244C0.472252 76.0206 0.826569 78.1187 1.83625 79.8649C2.93625 81.7661 4.78657 83.0027 6.94025 83.3941C9.62888 83.8827 12.3476 83.2644 15.0432 83.2042C16.428 83.1741 17.7874 83.32 19.1051 83.7554C20.4228 84.1908 21.5714 84.8183 22.6969 85.5455C24.9826 87.0253 27.0135 88.8594 29.2042 90.4712C31.4784 92.1455 33.903 93.6461 36.5615 94.6303C39.176 95.5983 42.0384 96.0128 44.8057 95.5752C46.9872 95.2301 48.9927 94.2899 50.7133 92.9213C53.7516 90.5036 55.7478 87.0299 57.7417 83.767C59.731 80.5156 61.8245 77.0303 65.0874 74.8998C67.0165 73.64 69.1979 73.1236 71.4535 72.7971C73.9129 72.4404 76.4788 72.2436 78.7228 71.0834C83.0255 68.8602 84.1371 63.608 84.1579 59.1617C84.1672 57.1956 83.9101 55.2249 83.6299 53.2842C83.3011 51.0032 82.8842 48.7337 82.4118 46.4781C82.032 44.6672 81.6198 42.8562 81.1173 41.0754C80.9969 40.6446 80.3253 40.8276 80.448 41.2606Z" fill="#123487"/>
<path d="M78.0674 41.5917C79.1141 45.3039 79.8552 49.1342 80.4087 52.9507C80.9691 56.8111 81.2863 60.9193 79.8297 64.6338C79.0053 66.7342 77.4931 68.4155 75.3741 69.2492C73.2552 70.0829 70.8653 70.194 68.6074 70.5738C66.6297 70.9073 64.7493 71.5163 63.0912 72.6673C61.6786 73.6492 60.4882 74.8997 59.4369 76.2544C57.2184 79.1144 55.5927 82.3728 53.5131 85.3277C51.3316 88.4309 48.5249 91.0917 44.6459 91.7285C39.2941 92.6086 34.255 89.8551 30.1213 86.7565C28.1344 85.2675 26.2725 83.5978 24.1674 82.2732C22.0624 80.9485 19.8832 80.1658 17.4377 80.1427C14.932 80.1195 12.4194 80.7332 9.91604 80.4113C7.80404 80.138 6.01393 79.0102 5.00888 77.1205C4.12193 75.4509 3.89961 73.4431 4.18909 71.5904C4.53182 69.3928 5.66888 67.5401 7.03983 65.8264C8.54508 63.946 10.2611 62.1999 11.4213 60.0694C12.5815 57.9389 13.128 55.461 13.223 53.0132C13.4291 47.6591 11.6344 42.5597 10.4464 37.4117C9.83267 34.7485 9.29541 31.9349 9.51309 29.1907C9.60804 27.9934 9.96698 26.81 10.8331 25.9439C11.5209 25.2561 12.4194 24.8439 13.3434 24.573C15.3141 23.9917 17.3937 23.9685 19.3899 23.51C21.5413 23.0144 23.5537 21.9909 25.2581 20.5944C26.9904 19.1772 28.3266 17.3755 29.2552 15.3445C30.1931 13.2951 30.7998 11.1043 31.8141 9.08729C32.8609 6.99844 34.4078 5.29634 36.6171 4.4256C38.875 3.53865 41.3714 3.49697 43.7289 3.96013C46.4384 4.49276 48.9857 5.61128 51.5053 6.70897C54.0249 7.80665 56.4935 8.88813 59.0779 9.74034C61.5859 10.5671 64.1588 11.1205 66.7965 11.2664C69.0057 11.3892 71.2706 11.3197 73.4266 11.8801C75.5872 12.4429 77.368 13.7953 78.1392 15.9374C78.9103 18.0795 78.7598 20.4532 78.4565 22.6671C78.1183 25.1288 77.6459 27.6275 78.0419 30.11C78.2388 31.3513 78.7135 32.4328 79.3434 33.5119C79.6421 34.026 79.9386 34.5633 79.971 35.17C79.9941 35.6309 79.8783 36.0824 79.7093 36.5085C79.0609 38.1481 77.5718 39.6395 78.028 41.5315C78.1322 41.9669 78.8015 41.7816 78.6973 41.3462C78.4634 40.369 78.9335 39.4473 79.392 38.6159C79.8506 37.7845 80.3878 36.9509 80.587 36.0107C80.8255 34.8782 80.3994 33.9357 79.8343 32.9747C79.1581 31.826 78.7552 30.6172 78.6348 29.2856C78.2156 24.5753 80.6287 19.6241 78.5329 15.0782C76.4765 10.6111 71.1617 10.7917 66.9933 10.5787C61.3798 10.2915 56.2689 8.02202 51.1857 5.81276C46.5495 3.80034 41.2325 1.76244 36.2442 3.82813C34.1091 4.71276 32.5158 6.30602 31.4274 8.32539C30.339 10.3448 29.7068 12.6281 28.7689 14.7448C27.831 16.8614 26.4832 18.7233 24.6676 20.1822C22.852 21.6412 20.7331 22.5791 18.4729 22.9843C16.4535 23.3456 14.3299 23.3965 12.4032 24.1584C11.5232 24.5058 10.6988 25.006 10.0851 25.7378C9.31393 26.6572 8.96656 27.785 8.84615 28.9637C8.56593 31.6894 9.09856 34.5401 9.69141 37.1894C10.312 39.966 11.1341 42.694 11.7432 45.4753C12.8386 50.4797 13.1952 56.0862 10.3167 60.5835C8.97583 62.6793 7.16951 64.4208 5.71519 66.4332C4.46003 68.1723 3.61015 70.0736 3.4272 72.2273C3.26741 74.0984 3.60088 76.0645 4.54803 77.7018C5.58088 79.485 7.3154 80.6452 9.33477 81.0134C11.852 81.4719 14.3971 80.893 16.9213 80.8374C18.2135 80.8096 19.4826 80.9462 20.7146 81.3515C21.9466 81.7568 23.0188 82.345 24.0678 83.0258C26.2053 84.4107 28.1066 86.1243 30.156 87.6342C32.2842 89.202 34.5537 90.6054 37.0432 91.5271C39.5327 92.4488 42.1727 92.8216 44.7663 92.4117C46.8112 92.0875 48.6893 91.2075 50.3034 89.9245C53.1472 87.662 55.016 84.4107 56.8826 81.3561C58.7398 78.3178 60.6967 75.0595 63.7466 73.0702C65.5482 71.8938 67.5885 71.4098 69.6958 71.1064C71.9977 70.773 74.3992 70.5877 76.5019 69.5016C80.5337 67.4174 81.5758 62.4963 81.5967 58.3302C81.6059 56.4892 81.3651 54.6435 81.1011 52.8256C80.7931 50.6928 80.404 48.5692 79.9617 46.4595C79.6051 44.7643 79.2207 43.0738 78.7506 41.4064C78.6301 40.9757 77.9586 41.1587 78.0813 41.5917H78.0674Z" fill="#123487"/>
<path d="M75.6891 41.9228C76.664 45.3803 77.3541 48.9443 77.8682 52.4967C78.3823 56.0491 78.6857 59.9073 77.3286 63.3601C76.5644 65.3054 75.1611 66.8662 73.1973 67.6397C71.2335 68.4131 69.0011 68.5197 66.8983 68.874C65.055 69.1843 63.3019 69.7517 61.7573 70.8262C60.4396 71.7409 59.3303 72.9081 58.3508 74.1702C56.2828 76.8334 54.7705 79.8694 52.8322 82.6228C50.8036 85.506 48.196 87.9769 44.5926 88.5698C39.6183 89.3873 34.9312 86.8237 31.0893 83.9428C29.239 82.5557 27.5068 81.0018 25.5453 79.7698C23.6278 78.5633 21.5482 77.8037 19.2672 77.7828C16.9352 77.762 14.5939 78.334 12.2642 78.0329C10.3074 77.7805 8.64697 76.7338 7.71834 74.9807C6.89623 73.4338 6.69012 71.5696 6.95644 69.8513C7.2737 67.8087 8.3297 66.0881 9.60339 64.4972C11.0044 62.7464 12.6046 61.1184 13.6861 59.1338C14.7838 57.1167 15.2771 54.8357 15.3651 52.5523C15.5573 47.5641 13.8853 42.8167 12.7806 38.023C12.2086 35.5475 11.7108 32.9283 11.9122 30.3763C12.0002 29.267 12.3337 28.174 13.135 27.3704C13.7718 26.7313 14.6055 26.3515 15.46 26.099C17.2941 25.5571 19.2301 25.5363 21.0897 25.1079C23.0952 24.6447 24.9733 23.6883 26.5619 22.3868C28.176 21.0668 29.4219 19.3856 30.2857 17.4936C31.1495 15.6016 31.7238 13.5452 32.6663 11.667C33.639 9.72873 35.0724 8.14705 37.1242 7.33884C39.2223 6.51442 41.5404 6.47505 43.7312 6.90578C46.2531 7.40136 48.6198 8.44115 50.9634 9.46241C53.2861 10.4744 55.6112 11.4934 58.0196 12.2877C60.3562 13.0588 62.7531 13.5729 65.2124 13.7096C67.2665 13.823 69.3716 13.7582 71.3794 14.2816C73.3872 14.8049 75.0337 16.0555 75.7493 18.0424C76.4649 20.0294 76.3259 22.2386 76.0457 24.295C75.7308 26.59 75.2908 28.9197 75.659 31.2378C75.8419 32.3957 76.2865 33.4054 76.8724 34.4104C77.148 34.8851 77.4236 35.3807 77.4514 35.9411C77.4745 36.3673 77.3657 36.7864 77.2082 37.1801C76.6015 38.7108 75.2166 40.1003 75.6428 41.8696C75.747 42.3049 76.4162 42.1197 76.312 41.6843C76.0943 40.7835 76.532 39.9289 76.9581 39.1601C77.3842 38.3913 77.8891 37.6062 78.072 36.7308C78.2943 35.6702 77.8983 34.7879 77.368 33.8847C76.7404 32.8195 76.3653 31.6963 76.2564 30.4643C75.8651 26.0736 78.1114 21.4652 76.1592 17.2249C74.2394 13.0565 69.2836 13.2233 65.3954 13.0241C60.1733 12.7578 55.419 10.6435 50.6901 8.59168C46.3689 6.71589 41.4131 4.81694 36.763 6.74136C34.7714 7.56578 33.28 9.05484 32.2657 10.9376C31.2514 12.8203 30.6632 14.9439 29.7901 16.9146C28.9148 18.8877 27.6642 20.6153 25.976 21.9723C24.2878 23.3294 22.3194 24.1978 20.219 24.5753C18.3385 24.9134 16.3632 24.9597 14.5684 25.6683C13.7463 25.9925 12.9729 26.4603 12.3985 27.1435C11.676 28.0026 11.3518 29.0586 11.236 30.1633C10.9743 32.7014 11.4699 35.3599 12.0234 37.8285C12.6023 40.4129 13.3665 42.9534 13.9339 45.5424C14.9529 50.1948 15.284 55.4077 12.607 59.59C11.3587 61.5399 9.67749 63.1632 8.32507 65.0367C7.15328 66.6601 6.36359 68.434 6.19222 70.4418C6.04401 72.1879 6.35665 74.0243 7.23897 75.5504C8.20233 77.2155 9.82339 78.3016 11.7108 78.6443C14.0566 79.0704 16.4257 78.5331 18.7785 78.4799C19.9804 78.4544 21.1592 78.5818 22.3032 78.9569C23.4472 79.3321 24.443 79.8809 25.4202 80.5132C27.4095 81.803 29.1811 83.3986 31.087 84.802C33.0716 86.2633 35.1859 87.5694 37.504 88.4285C39.8221 89.2877 42.2884 89.635 44.7061 89.2506C46.6143 88.9496 48.3651 88.1251 49.8703 86.9279C52.5196 84.8205 54.2588 81.7915 55.9979 78.9477C57.7255 76.1224 59.5457 73.0934 62.3779 71.243C64.0545 70.1477 65.9512 69.7007 67.9103 69.4159C70.0571 69.1056 72.2918 68.9319 74.251 67.9199C78.0118 65.9769 78.9868 61.387 79.0053 57.5011C79.0145 55.7851 78.7876 54.0645 78.5444 52.3694C78.2573 50.3824 77.896 48.407 77.4838 46.4433C77.1526 44.8662 76.796 43.2915 76.356 41.7376C76.2356 41.3068 75.564 41.4898 75.6868 41.9228H75.6891Z" fill="#123487"/>
<path d="M73.3108 42.254C74.2139 45.4544 74.8508 48.7544 75.3278 52.0428C75.8049 55.3312 76.0828 58.8929 74.8276 62.0864C74.1236 63.8788 72.8291 65.3192 71.0204 66.0302C69.1655 66.7597 67.1345 66.8454 65.1893 67.1719C63.4825 67.459 61.8545 67.987 60.4234 68.9805C59.203 69.8304 58.1724 70.9096 57.2647 72.0814C55.3495 74.55 53.9461 77.3614 52.1514 79.911C50.2779 82.5765 47.8672 84.8576 44.5371 85.4064C39.9379 86.1614 35.6051 83.7877 32.055 81.1245C30.3436 79.8416 28.7388 78.4035 26.9232 77.2595C25.1447 76.1409 23.2133 75.4346 21.099 75.4161C18.9847 75.3976 16.7731 75.9279 14.6148 75.6477C12.8108 75.4138 11.2847 74.4481 10.4278 72.834C9.67055 71.4075 9.47833 69.6891 9.72613 68.1051C10.0202 66.2178 10.9929 64.6291 12.1693 63.1586C13.4684 61.5353 14.9529 60.0277 15.9533 58.1866C16.9722 56.3155 17.4308 54.1988 17.5118 52.0799C17.6901 47.4599 16.1432 43.0622 15.1173 38.6205C14.5893 36.3302 14.1261 33.9102 14.3137 31.5481C14.3948 30.5291 14.7004 29.5218 15.4369 28.783C16.0228 28.1948 16.7916 27.8451 17.579 27.6136C19.2788 27.1134 21.0689 27.0925 22.7895 26.6965C24.6514 26.2681 26.3929 25.3788 27.868 24.1723C29.3432 22.9658 30.5173 21.391 31.3209 19.638C32.1291 17.871 32.6524 15.9837 33.5255 14.2445C34.4217 12.4567 35.744 10.9931 37.636 10.2498C39.5743 9.48788 41.7164 9.45083 43.7381 9.84914C46.0701 10.3077 48.2609 11.2687 50.4284 12.2136C52.596 13.1584 54.7358 14.0963 56.9659 14.8304C59.196 15.5645 61.352 16.0207 63.6308 16.1481C65.5297 16.2523 67.4773 16.1944 69.3322 16.6761C71.1779 17.1555 72.7017 18.3087 73.3594 20.1405C74.0194 21.9746 73.8943 24.0171 73.6327 25.9138C73.3409 28.0443 72.9333 30.2049 73.2737 32.354C73.4451 33.4285 73.855 34.3641 74.3992 35.2974C74.6516 35.7327 74.9063 36.1889 74.9318 36.703C74.9527 37.0967 74.8531 37.4811 74.7072 37.8447C74.1421 39.2689 72.8615 40.5542 73.2575 42.2007C73.3617 42.6361 74.031 42.4508 73.9268 42.0155C73.7276 41.1887 74.1305 40.4037 74.5219 39.6997C74.9133 38.9957 75.3857 38.2569 75.5571 37.4441C75.7655 36.4552 75.3973 35.6308 74.904 34.7902C74.3251 33.8083 73.9777 32.7731 73.8781 31.6361C73.5169 27.5649 75.5941 23.2969 73.7832 19.367C72.0023 15.4997 67.4055 15.6502 63.7952 15.4649C58.9644 15.2171 54.5668 13.2626 50.1945 11.3637C46.1882 9.62451 41.5914 7.86451 37.2794 9.64767C35.4291 10.4142 34.0442 11.7944 33.0994 13.5451C32.1545 15.2959 31.6173 17.2527 30.8068 19.0776C29.9962 20.9024 28.8407 22.498 27.2798 23.7531C25.7398 24.9898 23.9011 25.8072 21.9628 26.1569C20.2236 26.4696 18.3918 26.5136 16.7314 27.1689C15.9649 27.4723 15.247 27.9054 14.712 28.5422C14.0381 29.3435 13.7348 30.3277 13.6282 31.3559C13.3851 33.7087 13.8459 36.1704 14.3577 38.4584C14.8695 40.7464 15.6013 43.2035 16.1247 45.6003C17.0672 49.9007 17.3729 54.7199 14.8996 58.5849C13.744 60.3912 12.1878 61.8919 10.935 63.6264C9.84886 65.1317 9.11475 66.7805 8.95728 68.6447C8.82065 70.2658 9.11012 71.9702 9.92992 73.3875C10.8261 74.9344 12.3314 75.9441 14.0844 76.2637C16.259 76.6597 18.4543 76.1618 20.6358 76.1132C21.7474 76.0877 22.8358 76.2058 23.8941 76.5555C24.9524 76.9051 25.8718 77.4077 26.7727 77.9936C28.616 79.1885 30.2533 80.666 32.0202 81.9651C33.859 83.3176 35.8181 84.5287 37.9672 85.3254C40.1162 86.122 42.4065 86.4416 44.6505 86.0872C46.4221 85.807 48.0455 85.0405 49.4442 83.9313C51.899 81.979 53.5108 79.1723 55.1225 76.5369C56.7343 73.9016 58.4017 71.1226 61.0209 69.4136C62.5701 68.4016 64.3255 67.987 66.1364 67.7254C68.1257 67.4382 70.1983 67.2761 72.0139 66.3382C75.5038 64.5342 76.4116 60.2755 76.4278 56.6698C76.4348 55.0788 76.2263 53.4832 75.9994 51.9131C75.7331 50.0744 75.3996 48.2449 75.0175 46.427C74.7118 44.9658 74.3807 43.5091 73.9731 42.071C73.8527 41.6403 73.1811 41.8232 73.3038 42.2563L73.3108 42.254Z" fill="#123487"/>
<path d="M70.9325 42.5851C71.7638 45.5285 72.3497 48.5645 72.7897 51.5912C73.232 54.6388 73.4821 57.8832 72.3312 60.815C71.6874 62.4546 70.504 63.7722 68.8482 64.423C67.1925 65.0737 65.275 65.171 63.4826 65.4743C61.9101 65.7407 60.4095 66.2247 59.0918 67.1417C57.9664 67.9244 57.0169 68.9179 56.1809 69.9971C54.4162 72.2689 53.1264 74.8579 51.4729 77.2061C49.7522 79.6516 47.543 81.7451 44.4861 82.2476C40.2645 82.9423 36.2836 80.7562 33.0253 78.3131C31.4506 77.132 29.9731 75.8097 28.3034 74.7583C26.6337 73.707 24.883 73.0771 22.9308 73.0586C20.9786 73.04 18.9499 73.531 16.9676 73.2716C15.3188 73.0562 13.9247 72.1739 13.1396 70.6988C12.4472 69.3927 12.2712 67.8179 12.4958 66.3706C12.7645 64.6407 13.656 63.1817 14.7375 61.8339C15.9348 60.3379 17.3011 58.9508 18.2228 57.2556C19.1607 55.528 19.5845 53.5781 19.6609 51.6236C19.8253 47.3718 18.4011 43.3238 17.4562 39.2365C16.9699 37.1314 16.5461 34.9082 16.7198 32.7383C16.7939 31.8074 17.0718 30.888 17.7457 30.2141C18.283 29.6769 18.9847 29.3573 19.7026 29.1442C21.2657 28.6834 22.9146 28.6649 24.4962 28.3013C26.2146 27.9053 27.8194 27.0855 29.1788 25.9716C30.5381 24.8577 31.6196 23.408 32.3584 21.7939C33.0971 20.1798 33.5834 18.4314 34.387 16.8335C35.2091 15.1962 36.4179 13.8531 38.1525 13.1722C39.9287 12.4729 41.8948 12.4381 43.752 12.804C45.8941 13.2255 47.9066 14.1078 49.9005 14.9762C51.8944 15.8447 53.8674 16.7085 55.9215 17.387C57.9154 18.0447 59.9626 18.4847 62.0607 18.6005C63.8045 18.6977 65.5946 18.6421 67.299 19.0845C69.0034 19.5268 70.3813 20.5758 70.9834 22.2501C71.5878 23.9314 71.4744 25.8049 71.2358 27.5463C70.9672 29.5125 70.592 31.5017 70.907 33.4863C71.0645 34.4752 71.4442 35.3413 71.9445 36.2005C72.176 36.5965 72.4053 37.011 72.4308 37.4788C72.4493 37.8377 72.3567 38.1897 72.227 38.5209C71.7036 39.8386 70.5272 41.0196 70.8931 42.5411C70.9973 42.9765 71.6666 42.7912 71.5624 42.3558C71.3817 41.6032 71.7522 40.8876 72.1066 40.2461C72.4609 39.6047 72.9032 38.9146 73.0607 38.1642C73.2529 37.2449 72.9148 36.483 72.4562 35.7026C71.9282 34.804 71.6087 33.8569 71.516 32.8148C71.1826 29.0632 73.0954 25.1379 71.4257 21.5137C69.7815 17.9451 65.5459 18.0817 62.2135 17.9103C57.7765 17.6834 53.7354 15.8863 49.7175 14.1426C46.0238 12.5377 41.7906 10.919 37.8167 12.5609C36.1076 13.2672 34.827 14.5409 33.9539 16.1596C33.0809 17.7783 32.5899 19.5708 31.8442 21.2497C31.1009 22.9263 30.0402 24.3922 28.6045 25.5455C27.1918 26.6802 25.5036 27.4306 23.7251 27.7478C22.1249 28.035 20.4413 28.0743 18.9129 28.6788C18.2043 28.959 17.5373 29.3596 17.0417 29.9501C16.4165 30.6935 16.1362 31.6036 16.0367 32.5577C15.8144 34.723 16.2381 36.9925 16.7082 39.0998C17.2015 41.3021 17.8523 43.4651 18.3339 45.6697C19.1977 49.6181 19.4826 54.0436 17.2085 57.5914C16.1455 59.2518 14.712 60.6343 13.5611 62.2299C12.5584 63.6194 11.8845 65.1409 11.7386 66.8592C11.6112 68.3552 11.8798 69.9276 12.6371 71.236C13.4638 72.6649 14.8556 73.6005 16.4767 73.8946C18.4798 74.2581 20.5015 73.8019 22.5093 73.7579C23.5283 73.7348 24.5264 73.8436 25.499 74.1632C26.4716 74.4828 27.3122 74.9459 28.1413 75.4832C29.8365 76.5809 31.344 77.9402 32.9674 79.1352C34.5908 80.3301 36.4643 81.495 38.4443 82.2291C40.3988 82.9539 42.5362 83.2573 44.6066 82.9308C46.2392 82.6714 47.7375 81.9651 49.0274 80.9392C51.2876 79.1421 52.772 76.5577 54.2541 74.1331C55.7362 71.7085 57.2647 69.1611 59.6708 67.5887C61.095 66.6577 62.7045 66.2802 64.3695 66.0371C66.2013 65.7708 68.1095 65.6226 69.7815 64.7588C73.0005 63.096 73.8411 59.1685 73.8573 55.8407C73.8642 54.3748 73.672 52.9042 73.4613 51.4569C73.2181 49.7663 72.9078 48.0828 72.5581 46.4108C72.2756 45.0676 71.9722 43.7268 71.5994 42.4045C71.479 41.9737 70.8074 42.1567 70.9301 42.5897L70.9325 42.5851Z" fill="#123487"/>
<path d="M68.5518 42.9163C69.3091 45.6026 69.8464 48.3746 70.247 51.1374C70.6499 53.914 70.8769 56.8689 69.8278 59.5414C69.2443 61.0258 68.1697 62.2254 66.6691 62.8136C65.1685 63.4018 63.4062 63.4967 61.7712 63.7723C60.3331 64.0155 58.9622 64.4601 57.7556 65.2984C56.7251 66.014 55.8567 66.9218 55.0902 67.9106C53.4784 69.9879 52.2973 72.35 50.7874 74.4967C49.2219 76.7222 47.2095 78.6281 44.4283 79.0843C40.584 79.7165 36.9575 77.7203 33.991 75.4948C32.5529 74.4157 31.2051 73.2091 29.6813 72.2504C28.1575 71.2917 26.548 70.7104 24.7626 70.6942C22.9493 70.678 21.1291 71.1272 19.3182 70.8887C17.8222 70.6919 16.56 69.8929 15.8491 68.5544C15.2215 67.371 15.0594 65.9399 15.2655 64.6268C15.511 63.0521 16.3215 61.7251 17.3034 60.4978C18.3965 59.1315 19.647 57.8624 20.4899 56.3108C21.3491 54.7291 21.7382 52.9437 21.8053 51.1559C21.9558 47.2723 20.6544 43.574 19.7929 39.8386C19.3506 37.9188 18.9638 35.8925 19.1213 33.9148C19.1885 33.0742 19.4409 32.2428 20.0499 31.6315C20.5363 31.1451 21.1731 30.8557 21.8238 30.6635C23.2504 30.242 24.7556 30.2258 26.2007 29.8923C27.7731 29.5287 29.2436 28.7784 30.4895 27.7571C31.747 26.7266 32.7219 25.4136 33.3982 23.9384C34.0767 22.454 34.5167 20.87 35.2485 19.4087C35.9942 17.922 37.0918 16.6992 38.6666 16.0786C40.283 15.4418 42.0731 15.4094 43.7613 15.7405C45.7158 16.1249 47.5499 16.9285 49.3655 17.7205C51.1765 18.5102 52.9897 19.3045 54.8702 19.9228C56.7506 20.5411 58.5638 20.9256 60.4836 21.0321C62.0746 21.1201 63.7049 21.0691 65.2565 21.4744C66.808 21.8797 68.0539 22.8245 68.6005 24.3437C69.147 25.8628 69.0474 27.5788 68.8297 29.1628C68.5843 30.9622 68.2415 32.7847 68.5287 34.6003C68.6723 35.5058 69.0219 36.2978 69.4805 37.0851C69.6889 37.4418 69.8973 37.8146 69.9205 38.2361C69.939 38.5603 69.8533 38.8799 69.7352 39.1786C69.2535 40.3875 68.1813 41.4666 68.5171 42.8654C68.6213 43.3007 69.2906 43.1155 69.1864 42.6801C69.0243 42.0016 69.36 41.3555 69.6796 40.7788C70.0154 40.1721 70.4091 39.5584 70.5527 38.8706C70.731 38.023 70.423 37.319 69.9969 36.5988C69.5175 35.7837 69.2257 34.9222 69.1424 33.9774C68.8367 30.5454 70.5828 26.9628 69.0567 23.6466C68.3828 22.183 67.0512 21.2405 65.5251 20.826C63.999 20.4115 62.2552 20.4277 60.6226 20.3443C56.5769 20.1382 52.8925 18.4986 49.2289 16.9077C45.8502 15.4395 41.9782 13.9597 38.3424 15.4626C36.7746 16.111 35.5982 17.2782 34.7992 18.7603C34.0003 20.2424 33.5533 21.875 32.8748 23.4058C32.1963 24.9342 31.2306 26.2704 29.9222 27.3218C28.6137 28.3731 27.0992 29.0355 25.4805 29.3249C24.0192 29.5866 22.4838 29.6237 21.0874 30.1748C20.4344 30.4319 19.823 30.8001 19.3668 31.342C18.7902 32.0275 18.5308 32.8635 18.4405 33.7435C18.2367 35.7235 18.6234 37.7984 19.0565 39.7228C19.4895 41.6472 20.1009 43.7083 20.5409 45.7207C21.3283 49.3171 21.5876 53.3466 19.5173 56.5818C18.547 58.0986 17.2386 59.3584 16.1872 60.815C15.2678 62.0887 14.6518 63.4828 14.5198 65.0553C14.404 66.4239 14.6518 67.8666 15.3443 69.0662C16.1038 70.3769 17.3798 71.2361 18.8666 71.507C20.6984 71.8405 22.5464 71.4237 24.3828 71.382C25.3114 71.3611 26.2192 71.4584 27.1038 71.7502C27.9885 72.042 28.755 72.4635 29.5076 72.9521C31.0546 73.9548 32.4302 75.1961 33.9123 76.2868C35.3944 77.3776 37.1104 78.4428 38.919 79.1144C40.7091 79.7767 42.6659 80.0546 44.5603 79.7536C46.0563 79.5174 47.4295 78.8666 48.6083 77.9287C50.6716 76.2868 52.0287 73.9247 53.3834 71.7085C54.7382 69.4923 56.1253 67.1765 58.316 65.7454C59.6129 64.8978 61.0811 64.5527 62.5979 64.3327C64.2746 64.0896 66.016 63.9529 67.5468 63.1609C70.4948 61.6371 71.2659 58.0407 71.2822 54.9931C71.2891 53.6523 71.1108 52.3091 70.9209 50.9845C70.6986 49.4399 70.416 47.9045 70.0965 46.3784C69.8394 45.151 69.5615 43.9283 69.2211 42.7218C69.1007 42.291 68.4291 42.474 68.5518 42.907V42.9163Z" fill="#123487"/>
<path d="M66.1735 43.2474C66.8566 45.6651 67.3383 48.1592 67.6996 50.644C68.0655 53.152 68.2739 55.8152 67.3383 58.2352C66.8173 59.5807 65.847 60.6737 64.4922 61.2087C63.1375 61.7436 61.572 61.8247 60.1061 62.0701C58.7954 62.2878 57.5425 62.6861 56.4425 63.4457C55.5139 64.0872 54.7265 64.9024 54.0341 65.7893C52.5636 67.6744 51.4914 69.8211 50.1204 71.7733C48.7495 73.7255 46.8922 75.5133 44.375 75.9278C40.9244 76.4952 37.6638 74.7074 34.9983 72.7158C33.6945 71.7409 32.4764 70.6478 31.0985 69.7748C29.7207 68.9017 28.2223 68.3506 26.5781 68.339C24.9339 68.3274 23.2457 68.7512 21.5922 68.5034C20.256 68.3043 19.1537 67.5725 18.5331 66.3683C17.9773 65.2891 17.8476 63.9853 18.0491 62.7973C18.2922 61.3824 19.0379 60.199 19.9272 59.0967C20.923 57.8624 22.0531 56.7045 22.8011 55.2918C23.5491 53.8792 23.8964 52.2558 23.952 50.6487C24.0748 47.1495 22.9053 43.8171 22.1272 40.4523C21.7266 38.72 21.3792 36.8883 21.5204 35.1028C21.5807 34.3478 21.8076 33.6022 22.3541 33.0556C22.7964 32.6133 23.3777 32.3563 23.9706 32.1849C25.2674 31.8097 26.6337 31.7958 27.9421 31.4878C29.3849 31.1474 30.728 30.448 31.8628 29.4986C32.9929 28.5537 33.859 27.3565 34.4611 26.0179C35.0632 24.6794 35.4661 23.239 36.1377 21.9236C36.8093 20.6083 37.8074 19.5291 39.2131 18.9872C40.7021 18.4152 42.3371 18.4013 43.884 18.7232C45.6741 19.0937 47.3508 19.8464 49.0181 20.5712C50.6855 21.296 52.2718 21.9862 53.96 22.5327C55.6482 23.0792 57.2924 23.4057 59.0223 23.4937C60.4419 23.5655 61.8985 23.5285 63.2811 23.9059C64.652 24.2811 65.7636 25.1657 66.2314 26.5367C66.6992 27.9076 66.6019 29.4268 66.4051 30.8417C66.1781 32.4767 65.8724 34.1348 66.1457 35.7836C66.28 36.5872 66.595 37.2935 67.0025 37.9929C67.1878 38.3102 67.3754 38.6436 67.3962 39.0188C67.4124 39.3106 67.336 39.5954 67.2295 39.864C66.7895 40.9664 65.8215 41.9413 66.1295 43.2173C66.2337 43.6527 66.903 43.4674 66.7988 43.032C66.6575 42.4415 66.947 41.8765 67.2249 41.3693C67.5352 40.8066 67.9034 40.2392 68.0377 39.6024C68.1975 38.8474 67.9358 38.2059 67.556 37.5622C67.1253 36.828 66.8497 36.0685 66.7687 35.2163C66.4699 32.0969 68.0585 28.864 66.6992 25.8443C66.0971 24.508 64.8952 23.6373 63.508 23.2506C62.0977 22.8569 60.604 22.8777 59.1543 22.8083C55.5047 22.6346 52.1884 21.2011 48.8815 19.763C45.8038 18.4245 42.2745 17.0211 38.9444 18.355C37.5086 18.9293 36.4202 19.9645 35.6769 21.3123C34.9335 22.66 34.5444 24.0935 33.947 25.4691C33.3495 26.8447 32.4857 28.0952 31.3 29.0655C30.1143 30.0358 28.7364 30.6518 27.2613 30.9205C25.9251 31.1636 24.5171 31.1914 23.2411 31.7009C22.6506 31.9348 22.0971 32.2683 21.6825 32.7569C21.1638 33.3706 20.9253 34.1186 20.8373 34.9083C20.6381 36.6984 20.9901 38.5811 21.3792 40.3226C21.7682 42.064 22.3217 43.9306 22.7223 45.7531C23.4333 48.9767 23.6903 52.6032 21.8609 55.5211C20.9948 56.9013 19.8137 58.043 18.855 59.3537C18.012 60.507 17.4354 61.7621 17.2941 63.1933C17.1714 64.4485 17.3868 65.7731 18.0097 66.88C18.6905 68.0866 19.8531 68.8925 21.2124 69.1472C22.8914 69.4621 24.5865 69.0731 26.2724 69.0407C27.1038 69.0245 27.9167 69.1148 28.7063 69.3788C29.496 69.6428 30.2139 70.0365 30.8994 70.4834C32.2958 71.3958 33.5417 72.5167 34.8849 73.5032C36.2882 74.5337 37.7865 75.4508 39.4284 76.0506C41.0703 76.6504 42.7979 76.8796 44.5 76.611C45.8617 76.3956 47.1099 75.8005 48.1844 74.9459C50.0602 73.4523 51.2899 71.3009 52.5219 69.2861C53.7261 67.3177 54.9975 65.2034 56.9775 63.9205C58.1562 63.1562 59.4901 62.8529 60.8657 62.6537C62.371 62.4384 63.9318 62.3064 65.3051 61.5977C67.9891 60.2106 68.6931 56.9291 68.7 54.1525C68.7023 52.9459 68.5425 51.7371 68.3712 50.5445C68.1697 49.148 67.915 47.7586 67.6255 46.376C67.3916 45.2668 67.1415 44.1598 66.8335 43.0668C66.7131 42.636 66.0415 42.819 66.1642 43.252L66.1735 43.2474Z" fill="#123487"/>
<path d="M63.7952 43.5786C64.4089 45.7531 64.8419 47.9948 65.1661 50.2319C65.4927 52.4759 65.6802 54.8889 64.8095 57.0426C64.3232 58.2445 63.4362 59.187 62.2089 59.6409C60.9815 60.0948 59.5828 60.162 58.2697 60.3912C57.1211 60.5904 56.0257 60.9609 55.067 61.6348C54.231 62.2207 53.527 62.9594 52.904 63.7653C50.4146 66.9796 48.8074 72.1439 44.192 72.7876C41.1236 73.2161 38.2706 71.6298 35.9038 69.8535C34.732 68.9735 33.6367 67.9893 32.3885 67.2135C31.1402 66.4377 29.811 65.9792 28.3451 65.9769C26.8792 65.9746 25.3878 66.3498 23.9266 66.1205C22.7316 65.9329 21.7636 65.266 21.2217 64.1822C20.74 63.2188 20.6381 62.0586 20.828 61.0095C21.0527 59.766 21.7196 58.7239 22.5047 57.7535C23.3962 56.6512 24.4036 55.6161 25.0706 54.3516C25.7375 53.0872 26.0548 51.6074 26.1011 50.1554C26.203 47.006 25.1424 44.0116 24.4499 40.9803C24.0979 39.4356 23.7784 37.7845 23.9335 36.1935C23.9984 35.5289 24.2207 34.8921 24.7139 34.4266C25.1146 34.0468 25.6379 33.8314 26.1636 33.6855C27.3261 33.3636 28.5466 33.3521 29.7184 33.0649C30.9944 32.75 32.1824 32.1224 33.1874 31.2794C34.1925 30.4365 34.9729 29.3504 35.5125 28.1462C36.052 26.942 36.4087 25.6567 37.0154 24.4826C37.6221 23.3085 38.5392 22.3382 39.8198 21.8681C41.1005 21.398 42.6057 21.3864 43.9836 21.6851C45.5329 22.0209 46.9872 22.667 48.4346 23.2969C49.8819 23.9268 51.3247 24.5544 52.823 25.0453C54.3213 25.5363 55.8011 25.8443 57.348 25.9276C58.6333 25.9971 59.951 25.9554 61.2038 26.2889C62.4567 26.6224 63.4339 27.3935 63.8554 28.6186C64.2769 29.8436 64.1866 31.2215 64.0082 32.4975C63.8045 33.9565 63.5358 35.4363 63.7836 36.9068C63.9017 37.6131 64.1773 38.2407 64.5362 38.8544C64.7007 39.1369 64.8744 39.431 64.8998 39.7645C64.9184 40.0215 64.8512 40.274 64.7586 40.5102C64.3626 41.5152 63.4918 42.3813 63.7674 43.5439C63.8716 43.9792 64.5409 43.794 64.4367 43.3586C64.3093 42.8213 64.5849 42.3119 64.8373 41.8556C65.1129 41.3578 65.4394 40.8483 65.5506 40.2809C65.6849 39.5839 65.4348 39.0142 65.0874 38.4236C64.696 37.7567 64.4645 37.062 64.4019 36.2885C64.175 33.5072 65.5714 30.6102 64.3186 27.9239C63.0657 25.2375 59.9232 25.3649 57.4337 25.2352C54.1731 25.0662 51.2019 23.7415 48.2493 22.4609C45.5282 21.2799 42.4066 20.0826 39.4701 21.259C38.1872 21.7731 37.2076 22.6971 36.5407 23.9013C35.8737 25.1055 35.5217 26.3954 34.9868 27.6321C34.4472 28.8803 33.6876 29.9733 32.6316 30.8418C31.5988 31.6916 30.3552 32.2567 29.0421 32.4975C27.8449 32.7175 26.5828 32.743 25.4388 33.1946C24.9038 33.4053 24.399 33.7041 24.0238 34.1487C23.5537 34.7045 23.3337 35.3784 23.255 36.094C23.0744 37.6988 23.3893 39.3893 23.7367 40.9525C24.084 42.5156 24.5819 44.19 24.9432 45.8249C25.58 48.7196 25.8 51.9664 24.1419 54.574C23.3592 55.8036 22.2986 56.8272 21.4464 58.006C20.7007 59.0365 20.2005 60.1596 20.0824 61.4333C19.9781 62.5519 20.1727 63.7329 20.7285 64.7171C21.3306 65.7893 22.3588 66.5119 23.563 66.7527C25.052 67.0491 26.5596 66.7133 28.0556 66.6716C28.8059 66.6508 29.54 66.7203 30.2556 66.9495C30.9712 67.1788 31.5941 67.5192 32.2055 67.9129C33.4699 68.7281 34.5931 69.7424 35.8042 70.634C37.0154 71.5255 38.3933 72.3778 39.8592 72.922C41.3251 73.4662 42.8605 73.6815 44.3819 73.4569C45.6139 73.274 46.7464 72.7575 47.7213 71.991C49.4095 70.6664 50.5211 68.7512 51.6234 66.9472C52.7002 65.1872 53.828 63.2836 55.588 62.1211C56.6348 61.4287 57.8181 61.1462 59.0478 60.9679C60.4026 60.771 61.8036 60.6599 63.0449 60.0323C65.4834 58.8026 66.1272 55.8569 66.1434 53.3512C66.1504 52.2744 66.0068 51.1929 65.8539 50.1276C65.6756 48.8748 65.4464 47.6289 65.187 46.39C64.9762 45.3849 64.7493 44.3822 64.4714 43.3956C64.351 42.9649 63.6794 43.1479 63.8021 43.5809L63.7952 43.5786Z" fill="#123487"/>
<path d="M61.4169 43.9097C61.9564 45.8249 62.3385 47.7979 62.6257 49.7664C62.9129 51.7348 63.0819 53.8746 62.3084 55.7712C61.8847 56.8064 61.1204 57.6262 60.0621 58.0222C58.9367 58.4436 57.7162 58.4876 56.5444 58.6937C55.5324 58.8721 54.5668 59.2032 53.7215 59.8007C52.9897 60.3171 52.3737 60.9632 51.8249 61.6672C49.6388 64.4832 48.2331 69.0106 44.2059 69.615C41.4687 70.0249 38.9143 68.5775 36.8093 66.9889C35.7973 66.2247 34.8432 65.3725 33.7617 64.7009C32.6802 64.0293 31.4691 63.6102 30.1676 63.6148C28.8661 63.6194 27.5878 63.9413 26.3118 63.7445C25.2581 63.5824 24.4105 62.9965 23.9358 62.0401C23.5097 61.1786 23.431 60.1365 23.6162 59.2009C23.8362 58.087 24.4661 57.1653 25.1771 56.3015C25.9807 55.3243 26.8699 54.3887 27.4327 53.2424C27.9954 52.0961 28.2316 50.8339 28.2571 49.5672C28.3127 46.8022 27.3771 44.1784 26.7773 41.5175C26.4762 40.179 26.2053 38.7478 26.3442 37.3723C26.4021 36.8049 26.5967 36.2584 27.0158 35.8601C27.3678 35.5266 27.8263 35.339 28.2872 35.2139C29.3247 34.9291 30.4131 34.9222 31.4552 34.6582C32.5691 34.3756 33.6019 33.8268 34.4819 33.0904C35.3619 32.3539 36.0775 31.3697 36.5545 30.2952C37.0316 29.2207 37.3373 28.1276 37.863 27.1017C38.3887 26.0758 39.1807 25.219 40.2945 24.8022C41.4779 24.3598 42.7678 24.3691 43.9905 24.6354C45.3476 24.9318 46.6236 25.4969 47.8903 26.0504C49.1571 26.6038 50.4817 27.1805 51.8272 27.6158C53.1727 28.0512 54.4324 28.3036 55.7849 28.3777C56.9034 28.4379 58.0497 28.4055 59.1428 28.6904C60.2358 28.9752 61.1158 29.663 61.4817 30.7537C61.8476 31.8445 61.7596 33.0139 61.6068 34.1209C61.4261 35.4177 61.1876 36.7331 61.4099 38.0415C61.5211 38.6876 61.7804 39.2481 62.107 39.8108C62.3895 40.3041 62.4682 40.7163 62.2436 41.2466C61.8754 42.1127 61.1575 42.8746 61.3937 43.8843C61.4956 44.3196 62.1649 44.1344 62.063 43.699C61.9495 43.2173 62.2158 42.7588 62.4428 42.3535C62.6813 41.9251 62.9545 41.4851 63.0472 40.9965C63.1653 40.3782 62.943 39.8617 62.6327 39.3361C62.2922 38.7548 62.0861 38.1434 62.0329 37.4695C61.8337 35.0032 63.0727 32.4327 61.9449 30.0567C60.8171 27.6807 58.1007 27.7965 55.9145 27.6899C53.0337 27.5487 50.4122 26.3931 47.8047 25.2607C45.3916 24.2116 42.6381 23.1441 40.0282 24.1653C38.8865 24.6123 38.0042 25.4228 37.4044 26.4881C36.8047 27.5533 36.4943 28.6904 36.0265 29.7834C35.5611 30.8742 34.9057 31.8352 33.991 32.5994C33.0762 33.3636 31.9531 33.8801 30.7743 34.0954C29.7183 34.2876 28.6068 34.3108 27.5994 34.7114C26.4832 35.1561 25.8116 36.0337 25.6634 37.231C25.492 38.6182 25.7537 40.0841 26.0478 41.4388C26.3581 42.8699 26.7796 44.2756 27.1038 45.7045C27.6828 48.2565 27.9398 51.1512 26.5063 53.4786C25.8209 54.5902 24.8714 55.5049 24.1026 56.5539C23.4402 57.4571 22.9887 58.4367 22.8636 59.5552C22.6274 61.6695 23.6811 63.8996 25.895 64.3721C27.2103 64.6523 28.5489 64.3605 29.8712 64.3165C30.5219 64.2956 31.1588 64.3443 31.7863 64.5365C32.4139 64.7287 32.9882 65.0321 33.5348 65.3817C34.6533 66.095 35.6421 66.9889 36.7074 67.7763C37.8236 68.6007 39.0139 69.3348 40.32 69.8211C41.6261 70.3074 42.9924 70.4973 44.3449 70.2958C45.4402 70.1337 46.4453 69.6706 47.3137 68.9874C48.7958 67.8203 49.7731 66.1413 50.7434 64.555C51.6998 62.9918 52.6979 61.2967 54.268 60.2731C56.248 58.9832 58.7468 59.495 60.8124 58.4529C62.9823 57.3598 63.559 54.7337 63.5659 52.5036C63.5682 51.5542 63.4432 50.6047 63.3089 49.6668C63.1514 48.5668 62.9522 47.4737 62.723 46.3853C62.5377 45.4937 62.3362 44.6068 62.0884 43.7291C61.968 43.2984 61.2964 43.4813 61.4192 43.9144L61.4169 43.9097Z" fill="#123487"/>
<path d="M59.0386 44.2409C59.5063 45.899 59.8375 47.6081 60.0853 49.3125C60.3331 51.0169 60.479 52.8626 59.8074 54.4975C59.4346 55.4076 58.7514 56.107 57.8181 56.4359C56.8849 56.7647 55.8034 56.8156 54.796 56.9986C53.9137 57.1584 53.0754 57.4594 52.3436 57.9874C51.6998 58.4529 51.1626 59.0272 50.6809 59.6548C48.8144 62.0887 47.5731 66.0209 44.0693 66.4609C41.7002 66.7573 39.5304 65.4999 37.7171 64.1196C35.9988 62.8112 34.3685 61.2596 32.0712 61.2481C30.9411 61.2411 29.7925 61.5375 28.6647 61.3592C27.7615 61.2156 27.0413 60.7062 26.6407 59.8817C26.2817 59.1407 26.2238 58.2445 26.3882 57.4455C26.5874 56.4845 27.1432 55.6902 27.7592 54.9445C28.4331 54.127 29.1765 53.3396 29.6558 52.3832C30.1352 51.4268 30.3668 50.3106 30.4015 49.2175C30.4733 46.8091 29.6628 44.5188 29.1348 42.203C28.8685 41.0405 28.6346 39.8062 28.7434 38.6089C28.7874 38.111 28.9518 37.6293 29.3224 37.282C29.6211 36.9994 30.0148 36.8443 30.4061 36.7377C31.2885 36.4969 32.2148 36.4853 33.1017 36.2676C34.0836 36.0268 34.9937 35.5451 35.7695 34.899C36.5453 34.2529 37.1335 33.4493 37.548 32.5439C37.9626 31.6384 38.2405 30.6403 38.6967 29.7371C39.1529 28.834 39.8129 28.0975 40.7716 27.7316C41.7303 27.3657 42.8628 27.3426 43.8956 27.558C45.0975 27.8081 46.2276 28.3083 47.3485 28.7969C48.4693 29.2855 49.5461 29.7533 50.6832 30.1285C51.8202 30.5036 52.9619 30.7468 54.1453 30.814C55.1156 30.8695 56.1068 30.8348 57.0562 31.0733C58.0057 31.3118 58.7607 31.87 59.0826 32.7963C59.4045 33.7226 59.3396 34.767 59.2053 35.7327C59.0501 36.8559 58.8463 37.986 59.0293 39.1184C59.1173 39.6649 59.3257 40.1582 59.6036 40.6329C59.8653 41.0822 59.9602 41.4388 59.7472 41.9251C59.416 42.6801 58.8186 43.3354 59.02 44.2177C59.1196 44.6531 59.7889 44.4678 59.6893 44.0325C59.5943 43.6203 59.8329 43.2266 60.0251 42.8792C60.2358 42.5017 60.472 42.1127 60.5461 41.6796C60.6388 41.1447 60.4419 40.6977 60.1779 40.2415C59.8792 39.7274 59.7032 39.1902 59.6592 38.5927C59.5063 36.4552 60.5647 34.2344 59.5689 32.178C58.5731 30.1215 56.1855 30.2211 54.2703 30.1239C51.7809 29.9965 49.5114 28.9822 47.2581 28.0049C45.1577 27.0948 42.7655 26.187 40.5007 27.0925C39.528 27.4815 38.7731 28.1763 38.2567 29.0817C37.7402 29.9872 37.4577 30.9969 37.0525 31.951C36.2304 33.887 34.5977 35.3043 32.5066 35.6817C31.5895 35.8462 30.6261 35.8693 29.7531 36.2213C28.7874 36.6104 28.2015 37.3815 28.0695 38.4167C27.9167 39.6209 28.1413 40.8923 28.3937 42.0687C28.6693 43.3493 29.0491 44.6045 29.3339 45.8828C29.8272 48.0897 30.0171 50.5746 28.7527 52.5685C28.1575 53.5087 27.347 54.2891 26.6962 55.1876C26.1266 55.9727 25.7445 56.8272 25.6402 57.7975C25.4434 59.6247 26.3512 61.5445 28.2478 61.9845C29.3779 62.2462 30.5335 61.9984 31.6729 61.9521C32.8516 61.9034 33.8729 62.2114 34.8663 62.839C35.8367 63.4527 36.6912 64.2239 37.6106 64.907C38.5299 65.5902 39.5744 66.2432 40.6859 66.674C42.6983 67.4544 45.028 67.4104 46.788 66.0672C48.115 65.0552 48.9857 63.5893 49.8426 62.186C50.6994 60.7826 51.5192 59.3723 52.86 58.4761C54.583 57.3251 56.7645 57.7767 58.5708 56.8689C60.3771 55.9611 60.9746 53.6476 60.9885 51.7024C60.9954 50.8826 60.8866 50.0605 60.7731 49.25C60.6365 48.282 60.4605 47.3186 60.259 46.3599C60.0969 45.5887 59.9232 44.8175 59.7078 44.058C59.5874 43.6272 58.9158 43.8102 59.0386 44.2432V44.2409Z" fill="#123487"/>
<path d="M56.6579 44.5721C57.0516 45.9708 57.3318 47.4112 57.5402 48.8493C57.7486 50.2875 57.8714 51.8136 57.3202 53.1845C57.0145 53.9464 56.4495 54.5392 55.6691 54.8171C54.847 55.1089 53.9646 55.1413 53.1124 55.2942C51.6743 55.5536 50.5651 56.3247 49.6758 57.4641C48.0825 59.5043 47.0543 62.8437 44.1318 63.286C42.1518 63.5847 40.3015 62.531 38.7823 61.3824C37.3164 60.2778 35.9339 58.9277 33.984 58.8883C32.4046 58.8559 30.2695 59.5761 29.3756 57.7906C29.0699 57.1792 29.0143 56.4312 29.1463 55.7689C29.3107 54.9491 29.7809 54.2729 30.3065 53.6384C30.8855 52.939 31.52 52.2651 31.923 51.443C32.3398 50.5978 32.5228 49.6622 32.5482 48.7243C32.5969 46.7235 31.9369 44.8176 31.4899 42.8931C31.2606 41.9043 31.0638 40.8645 31.1379 39.8456C31.1703 39.4171 31.3 39.0003 31.6219 38.7016C31.879 38.463 32.2194 38.3357 32.5529 38.2477C33.3124 38.0485 34.1067 38.0416 34.8663 37.8424C35.6815 37.627 36.4388 37.2195 37.0825 36.6799C37.7263 36.1403 38.2335 35.4502 38.5832 34.6837C38.9329 33.9171 39.1621 33.102 39.535 32.347C39.9078 31.5921 40.4451 30.9761 41.2371 30.6565C42.0777 30.3207 43.0156 30.3138 43.8933 30.4967C44.903 30.7075 45.8524 31.1289 46.795 31.5388C47.7375 31.9487 48.6615 32.3517 49.6272 32.6689C50.5929 32.9862 51.54 33.1877 52.5312 33.2479C53.3486 33.2965 54.187 33.2641 54.9882 33.4609C55.7895 33.6578 56.4333 34.1232 56.7019 34.9152C56.9705 35.7072 56.9011 36.6104 56.783 37.4395C56.6486 38.382 56.4889 39.3361 56.6579 40.2856C56.7366 40.7371 56.9173 41.1401 57.1442 41.5338C57.3712 41.9275 57.4291 42.21 57.2369 42.6199C56.9404 43.2498 56.475 43.8056 56.6417 44.5443C56.739 44.9797 57.4082 44.7967 57.311 44.359C57.2369 44.0256 57.4314 43.7083 57.5889 43.4281C57.7672 43.1085 57.9686 42.7797 58.0358 42.4138C58.1192 41.9576 57.9733 41.5708 57.7463 41.1795C57.487 40.7302 57.3249 40.2763 57.2901 39.7576C57.1651 37.9373 58.0659 36.0407 57.1952 34.2946C56.3499 32.6018 54.3305 32.6411 52.7072 32.5601C50.5952 32.4536 48.6754 31.5967 46.7649 30.7677C44.9933 30.0011 42.9739 29.2369 41.0611 29.9826C40.2135 30.3138 39.5535 30.9043 39.1019 31.6917C38.6503 32.479 38.428 33.2896 38.0945 34.0885C37.4114 35.7281 36.0474 36.9346 34.2781 37.2565C33.4861 37.4001 32.6571 37.4186 31.9044 37.7289C31.0893 38.0647 30.5891 38.7247 30.4756 39.6001C30.3413 40.6237 30.5312 41.7051 30.7442 42.7032C30.9689 43.7592 31.2815 44.7944 31.5223 45.8481C31.9577 47.7563 32.1406 49.9007 31.0244 51.6213C30.5103 52.4133 29.8249 53.0734 29.2783 53.8399C28.799 54.5115 28.4886 55.2479 28.4145 56.0746C28.271 57.6331 29.0676 59.2472 30.6817 59.6108C31.6451 59.8285 32.627 59.6178 33.5973 59.5807C34.5676 59.5437 35.4476 59.8123 36.2836 60.3449C37.1196 60.8776 37.8259 61.5214 38.604 62.0957C39.4238 62.7001 40.2945 63.235 41.2486 63.5963C42.9693 64.2447 44.9331 64.1706 46.4221 63.0243C47.5337 62.1675 48.2678 60.9308 48.988 59.7521C49.7082 58.5733 50.4192 57.346 51.5747 56.598C53.0406 55.6485 54.9072 56.0468 56.424 55.2363C57.9409 54.4258 58.404 52.5013 58.4202 50.871C58.4364 49.3611 58.1122 47.8165 57.8042 46.3437C57.6676 45.686 57.5171 45.0283 57.3364 44.3799C57.216 43.9491 56.5444 44.1321 56.6672 44.5651L56.6579 44.5721Z" fill="#123487"/>
<path d="M54.2796 44.9032C54.6038 46.0542 54.8331 47.2399 55.0045 48.4232C55.1758 49.6066 55.2685 50.8131 54.8215 51.9108C54.5645 52.5407 54.0944 53.0085 53.4436 53.2239C52.7929 53.4392 52.1028 53.467 51.4335 53.5875C50.2525 53.8005 49.3308 54.4304 48.599 55.366C47.3137 57.0056 46.48 59.7174 44.1457 60.111C42.5316 60.382 41.0102 59.5112 39.7689 58.578C38.5554 57.6632 37.416 56.554 35.8019 56.5239C34.5445 56.5007 32.8146 57.0843 32.0967 55.6647C31.8512 55.1784 31.8072 54.5809 31.9114 54.0506C32.0434 53.386 32.4278 52.8418 32.8516 52.3277C33.331 51.7487 33.859 51.186 34.1878 50.5028C34.5167 49.8197 34.6603 49.111 34.688 48.3769C34.7552 46.7142 34.204 45.1279 33.8312 43.53C33.6459 42.7357 33.4885 41.9066 33.5348 41.0868C33.5765 40.3527 33.9817 39.9498 34.6672 39.7738C35.2878 39.614 35.9363 39.6094 36.5546 39.4426C37.2099 39.2689 37.8144 38.9424 38.3377 38.514C38.8611 38.0856 39.3127 37.4927 39.6068 36.8559C39.9009 36.219 40.0723 35.5938 40.364 34.987C40.672 34.3479 41.1144 33.8176 41.7906 33.5559C42.4668 33.2942 43.2704 33.3011 43.9975 33.4679C45.6093 33.8361 47.059 34.73 48.6268 35.2371C49.4026 35.4872 50.1969 35.6517 51.012 35.698C51.6651 35.735 52.3344 35.7119 52.9735 35.8717C53.6127 36.0315 54.1407 36.4367 54.3398 37.099C54.539 37.7614 54.4579 38.4816 54.3607 39.1578C54.2541 39.9058 54.1407 40.663 54.2773 41.4157C54.3421 41.7769 54.4857 42.1058 54.671 42.4207C54.8563 42.7357 54.9026 42.9487 54.7474 43.2776C54.4973 43.8079 54.1291 44.2618 54.2634 44.8824C54.3584 45.3201 55.0276 45.1348 54.9327 44.6971C54.8771 44.4331 55.0438 44.1784 55.1666 43.9584C55.324 43.6782 55.4861 43.391 55.5325 43.0691C55.5834 42.7148 55.4653 42.4115 55.2916 42.1081C55.0786 41.7352 54.9396 41.3717 54.9118 40.9363C54.8146 39.4357 55.5487 37.8841 54.8215 36.446C54.0944 35.0079 52.5104 35.0704 51.1834 35.0079C49.428 34.9268 47.8464 34.2275 46.2577 33.5397C44.7826 32.9005 43.1106 32.2822 41.5219 32.9144C40.8596 33.1784 40.3316 33.6439 39.9634 34.2552C39.5952 34.8666 39.3845 35.5915 39.1066 36.263C38.5299 37.6595 37.3836 38.6251 35.8807 38.8706C35.2369 38.9748 34.5723 39.0072 33.9701 39.2782C33.368 39.5491 32.9581 40.1142 32.8632 40.7974C32.7451 41.6519 32.9049 42.5574 33.0855 43.3934C33.2754 44.2803 33.5394 45.1487 33.7363 46.0334C34.0859 47.6035 34.1948 49.3334 33.2453 50.7228C32.8192 51.3481 32.268 51.8784 31.8373 52.5014C31.4529 53.0595 31.2144 53.6778 31.1657 54.3586C31.0754 55.6485 31.7609 56.9569 33.0925 57.2464C33.8914 57.4201 34.695 57.2464 35.4986 57.2186C36.3022 57.1908 36.9714 57.4108 37.636 57.8369C38.3007 58.263 38.9213 58.8188 39.572 59.2982C40.2575 59.8007 40.987 60.243 41.7883 60.5325C43.2148 61.0466 44.815 60.947 46.0308 59.9952C46.927 59.2936 47.5222 58.2885 48.1057 57.3321C48.6893 56.3757 49.2798 55.3544 50.2363 54.7523C51.4289 53.9997 52.9457 54.3216 54.1731 53.6592C55.456 52.9645 55.8104 51.4037 55.8266 50.0536C55.8405 48.803 55.5718 47.5224 55.3171 46.3043C55.2059 45.7717 55.0855 45.2414 54.9373 44.718C54.8169 44.2872 54.1453 44.4702 54.268 44.9032H54.2796Z" fill="#123487"/>
</g>
<defs>
<clipPath id="clip0_23_1692">
<rect width="95.7509" height="83.5606" fill="white" transform="matrix(0 1 -1 0 84.1579 0)"/>
</clipPath>
</defs>
</svg>
