<svg width="112" height="121" viewBox="0 0 112 121" fill="none" xmlns="http://www.w3.org/2000/svg">
<g clip-path="url(#clip0_23_1677)">
<path d="M67.0781 32.5598C75.2239 31.3217 83.8036 32.1309 91.358 35.5303C98.3126 38.6599 104.155 44.0396 107.586 50.8786C109.25 54.1943 110.314 57.8265 110.58 61.5308C110.858 65.4077 110.317 69.6716 107.557 72.627C105.292 75.053 102.055 76.075 98.8806 76.6681C95.4963 77.2997 92.0416 77.5041 88.6807 78.2681C85.3199 79.0321 81.7027 80.5199 80.2384 83.874C78.7289 87.3337 79.8648 91.1754 79.6621 94.7943C79.3152 101.033 76.1705 107.155 72.2786 111.925C70.4055 114.222 68.2358 116.342 65.716 117.923C63.6569 119.215 61.2444 120.208 58.7681 120.028C56.2667 119.845 53.6112 118.538 51.8085 116.819C50.0912 115.182 49.0541 113.019 48.4929 110.737C47.2615 105.735 47.9149 100.424 48.1377 95.3421C48.2432 92.9497 48.3103 90.5321 47.997 88.1513C47.8411 86.9601 47.5781 85.7856 47.1542 84.6598C46.5193 82.971 45.3632 81.8267 43.5672 81.4614C40.0857 80.7561 36.2976 82.2505 33.3255 83.9461C30.0216 85.8309 27.1064 88.3004 24.0253 90.5103C21.224 92.5208 18.1882 94.1208 14.7955 94.8579C11.7011 95.5298 8.21454 95.4745 5.51379 93.6299C2.18142 91.353 1.47775 87.2081 0.956696 83.4903C0.387062 79.4241 0.0419235 75.0681 2.33555 71.4408C3.96069 68.8725 6.5006 67.0563 9.00198 65.4178C11.5469 63.7524 14.2141 62.2144 16.4743 60.157C18.8919 57.9555 20.5673 55.1442 20.9711 51.8621C21.4452 48.0103 20.2238 44.1402 18.6037 40.6922C15.0921 33.2216 8.66522 26.9673 7.33663 18.5518C6.72678 14.6849 7.65998 10.7377 10.2686 7.77222C12.5572 5.17032 15.7388 3.50832 18.9907 2.43774C22.8576 1.16611 26.9723 0.66181 31.0268 0.531129C35.6576 0.380342 40.3052 0.817622 44.8254 1.84129C48.7107 2.72088 52.5021 4.12654 54.7991 7.5762C56.7023 10.4344 57.3323 13.9377 57.5501 17.3069C57.6624 19.0443 57.664 20.7851 57.6288 22.5241C57.5953 24.161 57.3675 25.8783 57.592 27.5051C57.9153 29.8473 59.5003 31.5093 61.7235 32.2029C63.4073 32.729 65.2704 32.7776 67.0061 32.5028C67.3244 32.4526 67.1887 31.9684 66.872 32.0186C64.9939 32.3185 62.8779 32.2197 61.1221 31.4473C60.0565 30.9782 59.1468 30.2176 58.6123 29.1721C57.8818 27.7397 58.0259 26.143 58.0745 24.5899C58.2789 18.1815 58.5956 10.2367 53.6196 5.37137C50.6324 2.44946 46.2646 1.51794 42.2855 0.824324C37.7133 0.0285079 33.044 -0.192645 28.4182 0.179294C21.5826 0.728826 13.5607 2.46622 9.20638 8.29159C6.94794 11.3123 6.26437 15.1038 6.86584 18.7863C7.53935 22.9112 9.55486 26.7327 11.7228 30.2528C13.9478 33.8649 16.4625 37.271 18.2535 41.1362C19.9574 44.812 21.1822 49.0357 20.249 53.0902C18.6858 59.8806 11.7965 62.6835 6.6916 66.3979C4.35106 68.1018 2.17639 70.1474 1.02706 72.8582C-0.631584 76.7636 0.0620346 81.2453 0.720474 85.2981C1.29681 88.8483 2.48467 92.4638 5.75841 94.3838C8.46083 95.9687 11.7764 96.0022 14.7687 95.3807C18.1597 94.6753 21.2458 93.1071 24.0504 91.1117C27.1918 88.8768 30.1472 86.3553 33.4997 84.4286C35.1584 83.4753 36.9175 82.6811 38.7806 82.2271C40.6218 81.7781 42.8702 81.4799 44.6395 82.3444C46.3048 83.1586 46.8761 85.0719 47.2481 86.7591C47.4943 87.8782 47.6116 89.0225 47.6703 90.1651C47.9333 95.379 47.1107 100.586 47.3402 105.803C47.5496 110.565 48.7593 115.546 52.9344 118.369C54.97 119.746 57.592 120.735 60.0766 120.525C62.5713 120.316 64.9101 119.15 66.9273 117.722C71.9921 114.138 75.8589 108.675 78.1894 102.975C79.3203 100.211 80.1094 97.2471 80.1865 94.2481C80.2836 90.3762 78.955 85.8292 81.6457 82.5136C84.0148 79.5934 88.1078 78.7808 91.6278 78.2329C95.0422 77.7018 98.5405 77.4756 101.868 76.4855C105.008 75.5506 107.862 73.7747 109.471 70.836C111.29 67.5104 111.403 63.4643 110.902 59.7935C109.9 52.4485 105.932 45.6748 100.429 40.7776C94.4676 35.4716 86.7339 32.5414 78.8512 31.7439C74.8855 31.3418 70.8829 31.4792 66.9458 32.0773C66.6274 32.1259 66.7631 32.6101 67.0798 32.5615L67.0781 32.5598Z" fill="#D95829"/>
<path d="M66.2689 34.2923C73.892 33.1162 81.9272 33.855 89.0074 37.0215C95.5264 39.9367 101.008 44.9629 104.237 51.3596C105.813 54.4842 106.822 57.9121 107.068 61.4087C107.321 65.0108 106.815 68.9647 104.259 71.7141C102.144 73.9893 99.1168 74.9526 96.1463 75.5139C92.9782 76.1137 89.7413 76.3114 86.5949 77.0351C83.4485 77.7589 80.0524 79.1629 78.6886 82.3127C77.2729 85.5814 78.3603 89.2019 78.1659 92.6164C77.8342 98.4585 74.8922 104.192 71.2482 108.66C69.4974 110.808 67.4685 112.792 65.1095 114.266C63.1979 115.461 60.9629 116.379 58.6676 116.216C56.3723 116.054 53.8173 114.822 52.1251 113.205C50.5251 111.677 49.5601 109.659 49.0324 107.532C47.8797 102.883 48.4677 97.9442 48.6671 93.2179C48.7626 90.9628 48.8229 88.6825 48.5297 86.4375C48.389 85.3652 48.1544 84.3131 47.7909 83.2944C47.2095 81.6693 46.1624 80.5116 44.4334 80.1397C41.1797 79.4393 37.6061 80.845 34.825 82.4299C31.7288 84.1925 29.0013 86.5112 26.1229 88.5904C23.4808 90.5004 20.6259 92.0283 17.4192 92.732C14.5492 93.3619 11.314 93.3268 8.79087 91.6413C5.65452 89.5454 4.9609 85.697 4.46498 82.2222C3.92047 78.4157 3.55524 74.3193 5.67964 70.9032C7.19421 68.4671 9.58501 66.7465 11.9423 65.1951C14.3063 63.6403 16.7792 62.2045 18.8818 60.2945C21.1453 58.2405 22.7352 55.6135 23.1223 52.5441C23.5796 48.9001 22.4303 45.2494 20.8889 41.9908C17.5834 35.0027 11.5503 29.1572 10.2887 21.2778C9.71401 17.6924 10.5567 14.0183 12.9576 11.2455C15.0971 8.77424 18.0927 7.19266 21.1587 6.17737C24.7424 4.98951 28.5573 4.50867 32.3185 4.36961C36.6545 4.21045 41.0089 4.59914 45.2443 5.53904C48.9151 6.35329 52.5155 7.65005 54.6935 10.9054C56.4812 13.5759 57.0793 16.853 57.2887 20.0061C57.3976 21.633 57.4027 23.2648 57.3742 24.8933C57.3457 26.428 57.138 28.0363 57.3507 29.561C57.6573 31.7608 59.1535 33.3206 61.241 33.9673C62.8226 34.4565 64.57 34.5 66.1985 34.237C66.5168 34.1851 66.3811 33.7009 66.0645 33.7528C64.3087 34.036 62.3334 33.9488 60.6898 33.2318C59.6929 32.7962 58.8402 32.0875 58.3392 31.1107C57.6523 29.7737 57.7847 28.2793 57.8282 26.8267C58.0075 20.7986 58.2856 13.3096 53.5559 8.76921C50.7513 6.07684 46.6834 5.22071 42.9774 4.58239C38.6918 3.84521 34.3156 3.64751 29.9814 4.00605C23.5495 4.53715 16.0018 6.19747 11.944 11.7146C7.18584 18.1816 10.669 26.2236 14.3934 32.2366C16.486 35.6142 18.8483 38.8008 20.5354 42.418C22.1488 45.881 23.3082 49.8635 22.4085 53.6851C20.9208 60.0147 14.4604 62.6351 9.70731 66.1249C7.51588 67.735 5.4987 69.6667 4.4365 72.22C2.91021 75.8908 3.58372 80.1129 4.21702 83.9093C4.77158 87.2333 5.92426 90.5958 9.00867 92.3634C11.5368 93.8109 14.6213 93.8311 17.4024 93.2463C20.579 92.5779 23.4674 91.1035 26.0911 89.2271C29.0532 87.111 31.836 84.7185 35.0025 82.9041C36.5556 82.0144 38.2026 81.2739 39.9483 80.8551C41.6941 80.4362 43.7783 80.1665 45.4168 81.0059C46.9347 81.7849 47.4575 83.5759 47.7993 85.134C48.0288 86.1795 48.1394 87.2467 48.1947 88.3156C48.446 93.2061 47.6853 98.0899 47.9199 102.982C48.1327 107.414 49.277 112.039 53.1555 114.673C55.0588 115.965 57.5183 116.896 59.8437 116.709C62.1692 116.521 64.3707 115.434 66.2622 114.1C71.0103 110.748 74.6308 105.623 76.8139 100.283C77.8828 97.6694 78.6283 94.8665 78.6937 92.0317C78.7774 88.4061 77.5242 84.159 80.0306 81.0477C82.2372 78.3085 86.0738 77.5394 89.366 77.0201C92.6581 76.5007 95.7878 76.2996 98.8823 75.3832C101.977 74.4668 104.508 72.8651 106.031 70.1241C107.765 67.0062 107.869 63.198 107.398 59.7433C106.463 52.8725 102.746 46.5328 97.6006 41.9489C91.993 36.9545 84.7134 34.2052 77.293 33.4697C73.5753 33.1011 69.8258 33.2385 66.1365 33.8081C65.8182 33.8567 65.9539 34.3409 66.2706 34.2923H66.2689Z" fill="#D95829"/>
<path d="M65.4597 36.0246C72.56 34.9105 80.0507 35.579 86.6552 38.5126C92.7386 41.215 97.8603 45.8844 100.884 51.8388C102.36 54.7456 103.309 57.9372 103.547 61.1942C103.784 64.4512 103.322 68.2812 100.911 70.8496C98.9308 72.9589 96.1044 73.8468 93.34 74.3712C90.3863 74.9308 87.3689 75.1252 84.4369 75.8154C81.505 76.5057 78.3502 77.8561 77.1054 80.8232C75.8254 83.8741 76.8557 87.2434 76.6715 90.4183C76.3565 95.8432 73.6423 101.168 70.2681 105.328C68.6463 107.326 66.7682 109.174 64.5834 110.553C62.7991 111.679 60.7116 112.547 58.5637 112.4C56.3773 112.249 54.0502 111.113 52.4719 109.613C50.9909 108.206 50.0878 106.348 49.5903 104.388C48.4878 100.043 49.0273 95.4176 49.2032 90.9963C49.287 88.892 49.3373 86.7675 49.0592 84.675C48.9268 83.6748 48.7056 82.693 48.3622 81.7413C47.8143 80.2201 46.8325 79.1394 45.2124 78.796C42.1716 78.1493 38.8392 79.4695 36.2457 80.9556C33.364 82.6059 30.8258 84.7738 28.1468 86.7206C25.689 88.5066 23.0318 89.9391 20.0445 90.6025C17.3522 91.2007 14.3163 91.1688 11.9557 89.5739C9.04218 87.6036 8.41557 83.9931 7.94646 80.7562C7.43714 77.2446 7.11044 73.4682 9.05726 70.3118C10.4512 68.0516 12.6543 66.4466 14.8324 65.0041C17.0389 63.5431 19.3493 62.1961 21.3162 60.4084C23.4171 58.4985 24.9015 56.0641 25.2735 53.2143C25.7175 49.8182 24.6485 46.4105 23.2127 43.3713C20.13 36.8506 14.4906 31.424 13.2558 24.0907C12.6895 20.7282 13.4552 17.2735 15.7019 14.6633C17.6722 12.3747 20.4315 10.9003 23.258 9.94533C26.5853 8.82113 30.1305 8.35872 33.6287 8.21296C37.7033 8.04375 41.7963 8.39391 45.7804 9.26679C49.1999 10.0157 52.5591 11.2136 54.5947 14.2394C56.2517 16.7006 56.8213 19.723 57.0307 22.6348C57.1413 24.1762 57.1513 25.7226 57.1279 27.2673C57.1061 28.6998 56.9168 30.2009 57.1178 31.6217C57.4094 33.6791 58.8133 35.135 60.7685 35.7348C62.2479 36.1888 63.8814 36.224 65.401 35.9744C65.7194 35.9224 65.5836 35.4382 65.267 35.4902C63.6352 35.7583 61.7972 35.6812 60.2659 35.0194C59.3377 34.6173 58.5436 33.9605 58.0745 33.0542C57.4328 31.811 57.5534 30.4204 57.5886 29.07C57.7411 23.4407 57.979 16.4593 53.5559 12.2289C50.9105 9.70072 47.0654 8.91328 43.5756 8.33024C39.5747 7.66176 35.4917 7.49589 31.4507 7.8494C25.4594 8.3738 18.4294 9.96041 14.6916 15.1374C10.3054 21.2124 13.616 28.7065 17.1159 34.304C19.0795 37.4471 21.2843 40.4125 22.8575 43.7868C24.3587 47.0103 25.431 50.7213 24.5732 54.2731C23.1641 60.1152 17.2014 62.5613 12.8035 65.8032C10.7528 67.3145 8.86793 69.1272 7.87944 71.5231C6.47211 74.9292 7.10038 78.8295 7.68845 82.3478C8.20782 85.454 9.26668 88.6138 12.1417 90.2825C14.5157 91.6597 17.4225 91.6782 20.0395 91.1186C23.0016 90.4869 25.6923 89.1047 28.1367 87.3472C30.8928 85.3669 33.4829 83.1302 36.4316 81.4297C37.8775 80.597 39.4088 79.9034 41.034 79.508C42.6323 79.1193 44.5942 78.858 46.1205 79.6337C47.5345 80.3541 48.0238 82.0195 48.3454 83.467C48.5616 84.4404 48.6671 85.4339 48.7207 86.4274C48.967 90.9862 48.2684 95.5433 48.4996 100.104C48.7107 104.26 49.8014 108.595 53.4621 111.037C55.2464 112.229 57.5384 113.08 59.708 112.889C61.8844 112.698 63.9183 111.679 65.6741 110.428C70.0787 107.293 73.4329 102.523 75.4551 97.5521C76.4453 95.1178 77.1372 92.5125 77.1992 89.8737C77.2796 86.5146 76.1018 82.6075 78.3385 79.6823C80.3406 77.0636 83.9561 76.3181 87.0271 75.8205C90.0981 75.3229 93.0636 75.1285 95.9704 74.259C98.6862 73.4464 101.171 71.9268 102.595 69.4037C104.232 66.5019 104.337 62.9383 103.898 59.7132C103.022 53.2763 99.5373 47.3403 94.7038 43.058C89.4581 38.4104 82.6627 35.8655 75.7366 35.1953C72.2685 34.8602 68.7703 34.9976 65.329 35.5388C65.0107 35.589 65.1464 36.0732 65.463 36.023L65.4597 36.0246Z" fill="#D95829"/>
<path d="M64.6505 37.7587C71.2549 36.7015 78.2313 37.3097 84.3783 40.0373C89.9909 42.5269 94.7189 46.826 97.5285 52.3079C98.8973 54.9802 99.7853 57.9138 100.023 60.9128C100.27 64.0139 99.8741 67.4385 97.7045 69.836C95.8883 71.8431 93.2596 72.6976 90.6778 73.2019C87.9402 73.7363 85.1423 73.9239 82.4231 74.5639C79.7039 75.204 76.7201 76.4706 75.559 79.2534C74.3979 82.0362 75.3328 85.1759 75.1837 88.1079C74.9257 93.1358 72.4344 98.0816 69.3282 101.95C67.822 103.827 66.0729 105.564 64.0339 106.859C62.3853 107.906 60.4536 108.717 58.4632 108.586C56.4728 108.456 54.2914 107.412 52.8288 106.035C51.4449 104.731 50.5989 103.004 50.1314 101.181C49.1044 97.1668 49.5869 92.8895 49.7377 88.8032C49.8097 86.8698 49.85 84.9179 49.597 82.9963C49.4747 82.0647 49.2719 81.1533 48.957 80.267C48.4543 78.8513 47.5681 77.8075 46.0585 77.4691C44.6562 77.1541 43.1366 77.3686 41.7628 77.7321C40.389 78.0957 38.995 78.7206 37.7251 79.4478C35.0294 80.9908 32.6637 83.0281 30.164 84.8559C27.9089 86.5062 25.4729 87.8315 22.7285 88.4631C20.2389 89.0344 17.4242 89.0327 15.2227 87.5818C12.4818 85.7741 11.8837 82.4082 11.4363 79.3925C10.9555 76.1405 10.6405 72.6439 12.4349 69.7137C13.7199 67.6161 15.7572 66.1233 17.7694 64.7813C19.8134 63.4192 21.9545 62.1626 23.7757 60.4973C25.7426 58.6979 27.1181 56.4043 27.4415 53.7253C27.8201 50.5956 26.8216 47.461 25.4896 44.6664C22.6129 38.6283 17.3673 33.6121 16.2012 26.8133C15.6684 23.7021 16.3654 20.5021 18.4378 18.0778C20.2724 15.9333 22.8509 14.5544 25.4913 13.6614C28.6109 12.6076 31.9382 12.1737 35.2187 12.0396C38.9649 11.8888 42.7295 12.2105 46.3936 13.0097C49.5568 13.6999 52.6479 14.8191 54.5193 17.6221C56.0607 19.9308 56.5834 22.7572 56.7744 25.4797C56.8749 26.9105 56.885 28.3446 56.8649 29.7771C56.8464 31.0688 56.6822 32.4226 56.8732 33.7042C57.1581 35.6243 58.4917 36.9679 60.3179 37.5124C61.6833 37.9179 63.1862 37.9447 64.5868 37.7101C64.9051 37.6565 64.7694 37.1723 64.4528 37.2259C62.9633 37.4756 61.2946 37.4102 59.8873 36.8305C59.0278 36.477 58.2806 35.8856 57.8299 35.0613C57.2184 33.9405 57.3021 32.6806 57.3323 31.4475C57.4596 26.2202 57.6975 19.7398 53.638 15.7774C51.2121 13.4084 47.6803 12.6662 44.4485 12.1234C40.7358 11.4985 36.9477 11.341 33.1965 11.6643C27.6123 12.1452 21.0733 13.6044 17.5499 18.3894C15.7304 20.8589 15.2026 23.9551 15.7153 26.944C16.2933 30.3132 17.9738 33.4245 19.7748 36.286C21.606 39.1962 23.6584 41.9405 25.126 45.0668C26.5937 48.1931 27.5286 51.4836 26.7462 54.7758C25.4561 60.194 19.9357 62.4759 15.8695 65.4933C13.9662 66.9057 12.2221 68.5928 11.309 70.8228C10.0022 74.0094 10.6087 77.6668 11.175 80.9523C11.6709 83.8306 12.6912 86.7458 15.3752 88.262C17.5985 89.5169 20.2992 89.5119 22.7302 88.9741C25.4796 88.3659 27.9659 87.0641 30.231 85.4222C32.7793 83.5743 35.1768 81.4951 37.911 79.9169C39.2497 79.1445 40.6704 78.5062 42.1766 78.1443C43.6828 77.7824 45.4755 77.5495 46.8728 78.2951C48.1477 78.9753 48.59 80.515 48.8849 81.8369C49.0843 82.7366 49.1831 83.6547 49.2351 84.5728C49.4696 88.7898 48.8397 93.0051 49.0659 97.2238C49.2719 101.072 50.2906 105.085 53.6766 107.348C55.3302 108.454 57.4613 109.246 59.4718 109.077C61.4823 108.908 63.4475 107.93 65.0978 106.74C69.1724 103.803 72.2668 99.3616 74.1215 94.7341C75.0279 92.474 75.6545 90.0514 75.6964 87.6053C75.75 84.484 74.6459 80.8166 76.7871 78.1242C78.6786 75.7485 81.9875 75.0682 84.8256 74.6025C87.5901 74.1501 90.4215 73.9441 93.1105 73.1214C95.6605 72.3407 97.9725 70.8764 99.2643 68.4755C100.729 65.7564 100.786 62.4608 100.357 59.4719C99.5038 53.5427 96.2435 48.0842 91.7752 44.1554C86.8981 39.8664 80.5869 37.5275 74.1651 36.9277C70.9449 36.6261 67.6997 36.7652 64.508 37.2745C64.1897 37.3248 64.3254 37.8107 64.6421 37.7587H64.6505Z" fill="#D95829"/>
<path d="M63.8412 39.4911C69.9213 38.496 76.3515 39.0321 82.0227 41.5251C87.2215 43.8103 91.6093 47.776 94.2112 52.8474C95.4728 55.3069 96.2921 58.0094 96.5116 60.7687C96.7377 63.6203 96.3708 66.765 94.3654 68.9631C92.6983 70.7893 90.3025 71.5751 87.9419 72.0442C85.4372 72.5418 82.8771 72.7244 80.3892 73.3142C77.9012 73.9039 75.1468 75.0499 74.0562 77.5781C72.9202 80.2101 73.8216 83.1102 73.6926 85.8562C73.4731 90.4854 71.1912 95.0508 68.3464 98.6245C66.9658 100.358 65.3591 101.965 63.486 103.165C61.9715 104.135 60.1989 104.887 58.366 104.773C56.5331 104.659 54.5344 103.711 53.1857 102.454C51.909 101.265 51.1249 99.6883 50.686 98.0163C49.7176 94.3204 50.1482 90.3731 50.2755 86.6034C50.3358 84.8242 50.3676 83.0298 50.1331 81.2623C50.0208 80.4145 49.8382 79.5852 49.5551 78.7793C49.0927 77.4658 48.3019 76.474 46.9012 76.1422C45.6095 75.8356 44.1988 76.0317 42.9305 76.3651C41.6623 76.6985 40.3755 77.2731 39.2028 77.945C36.7181 79.3691 34.5418 81.2522 32.2465 82.9477C30.1556 84.4924 27.9022 85.7406 25.3522 86.3371C23.082 86.8665 20.5153 86.8816 18.4898 85.5814C15.9499 83.9513 15.3685 80.8736 14.9463 78.1041C14.4872 75.0901 14.1639 71.8415 15.8209 69.1156C16.997 67.1805 18.8667 65.8 20.7164 64.5568C22.5979 63.2936 24.5698 62.1275 26.2435 60.5844C28.0563 58.9141 29.3162 56.793 29.6077 54.3168C29.9512 51.4016 28.9996 48.4847 27.743 45.8912C25.059 40.3473 20.2071 35.7332 19.1448 29.4639C18.6607 26.6056 19.3157 23.667 21.224 21.4487C22.9179 19.4785 25.2936 18.2085 27.7246 17.3842C30.6046 16.4091 33.6773 16.002 36.7064 15.8763C40.1879 15.7306 43.6845 16.0288 47.0889 16.7727C49.9605 17.401 52.7434 18.4431 54.4405 20.9846C55.8479 23.094 56.3354 25.6758 56.5197 28.1637C56.6169 29.4722 56.632 30.7858 56.6186 32.0976C56.6068 33.3056 56.4577 34.5705 56.6387 35.7684C56.9067 37.5426 58.1482 38.7858 59.8404 39.2817C61.1036 39.652 62.4942 39.6721 63.7876 39.4509C64.1059 39.3973 63.9702 38.9115 63.6536 38.9667C62.2848 39.2013 60.7501 39.146 59.4533 38.6183C58.6642 38.2966 57.9773 37.7571 57.5635 37.0032C56.9989 35.9761 57.0709 34.8218 57.0944 33.6909C57.1949 28.8791 57.3926 22.9248 53.6699 19.2724C51.4399 17.0843 48.2013 16.4007 45.2242 15.9048C41.7996 15.3335 38.3047 15.1928 34.845 15.496C29.6647 15.9501 23.5981 17.3122 20.3394 21.7637C18.6657 24.0506 18.1899 26.9139 18.6724 29.6716C19.2119 32.751 20.7516 35.5958 22.4052 38.2111C24.0588 40.8264 26.0056 43.4116 27.3761 46.2849C28.6812 49.0208 29.6362 52.1773 28.9493 55.2165C27.81 60.2527 22.7034 62.3838 18.9505 65.1901C17.1964 66.502 15.5913 68.0668 14.7536 70.1292C13.5574 73.0746 14.1287 76.4505 14.6631 79.478C15.1339 82.1536 16.1006 84.861 18.6154 86.2416C20.6845 87.3775 23.1809 87.3507 25.4259 86.8363C27.9625 86.255 30.2444 85.0353 32.3319 83.5073C34.6725 81.7917 36.8773 79.8683 39.3988 78.4141C40.6319 77.702 41.9387 77.1156 43.3276 76.7856C44.6797 76.4639 46.3651 76.2428 47.6351 76.9531C48.776 77.5915 49.1748 79.0038 49.4428 80.2051C49.6271 81.0311 49.7193 81.8738 49.7678 82.7182C49.994 86.6101 49.4261 90.5021 49.6539 94.3957C49.8617 97.9392 50.825 101.623 53.9513 103.693C55.481 104.704 57.4479 105.428 59.3009 105.264C61.1991 105.097 62.9683 104.193 64.4896 103.088C68.2408 100.364 71.0823 96.2554 72.7795 91.9781C73.6088 89.8889 74.1785 87.6522 74.2103 85.3955C74.2488 82.5238 73.2201 79.1496 75.1787 76.665C76.9043 74.4769 79.9418 73.8386 82.5454 73.4013C85.149 72.964 87.7073 72.7763 90.1869 72.009C92.5224 71.2869 94.6452 69.9483 95.8397 67.7535C97.2052 65.2437 97.2605 62.2029 96.8634 59.4385C96.0726 53.9465 93.0401 48.8935 88.8885 45.2696C84.3716 41.3274 78.5446 39.1912 72.617 38.6568C69.6465 38.3887 66.6509 38.5278 63.7089 39.0086C63.3905 39.0606 63.5262 39.5448 63.8429 39.4928L63.8412 39.4911Z" fill="#D95829"/>
<path d="M63.032 41.2234C68.5876 40.2902 74.4683 40.756 79.6654 43.0127C84.4302 45.0819 88.4579 48.694 90.8571 53.3215C92.0198 55.5648 92.7788 58.031 92.9899 60.5525C93.201 63.074 92.8793 66.0679 91.028 68.0868C89.5017 69.7505 87.3052 70.4642 85.1507 70.8965C82.8587 71.3572 80.5165 71.5348 78.243 72.091C75.9695 72.6472 73.4681 73.7229 72.4913 76.0466C71.5146 78.3704 72.3171 81.1265 72.1981 83.6463C72.0004 87.8817 69.9263 92.0635 67.3277 95.3372C66.0729 96.9188 64.6153 98.3848 62.9131 99.4805C61.5376 100.365 59.9275 101.054 58.2621 100.957C56.5968 100.859 54.7907 100.013 53.5593 98.8874C52.3279 97.7615 51.6527 96.381 51.2405 94.8564C50.3291 91.4821 50.7061 87.8683 50.81 84.422C50.8585 82.7801 50.882 81.1248 50.6608 79.4929C50.5553 78.7156 50.3844 77.9532 50.1197 77.2127C49.6891 76.0064 48.957 75.0933 47.6669 74.7934C46.4841 74.5187 45.1974 74.7013 44.038 75.0079C42.8484 75.3229 41.7175 75.8372 40.6537 76.4504C38.4019 77.7455 36.43 79.4594 34.3575 81.0109C32.4509 82.4383 30.4103 83.6061 28.0798 84.1807C25.9956 84.6951 23.6266 84.7436 21.7451 83.5709C19.4096 82.1149 18.8483 79.3204 18.4512 76.7972C18.0173 74.0412 17.6889 71.064 19.1784 68.5526C20.2339 66.7733 21.9344 65.5 23.6165 64.3557C25.3338 63.1879 27.1382 62.114 28.6712 60.7C30.3114 59.1871 31.4725 57.2687 31.7556 55.027C32.0924 52.3581 31.2379 49.6892 30.0919 47.3101C27.6308 42.2069 23.1407 37.9999 22.1103 32.2516C21.6429 29.6447 22.2058 26.9507 23.9298 24.9033C25.4594 23.0872 27.619 21.9077 29.8356 21.1404C32.4576 20.2323 35.2606 19.8419 38.0233 19.7096C41.2066 19.5571 44.4082 19.8084 47.5262 20.4702C50.1767 21.0331 52.7601 21.9647 54.335 24.3035C55.6284 26.2252 56.0841 28.5825 56.2634 30.856C56.3572 32.0539 56.3756 33.2552 56.3689 34.4565C56.3622 35.5639 56.2316 36.7233 56.4025 37.8223C56.6554 39.4525 57.8048 40.5918 59.3612 41.0408C60.5239 41.3759 61.7989 41.3893 62.9851 41.1815C63.3034 41.1262 63.1677 40.642 62.8511 40.6973C61.6012 40.9168 60.2023 40.8716 59.0161 40.3941C58.2839 40.0992 57.6506 39.5999 57.272 38.8996C56.7627 37.9564 56.8347 36.8925 56.8531 35.8571C56.9268 31.4474 57.0693 25.989 53.6179 22.6767C51.5488 20.6914 48.5632 20.0849 45.8273 19.6459C42.6876 19.1416 39.4859 19.031 36.3194 19.3292C31.5964 19.7732 26.076 21.0499 23.1239 25.1245C21.5842 27.2489 21.1654 29.901 21.6379 32.451C22.1589 35.269 23.5863 37.8642 25.116 40.2533C26.6925 42.7162 28.4584 45.0383 29.72 47.6921C30.9079 50.1918 31.759 53.0752 31.1022 55.843C30.0232 60.39 25.3757 62.3351 21.9863 64.9035C20.383 66.1182 18.9254 67.5658 18.1748 69.469C17.0992 72.1966 17.6521 75.3346 18.1698 78.1241C18.6188 80.5501 19.5486 82.9828 21.8423 84.2042C23.7723 85.2329 26.086 85.1793 28.1602 84.6766C30.4823 84.1137 32.5531 82.9711 34.4597 81.557C36.5724 79.9872 38.5695 78.2381 40.8547 76.9128C41.9705 76.2661 43.1534 75.7333 44.4116 75.4301C45.6698 75.1268 47.1693 74.9275 48.3253 75.5675C49.3674 76.1455 49.7343 77.4322 49.9823 78.5229C50.1532 79.2768 50.2403 80.0458 50.2889 80.8165C50.5101 84.3784 50.0058 87.9437 50.2303 91.5056C50.4363 94.7726 51.3427 98.1586 54.2445 100.04C55.6535 100.955 57.458 101.602 59.1535 101.436C60.849 101.27 62.4741 100.449 63.8513 99.4419C67.2842 96.9355 69.876 93.1625 71.4208 89.2354C72.173 87.3254 72.689 85.2798 72.7142 83.219C72.7477 80.5937 71.791 77.5394 73.5267 75.2408C75.0715 73.1934 77.8979 72.5953 80.2836 72.1832C82.6694 71.771 84.9697 71.5934 87.2215 70.8965C89.3576 70.2347 91.3128 69.0167 92.4135 67.0112C93.6768 64.7109 93.7287 61.9213 93.3601 59.3831C92.6313 54.3535 89.8468 49.7277 86.0386 46.4155C81.8786 42.7949 76.514 40.8464 71.0572 40.3773C68.3347 40.1428 65.592 40.2818 62.8997 40.7342C62.5813 40.7878 62.717 41.272 63.0337 41.2184L63.032 41.2234Z" fill="#D95829"/>
<path d="M62.2245 42.9574C67.2557 42.0862 72.5902 42.4816 77.3098 44.5022C81.6374 46.3551 85.3048 49.6088 87.5013 53.7889C88.5601 55.8027 89.2588 58.0193 89.4682 60.2878C89.6776 62.5563 89.4196 65.2872 87.7677 67.1335C86.3905 68.6715 84.39 69.3366 82.4248 69.7421C80.3473 70.1693 78.2212 70.3419 76.1605 70.8579C74.0997 71.3739 71.8229 72.3691 70.9416 74.4885C70.0251 76.6933 70.8042 79.1042 70.7087 81.3928C70.5479 85.2329 68.6882 89.0276 66.351 92.0099C65.2134 93.4591 63.8865 94.8061 62.3334 95.8097C61.0919 96.6122 59.6377 97.2338 58.1315 97.1433C56.6253 97.0528 54.9817 96.2888 53.8676 95.2635C52.8121 94.2951 52.1553 93.0084 51.78 91.6379C50.9457 88.587 51.2707 85.315 51.3478 82.1937C51.3846 80.7109 51.3963 79.2165 51.1919 77.7438C51.0965 77.0502 50.9423 76.37 50.7078 75.7099C50.3174 74.6075 49.669 73.7513 48.4895 73.4632C47.4156 73.2001 46.2395 73.3677 45.184 73.6474C44.1285 73.9272 43.0746 74.4014 42.1079 74.9593C40.0673 76.1388 38.283 77.7002 36.4116 79.121C34.6892 80.4278 32.8496 81.5068 30.7386 82.0479C28.8421 82.5338 26.6775 82.6008 24.9552 81.5403C22.8341 80.2335 22.3164 77.7053 21.9445 75.4217C21.539 72.9304 21.2257 70.233 22.5627 67.9544C23.511 66.3393 25.0423 65.1766 26.5619 64.1328C28.0815 63.0891 29.777 62.0654 31.1709 60.7586C32.6687 59.3546 33.6974 57.5803 33.9286 55.5179C34.1983 53.1087 33.3992 50.7011 32.3504 48.5667C30.1037 43.9878 26.0626 40.2198 25.0741 35.0596C24.6251 32.7157 25.0842 30.278 26.6054 28.4049C27.9591 26.7379 29.9043 25.6421 31.9014 24.9268C34.2821 24.0723 36.8321 23.6987 39.3502 23.5596C42.2353 23.4005 45.1421 23.6065 47.9735 24.1879C50.3777 24.6805 52.745 25.493 54.1976 27.599C55.3888 29.3264 55.8211 31.4541 55.9987 33.5115C56.0925 34.5972 56.116 35.6879 56.116 36.7785C56.116 37.8039 56.0004 38.8762 56.1629 39.8931C56.3991 41.3792 57.458 42.4146 58.877 42.8184C59.9376 43.1199 61.1003 43.125 62.1792 42.929C62.4976 42.872 62.3619 42.3878 62.0452 42.4448C60.9076 42.6508 59.6259 42.6157 58.5453 42.1767C57.8969 41.9137 57.339 41.4697 57.0006 40.8515C56.5348 40.002 56.5985 39.0403 56.6085 38.1038C56.6554 34.0946 56.7576 29.1337 53.6062 26.1397C51.6996 24.3286 48.9536 23.7925 46.4422 23.4072C43.5638 22.9665 40.6319 22.8878 37.7351 23.1877C33.4578 23.63 28.4618 24.843 25.8481 28.5858C22.7654 33.0005 25.2467 38.345 27.8285 42.3191C29.2509 44.5089 30.8325 46.5763 31.9751 48.9369C33.0574 51.1719 33.8515 53.7587 33.307 56.2501C32.3923 60.4369 28.1535 62.2363 25.0641 64.6003C23.6098 65.7127 22.2896 67.038 21.6144 68.7754C20.6494 71.2583 21.1654 74.1082 21.6496 76.6431C22.0701 78.8462 22.9279 81.0594 25.0205 82.1585C26.783 83.085 28.8856 83.028 30.7738 82.5606C32.8798 82.0395 34.7579 80.9924 36.4819 79.6973C38.407 78.2515 40.2264 76.6397 42.314 75.4251C43.3243 74.837 44.3948 74.3545 45.5341 74.0814C46.6734 73.8083 48.0673 73.624 49.1094 74.2523C50.0007 74.7901 50.3191 75.9562 50.5352 76.9162C50.6893 77.5964 50.7681 78.29 50.8133 78.9836C51.0211 82.197 50.5871 85.4155 50.8049 88.6306C51.0043 91.5826 51.8336 94.6419 54.4489 96.3508C55.7222 97.1835 57.3675 97.7766 58.9038 97.6375C60.4402 97.4985 61.9447 96.7445 63.2046 95.8231C66.3192 93.5395 68.663 90.1032 70.057 86.533C70.7405 84.7805 71.2063 82.904 71.2231 81.0159C71.2432 78.6536 70.3686 75.9176 71.8865 73.8284C73.2637 71.9335 75.8522 71.3739 78.0218 70.9886C80.1915 70.6032 82.2723 70.4324 84.313 69.789C86.2749 69.1691 88.0608 68.0365 89.0493 66.1785C90.1685 64.0759 90.1953 61.5427 89.8435 59.239C89.1499 54.7037 86.6167 50.542 83.1687 47.5614C79.3672 44.276 74.4733 42.5202 69.5024 42.1197C67.0295 41.9204 64.5382 42.0577 62.0938 42.4816C61.7755 42.5369 61.9112 43.0211 62.2278 42.9658L62.2245 42.9574Z" fill="#D95829"/>
<path d="M61.4153 44.6898C65.9372 43.8789 70.7272 44.2107 74.9843 46.0033C78.8797 47.6436 82.1903 50.5638 84.1739 54.3083C85.1356 56.1245 85.7723 58.1266 85.9599 60.1756C86.1526 62.295 85.9046 64.6405 84.4135 66.2791C83.1787 67.6361 81.3978 68.2259 79.652 68.5928C77.8007 68.9815 75.9058 69.149 74.0713 69.6215C72.1864 70.1057 70.1759 71.0104 69.3919 72.9271C68.6078 74.8437 69.2997 77.1038 69.2193 79.1746C69.0836 82.631 67.4199 86.0572 65.3206 88.7462C64.3137 90.0346 63.1376 91.2342 61.7604 92.1289C60.6446 92.8543 59.3344 93.4156 57.979 93.3234C56.6119 93.2296 55.1509 92.5443 54.1541 91.6145C53.2209 90.7433 52.6412 89.5906 52.3078 88.3693C51.5639 85.6367 51.837 82.7097 51.8873 79.9135C51.9107 78.5849 51.909 77.2479 51.7164 75.9294C51.6242 75.3011 51.4768 74.6846 51.2573 74.0881C50.8837 73.0745 50.2504 72.3189 49.1564 72.0927C48.1796 71.89 47.1258 72.0559 46.1775 72.3239C45.2292 72.592 44.2893 73.0326 43.4248 73.547C41.5886 74.6377 39.9886 76.0684 38.2947 77.3585C36.7584 78.5296 35.0997 79.4829 33.2116 79.9554C31.5144 80.3793 29.5826 80.4161 28.063 79.4343C26.2167 78.2448 25.7711 75.9947 25.431 73.9792C25.054 71.7409 24.7776 69.3266 25.9889 67.2826C26.84 65.8485 28.2038 64.8097 29.5508 63.8732C30.9464 62.9031 32.4141 62.0068 33.6505 60.829C34.9858 59.5557 35.8989 57.9557 36.0949 56.101C36.3261 53.9129 35.5789 51.7316 34.6105 49.8015C32.5498 45.6984 28.879 42.3175 28.0078 37.6615C27.6174 35.5756 28.0463 33.4093 29.4034 31.749C30.613 30.2713 32.3353 29.2929 34.1079 28.6479C36.2323 27.8755 38.5092 27.527 40.7592 27.388C43.3678 27.2271 45.9982 27.4014 48.5633 27.914C50.7095 28.3446 52.8138 29.0684 54.1122 30.9415C55.1744 32.4745 55.5731 34.366 55.7424 36.1939C55.8328 37.1773 55.8613 38.1658 55.8663 39.1526C55.8714 40.059 55.7792 41.0039 55.9199 41.902C56.1327 43.2607 57.0944 44.2107 58.3979 44.5726C59.3562 44.8373 60.405 44.8373 61.3784 44.6546C61.6967 44.596 61.561 44.1101 61.2444 44.1705C60.2274 44.3615 59.0831 44.3363 58.1131 43.9493C57.525 43.7148 57.019 43.3127 56.7174 42.7514C56.3053 41.9891 56.3639 41.1229 56.369 40.2869C56.3874 36.6898 56.441 32.2433 53.5962 29.576C51.8856 27.9727 49.4445 27.5002 47.2028 27.1668C44.6127 26.7815 41.9789 26.7211 39.3754 27.0009C35.5152 27.4148 31.0134 28.5255 28.6612 31.9082C27.4415 33.6623 27.1382 35.827 27.547 37.8978C27.9977 40.1746 29.1738 42.2655 30.4321 44.1872C31.7271 46.1659 33.1764 48.0256 34.2319 50.1533C35.2271 52.1621 35.9709 54.4926 35.4935 56.746C34.701 60.4839 30.9414 62.1291 28.192 64.2435C26.8903 65.2453 25.7074 66.4315 25.0909 67.983C24.2046 70.2196 24.6787 72.7813 25.121 75.0666C25.5013 77.0335 26.2486 79.0155 28.0966 80.0324C29.6664 80.897 31.5613 80.8668 33.2618 80.4563C35.1667 79.9973 36.8757 79.0557 38.4288 77.8812C40.1544 76.5761 41.7762 75.1168 43.6376 74.001C44.5356 73.4632 45.4906 73.0142 46.5059 72.7511C47.5212 72.4881 48.7559 72.2988 49.7092 72.8081C50.552 73.2588 50.8569 74.2942 51.0663 75.1671C51.2104 75.7685 51.2891 76.3851 51.3361 77.0016C51.5522 79.8867 51.1786 82.7818 51.3813 85.6685C51.5689 88.329 52.3095 91.0951 54.6634 92.6415C55.806 93.3921 57.2921 93.9316 58.6726 93.8143C60.0884 93.6954 61.4069 93.0252 62.5378 92.1975C65.3508 90.1368 67.4517 87.0239 68.6982 83.7954C69.3081 82.2155 69.7219 80.525 69.732 78.8245C69.7437 76.7101 68.9378 74.2707 70.2547 72.3809C71.4593 70.6502 73.7982 70.1275 75.745 69.7689C77.6147 69.4238 79.5331 69.2479 81.3526 68.6699C83.1033 68.1153 84.705 67.1134 85.6064 65.4648C86.6468 63.5632 86.6686 61.2562 86.3419 59.1653C85.7036 55.074 83.3965 51.3244 80.2686 48.6538C76.8457 45.7319 72.4578 44.1788 68.0013 43.8371C65.7579 43.6645 63.4995 43.8019 61.2863 44.1989C60.9679 44.2559 61.1036 44.7401 61.4203 44.6831L61.4153 44.6898Z" fill="#D95829"/>
<path d="M60.606 46.4222C64.6153 45.6699 68.8675 45.9363 72.6572 47.5028C76.1152 48.932 79.0606 51.5054 80.8365 54.8109C81.6843 56.3892 82.2539 58.1299 82.4365 59.9142C82.6309 61.8091 82.4315 63.9134 81.0979 65.3844C80.0256 66.5656 78.4843 67.0933 76.9663 67.4267C75.3261 67.7886 73.6457 67.9494 72.0189 68.3767C70.3284 68.8207 68.5324 69.6416 67.8388 71.3673C67.1451 73.0929 67.7835 75.0749 67.7265 76.9128C67.631 79.9721 66.1835 83.0029 64.3522 85.3988C63.4676 86.5565 62.4239 87.6354 61.2025 88.4379C60.2324 89.0763 59.0948 89.5755 57.9103 89.5119C56.7091 89.4465 55.4157 88.8585 54.5294 88.0559C53.6883 87.2936 53.1606 86.28 52.8556 85.1977C52.1721 82.7818 52.3949 80.1849 52.42 77.7053C52.4318 76.5174 52.4217 75.3229 52.2408 74.1468C52.1553 73.5972 52.023 73.0594 51.8269 72.5384C51.4986 71.6621 50.9608 70.9836 50.0125 70.7658C49.148 70.5681 48.2097 70.7105 47.3653 70.9451C46.5209 71.1796 45.6983 71.5633 44.936 72.014C43.331 72.9656 41.9303 74.2188 40.4677 75.3681C39.1006 76.4421 37.6363 77.3384 35.9441 77.7958C34.453 78.1996 32.7441 78.2833 31.372 77.4624C29.6966 76.4605 29.2559 74.4936 28.9376 72.7076C28.5858 70.7273 28.2909 68.5794 29.328 66.7465C30.0601 65.4531 31.2647 64.5132 32.4576 63.6705C33.6505 62.8277 34.9674 62.0051 36.0564 60.9664C37.2643 59.8154 38.0886 58.3678 38.2528 56.6874C38.4422 54.759 37.7753 52.839 36.9142 51.1435C35.0629 47.5028 31.764 44.5223 30.9565 40.3874C30.5946 38.5378 30.9665 36.6077 32.1694 35.1333C33.2467 33.8131 34.7797 32.9386 36.3613 32.3606C38.2495 31.6686 40.275 31.3503 42.2738 31.2213C44.5842 31.0705 46.9147 31.2146 49.1865 31.6619C51.0697 32.0322 52.9042 32.6806 54.0368 34.3241C54.9733 35.6829 55.3285 37.3566 55.486 38.975C55.5698 39.8412 55.5983 40.7108 55.61 41.5803C55.6201 42.3778 55.5463 43.2121 55.6804 44.0012C55.8848 45.1992 56.756 46.0335 57.907 46.3418C58.7631 46.573 59.6997 46.5646 60.5675 46.3954C60.8842 46.3334 60.7501 45.8492 60.4335 45.9112C59.5371 46.0854 58.5302 46.072 57.6724 45.7386C57.1715 45.5443 56.7342 45.2092 56.4645 44.7401C56.0825 44.0766 56.121 43.3177 56.1193 42.5788C56.1126 39.3989 56.1394 35.4902 53.6615 33.1128C52.152 31.6636 49.994 31.2414 47.9936 30.9515C45.6749 30.6148 43.3176 30.5695 40.9888 30.8343C37.5525 31.223 33.5533 32.2299 31.4641 35.2456C30.3818 36.8054 30.112 38.7321 30.4823 40.5717C30.8911 42.6073 31.9567 44.472 33.0959 46.1809C34.2352 47.8899 35.5772 49.5921 36.5288 51.4903C37.4151 53.2595 38.0803 55.3152 37.6581 57.3056C36.9611 60.5944 33.6488 62.0755 31.2379 63.9586C30.0735 64.8684 29.0214 65.9557 28.497 67.3631C27.7497 69.3668 28.1971 71.6554 28.6159 73.6843C28.9778 75.4368 29.6982 77.1876 31.377 78.0421C32.8027 78.7675 34.4899 78.7022 36.0028 78.3068C37.6882 77.8645 39.1793 77.0033 40.5481 75.9445C42.056 74.7801 43.4767 73.485 45.1153 72.4982C45.9144 72.0173 46.7639 71.6186 47.6703 71.389C48.5767 71.1595 49.6472 71.002 50.4715 71.4812C51.1618 71.8833 51.4198 72.7696 51.6024 73.5017C51.7365 74.0395 51.8102 74.5891 51.8554 75.1403C52.0632 77.7003 51.7515 80.272 51.9559 82.832C52.1453 85.1927 52.8288 87.6371 54.9298 88.9925C55.9568 89.6543 57.2904 90.1234 58.5235 90.0044C59.7801 89.8821 60.9428 89.2807 61.943 88.5351C64.4276 86.6804 66.2739 83.8993 67.3579 81.0176C67.8857 79.6153 68.2375 78.1158 68.2341 76.6113C68.2291 74.7298 67.4919 72.5568 68.6748 70.8747C69.732 69.3702 71.7676 68.9011 73.4648 68.5727C75.1351 68.251 76.8491 68.0818 78.4725 67.549C80.0173 67.0414 81.4263 66.14 82.212 64.6757C83.1234 62.9768 83.1301 60.9278 82.8269 59.0698C82.2388 55.4643 80.1865 52.1638 77.417 49.8182C74.3477 47.2163 70.4189 45.8509 66.4331 45.5761C64.441 45.4387 62.4373 45.5761 60.4754 45.9447C60.157 46.005 60.2927 46.4892 60.6094 46.4289L60.606 46.4222Z" fill="#D95829"/>
<path d="M59.7968 48.1546C63.2833 47.4643 66.9843 47.662 70.2999 48.9906C73.3072 50.1952 75.884 52.3967 77.4572 55.2365C78.2195 56.612 78.7406 58.1333 78.9165 59.6998C79.0991 61.3283 78.955 63.1477 77.8291 64.4328C76.9077 65.4849 75.5623 65.9624 74.2354 66.269C72.808 66.5991 71.3437 66.7549 69.9279 67.1402C68.4402 67.5473 66.8804 68.2862 66.2823 69.8125C65.6841 71.3388 66.2772 73.0896 66.232 74.7097C66.1583 77.3669 64.9235 80.0006 63.3503 82.0949C62.5947 83.1018 61.6984 84.0417 60.6496 84.7454C59.8102 85.3083 58.8234 85.7506 57.793 85.697C56.7593 85.6434 55.6401 85.1491 54.8728 84.4622C54.144 83.8122 53.6782 82.9443 53.4051 82.0144C52.7869 79.9202 52.9561 77.6617 52.9578 75.5072C52.9578 74.4802 52.9394 73.4481 52.7785 72.4328C52.5892 71.2332 52.1771 69.7723 50.8501 69.4355C50.0962 69.2445 49.2719 69.3702 48.5331 69.5729C47.7942 69.7756 47.0855 70.1057 46.4254 70.4977C45.0248 71.3304 43.8101 72.4328 42.5452 73.4515C41.3607 74.4064 40.1008 75.219 38.6264 75.6479C37.3313 76.0266 35.8318 76.1355 34.6188 75.4452C33.1445 74.6058 32.7323 72.9086 32.4391 71.3589C32.1108 69.6248 31.8226 67.7333 32.729 66.1182C33.3556 64.9991 34.386 64.1781 35.4096 63.4393C36.4333 62.7004 37.5944 61.9582 38.5376 61.0384C39.5713 60.0281 40.275 58.7699 40.4141 57.314C40.5766 55.6118 39.9734 53.9213 39.1977 52.4335C37.5525 49.2771 34.649 46.707 33.9085 43.1116C33.5767 41.4999 33.8884 39.8144 34.9321 38.521C35.8536 37.3784 37.1705 36.6127 38.5275 36.1001C40.1711 35.4802 41.937 35.1836 43.6828 35.0529C45.6564 34.9055 47.6501 35.0043 49.5969 35.3595C51.264 35.6628 52.9092 36.1955 53.9278 37.6414C54.7538 38.8142 55.0788 40.2651 55.2296 41.6691C55.3084 42.4113 55.3419 43.1568 55.3603 43.9041C55.3787 44.6513 55.3168 45.3583 55.4441 46.0603C55.6351 47.1141 56.4108 47.8446 57.4278 48.1077C58.1834 48.302 59.0043 48.2886 59.7649 48.1328C60.0816 48.0674 59.9476 47.5833 59.6309 47.6486C58.8586 47.8078 57.9874 47.8027 57.2384 47.5229C56.8079 47.3621 56.4275 47.0773 56.193 46.6785C55.8562 46.1072 55.8847 45.4521 55.8763 44.8121C55.8428 42.0209 55.8294 38.583 53.6179 36.5306C52.2776 35.2875 50.3961 34.944 48.6453 34.7061C46.6331 34.4347 44.5908 34.4163 42.5753 34.6626C39.5613 35.0311 36.058 35.9442 34.2486 38.6098C33.3137 39.987 33.0925 41.6791 33.4327 43.2892C33.8079 45.0635 34.7545 46.6836 35.7631 48.1663C36.8002 49.6909 37.9562 51.12 38.8023 52.767C39.5864 54.2932 40.1862 56.0742 39.836 57.8032C39.2597 60.6665 36.3914 61.9884 34.3106 63.6437C33.2953 64.4512 32.3805 65.4162 31.9332 66.656C31.2932 68.4269 31.7087 70.4441 32.1007 72.2251C32.4375 73.7581 33.1009 75.2827 34.5904 75.9997C35.8771 76.6196 37.3816 76.5309 38.7236 76.1438C40.2013 75.72 41.4863 74.9292 42.6809 73.9809C43.9709 72.9555 45.1923 71.8263 46.6097 70.9719C47.2983 70.5564 48.0288 70.2146 48.8112 70.0186C49.5936 69.8225 50.5184 69.6868 51.2137 70.1291C51.7766 70.486 51.9944 71.2483 52.1486 71.8615C52.2659 72.3256 52.3329 72.7997 52.3764 73.2772C52.5741 75.4955 52.3295 77.7288 52.5289 79.9487C52.7149 82.0128 53.3314 84.1472 55.1794 85.3183C56.0791 85.8896 57.2485 86.2934 58.3241 86.1845C59.3997 86.0756 60.4485 85.5412 61.3231 84.8777C63.4693 83.2492 65.0525 80.8283 65.9824 78.3219C66.4414 77.0871 66.7464 75.7652 66.7396 74.4416C66.7313 72.788 66.046 70.8814 67.068 69.392C67.9761 68.0684 69.7621 67.6479 71.2415 67.348C72.7208 67.0481 74.165 66.8923 75.5657 66.4181C76.9663 65.944 78.1692 65.1398 78.8428 63.8296C79.6134 62.3285 79.5967 60.5391 79.3102 58.9157C78.7573 55.7776 76.9345 52.9211 74.4968 50.9006C71.8044 48.6672 68.3799 47.5095 64.9118 47.2968C63.156 47.1895 61.3901 47.3269 59.6661 47.667C59.3495 47.729 59.4835 48.2149 59.8001 48.1512L59.7968 48.1546Z" fill="#D95829"/>
<path d="M58.9876 49.8886C61.9631 49.2586 65.1279 49.3876 67.9778 50.4934C70.5546 51.4936 72.7745 53.3533 74.1366 55.7676C74.7883 56.9202 75.239 58.2002 75.4015 59.5171C75.5724 60.9027 75.4618 62.4574 74.5018 63.5531C73.7244 64.4394 72.5935 64.8482 71.4794 65.1196C70.2631 65.4162 69.0132 65.5653 67.8086 65.9155C66.604 66.2656 65.2519 66.9274 64.746 68.2175C64.2149 69.5695 64.7594 71.0271 64.746 72.416C64.7208 74.6879 63.6972 76.953 62.3769 78.7608C61.747 79.6236 60.9981 80.4328 60.1168 81.041C59.4064 81.5302 58.5704 81.9223 57.6875 81.882C56.8196 81.8435 55.873 81.4397 55.2196 80.8701C54.5662 80.3005 54.1909 79.5934 53.948 78.8077C53.4035 77.0401 53.5174 75.1268 53.4956 73.3006C53.4856 72.4194 53.4571 71.5314 53.3097 70.6602C53.1371 69.6466 52.7769 68.4051 51.6678 68.1002C51.011 67.9192 50.2822 68.0349 49.6389 68.2175C48.9955 68.4001 48.3806 68.6933 47.8093 69.0434C46.6298 69.7655 45.6095 70.7138 44.549 71.5934C43.5538 72.4194 42.4966 73.1314 41.2501 73.5184C40.1527 73.8602 38.8694 73.9825 37.8256 73.4062C36.554 72.7042 36.1938 71.2533 35.9274 69.9314C35.6308 68.4654 35.3711 66.8688 36.1267 65.4933C36.6511 64.54 37.519 63.8313 38.3801 63.1929C39.2899 62.5194 40.2482 61.8912 41.0457 61.0803C41.9186 60.1923 42.4966 59.0916 42.5837 57.8367C42.6859 56.3841 42.1498 54.955 41.4696 53.6984C40.0321 51.0396 37.5408 48.8884 36.8656 45.8458C36.564 44.4887 36.8019 43.0747 37.6547 41.9606C38.417 40.9671 39.5446 40.2919 40.6956 39.8395C42.0878 39.2916 43.589 39.0186 45.0751 38.8879C46.7672 38.7388 48.4828 38.8008 50.1582 39.0856C51.5555 39.3235 52.9427 39.7541 53.814 40.9486C54.531 41.9338 54.8276 43.1618 54.9717 44.353C55.0487 44.9914 55.0856 45.6347 55.109 46.2764C55.1308 46.8745 55.0923 47.4994 55.2012 48.0909C55.3704 49.004 56.0422 49.6406 56.9285 49.8634C57.587 50.0276 58.3024 50.0092 58.9625 49.8634C59.2774 49.7947 59.1451 49.3089 58.8284 49.3792C58.1935 49.5183 57.4462 49.53 56.8045 49.3005C56.4376 49.1698 56.1126 48.9302 55.9132 48.5918C55.6284 48.1093 55.6485 47.5531 55.6351 47.0136C55.5731 44.6362 55.5178 41.7193 53.6213 39.9869C52.4569 38.9214 50.8384 38.6466 49.3256 38.459C47.6032 38.2462 45.8575 38.2579 44.1385 38.4891C41.5567 38.8343 38.5561 39.6619 37.0348 41.9706C36.2457 43.1685 36.0748 44.6312 36.3898 46.0134C36.7332 47.5263 37.5626 48.9001 38.4438 50.1583C39.3251 51.4165 40.3337 52.6346 41.0725 54.0184C41.7511 55.2901 42.2889 56.7812 42.0342 58.2421C41.6053 60.7117 39.1709 61.8794 37.4051 63.3169C36.5489 64.0139 35.7766 64.8432 35.3963 65.8987C34.8451 67.4267 35.222 69.1574 35.5755 70.687C35.8821 72.0123 36.4668 73.3341 37.767 73.939C38.8828 74.4583 40.1728 74.3695 41.3255 74.0211C42.6005 73.6357 43.6996 72.9354 44.7215 72.0994C45.8072 71.2114 46.8359 70.2347 48.0338 69.4941C48.6152 69.1356 49.2334 68.839 49.8969 68.6681C50.5302 68.504 51.3344 68.375 51.9157 68.7553C52.3815 69.0585 52.5675 69.7036 52.6998 70.2162C52.802 70.6066 52.864 71.007 52.9042 71.4091C53.0919 73.2906 52.9126 75.1888 53.1069 77.0703C53.2896 78.8395 53.8408 80.6624 55.4357 81.6525C56.2182 82.1384 57.2301 82.4718 58.1583 82.3696C59.0864 82.2674 59.9644 81.8 60.7082 81.227C62.5462 79.8096 63.8848 77.6902 64.6521 75.5189C65.0241 74.465 65.267 73.3375 65.2469 72.215C65.2201 70.806 64.6069 69.1741 65.4764 67.8975C66.2287 66.7934 67.7064 66.4181 68.9361 66.15C70.1659 65.882 71.4308 65.7261 72.6237 65.309C73.8166 64.8918 74.8386 64.2099 75.4166 63.0958C76.0851 61.8057 76.065 60.266 75.8086 58.8687C75.3144 56.1764 73.7261 53.7336 71.6134 52.0214C69.2779 50.1265 66.3242 49.1648 63.3403 49.0224C61.8375 48.9503 60.3279 49.0877 58.8569 49.3994C58.5403 49.4664 58.6743 49.9506 58.9909 49.8835L58.9876 49.8886Z" fill="#D95829"/>
<path d="M58.1784 51.621C60.6362 51.0513 63.2632 51.11 65.6423 51.9879C67.7801 52.777 69.6348 54.2798 70.7908 56.2501C71.3487 57.2017 71.7357 58.2572 71.8899 59.3513C72.044 60.4453 71.9619 61.7856 71.1594 62.687C70.5177 63.4091 69.5895 63.7458 68.6781 63.9804C67.6796 64.2367 66.6542 64.3825 65.6724 64.6958C64.6387 65.0258 63.5882 65.5921 63.1895 66.6661C62.7656 67.812 63.2532 69.0284 63.2532 70.1961C63.2532 72.0759 62.4372 73.9591 61.3667 75.472C60.8557 76.1924 60.2425 76.876 59.5137 77.3836C58.939 77.784 58.2621 78.104 57.5467 78.0688C56.8313 78.0337 56.0489 77.712 55.5111 77.2379C55.0018 76.7905 54.6718 76.1907 54.469 75.549C54.0116 74.0981 54.077 72.53 54.0284 71.0271C54.0049 70.3034 53.9681 69.5729 53.8307 68.8592C53.6648 67.998 53.3264 66.9559 52.3647 66.7364C51.2992 66.4935 50.108 67.0078 49.2233 67.5658C48.2566 68.1756 47.4256 68.9731 46.5645 69.7186C45.7452 70.4273 44.879 71.0489 43.8403 71.3957C42.9439 71.6939 41.8868 71.823 41.0189 71.3622C39.9684 70.8043 39.6535 69.6215 39.4155 68.5442C39.1508 67.3496 38.9045 66.0361 39.5027 64.8985C39.9249 64.0943 40.6403 63.4912 41.349 62.945C42.0912 62.3737 42.8752 61.8392 43.5186 61.154C44.2256 60.4017 44.6864 59.4786 44.7416 58.4365C44.8053 57.2235 44.3379 56.0373 43.7515 54.9986C42.5201 52.8189 40.4174 51.0748 39.8126 48.5667C39.5445 47.4526 39.7205 46.2949 40.4057 45.3633C41.0239 44.5206 41.9722 43.9426 42.9289 43.5539C44.0799 43.0865 45.3264 42.8385 46.5595 42.7145C47.945 42.5738 49.3523 42.6023 50.7279 42.8167C51.8805 42.996 53.0114 43.3411 53.7335 44.3179C54.3283 45.1204 54.5779 46.124 54.7153 47.0974C54.789 47.6201 54.8276 48.1478 54.856 48.6756C54.8845 49.2033 54.8577 49.7026 54.9666 50.1935C55.1358 50.9525 55.7206 51.4718 56.4661 51.6377C57.0156 51.76 57.6071 51.7332 58.1532 51.6042C58.4682 51.5288 58.3342 51.0446 58.0192 51.12C57.4965 51.2457 56.8833 51.2691 56.3472 51.0848C56.0439 50.981 55.7792 50.7849 55.6167 50.5051C55.3821 50.103 55.4022 49.6306 55.3821 49.1816C55.2916 47.2079 55.1811 44.7736 53.5476 43.3914C52.554 42.5503 51.2204 42.3476 49.9655 42.2169C48.5465 42.0695 47.114 42.1097 45.7033 42.3208C43.5471 42.6442 41.0407 43.3897 39.8093 45.3483C39.1726 46.3602 39.052 47.5849 39.3368 48.7326C39.6451 49.9757 40.3437 51.0966 41.0893 52.1202C41.8348 53.1439 42.6993 54.1475 43.336 55.2834C43.924 56.3322 44.4032 57.572 44.2022 58.795C43.8671 60.8373 41.8499 61.8292 40.4208 63.0522C39.7138 63.657 39.0855 64.3791 38.8023 65.2822C38.4036 66.5588 38.7387 67.9796 39.0604 69.2361C39.3385 70.3235 39.8528 71.3974 40.9318 71.8782C41.875 72.2988 42.954 72.21 43.9157 71.8983C44.9728 71.5566 45.8809 70.9584 46.7203 70.243C47.6049 69.4908 48.4393 68.6648 49.421 68.0349C49.8918 67.7316 50.3944 67.4786 50.9356 67.3278C51.4768 67.1771 52.1268 67.0564 52.6026 67.3764C52.9762 67.6294 53.1337 68.1622 53.246 68.581C53.3331 68.9027 53.3884 69.2311 53.4269 69.5612C53.6028 71.1109 53.4872 72.6791 53.6833 74.2288C53.8676 75.6915 54.3551 77.1893 55.6904 77.9868C56.3472 78.3805 57.1932 78.6452 57.9622 78.5547C58.7312 78.4642 59.4768 78.0588 60.0984 77.5679C61.6062 76.3767 62.6886 74.584 63.295 72.7796C63.5933 71.89 63.7826 70.9417 63.7508 70.0001C63.7105 68.8257 63.1593 67.4569 63.8881 66.3896C64.5064 65.4832 65.721 65.1666 66.7263 64.9287C67.7315 64.6908 68.777 64.5417 69.7504 64.1731C70.7238 63.8045 71.5665 63.2198 72.0272 62.2866C72.5684 61.1875 72.5282 59.8958 72.2853 58.723C71.8262 56.5031 70.4741 54.5093 68.7016 53.1238C66.733 51.5841 64.2685 50.8251 61.7855 50.7514C60.529 50.7129 59.2674 50.8519 58.0427 51.1351C57.7277 51.2088 57.8617 51.693 58.1767 51.6193L58.1784 51.621Z" fill="#D95829"/>
</g>
<defs>
<clipPath id="clip0_23_1677">
<rect width="120.55" height="111.158" fill="white" transform="matrix(0 1 -1 0 111.158 0)"/>
</clipPath>
</defs>
</svg>
