<svg width="85" height="96" viewBox="0 0 85 96" fill="none" xmlns="http://www.w3.org/2000/svg">
<g clip-path="url(#clip0_23_1662)">
<path d="M80.448 41.2606C81.5689 45.2299 82.3586 49.3242 82.9514 53.4046C83.5512 57.536 83.8916 61.9337 82.3308 65.9076C81.4461 68.1608 79.8251 69.9625 77.551 70.8587C75.2491 71.7642 72.7318 71.8684 70.3165 72.276C68.2045 72.6326 66.1944 73.281 64.4251 74.513C62.9175 75.5621 61.6438 76.8983 60.523 78.3457C58.1516 81.4025 56.4171 84.8831 54.1939 88.0419C51.8573 91.3627 48.8514 94.2134 44.6992 94.8943C38.9699 95.8345 33.5765 92.8934 29.1533 89.5749C27.0297 87.9817 25.0381 86.1985 22.7872 84.7812C20.5941 83.401 18.2135 82.5303 15.6036 82.5071C12.9937 82.484 10.2379 83.137 7.56088 82.7943C5.29604 82.5025 3.37162 81.2914 2.29478 79.265C1.34299 77.4749 1.10678 75.3236 1.41478 73.3343C1.78068 70.9791 2.99878 68.9968 4.467 67.1627C6.07415 65.1549 7.90825 63.2907 9.1472 61.0143C10.4024 58.7055 10.9674 56.0933 11.0693 53.481C11.2916 47.7587 9.37183 42.3097 8.10278 36.8097C7.44509 33.9613 6.87078 30.9507 7.10468 28.0143C7.20657 26.7267 7.59331 25.4577 8.52425 24.5244C9.26299 23.7857 10.2287 23.3434 11.2175 23.0516C13.3249 22.4309 15.548 22.4055 17.6809 21.9145C19.9758 21.3865 22.1249 20.2935 23.9428 18.8044C25.7931 17.2899 27.2196 15.3655 28.2131 13.1956C29.2158 11.0025 29.8666 8.66357 30.948 6.50525C32.0712 4.2682 33.7293 2.44336 36.096 1.51241C38.5137 0.560621 41.1861 0.518937 43.7104 1.01452C46.6097 1.5842 49.3331 2.78146 52.0287 3.95557C54.7242 5.12967 57.3573 6.28294 60.1177 7.19304C62.7971 8.07536 65.5436 8.6682 68.3642 8.82336C70.7287 8.95304 73.151 8.88125 75.4598 9.48104C77.7779 10.0831 79.6861 11.5375 80.5152 13.837C81.3396 16.125 81.1798 18.6747 80.8556 21.0438C80.4944 23.6699 79.9918 26.3377 80.411 28.9893C80.6217 30.3139 81.1289 31.4695 81.7981 32.6204C82.12 33.1739 82.4373 33.7528 82.472 34.4059C82.4975 34.8991 82.3725 35.3855 82.1918 35.844C81.5017 37.5901 79.9085 39.1857 80.3948 41.2027C80.499 41.6381 81.1682 41.4528 81.064 41.0175C80.8116 39.9661 81.3141 38.9772 81.8097 38.0787C82.3053 37.1802 82.8727 36.3025 83.0834 35.2998C83.3358 34.0956 82.8819 33.0951 82.2798 32.0716C81.555 30.8396 81.1219 29.5427 80.9946 28.1162C80.5476 23.0863 83.1251 17.7947 80.8904 12.9385C78.695 8.1703 73.0213 8.36715 68.575 8.1402C62.5678 7.8322 57.1002 5.40525 51.6628 3.04315C46.7139 0.894095 41.0333 -1.28275 35.707 0.9242C33.4306 1.86673 31.7331 3.56883 30.5729 5.7202C29.4127 7.87157 28.7341 10.3194 27.7291 12.5842C26.724 14.849 25.2836 16.8406 23.3407 18.4015C21.3977 19.9623 19.1283 20.9697 16.7083 21.4027C14.5499 21.7895 12.2805 21.845 10.2194 22.6579C9.28152 23.0284 8.40383 23.561 7.75078 24.3391C6.93099 25.3164 6.56046 26.5183 6.4331 27.7711C6.13204 30.6821 6.70172 33.7297 7.33625 36.5596C7.97078 39.3895 8.87857 42.4463 9.5293 45.4175C10.7011 50.7739 11.0832 56.7741 8.00089 61.5886C6.56741 63.828 4.63604 65.6922 3.08215 67.8436C1.74362 69.6985 0.835831 71.7295 0.641304 74.0244C0.472252 76.0206 0.826569 78.1187 1.83625 79.8648C2.93625 81.7661 4.78657 83.0027 6.94025 83.3941C9.62888 83.8827 12.3476 83.2644 15.0432 83.2042C16.428 83.1741 17.7874 83.32 19.1051 83.7554C20.4228 84.1907 21.5714 84.8183 22.6969 85.5455C24.9826 87.0252 27.0135 88.8594 29.2042 90.4711C31.4784 92.1455 33.903 93.6461 36.5615 94.6303C39.176 95.5983 42.0384 96.0128 44.8057 95.5751C46.9872 95.2301 48.9927 94.2899 50.7133 92.9212C53.7516 90.5036 55.7478 87.0299 57.7417 83.7669C59.7356 80.504 61.8245 77.0303 65.0874 74.8998C67.0165 73.64 69.1979 73.1236 71.4535 72.797C73.9129 72.4404 76.4788 72.2436 78.7228 71.0834C83.0255 68.8602 84.1371 63.608 84.1579 59.1617C84.1672 57.1956 83.9101 55.2248 83.6299 53.2842C83.3011 51.0031 82.8842 48.7337 82.4118 46.4781C82.032 44.6671 81.6198 42.8562 81.1173 41.0754C80.9969 40.6446 80.3253 40.8276 80.448 41.2606Z" fill="#D95829"/>
<path d="M78.0675 41.5916C79.1142 45.3038 79.8553 49.1341 80.4088 52.9506C80.9692 56.811 81.2864 60.9192 79.8298 64.6337C79.0054 66.7341 77.4932 68.4154 75.3742 69.2491C73.2205 70.0967 70.8654 70.1939 68.6075 70.5737C66.6298 70.9072 64.7494 71.5163 63.0913 72.6672C61.6787 73.6491 60.4883 74.8996 59.437 76.2543C57.2184 79.1143 55.5928 82.3727 53.5132 85.3276C51.3317 88.4308 48.525 91.0916 44.646 91.7285C39.2942 92.6085 34.2551 89.855 30.1214 86.7565C28.1344 85.2674 26.2726 83.5977 24.1675 82.2731C22.1134 80.9786 19.8833 80.1657 17.4378 80.1426C14.9923 80.1194 12.4195 80.7331 9.91613 80.4112C7.80413 80.1379 6.01402 79.0101 5.00897 77.1205C4.12202 75.4508 3.8997 73.443 4.18918 71.5904C4.53191 69.3927 5.66897 67.54 7.03992 65.8264C8.54517 63.9459 10.2612 62.1998 11.4214 60.0693C12.5978 57.9064 13.1281 55.4609 13.2231 53.0131C13.4292 47.659 11.6344 42.5596 10.4464 37.4116C9.83276 34.7485 9.2955 31.9348 9.51318 29.1906C9.60813 27.9933 9.96707 26.8099 10.8332 25.9438C11.521 25.256 12.4195 24.8438 13.3435 24.5729C15.3142 23.9916 17.3938 23.9685 19.39 23.5099C21.5414 23.0144 23.5538 21.9908 25.2582 20.5944C26.9627 19.1979 28.3267 17.3754 29.2553 15.3445C30.1839 13.3135 30.7999 11.1042 31.8142 9.08719C32.8285 7.07014 34.4079 5.29625 36.6172 4.42551C38.8751 3.53856 41.3715 3.49688 43.729 3.96004C46.4384 4.49267 48.9858 5.61119 51.5054 6.70888C54.025 7.80656 56.4936 8.88804 59.078 9.74025C61.586 10.567 64.1589 11.1205 66.7965 11.2664C69.0058 11.3891 71.2707 11.3196 73.4267 11.88C75.5873 12.4428 77.3681 13.7952 78.1393 15.9373C78.9104 18.0794 78.7599 20.4531 78.4565 22.667C78.1184 25.1287 77.646 27.6274 78.042 30.1099C78.2389 31.3512 78.7136 32.4327 79.3435 33.5118C79.6422 34.0259 79.9387 34.5632 79.9711 35.1699C79.9942 35.6308 79.8784 36.0824 79.7094 36.5085C79.061 38.148 77.5719 39.6394 78.0281 41.5314C78.1323 41.9668 78.8016 41.7815 78.6974 41.3461C78.4635 40.3689 78.9336 39.4472 79.3921 38.6158C79.8507 37.7845 80.3879 36.9508 80.5871 36.0106C80.8256 34.8781 80.3995 33.9356 79.8344 32.9746C79.1582 31.8259 78.7553 30.6171 78.6349 29.2855C78.2157 24.5752 80.6288 19.624 78.533 15.0781C76.4372 10.5322 71.1618 10.7916 66.9934 10.5786C61.3799 10.2914 56.269 8.02193 51.1858 5.81267C46.5496 3.80025 41.2326 1.76235 36.2443 3.82804C34.1092 4.71267 32.5159 6.30593 31.4275 8.3253C30.3391 10.3447 29.7069 12.628 28.769 14.7447C27.8311 16.8613 26.4833 18.7232 24.6677 20.1821C22.8753 21.6226 20.7332 22.579 18.473 22.9842C16.4536 23.3455 14.33 23.3965 12.4033 24.1584C11.5233 24.5057 10.6989 25.0059 10.0852 25.7377C9.31403 26.6571 8.96665 27.7849 8.84624 28.9636C8.56602 31.6893 9.09866 34.54 9.6915 37.1893C10.3121 39.9659 11.1342 42.6939 11.7433 45.4752C12.8387 50.4796 13.1953 56.0861 10.3168 60.5834C8.97592 62.6792 7.1696 64.4207 5.71528 66.4331C4.46012 68.1722 3.61024 70.0735 3.42729 72.2272C3.2675 74.0984 3.60098 76.0645 4.54813 77.7017C5.58097 79.4849 7.31549 80.6451 9.33486 81.0133C11.8521 81.4718 14.3972 80.8929 16.9214 80.8373C18.2136 80.8095 19.4827 80.9461 20.7147 81.3514C21.9467 81.7567 23.0189 82.3449 24.0679 83.0257C26.2054 84.4106 28.1067 86.1243 30.1561 87.6341C32.2843 89.2019 34.5538 90.6053 37.0433 91.527C39.5328 92.4487 42.1728 92.8215 44.7664 92.4116C46.8113 92.0874 48.6894 91.2074 50.3035 89.9245C53.1473 87.6619 55.0161 84.4106 56.8827 81.356C58.7399 78.3177 60.6968 75.0594 63.7467 73.0701C65.5483 71.8937 67.5885 71.4097 69.6959 71.1063C71.9978 70.7729 74.3993 70.5876 76.502 69.5015C80.5338 67.4173 81.5759 62.4962 81.5968 58.3301C81.606 56.4891 81.3652 54.6434 81.1012 52.8255C80.7932 50.6927 80.4041 48.5691 79.9618 46.4594C79.6052 44.7642 79.2208 43.0737 78.7507 41.4064C78.6302 40.9756 77.9587 41.1586 78.0814 41.5916H78.0675Z" fill="#D95829"/>
<path d="M75.6892 41.9229C76.6641 45.3803 77.3542 48.9443 77.8683 52.4968C78.3894 56.0862 78.6858 59.9073 77.3287 63.3601C76.5645 65.3054 75.1612 66.8662 73.1974 67.6397C71.2336 68.4132 69.0012 68.5197 66.8984 68.874C65.0551 69.1843 63.302 69.7517 61.7574 70.8262C60.4397 71.741 59.3304 72.9081 58.3508 74.1702C56.2828 76.8334 54.7706 79.8694 52.8323 82.6229C50.894 85.3763 48.1961 87.977 44.5927 88.5698C39.6184 89.3873 34.9313 86.8237 31.0894 83.9429C29.2391 82.5557 27.5068 81.0018 25.5454 79.7698C23.5839 78.5378 21.5483 77.8037 19.2673 77.7829C16.9353 77.762 14.594 78.334 12.2643 78.033C10.3075 77.7805 8.64706 76.7338 7.71843 74.9808C6.89632 73.4338 6.69022 71.5696 6.95653 69.8513C7.2738 67.8088 8.32979 66.0881 9.60348 64.4972C11.0045 62.7464 12.6047 61.1184 13.6862 59.1338C14.7839 57.1168 15.2772 54.8357 15.3652 52.5523C15.5574 47.5641 13.8854 42.8168 12.7807 38.0231C12.2087 35.5475 11.7108 32.9283 11.9123 30.3763C12.0003 29.2671 12.3338 28.174 13.1351 27.3704C13.7719 26.7313 14.6056 26.3515 15.4601 26.0991C17.2942 25.5572 19.2302 25.5363 21.0898 25.1079C23.0953 24.6448 24.9734 23.6883 26.562 22.3869C28.1506 21.0854 29.422 19.3856 30.2858 17.4936C31.1496 15.6016 31.7239 13.5452 32.6664 11.6671C33.6089 9.78897 35.0725 8.14708 37.1243 7.33887C39.2224 6.51445 41.5405 6.47508 43.7313 6.90581C46.2532 7.40139 48.6199 8.44118 50.9635 9.46245C53.2862 10.4744 55.6113 11.4934 58.0197 12.2877C60.3563 13.0589 62.7532 13.573 65.2125 13.7096C67.2666 13.8231 69.3717 13.7582 71.3795 14.2816C73.3873 14.805 75.0338 16.0555 75.7494 18.0424C76.465 20.0294 76.326 22.2387 76.0458 24.2951C75.7308 26.59 75.2908 28.9197 75.6591 31.2378C75.842 32.3957 76.2866 33.4054 76.8725 34.4104C77.1481 34.8852 77.4237 35.3808 77.4515 35.9412C77.4746 36.3673 77.3658 36.7864 77.2083 37.1801C76.6016 38.7109 75.2167 40.1003 75.6428 41.8696C75.7471 42.305 76.4163 42.1197 76.3121 41.6843C76.0944 40.7835 76.5321 39.929 76.9582 39.1601C77.3843 38.3913 77.8892 37.6062 78.0721 36.7309C78.2944 35.6702 77.8984 34.7879 77.3681 33.8848C76.7405 32.8195 76.3654 31.6963 76.2565 30.4643C75.8652 26.0736 78.1115 21.4652 76.1593 17.225C74.2071 12.9848 69.2837 13.2233 65.3955 13.0241C60.1734 12.7578 55.4191 10.6435 50.6902 8.59171C46.3689 6.71592 41.4132 4.81697 36.7631 6.74139C34.7715 7.56581 33.2801 9.05487 32.2658 10.9376C31.2399 12.8412 30.6633 14.9439 29.7902 16.9147C28.9148 18.8877 27.6643 20.6153 25.9761 21.9723C24.2879 23.3294 22.3195 24.1978 20.2191 24.5753C18.3386 24.9134 16.3633 24.9597 14.5685 25.6683C13.7464 25.9925 12.973 26.4603 12.3986 27.1435C11.6761 28.0027 11.3519 29.0587 11.2361 30.1633C10.9744 32.7014 11.47 35.3599 12.0235 37.8285C12.577 40.2972 13.3666 42.9534 13.934 45.5424C14.9529 50.1949 15.2841 55.4077 12.6071 59.59C11.3588 61.5399 9.67758 63.1633 8.32516 65.0368C7.15337 66.6601 6.36369 68.434 6.19231 70.4418C6.04411 72.1879 6.35674 74.0243 7.23906 75.5504C8.20242 77.2155 9.82348 78.3016 11.7108 78.6443C14.0567 79.0704 16.4258 78.5332 18.7786 78.4799C19.9805 78.4544 21.1593 78.5818 22.3033 78.957C23.4473 79.3321 24.4431 79.881 25.4203 80.5132C27.4096 81.8031 29.1812 83.3987 31.0871 84.802C32.993 86.2054 35.186 87.5694 37.5041 88.4286C39.8222 89.2877 42.2885 89.6351 44.7062 89.2506C46.6144 88.9496 48.3652 88.1252 49.8704 86.9279C52.5197 84.8205 54.2588 81.7915 55.998 78.9477C57.7372 76.1039 59.5458 73.0934 62.378 71.2431C64.0546 70.1477 65.9513 69.7008 67.9104 69.4159C70.0572 69.1056 72.2919 68.9319 74.2511 67.9199C78.0119 65.977 78.9868 61.3871 79.0054 57.5012C79.0146 55.7852 78.7877 54.0645 78.5445 52.3694C78.2574 50.3824 77.8961 48.4071 77.4839 46.4433C77.1527 44.8662 76.7961 43.2915 76.3561 41.7376C76.2357 41.3069 75.5641 41.4898 75.6868 41.9229H75.6892Z" fill="#D95829"/>
<path d="M73.3108 42.254C74.214 45.4545 74.8508 48.7545 75.3279 52.0429C75.8049 55.3313 76.0828 58.893 74.8277 62.0865C74.1237 63.8789 72.8291 65.3193 71.0205 66.0303C69.2119 66.7412 67.1346 66.8454 65.1893 67.1719C63.4826 67.4591 61.8546 67.9871 60.4235 68.9806C59.203 69.8305 58.1725 70.9096 57.2647 72.0814C55.3496 74.55 53.9462 77.3614 52.1514 79.9111C50.278 82.5766 47.8672 84.8576 44.5371 85.4065C39.938 86.1614 35.6051 83.7877 32.055 81.1246C30.3437 79.8416 28.7388 78.4035 26.9232 77.2595C25.1447 76.141 23.2133 75.4347 21.099 75.4162C18.9847 75.3976 16.7731 75.9279 14.6148 75.6477C12.8108 75.4138 11.2847 74.4482 10.4279 72.8341C9.67061 71.4075 9.47839 69.6892 9.72619 68.1052C10.0203 66.2178 10.9929 64.6292 12.1693 63.1587C13.4685 61.5353 14.9529 60.0277 15.9533 58.1867C16.9723 56.3155 17.4308 54.1989 17.5119 52.0799C17.6902 47.4599 16.1432 43.0623 15.1173 38.6206C14.5893 36.3303 14.1262 33.9103 14.3138 31.5482C14.3948 30.5292 14.7005 29.5218 15.4369 28.7831C16.0228 28.1949 16.7917 27.8452 17.579 27.6136C19.2788 27.1134 21.0689 27.0926 22.7896 26.6966C24.6515 26.2682 26.3929 25.3789 27.8681 24.1724C29.3641 22.9473 30.5173 21.3911 31.3209 19.638C32.1291 17.8711 32.6525 15.9837 33.5256 14.2446C34.4218 12.4568 35.7441 10.9932 37.6361 10.2498C39.5281 9.50647 41.7165 9.45089 43.7382 9.8492C46.0702 10.3077 48.2609 11.2688 50.4285 12.2136C52.5799 13.1515 54.7359 14.0964 56.966 14.8305C59.1312 15.5437 61.3521 16.0208 63.6308 16.1482C65.5298 16.2524 67.4773 16.1945 69.3323 16.6762C71.1872 17.1578 72.7018 18.3088 73.3594 20.1406C74.0194 21.9747 73.8944 24.0172 73.6327 25.9138C73.3409 28.0444 72.9333 30.205 73.2738 32.354C73.4451 33.4286 73.855 34.3642 74.3992 35.2974C74.6517 35.7328 74.9064 36.189 74.9319 36.7031C74.9527 37.0968 74.8531 37.4812 74.7072 37.8448C74.1422 39.269 72.8616 40.5543 73.2576 42.2008C73.3618 42.6362 74.031 42.4509 73.9268 42.0155C73.7277 41.1888 74.1306 40.4037 74.522 39.6997C74.9133 38.9957 75.3858 38.257 75.5571 37.4442C75.7656 36.4553 75.3973 35.6309 74.9041 34.7903C74.3251 33.8084 73.9778 32.7732 73.8782 31.6362C73.5169 27.565 75.5942 23.297 73.7832 19.3671C72.0024 15.4997 67.4056 15.6503 63.7952 15.465C58.9645 15.2172 54.5668 13.2627 50.1946 11.3637C46.1883 9.62457 41.5915 7.86457 37.2795 9.64773C35.4291 10.4143 34.0443 11.7945 33.0995 13.5452C32.1477 15.3075 31.6173 17.2528 30.8068 19.0776C29.9963 20.9025 28.8407 22.498 27.2799 23.7532C25.719 25.0084 23.9011 25.8073 21.9628 26.157C20.2237 26.4696 18.3919 26.5136 16.7314 27.169C15.9649 27.4724 15.247 27.9054 14.7121 28.5423C14.0382 29.3435 13.7348 30.3277 13.6283 31.3559C13.3851 33.7088 13.846 36.1705 14.3578 38.4585C14.8696 40.7465 15.6013 43.2035 16.1247 45.6004C17.0672 49.9008 17.3729 54.7199 14.8997 58.585C13.7441 60.3913 12.1879 61.8919 10.935 63.6265C9.84892 65.1317 9.11481 66.7806 8.95734 68.6448C8.82071 70.2658 9.11018 71.9703 9.92998 73.3875C10.8262 74.9345 12.3315 75.9442 14.0845 76.2637C16.259 76.6597 18.4544 76.1618 20.6359 76.1132C21.7475 76.0877 22.8359 76.2058 23.8942 76.5555C24.9525 76.9052 25.8719 77.4077 26.7727 77.9936C28.6161 79.1886 30.2533 80.6661 32.0203 81.9652C33.859 83.3176 35.8182 84.5288 37.9672 85.3254C40.1163 86.1221 42.4066 86.4416 44.6506 86.0873C46.4222 85.8071 48.0456 85.0406 49.4443 83.9313C51.899 81.9791 53.5108 79.1724 55.1226 76.537C56.7344 73.9016 58.4018 71.1227 61.0209 69.4136C62.5702 68.4016 64.3256 67.9871 66.1365 67.7254C68.1258 67.4383 70.1984 67.2761 72.014 66.3383C75.5039 64.5343 76.4117 60.2755 76.4279 56.6698C76.4348 55.0789 76.2264 53.4833 75.9994 51.9132C75.7331 50.0745 75.3997 48.245 75.0176 46.4271C74.7119 44.9658 74.3807 43.5092 73.9731 42.0711C73.8527 41.6404 73.1811 41.8233 73.3039 42.2564L73.3108 42.254Z" fill="#D95829"/>
<path d="M70.9325 42.5851C71.7639 45.5285 72.3498 48.5645 72.7898 51.5913C73.2321 54.6388 73.4822 57.8832 72.3313 60.815C71.6875 62.4546 70.5041 63.7723 68.8483 64.423C67.1925 65.0738 65.275 65.171 63.4826 65.4744C61.9102 65.7407 60.4096 66.2247 59.0919 67.1418C57.9664 67.9245 57.0169 68.918 56.1809 69.9971C54.4163 72.2689 53.1264 74.858 51.4729 77.2062C49.8195 79.5544 47.543 81.7451 44.4862 82.2477C40.2645 82.9424 36.2837 80.7563 33.0254 78.3131C31.4506 77.1321 29.9732 75.8098 28.3035 74.7584C26.6338 73.707 24.883 73.0771 22.9308 73.0586C20.9786 73.0401 18.95 73.531 16.9677 73.2717C15.3188 73.0563 13.9247 72.174 13.1397 70.6988C12.4473 69.3927 12.2713 67.818 12.4959 66.3706C12.7645 64.6407 13.6561 63.1818 14.7376 61.834C15.9348 60.338 17.3012 58.9508 18.2228 57.2557C19.1607 55.5281 19.5845 53.5782 19.6609 51.6237C19.8254 47.3719 18.4012 43.3239 17.4563 39.2365C16.97 37.1315 16.5462 34.9083 16.7199 32.7384C16.794 31.8075 17.0719 30.8881 17.7458 30.2142C18.283 29.6769 18.9847 29.3574 19.7026 29.1443C21.2658 28.6835 22.9146 28.6649 24.4963 28.3014C26.2146 27.9054 27.8195 27.0856 29.1788 25.9717C30.5382 24.8578 31.6197 23.4081 32.3584 21.794C33.0972 20.1799 33.5835 18.4315 34.387 16.8336C35.1906 15.2357 36.418 13.8531 38.1525 13.1723C39.9287 12.4729 41.8948 12.4382 43.7521 12.8041C45.8942 13.2256 47.9066 14.1079 49.9005 14.9763C51.8944 15.8447 53.8675 16.7085 55.9216 17.387C57.9155 18.0447 59.9626 18.4847 62.0607 18.6005C63.8045 18.6978 65.5946 18.6422 67.299 19.0845C68.9873 19.5245 70.3814 20.5759 70.9835 22.2502C71.5879 23.9315 71.4744 25.8049 71.2359 27.5464C70.9673 29.5125 70.5921 31.5018 70.907 33.4864C71.0645 34.4753 71.4443 35.3414 71.9445 36.2005C72.1761 36.5965 72.4054 37.011 72.4308 37.4788C72.4494 37.8378 72.3567 38.1898 72.227 38.5209C71.7037 39.8386 70.5273 41.0197 70.8932 42.5411C70.9974 42.9765 71.6666 42.7913 71.5624 42.3559C71.3818 41.6033 71.7523 40.8877 72.1066 40.2462C72.4609 39.6047 72.9033 38.9146 73.0607 38.1643C73.2529 37.2449 72.9148 36.483 72.4563 35.7026C71.9283 34.8041 71.6087 33.8569 71.5161 32.8148C71.1826 29.0632 73.0955 25.138 71.4258 21.5138C69.7816 17.9451 65.546 18.0818 62.2136 17.9104C57.7765 17.6835 53.7355 15.8864 49.7176 14.1426C46.0239 12.5378 41.7906 10.919 37.8167 12.5609C36.1077 13.2673 34.827 14.5409 33.954 16.1597C33.0786 17.7807 32.59 19.5708 31.8443 21.2498C31.0986 22.9287 30.0403 24.3923 28.6045 25.5456C27.1687 26.6988 25.5037 27.4306 23.7252 27.7479C22.1249 28.035 20.4414 28.0744 18.9129 28.6788C18.2043 28.959 17.5374 29.3597 17.0418 29.9502C16.4165 30.6936 16.1363 31.6037 16.0367 32.5578C15.8144 34.723 16.2382 36.9925 16.7083 39.0999C17.2016 41.3022 17.8523 43.4651 18.334 45.6698C19.1978 49.6182 19.4826 54.0437 17.2085 57.5915C16.1456 59.2519 14.7121 60.6344 13.5611 62.23C12.5584 63.6195 11.8845 65.1409 11.7386 66.8592C11.6113 68.3552 11.8799 69.9277 12.6372 71.2361C13.4639 72.6649 14.8557 73.6005 16.4767 73.8946C18.4799 74.2582 20.5016 73.802 22.5094 73.758C23.5283 73.7348 24.5264 73.8437 25.499 74.1632C26.4717 74.4828 27.3123 74.946 28.1414 75.4833C29.8365 76.5809 31.3441 77.9403 32.9675 79.1352C34.5908 80.3302 36.4643 81.495 38.4443 82.2291C40.4243 82.9632 42.5363 83.2573 44.6066 82.9308C46.2393 82.6715 47.7376 81.9651 49.0275 80.9393C51.2877 79.1422 52.7721 76.5578 54.2542 74.1331C55.7363 71.7085 57.2647 69.1611 59.6708 67.5887C61.095 66.6578 62.7045 66.2803 64.3696 66.0371C66.2014 65.7708 68.1096 65.6226 69.7816 64.7588C73.0005 63.0961 73.8412 59.1685 73.8574 55.8407C73.8643 54.3748 73.6721 52.9043 73.4614 51.4569C73.2182 49.7664 72.9079 48.0828 72.5582 46.4108C72.2757 45.0677 71.9723 43.7268 71.5995 42.4045C71.479 41.9738 70.8075 42.1567 70.9302 42.5898L70.9325 42.5851Z" fill="#D95829"/>
<path d="M68.5519 42.9163C69.3092 45.6026 69.8464 48.3746 70.2471 51.1374C70.6477 53.9001 70.8769 56.869 69.8279 59.5414C69.2443 61.0258 68.1698 62.2254 66.6692 62.8136C65.1685 63.4018 63.4062 63.4968 61.7713 63.7723C60.3332 64.0155 58.9622 64.4601 57.7557 65.2984C56.7252 66.014 55.8567 66.9218 55.0902 67.9106C53.4784 69.9879 52.2974 72.35 50.7875 74.4967C49.2776 76.6435 47.2096 78.6281 44.4283 79.0843C40.5841 79.7165 36.9576 77.7203 33.9911 75.4949C32.5529 74.4157 31.2052 73.2092 29.6814 72.2504C28.1576 71.2917 26.5481 70.7104 24.7626 70.6942C22.9494 70.678 21.1292 71.1273 19.3182 70.8887C17.8222 70.6919 16.5601 69.893 15.8492 68.5544C15.2216 67.3711 15.0595 65.9399 15.2656 64.6269C15.5111 63.0521 16.3216 61.7252 17.3035 60.4978C18.3965 59.1315 19.6471 57.8624 20.49 56.3109C21.3492 54.7292 21.7382 52.9437 21.8054 51.1559C21.9559 47.2723 20.6544 43.574 19.7929 39.8386C19.3506 37.9189 18.9639 35.8925 19.1214 33.9149C19.1885 33.0742 19.441 32.2429 20.05 31.6315C20.5363 31.1452 21.1732 30.8557 21.8239 30.6635C23.2504 30.242 24.7557 30.2258 26.2007 29.8923C27.7732 29.5288 29.2437 28.7784 30.4896 27.7572C31.7471 26.7266 32.722 25.4136 33.3982 23.9384C34.0767 22.454 34.5167 20.87 35.2485 19.4088C35.9942 17.922 37.0919 16.6993 38.6666 16.0786C40.2414 15.458 42.0732 15.4094 43.7614 15.7405C45.7159 16.125 47.55 16.9285 49.3656 17.7205C51.1812 18.5125 52.9898 19.3045 54.8702 19.9229C56.6927 20.525 58.5639 20.9256 60.4837 21.0321C62.0746 21.1201 63.7049 21.0692 65.2565 21.4744C66.8081 21.8797 68.054 22.8245 68.6005 24.3437C69.1471 25.8629 69.0475 27.5789 68.8298 29.1629C68.5843 30.9622 68.2416 32.7848 68.5287 34.6003C68.6723 35.5058 69.022 36.2978 69.4805 37.0852C69.6889 37.4418 69.8974 37.8146 69.9205 38.2361C69.9391 38.5603 69.8534 38.8799 69.7353 39.1786C69.2536 40.3875 68.1814 41.4666 68.5172 42.8654C68.6214 43.3008 69.2906 43.1155 69.1864 42.6801C69.0243 42.0016 69.3601 41.3555 69.6797 40.7789C70.0155 40.1721 70.4092 39.5584 70.5527 38.8706C70.7311 38.0231 70.4231 37.3191 69.9969 36.5989C69.5176 35.7837 69.2258 34.9222 69.1424 33.9774C68.8367 30.5454 70.5828 26.9629 69.0567 23.6466C68.3828 22.1831 67.0513 21.2405 65.5252 20.826C63.9991 20.4115 62.2553 20.4277 60.6226 20.3443C56.577 20.1382 52.8925 18.4986 49.229 16.9077C45.8502 15.4395 41.9782 13.9597 38.3424 15.4626C36.7746 16.1111 35.5982 17.2782 34.7993 18.7603C34.0003 20.2424 33.5534 21.8751 32.8748 23.4058C32.1963 24.9365 31.2306 26.2704 29.9222 27.3218C28.637 28.3546 27.0993 29.0355 25.4805 29.325C24.0193 29.5866 22.4839 29.6237 21.0875 30.1749C20.4344 30.4319 19.8231 30.8001 19.3668 31.342C18.7902 32.0275 18.5308 32.8635 18.4405 33.7435C18.2367 35.7235 18.6235 37.7984 19.0565 39.7229C19.5058 41.733 20.101 43.7083 20.541 45.7208C21.3283 49.3172 21.5877 53.3466 19.5174 56.5818C18.5471 58.0986 17.2386 59.3584 16.1873 60.8151C15.2679 62.0887 14.6519 63.4829 14.5199 65.0553C14.4041 66.4239 14.6519 67.8666 15.3443 69.0662C16.1039 70.377 17.3799 71.2361 18.8666 71.5071C20.6984 71.8405 22.5464 71.4237 24.3828 71.382C25.3115 71.3612 26.2193 71.4584 27.1039 71.7502C27.9885 72.042 28.7551 72.4635 29.5077 72.9521C31.0546 73.9549 32.4302 75.1961 33.9123 76.2869C35.3944 77.3776 37.1104 78.4429 38.9191 79.1144C40.7277 79.786 42.666 80.0546 44.5603 79.7536C46.0563 79.5174 47.4296 78.8666 48.6083 77.9287C50.6717 76.2869 52.0287 73.9247 53.3835 71.7085C54.7382 69.4923 56.1254 67.1765 58.3161 65.7454C59.613 64.8978 61.0812 64.5527 62.598 64.3327C64.2746 64.0896 66.0161 63.953 67.5468 63.161C70.4948 61.6372 71.266 58.0408 71.2822 54.9932C71.2892 53.6523 71.1108 52.3092 70.9209 50.9845C70.6986 49.4399 70.4161 47.9045 70.0965 46.3784C69.8395 45.1511 69.5616 43.9283 69.2212 42.7218C69.1007 42.2911 68.4292 42.474 68.5519 42.9071V42.9163Z" fill="#D95829"/>
<path d="M66.1736 43.2475C66.8567 45.6652 67.3384 48.1593 67.6997 50.6441C68.0656 53.1521 68.274 55.8153 67.3384 58.2353C66.8173 59.5807 65.847 60.6738 64.4923 61.2087C63.1376 61.7437 61.5721 61.8247 60.1062 62.0702C58.7954 62.2879 57.5426 62.6862 56.4426 63.4458C55.514 64.0873 54.7266 64.9024 54.0342 65.7894C52.5637 67.6744 51.4914 69.8212 50.1205 71.7734C48.7056 73.7881 46.8923 75.5134 44.375 75.9279C40.9245 76.4953 37.6639 74.7075 34.9984 72.7159C33.6946 71.7409 32.4765 70.6479 31.0986 69.7748C29.7207 68.9018 28.2224 68.3506 26.5782 68.3391C24.934 68.3275 23.2458 68.7513 21.5923 68.5035C20.2561 68.3043 19.1538 67.5725 18.5331 66.3683C17.9773 65.2892 17.8477 63.9854 18.0491 62.7974C18.2923 61.3824 19.038 60.1991 19.9272 59.0967C20.923 57.8624 22.0531 56.7045 22.8011 55.2919C23.5491 53.8793 23.8965 52.2559 23.9521 50.6487C24.0748 47.1496 22.9053 43.8172 22.1272 40.4523C21.7266 38.7201 21.3792 36.8883 21.5205 35.1028C21.5807 34.3479 21.8077 33.6022 22.3542 33.0557C22.7965 32.6134 23.3778 32.3563 23.9706 32.1849C25.2675 31.8098 26.6338 31.7959 27.9422 31.4879C29.3849 31.1475 30.7281 30.4481 31.8628 29.4986C32.9976 28.5492 33.859 27.3565 34.4611 26.018C35.0632 24.6795 35.4662 23.2391 36.1378 21.9237C36.8093 20.6083 37.8074 19.5292 39.2131 18.9873C40.7022 18.4153 42.3371 18.4014 43.8841 18.7233C45.6742 19.0938 47.3508 19.8464 49.0182 20.5713C50.6439 21.2799 52.2719 21.9862 53.9601 22.5327C55.6483 23.0793 57.2925 23.4058 59.0224 23.4938C60.442 23.5656 61.8986 23.5285 63.2811 23.906C64.6637 24.2835 65.7637 25.1658 66.2314 26.5367C66.6992 27.91 66.602 29.4268 66.4051 30.8418C66.1782 32.4767 65.8725 34.1348 66.1458 35.7837C66.2801 36.5873 66.595 37.2936 67.0026 37.9929C67.1879 38.3102 67.3754 38.6437 67.3963 39.0188C67.4125 39.3106 67.3361 39.5955 67.2296 39.8641C66.7896 40.9664 65.8216 41.9414 66.1296 43.2174C66.2338 43.6527 66.903 43.4675 66.7988 43.0321C66.6576 42.4416 66.947 41.8765 67.2249 41.3694C67.5352 40.8066 67.9034 40.2393 68.0378 39.6024C68.1976 38.8475 67.9359 38.206 67.5561 37.5622C67.1253 36.8281 66.8498 36.0685 66.7687 35.2163C66.47 32.097 68.0586 28.8641 66.6992 25.8443C66.0971 24.5081 64.8952 23.6374 63.5081 23.2506C62.0978 22.8569 60.6041 22.8778 59.1544 22.8083C55.5047 22.6346 52.1885 21.2012 48.8816 19.7631C45.8039 18.4245 42.2746 17.0212 38.9445 18.3551C37.5087 18.9294 36.4203 19.9645 35.6769 21.3123C34.9336 22.6601 34.5445 24.0936 33.947 25.4692C33.3496 26.8447 32.4858 28.0953 31.3001 29.0656C30.1144 30.0359 28.7365 30.6519 27.2613 30.9205C25.9251 31.1637 24.5171 31.1915 23.2411 31.7009C22.6506 31.9348 22.0971 32.2683 21.6826 32.7569C21.1639 33.3706 20.9253 34.1186 20.8373 34.9083C20.6382 36.6984 20.9902 38.5812 21.3792 40.3226C21.7845 42.1428 22.3218 43.9306 22.7224 45.7532C23.4333 48.9767 23.6904 52.6033 21.8609 55.5212C20.9948 56.9014 19.8138 58.043 18.855 59.3538C18.0121 60.507 17.4354 61.7622 17.2942 63.1934C17.1714 64.4485 17.3868 65.7732 18.0098 66.8801C18.6906 68.0866 19.8531 68.8925 21.2125 69.1473C22.8915 69.4622 24.5866 69.0732 26.2725 69.0407C27.1039 69.0245 27.9167 69.1148 28.7064 69.3788C29.4961 69.6428 30.214 70.0365 30.8995 70.4835C32.2959 71.3959 33.5418 72.5167 34.8849 73.5033C36.2883 74.5338 37.7866 75.4508 39.4285 76.0506C41.0704 76.6504 42.798 76.8797 44.5001 76.6111C45.8618 76.3957 47.11 75.8005 48.1845 74.946C50.0603 73.4523 51.29 71.3009 52.522 69.2862C53.7262 67.3178 54.9976 65.2035 56.9776 63.9205C58.1563 63.1563 59.4902 62.8529 60.8658 62.6538C62.371 62.4384 63.9319 62.3064 65.3051 61.5978C67.9891 60.2106 68.6931 56.9292 68.7001 54.1525C68.7024 52.946 68.5426 51.7372 68.3712 50.5445C68.1698 49.1481 67.915 47.7586 67.6256 46.3761C67.3917 45.2668 67.1416 44.1599 66.8336 43.0668C66.7131 42.6361 66.0416 42.8191 66.1643 43.2521L66.1736 43.2475Z" fill="#D95829"/>
<path d="M63.7953 43.5786C64.4089 45.7531 64.842 47.9948 65.1662 50.2319C65.4904 52.4689 65.6803 54.8889 64.8096 57.0426C64.3233 58.2445 63.4363 59.187 62.2089 59.6409C60.9816 60.0948 59.5828 60.162 58.2698 60.3913C57.1211 60.5904 56.0258 60.9609 55.067 61.6348C54.231 62.2207 53.527 62.9595 52.9041 63.7654C50.4146 66.9797 48.8075 72.1439 44.1921 72.7877C41.1237 73.2161 38.2706 71.6298 35.9039 69.8536C34.7321 68.9736 33.6367 67.9894 32.3885 67.2136C31.1519 66.4447 29.811 65.9793 28.3451 65.9769C26.8793 65.9746 25.3879 66.3498 23.9266 66.1205C22.7317 65.9329 21.7637 65.266 21.2218 64.1822C20.7401 63.2188 20.6382 62.0586 20.8281 61.0096C21.0527 59.766 21.7197 58.7239 22.5047 57.7536C23.3963 56.6513 24.4037 55.6161 25.0706 54.3517C25.7376 53.0873 26.0548 51.6075 26.1012 50.1555C26.203 47.006 25.1424 44.0117 24.45 40.9803C24.098 39.4357 23.7784 37.7845 23.9336 36.1936C23.9984 35.5289 24.2207 34.8921 24.714 34.4266C25.1146 34.0468 25.638 33.8315 26.1637 33.6856C27.3262 33.3637 28.5466 33.3521 29.7184 33.0649C30.9944 32.75 32.1824 32.1224 33.1875 31.2795C34.1925 30.4365 34.9729 29.3504 35.5125 28.1462C36.0521 26.942 36.4087 25.6567 37.0155 24.4826C37.6315 23.29 38.5393 22.3382 39.8199 21.8681C41.1538 21.3795 42.6058 21.3864 43.9837 21.6852C45.5329 22.0209 46.9873 22.667 48.4346 23.2969C49.882 23.9268 51.3247 24.5544 52.823 25.0454C54.2936 25.527 55.8012 25.8443 57.3481 25.9277C58.6334 25.9972 59.951 25.9555 61.2039 26.2889C62.4567 26.6224 63.434 27.3936 63.8555 28.6186C64.2769 29.8437 64.1866 31.2216 64.0083 32.4976C63.8045 33.9565 63.5359 35.4363 63.7837 36.9068C63.9018 37.6131 64.1774 38.2407 64.5363 38.8544C64.7007 39.1369 64.8744 39.431 64.8999 39.7645C64.9184 40.0216 64.8513 40.274 64.7586 40.5102C64.3626 41.5153 63.4919 42.3814 63.7675 43.5439C63.8717 43.9793 64.5409 43.794 64.4367 43.3586C64.3094 42.8214 64.5849 42.3119 64.8374 41.8557C65.1129 41.3578 65.4395 40.8483 65.5506 40.2809C65.6849 39.5839 65.4348 39.0142 65.0875 38.4237C64.6961 37.7567 64.4645 37.062 64.402 36.2885C64.175 33.5073 65.5715 30.6102 64.3186 27.9239C63.0658 25.2376 59.9233 25.3649 57.4338 25.2353C54.1731 25.0662 51.202 23.7416 48.2494 22.4609C45.5283 21.2799 42.4066 20.0826 39.4702 21.259C38.1873 21.7732 37.2077 22.6972 36.5407 23.9014C35.8738 25.1056 35.5218 26.3955 34.9868 27.6321C34.4473 28.8803 33.6877 29.9734 32.6317 30.8418C31.5757 31.7102 30.3553 32.2567 29.0422 32.4976C27.8449 32.7176 26.5828 32.743 25.4388 33.1946C24.9039 33.4054 24.399 33.7041 24.0239 34.1487C23.5538 34.7045 23.3338 35.3784 23.255 36.094C23.0744 37.6988 23.3894 39.3894 23.7367 40.9525C24.0841 42.5157 24.582 44.19 24.9433 45.8249C25.5801 48.7197 25.8001 51.9664 24.142 54.574C23.3593 55.8037 22.2986 56.8273 21.4464 58.006C20.7007 59.0365 20.2005 60.1597 20.0824 61.4334C19.9782 62.5519 20.1727 63.7329 20.7285 64.7171C21.3306 65.7894 22.3588 66.5119 23.563 66.7527C25.0521 67.0492 26.5597 66.7134 28.0557 66.6717C28.806 66.6508 29.5401 66.7203 30.2557 66.9496C30.9713 67.1788 31.5942 67.5193 32.2056 67.9129C33.47 68.7281 34.5931 69.7424 35.8043 70.634C37.0155 71.5256 38.3934 72.3778 39.8593 72.922C41.3252 73.4662 42.8605 73.6816 44.382 73.4569C45.614 73.274 46.7464 72.7576 47.7214 71.991C49.4096 70.6664 50.5211 68.7513 51.6235 66.9473C52.7003 65.1873 53.8281 63.2837 55.5881 62.1212C56.6348 61.4287 57.8182 61.1462 59.0479 60.9679C60.4026 60.771 61.8037 60.6599 63.0449 60.0323C65.4835 58.8026 66.1273 55.8569 66.1435 53.3513C66.1504 52.2744 66.0068 51.1929 65.854 50.1277C65.6757 48.8748 65.4464 47.6289 65.187 46.39C64.9763 45.3849 64.7494 44.3822 64.4715 43.3957C64.351 42.9649 63.6795 43.1479 63.8022 43.5809L63.7953 43.5786Z" fill="#D95829"/>
<path d="M61.417 43.9098C61.9565 45.8249 62.3386 47.798 62.6258 49.7664C62.913 51.7348 63.082 53.8746 62.3085 55.7712C61.8847 56.8064 61.1205 57.6262 60.0622 58.0222C58.9367 58.4437 57.7163 58.4877 56.5445 58.6938C55.5325 58.8721 54.5669 59.2032 53.7216 59.8007C52.9898 60.3171 52.3738 60.9632 51.825 61.6672C49.6389 64.4832 48.2332 69.0106 44.206 69.615C41.4687 70.0249 38.9144 68.5776 36.8094 66.9889C35.7974 66.2247 34.8433 65.3725 33.7618 64.7009C32.6803 64.0294 31.4692 63.6102 30.1677 63.6148C28.8662 63.6195 27.5879 63.9414 26.3119 63.7445C25.2582 63.5824 24.4106 62.9965 23.9359 62.0401C23.5098 61.1786 23.4311 60.1365 23.6163 59.2009C23.8363 58.087 24.4662 57.1653 25.1772 56.3016C25.9807 55.3243 26.87 54.3887 27.4327 53.2424C27.9909 52.0984 28.2317 50.834 28.2572 49.5672C28.3127 46.8022 27.3772 44.1784 26.7774 41.5176C26.4763 40.179 26.2054 38.7479 26.3443 37.3723C26.4022 36.8049 26.5967 36.2584 27.0159 35.8601C27.3679 35.5266 27.8264 35.339 28.2873 35.214C29.3247 34.9291 30.4132 34.9222 31.4553 34.6582C32.5692 34.3757 33.602 33.8268 34.482 33.0904C35.362 32.354 36.0776 31.3698 36.5546 30.2952C37.0317 29.2207 37.3374 28.1277 37.8631 27.1018C38.398 26.0597 39.1807 25.219 40.2946 24.8022C41.478 24.3599 42.7679 24.3691 43.9906 24.6355C45.3477 24.9319 46.6237 25.4969 47.8904 26.0504C49.1572 26.6039 50.4818 27.1805 51.8273 27.6159C53.1149 28.0327 54.4325 28.3037 55.785 28.3778C56.9035 28.438 58.0498 28.4056 59.1429 28.6904C60.2359 28.9752 61.1159 29.663 61.4818 30.7538C61.8477 31.8445 61.7597 33.014 61.6069 34.1209C61.4262 35.4178 61.1877 36.7331 61.41 38.0416C61.5212 38.6877 61.7805 39.2481 62.1071 39.8108C62.3896 40.3041 62.4683 40.7163 62.2437 41.2466C61.8755 42.1127 61.1576 42.8746 61.3938 43.8843C61.4957 44.3197 62.165 44.1344 62.0631 43.699C61.9496 43.2173 62.2159 42.7588 62.4429 42.3536C62.6814 41.9251 62.9546 41.4851 63.0473 40.9965C63.1654 40.3782 62.9431 39.8618 62.6327 39.3361C62.2923 38.7548 62.0862 38.1435 62.033 37.4696C61.8338 35.0032 63.0727 32.4327 61.945 30.0567C60.8473 27.7409 58.1007 27.7965 55.9146 27.69C53.0338 27.5487 50.4123 26.3931 47.8047 25.2607C45.3917 24.2117 42.6382 23.1441 40.0283 24.1653C38.8866 24.6123 38.0043 25.4228 37.4045 26.4881C36.8047 27.5533 36.4944 28.6904 36.0266 29.7835C35.5589 30.8765 34.9058 31.8352 33.9911 32.5995C33.0763 33.3637 31.9532 33.8801 30.7744 34.0955C29.7184 34.2877 28.6068 34.3108 27.5995 34.7115C26.4833 35.1561 25.8117 36.0338 25.6635 37.231C25.4921 38.6182 25.7538 40.0841 26.0479 41.4388C26.3582 42.87 26.7797 44.2757 27.1039 45.7045C27.6828 48.2565 27.9399 51.1512 26.5064 53.4786C25.821 54.5902 24.8715 55.5049 24.1026 56.554C23.4403 57.4571 22.9887 58.4367 22.8637 59.5552C22.6275 61.6696 23.6812 63.8997 25.8951 64.3721C27.2104 64.6523 28.549 64.3605 29.8713 64.3165C30.522 64.2957 31.1589 64.3443 31.7864 64.5365C32.414 64.7287 32.9883 65.0321 33.5348 65.3818C34.6534 66.095 35.6422 66.9889 36.7075 67.7763C37.8237 68.6007 39.014 69.3348 40.3201 69.8211C41.5961 70.2982 42.9925 70.4973 44.345 70.2959C45.4403 70.1338 46.4454 69.6706 47.3138 68.9875C48.7959 67.8203 49.7732 66.1413 50.7435 64.555C51.6999 62.9919 52.698 61.2967 54.2681 60.2731C56.2481 58.9832 58.7469 59.495 60.8125 58.4529C62.9824 57.3599 63.5591 54.7338 63.566 52.5037C63.5683 51.5542 63.4433 50.6047 63.309 49.6668C63.1515 48.5668 62.9523 47.4738 62.7231 46.3853C62.5378 45.4938 62.3363 44.6068 62.0885 43.7291C61.9681 43.2984 61.2965 43.4813 61.4193 43.9144L61.417 43.9098Z" fill="#D95829"/>
<path d="M59.0386 44.241C59.5064 45.8991 59.8376 47.6081 60.0854 49.3125C60.3331 51.017 60.479 52.8626 59.8075 54.4976C59.4346 55.4077 58.7515 56.1071 57.8182 56.4359C56.8849 56.7648 55.8035 56.8157 54.7961 56.9987C53.9138 57.1584 53.0755 57.4595 52.3437 57.9875C51.6999 58.453 51.1626 59.0273 50.6809 59.6549C48.8144 62.0888 47.5731 66.021 44.0694 66.461C41.7003 66.7574 39.5304 65.4999 37.7171 64.1197C35.9988 62.8113 34.3685 61.2597 32.0713 61.2481C30.9411 61.2412 29.7925 61.5376 28.6647 61.3593C27.7616 61.2157 27.0414 60.7062 26.6407 59.8818C26.2818 59.1408 26.2239 58.2445 26.3883 57.4456C26.5875 56.4845 27.1433 55.6902 27.7593 54.9445C28.4332 54.1271 29.1765 53.3397 29.6559 52.3833C30.1353 51.4269 30.3668 50.3106 30.4016 49.2176C30.4734 46.8092 29.6628 44.5189 29.1348 42.2031C28.8685 41.0405 28.6346 39.8062 28.7435 38.609C28.7875 38.1111 28.9519 37.6294 29.3224 37.282C29.6212 36.9995 30.0148 36.8443 30.4062 36.7378C31.2885 36.497 32.2148 36.4854 33.1018 36.2677C34.0837 36.0269 34.9938 35.5452 35.7696 34.8991C36.5454 34.253 37.1336 33.4494 37.5481 32.5439C37.9626 31.6384 38.2405 30.6403 38.6967 29.7372C39.1529 28.834 39.8129 28.0976 40.7717 27.7317C41.7304 27.3658 42.8628 27.3426 43.8957 27.558C45.0976 27.8081 46.2277 28.3083 47.3485 28.797C48.4694 29.2856 49.5462 29.7534 50.6833 30.1285C51.8203 30.5037 52.962 30.7469 54.1454 30.814C55.1157 30.8696 56.1068 30.8349 57.0563 31.0734C58.0058 31.3119 58.7607 31.87 59.0826 32.7963C59.4045 33.7226 59.3397 34.7671 59.2054 35.7328C59.0502 36.8559 58.8464 37.986 59.0294 39.1184C59.1174 39.665 59.3258 40.1582 59.6037 40.633C59.8654 41.0822 59.9603 41.4389 59.7473 41.9252C59.4161 42.6801 58.8186 43.3355 59.0201 44.2178C59.1197 44.6532 59.7889 44.4679 59.6894 44.0325C59.5944 43.6203 59.8329 43.2267 60.0251 42.8793C60.2359 42.5018 60.4721 42.1128 60.5462 41.6797C60.6388 41.1448 60.442 40.6978 60.178 40.2416C59.8793 39.7275 59.7033 39.1902 59.6593 38.5928C59.5064 36.4553 60.5647 34.2344 59.5689 32.178C58.5917 30.1586 56.1856 30.2212 54.2704 30.1239C51.7809 29.9965 49.5115 28.9822 47.2582 28.005C45.1578 27.0949 42.7656 26.1871 40.5007 27.0925C39.5281 27.4816 38.7731 28.1763 38.2567 29.0818C37.7403 29.9873 37.4578 30.997 37.0525 31.9511C36.2304 33.8871 34.5978 35.3043 32.5066 35.6818C31.5896 35.8462 30.6262 35.8694 29.7532 36.2214C28.7875 36.6104 28.2016 37.3816 28.0696 38.4168C27.9167 39.621 28.1414 40.8923 28.3938 42.0688C28.6694 43.3494 29.0491 44.6045 29.334 45.8829C29.8273 48.0898 30.0172 50.5746 28.7527 52.5685C28.1576 53.5088 27.347 54.2892 26.6963 55.1877C26.1266 55.9728 25.7445 56.8273 25.6403 57.7976C25.4435 59.6248 26.3513 61.5445 28.2479 61.9845C29.378 62.2462 30.5336 61.9984 31.6729 61.9521C32.8123 61.9058 33.8729 62.2115 34.8664 62.8391C35.8367 63.4528 36.6913 64.2239 37.6106 64.9071C38.53 65.5902 39.5744 66.2433 40.686 66.674C42.6984 67.4544 45.0281 67.4104 46.7881 66.0673C48.115 65.0553 48.9858 63.5894 49.8426 62.186C50.6647 60.8405 51.5193 59.3723 52.8601 58.4761C54.583 57.3252 56.7645 57.7768 58.5708 56.869C60.4628 55.9195 60.9746 53.6477 60.9885 51.7024C60.9955 50.8826 60.8866 50.0605 60.7731 49.25C60.6365 48.282 60.4605 47.3186 60.259 46.3599C60.0969 45.5888 59.9233 44.8176 59.7079 44.058C59.5875 43.6273 58.9159 43.8102 59.0386 44.2433V44.241Z" fill="#D95829"/>
<path d="M56.658 44.5721C57.0517 45.9709 57.3319 47.4113 57.5403 48.8494C57.7487 50.2875 57.8715 51.8136 57.3203 53.1846C57.0146 53.9465 56.4496 54.5393 55.6692 54.8172C54.8471 55.109 53.9647 55.1414 53.1125 55.2943C51.6744 55.5536 50.5652 56.3248 49.6759 57.4641C48.0826 59.5044 47.0544 62.8437 44.1319 63.286C42.1519 63.5848 40.3016 62.5311 38.7824 61.3825C37.3165 60.2778 35.934 58.9277 33.9841 58.8884C32.4047 58.8559 30.2696 59.5761 29.3757 57.7907C29.07 57.1793 29.0144 56.4313 29.1464 55.769C29.3108 54.9492 29.7809 54.273 30.3066 53.6385C30.8856 52.9391 31.5201 52.2652 31.9231 51.4431C32.3399 50.5978 32.5228 49.6623 32.5483 48.7244C32.5969 46.7235 31.9369 44.8176 31.49 42.8932C31.2607 41.9044 31.0639 40.8646 31.138 39.8456C31.1704 39.4172 31.3001 39.0004 31.622 38.7016C31.8791 38.4631 32.2195 38.3357 32.5529 38.2477C33.3125 38.0486 34.1068 38.0416 34.8664 37.8425C35.6816 37.6271 36.4388 37.2195 37.0826 36.6799C37.7264 36.1404 38.2336 35.4503 38.5833 34.6837C38.9329 33.9172 39.1622 33.102 39.5351 32.3471C39.9079 31.5921 40.4452 30.9761 41.2372 30.6566C42.0778 30.3208 43.0157 30.3138 43.8934 30.4968C44.9031 30.7075 45.8525 31.129 46.7951 31.5389C47.7376 31.9488 48.6616 32.3517 49.6273 32.669C50.5929 32.9863 51.5401 33.1877 52.5313 33.2479C53.3487 33.2966 54.1871 33.2641 54.9883 33.461C55.7896 33.6578 56.4334 34.1233 56.702 34.9153C56.9706 35.7073 56.9012 36.6105 56.7831 37.4395C56.6487 38.382 56.4889 39.3361 56.658 40.2856C56.7367 40.7372 56.9174 41.1401 57.1443 41.5338C57.3713 41.9275 57.4292 42.21 57.2369 42.6199C56.9405 43.2498 56.4751 43.8056 56.6418 44.5444C56.7391 44.9797 57.4083 44.7968 57.3111 44.3591C57.2369 44.0256 57.4315 43.7084 57.5889 43.4281C57.7673 43.1086 57.9687 42.7797 58.0359 42.4138C58.1193 41.9576 57.9734 41.5709 57.7464 41.1795C57.4871 40.7303 57.3249 40.2764 57.2902 39.7576C57.1652 37.9374 58.066 36.0408 57.1953 34.2947C56.35 32.6018 54.3306 32.6412 52.7073 32.5601C50.5953 32.4536 48.6755 31.5968 46.7649 30.7677C44.9934 30.0012 42.974 29.237 41.0612 29.9827C40.2136 30.3138 39.5536 30.9044 39.102 31.6917C38.6504 32.4791 38.4281 33.2896 38.0946 34.0886C37.4115 35.7281 36.0475 36.9347 34.2782 37.2566C33.4862 37.4001 32.6572 37.4187 31.9045 37.729C31.0894 38.0648 30.5892 38.7248 30.4757 39.6001C30.3414 40.6237 30.5313 41.7052 30.7443 42.7033C30.9689 43.7593 31.2816 44.7945 31.5224 45.8481C31.9578 47.7564 32.1407 49.9008 31.0245 51.6214C30.5104 52.4134 29.8249 53.0734 29.2784 53.8399C28.7991 54.5115 28.4887 55.2479 28.4146 56.0747C28.2711 57.6332 29.0677 59.2473 30.6818 59.6109C31.6452 59.8286 32.6271 59.6178 33.5974 59.5808C34.5677 59.5437 35.4477 59.8124 36.2837 60.345C37.1197 60.8776 37.826 61.5214 38.6041 62.0957C39.4239 62.7001 40.2946 63.2351 41.2487 63.5964C42.9694 64.2448 44.9332 64.1707 46.4222 63.0244C47.5338 62.1675 48.2679 60.9309 48.9881 59.7521C49.7083 58.5734 50.4193 57.346 51.5748 56.598C53.0407 55.6486 54.9073 56.0469 56.4241 55.2364C57.9409 54.4258 58.4041 52.5014 58.4203 50.8711C58.4365 49.3612 58.1123 47.8166 57.8043 46.3437C57.6677 45.686 57.5172 45.0284 57.3365 44.3799C57.2161 43.9492 56.5445 44.1321 56.6673 44.5652L56.658 44.5721Z" fill="#D95829"/>
<path d="M54.2797 44.9033C54.6039 46.0543 54.8332 47.2399 55.0045 48.4233C55.1759 49.6067 55.2685 50.8132 54.8216 51.9109C54.5645 52.5408 54.0944 53.0086 53.4437 53.2239C52.7929 53.4393 52.1028 53.4671 51.4336 53.5875C50.2525 53.8006 49.3308 54.4305 48.5991 55.366C47.3138 57.0056 46.4801 59.7174 44.1458 60.1111C42.5317 60.382 41.0102 59.5113 39.7689 58.578C38.5555 57.6633 37.4161 56.554 35.802 56.5239C34.5445 56.5008 32.8146 57.0844 32.0967 55.6648C31.8513 55.1785 31.8073 54.581 31.9115 54.0507C32.0435 53.386 32.4279 52.8418 32.8517 52.3277C33.3311 51.7488 33.8591 51.186 34.1879 50.5029C34.5167 49.8197 34.6603 49.1111 34.6881 48.377C34.7553 46.7143 34.2041 45.1279 33.8313 43.53C33.646 42.7357 33.4885 41.9067 33.5348 41.0869C33.5765 40.3528 33.9818 39.9498 34.6673 39.7738C35.2879 39.614 35.9363 39.6094 36.5546 39.4427C37.21 39.269 37.8144 38.9425 38.3378 38.514C38.8612 38.0856 39.3127 37.4928 39.6068 36.8559C39.9009 36.2191 40.0723 35.5938 40.3641 34.9871C40.6721 34.3479 41.1144 33.8176 41.7906 33.5559C42.4668 33.2943 43.2704 33.3012 43.9976 33.4679C45.6094 33.8362 47.0591 34.73 48.6268 35.2372C49.4026 35.4873 50.1969 35.6517 51.0121 35.698C51.6652 35.7351 52.3344 35.7119 52.9736 35.8717C53.6127 36.0315 54.1407 36.4368 54.3399 37.0991C54.5391 37.7614 54.458 38.4816 54.3607 39.1578C54.2542 39.9058 54.1407 40.6631 54.2774 41.4157C54.3422 41.777 54.4858 42.1058 54.6711 42.4208C54.8563 42.7357 54.9026 42.9488 54.7475 43.2776C54.4974 43.8079 54.1292 44.2618 54.2635 44.8825C54.3584 45.3202 55.0277 45.1349 54.9327 44.6972C54.8772 44.4332 55.0439 44.1785 55.1666 43.9585C55.3241 43.6783 55.4862 43.3911 55.5325 43.0692C55.5835 42.7149 55.4654 42.4115 55.2917 42.1082C55.0786 41.7353 54.9397 41.3717 54.9119 40.9364C54.8146 39.4357 55.5487 37.8842 54.8216 36.446C54.1292 35.0751 52.5104 35.0705 51.1835 35.0079C49.4281 34.9269 47.8464 34.2275 46.2578 33.5397C44.7826 32.9006 43.1106 32.2823 41.522 32.9145C40.8597 33.1785 40.3317 33.6439 39.9635 34.2553C39.5953 34.8667 39.3845 35.5915 39.1066 36.2631C38.53 37.6595 37.3837 38.6252 35.8807 38.8707C35.2369 38.9749 34.5723 39.0073 33.9702 39.2783C33.3681 39.5492 32.9582 40.1143 32.8633 40.7974C32.7452 41.6519 32.9049 42.5574 33.0856 43.3934C33.2755 44.2804 33.5395 45.1488 33.7363 46.0334C34.086 47.6035 34.1948 49.3334 33.2454 50.7229C32.8193 51.3482 32.2681 51.8785 31.8374 52.5014C31.4529 53.0595 31.2144 53.6778 31.1658 54.3587C31.0755 55.6486 31.7609 56.957 33.0925 57.2465C33.8915 57.4201 34.6951 57.2465 35.4986 57.2187C36.3022 57.1909 36.9715 57.4109 37.6361 57.837C38.3007 58.2631 38.9214 58.8189 39.5721 59.2983C40.2576 59.8008 40.9871 60.2431 41.7883 60.5326C43.2148 61.0467 44.8151 60.9471 46.0308 59.9953C46.9271 59.2936 47.5222 58.2886 48.1058 57.3322C48.6894 56.3757 49.2799 55.3545 50.2363 54.7524C51.4289 53.9997 52.9458 54.3216 54.1732 53.6593C55.4005 52.997 55.8104 51.4037 55.8266 50.0536C55.8405 48.8031 55.5719 47.5225 55.3172 46.3044C55.206 45.7717 55.0856 45.2414 54.9374 44.718C54.8169 44.2873 54.1454 44.4703 54.2681 44.9033H54.2797Z" fill="#D95829"/>
</g>
<defs>
<clipPath id="clip0_23_1662">
<rect width="95.7509" height="83.5606" fill="white" transform="matrix(0 1 -1 0 84.1579 0)"/>
</clipPath>
</defs>
</svg>
