<?xml version="1.0" encoding="UTF-8"?>
<svg id="Layer_2" data-name="Layer 2" xmlns="http://www.w3.org/2000/svg" viewBox="0 0 719.53 663.47">
  <defs>
    <style>
      .cls-1 {
        fill: #7ac943;
        stroke-width: 0px;
      }
    </style>
  </defs>
  <g id="Layer_1-2" data-name="Layer 1">
    <g>
      <path class="cls-1" d="M194.34,263.1c-7.39-48.62-2.56-99.83,17.73-144.92,18.68-41.51,50.79-76.38,91.61-96.86,19.79-9.93,41.47-16.28,63.58-17.87s48.59,1.57,66.23,18.04c14.48,13.52,20.58,32.84,24.12,51.79,3.77,20.2,4.99,40.82,9.55,60.88,4.54,19.96,13.44,41.65,33.46,50.39,20.65,9.01,43.58,2.23,65.18,3.44,37.24,2.07,73.78,20.84,102.25,44.07,13.71,11.18,26.36,24.13,35.8,39.17,7.71,12.29,13.64,26.69,12.56,41.47-1.09,14.93-8.89,30.78-19.15,41.54-9.77,10.25-22.68,16.44-36.3,19.79-29.86,7.35-61.56,3.45-91.89,2.12-14.28-.63-28.71-1.03-42.92.84-7.11.93-14.12,2.5-20.84,5.03-10.08,3.79-16.91,10.69-19.09,21.41-4.21,20.78,4.71,43.39,14.83,61.13,11.25,19.72,25.99,37.12,39.18,55.51,12,16.72,21.55,34.84,25.95,55.09,4.01,18.47,3.68,39.28-7.33,55.4-13.59,19.89-38.33,24.09-60.52,27.2-24.27,3.4-50.27,5.46-71.92-8.23-15.33-9.7-26.17-24.86-35.95-39.79-9.94-15.19-19.12-31.11-31.4-44.6-13.14-14.43-29.92-24.43-49.51-26.84-22.99-2.83-46.09,4.46-66.67,14.13-44.59,20.96-81.92,59.32-132.15,67.25-23.08,3.64-46.64-1.93-64.34-17.5-15.53-13.66-25.45-32.65-31.84-52.06-7.59-23.08-10.6-47.64-11.38-71.84-.9-27.64,1.71-55.38,7.82-82.36,5.25-23.19,13.64-45.82,34.23-59.53,17.06-11.36,37.97-15.12,58.08-16.42,10.37-.67,20.76-.68,31.14-.47,9.77.2,20.02,1.56,29.73.22,13.98-1.93,23.9-11.39,28.04-24.66,3.14-10.05,3.43-21.17,1.79-31.53-.3-1.9-3.19-1.09-2.89.8,1.79,11.21,1.2,23.84-3.41,34.32-2.8,6.36-7.34,11.79-13.58,14.98-8.55,4.36-18.08,3.5-27.35,3.21-38.25-1.22-85.67-3.11-114.71,26.59-17.44,17.83-23,43.9-27.14,67.65-4.75,27.29-6.07,55.16-3.85,82.77,3.28,40.8,13.65,88.68,48.42,114.67,18.03,13.48,40.66,17.56,62.64,13.97,24.62-4.02,47.43-16.05,68.44-28.99,21.56-13.28,41.89-28.29,64.96-38.98,21.94-10.17,47.15-17.48,71.35-11.91,40.53,9.33,57.26,50.45,79.43,80.92,10.17,13.97,22.38,26.95,38.56,33.81,23.31,9.9,50.06,5.76,74.25,1.83,21.19-3.44,42.77-10.53,54.23-30.07,9.46-16.13,9.66-35.92,5.95-53.78-4.21-20.24-13.57-38.66-25.48-55.4-13.34-18.75-28.39-36.39-39.89-56.4-5.69-9.9-10.43-20.4-13.14-31.52s-4.46-24.41.7-34.97c4.86-9.94,16.28-13.35,26.35-15.57,6.68-1.47,13.51-2.17,20.33-2.52,31.12-1.57,62.2,3.34,93.34,1.97,28.42-1.25,58.15-8.47,75-33.39,8.22-12.15,14.12-27.8,12.87-42.63s-8.21-28.85-16.73-40.89c-21.39-30.23-54-53.31-88.02-67.22-16.5-6.75-34.19-11.46-52.09-11.92-23.11-.58-50.25,7.35-70.04-8.71-17.43-14.14-22.28-38.57-25.55-59.58-3.17-20.38-4.52-41.26-10.43-61.12-5.58-18.74-16.18-35.78-33.72-45.38C402.95-.79,378.8-1.46,356.89,1.53c-43.84,5.98-84.27,29.66-113.5,62.51-31.67,35.58-49.16,81.74-53.92,128.79-2.4,23.67-1.58,47.56,1.99,71.06.29,1.9,3.18,1.09,2.89-.8h0Z"/>
      <path class="cls-1" d="M204.68,267.93c-7.02-45.5-2.61-93.46,16.29-135.72,17.4-38.91,47.4-71.63,85.58-90.9,18.65-9.41,39.11-15.43,59.98-16.9s45.1,1.51,61.51,16.77c13.58,12.62,19.33,30.69,22.68,48.42,3.58,18.91,4.76,38.23,9.08,57.01,4.3,18.71,12.7,39.05,31.5,47.19,19.51,8.45,41.12,1.96,61.5,3.12,34.87,1.98,69.09,19.54,95.76,41.29,12.82,10.45,24.66,22.56,33.46,36.64,7.13,11.41,12.61,24.75,11.64,38.45-1,14.04-8.32,28.95-17.97,39.05-9.12,9.55-21.17,15.31-33.86,18.46-27.75,6.88-57.23,3.37-85.44,2.18-13.46-.57-27.07-.93-40.47.82-6.4.84-12.68,2.24-18.76,4.41-9.7,3.47-16.61,9.72-18.83,20.04-4.18,19.42,4.21,40.75,13.67,57.35,10.52,18.48,24.36,34.76,36.77,51.94,11.4,15.77,20.52,32.81,24.72,51.95,3.76,17.13,3.55,36.44-6.51,51.5-12.51,18.72-35.48,22.86-56.22,25.82-22.72,3.25-47.17,5.43-67.56-7.25-14.54-9.04-24.81-23.31-34.07-37.38s-17.85-28.87-29.25-41.42c-12.26-13.51-27.94-23-46.26-25.31-21.75-2.73-43.54,4.13-62.99,13.33-41.71,19.73-76.6,55.74-123.63,63.27-21.4,3.43-43.33-1.6-59.88-15.93-14.75-12.77-24.19-30.65-30.25-48.95-7.09-21.39-9.96-44.16-10.79-66.61-.95-25.88,1.37-51.87,6.98-77.15,4.86-21.91,12.6-43.4,32.03-56.4,15.94-10.67,35.5-14.24,54.32-15.49,9.71-.65,19.45-.68,29.17-.51,9.16.17,18.76,1.41,27.86.14,13.13-1.83,22.44-10.76,26.3-23.22,2.92-9.44,3.18-19.87,1.61-29.59-.31-1.9-3.2-1.09-2.89.8,1.69,10.48,1.17,22.27-3.11,32.08-2.6,5.95-6.83,11.04-12.66,14.03-7.98,4.1-16.9,3.31-25.57,3.05-35.98-1.07-80.68-2.73-107.78,25.5-16.07,16.74-21.18,41.02-24.99,63.14-4.4,25.58-5.58,51.7-3.44,77.57,3.17,38.39,13.08,83.44,46.01,107.66,38.6,28.4,86.6,7.61,122.49-14.62,20.16-12.49,39.18-26.59,60.77-36.66,20.67-9.63,44.44-16.55,67.25-11.18,37.78,8.88,53.42,47.44,74.25,75.81,9.61,13.08,21.14,25.12,36.38,31.46,21.91,9.11,47.11,5.09,69.77,1.31,19.84-3.31,39.91-10.19,50.46-28.6,8.64-15.09,8.76-33.5,5.27-50.1-3.99-18.96-12.79-36.2-23.99-51.86-12.63-17.68-26.91-34.29-37.74-53.19-5.31-9.27-9.73-19.1-12.23-29.52-2.47-10.26-4.11-22.86.9-32.64,4.65-9.06,15.34-12.18,24.64-14.22,6.24-1.37,12.61-2.03,18.99-2.36,29.19-1.5,58.34,3.04,87.54,1.64,26.45-1.27,54.06-8.1,69.78-31.25,7.71-11.36,13.27-26.04,12.15-39.92s-7.61-27.02-15.57-38.31c-20.01-28.34-50.6-49.95-82.47-62.98-15.6-6.38-32.33-10.83-49.25-11.22-21.64-.5-46.99,6.98-65.56-7.98-16.35-13.17-20.94-36.07-24.04-55.72s-4.3-38.33-9.77-56.8c-5.2-17.55-15.03-33.58-31.39-42.67-18.61-10.35-41.34-10.97-61.96-8.16-41.01,5.58-78.85,27.77-106.21,58.48-29.81,33.47-46.22,76.92-50.61,121.21-2.2,22.19-1.38,44.57,2.02,66.59.29,1.9,3.18,1.09,2.89-.8h0Z"/>
      <path class="cls-1" d="M215.02,272.76c-6.65-42.38-2.66-87.09,14.85-126.51,16.13-36.31,44-66.88,79.54-84.93,17.35-8.81,36.4-14.47,55.84-15.89,20.16-1.47,42.3,1.34,57.63,15.73,12.59,11.82,17.89,28.69,21.02,45.19,3.34,17.63,4.5,35.64,8.62,53.14,4.13,17.54,12.18,36.33,29.89,43.76,18.21,7.64,38.32,1.49,57.27,2.59,32.38,1.88,64.16,18.08,88.99,38.22,11.93,9.68,22.96,20.89,31.19,33.93,6.72,10.65,11.9,23.11,11.02,35.93-.9,13.05-7.68,26.94-16.63,36.36-8.4,8.84-19.49,14.23-31.19,17.2-25.93,6.58-53.54,3.36-79.93,2.31-12.56-.5-25.24-.8-37.73.86-5.97.79-11.83,2.11-17.51,4.16-9.08,3.27-15.53,9.13-17.58,18.8-3.86,18.15,4.02,38.04,12.89,53.52,9.85,17.2,22.79,32.35,34.41,48.34,10.66,14.67,19.21,30.53,23.17,48.36,3.57,16.07,3.38,34.19-6.14,48.28-11.76,17.39-33.31,21.13-52.63,23.93-20.96,3.04-43.5,4.99-62.34-6.63-13.49-8.32-23.07-21.47-31.68-34.47-8.72-13.17-16.76-26.96-27.43-38.7-11.4-12.54-25.93-21.4-42.94-23.62-20.27-2.65-40.61,3.73-58.75,12.3-38.92,18.4-71.31,52.06-115.08,59.43-20.07,3.38-40.69-1.19-56.27-14.6-13.66-11.76-22.46-28.23-28.16-45.1-6.71-19.86-9.47-41.02-10.34-61.9-1.01-24.32,1.08-48.75,6.29-72.53,4.47-20.41,11.62-40.46,29.68-52.61,14.69-9.89,32.73-13.29,50.11-14.54,9.2-.66,18.43-.72,27.65-.58,8.55.13,17.51,1.26,25.99.06,12.28-1.74,20.97-10.12,24.55-21.79,2.71-8.83,2.92-18.58,1.43-27.65-.31-1.9-3.2-1.09-2.89.8,1.6,9.74,1.14,20.71-2.81,29.85-2.4,5.54-6.32,10.28-11.73,13.08-7.42,3.83-15.72,3.11-23.78,2.9-33.6-.91-75.27-2.33-100.52,24.07-15.09,15.79-19.79,38.74-23.27,59.57-3.99,23.88-4.98,48.25-2.87,72.37,3.13,35.76,12.6,77.72,43.5,100.03,36.26,26.18,80.99,6.42,114.4-14.47,18.76-11.72,36.46-24.88,56.6-34.27s41.39-15.36,62.59-10.24c34.87,8.41,49.47,44,68.82,70.25,9.02,12.24,19.84,23.49,34.14,29.39,20.33,8.4,43.61,4.65,64.61,1.14,18.54-3.1,37.4-9.42,47.36-26.58,8.22-14.17,8.33-31.52,4.99-47.14-3.77-17.68-12.02-33.74-22.51-48.33-11.82-16.45-25.17-31.91-35.32-49.51-4.97-8.63-9.11-17.77-11.47-27.47-2.32-9.54-3.88-21.25.75-30.36,4.3-8.44,14.24-11.36,22.88-13.28,5.81-1.29,11.74-1.92,17.67-2.24,27.21-1.47,54.41,2.7,81.63,1.32,24.81-1.26,50.68-7.77,65.26-29.62,7.11-10.65,12.19-24.33,11.05-37.28s-7.22-25.13-14.69-35.61c-18.71-26.29-47.18-46.31-76.85-58.38-14.53-5.91-30.08-10.04-45.83-10.41-20.05-.48-43.37,6.55-60.83-6.8-15.63-11.95-20.08-33.53-23.05-51.86s-4.13-36.03-9.32-53.38c-4.85-16.21-13.92-31.04-28.98-39.54-17.32-9.77-38.59-10.4-57.84-7.78-38.42,5.23-73.85,26.03-99.41,54.88-27.74,31.31-42.93,71.87-46.93,113.21-2,20.7-1.18,41.58,2.05,62.12.3,1.9,3.19,1.09,2.89-.8h0Z"/>
      <path class="cls-1" d="M225.37,277.59c-6.31-39.42-2.68-81.06,13.6-117.75,14.86-33.5,40.52-61.72,73.24-78.49,15.95-8.17,33.46-13.47,51.36-14.89,18.51-1.47,38.95.89,53.26,13.84,11.98,10.84,17.08,26.53,20.09,41.94,3.19,16.34,4.31,33.04,8.13,49.27,3.87,16.42,11.38,34.04,27.99,40.97s35.35,1.35,52.85,2.24c30.01,1.54,59.53,16.41,82.62,34.95,11.2,8.99,21.57,19.43,29.3,31.6,6.25,9.84,11.09,21.37,10.31,33.25s-7.01,24.9-15.23,33.63c-7.78,8.26-18.09,13.31-28.97,16.1-23.96,6.13-49.49,3.25-73.88,2.35-11.54-.43-23.19-.67-34.66.84-5.56.73-11,1.94-16.29,3.82-8.45,3-14.68,8.29-16.7,17.3-1.88,8.37-.6,17.44,1.57,25.64s5.9,16.52,10.24,24.1c9.21,16.09,21.37,30.21,32.28,45.13,9.85,13.46,17.76,28,21.53,44.38,3.41,14.86,3.4,31.66-5.26,44.8-10.79,16.36-30.88,19.93-48.88,22.6-19.41,2.87-40.28,4.75-57.77-5.96-12.52-7.67-21.43-19.83-29.44-31.84-8.13-12.2-15.63-24.98-25.57-35.85-10.74-11.74-24.43-19.95-40.42-21.88-18.68-2.26-37.39,3.7-54.07,11.65-36.04,17.17-65.98,48.48-106.56,55.44-18.57,3.18-37.67-.98-52.14-13.35-12.8-10.95-21.03-26.34-26.36-42.1-6.29-18.62-8.88-38.48-9.68-58.06-.9-22.36,1.02-44.83,5.79-66.7,4.12-18.88,10.8-37.33,27.53-48.5,13.78-9.2,30.65-12.32,46.9-13.46,8.54-.6,17.1-.66,25.65-.54,7.71.11,15.79,1.09,23.44-.05,11.46-1.7,19.48-9.66,22.73-20.56,2.42-8.15,2.58-17.12,1.18-25.48-.32-1.9-3.21-1.09-2.89.8,1.49,8.89,1.1,18.85-2.36,27.25-2.11,5.13-5.64,9.59-10.56,12.28-6.69,3.65-14.21,3.15-21.57,2.97-31.2-.76-69.88-2.18-93.53,22.05-14.14,14.48-18.57,35.56-21.81,54.85-3.73,22.16-4.67,44.77-2.74,67.16,2.87,33.33,11.58,72.36,40.14,93.39,14.74,10.86,33.22,14.01,51.06,10.95,20.11-3.45,38.68-13.48,55.76-24.23s33.75-23.18,52.41-31.94c17.79-8.35,38.3-14.34,57.95-9.67,32.34,7.7,45.96,40.65,63.97,64.92,8.43,11.36,18.5,21.77,31.81,27.22,19.02,7.8,40.85,4.18,60.46.8,17.18-2.96,34.58-9.05,43.63-25.07,7.49-13.27,7.46-29.39,4.25-43.9-3.63-16.41-11.4-31.25-21.2-44.77-11.03-15.21-23.44-29.52-32.86-45.84-4.61-7.99-8.42-16.47-10.58-25.46-2.12-8.81-3.55-19.69.9-28.03,4.06-7.61,13.25-10.25,21.14-12.01,5.37-1.19,10.85-1.78,16.33-2.09,25.17-1.4,50.33,2.36,75.51,1.01,22.97-1.23,46.92-7.31,60.43-27.52,6.6-9.87,11.33-22.59,10.32-34.59s-6.85-23.73-13.95-33.58c-17.53-24.32-44.04-42.79-71.66-53.86-13.49-5.41-27.95-9.15-42.55-9.4-18.63-.32-40.52,6.27-56.59-6.51-14.18-11.29-18.24-31.04-21.02-47.98-2.7-16.5-3.93-33.4-8.84-49.45-4.66-15.22-13.4-29.02-27.73-36.73-16.23-8.74-35.9-9.08-53.74-6.52-35.39,5.09-67.97,24.55-91.42,51.22-25.6,29.11-39.56,66.78-43.14,105.11-1.8,19.22-.97,38.59,2.07,57.64.3,1.9,3.2,1.09,2.89-.8h0Z"/>
      <path class="cls-1" d="M235.71,282.42c-5.94-36.29-2.74-74.67,12.14-108.52,13.64-31.03,37.31-57.22,67.58-72.75,14.68-7.53,30.81-12.42,47.28-13.73,17.02-1.35,35.79.84,48.91,12.81,10.9,9.95,15.59,24.25,18.39,38.34,2.97,14.95,4.06,30.23,7.58,45.08s10.36,31.29,25.45,37.8,33.02,1.4,49.41,2.17c27.63,1.31,54.88,14.93,76.21,31.91,10.35,8.24,19.94,17.83,27.1,29.01,5.79,9.04,10.28,19.62,9.6,30.56s-6.34,22.87-13.84,30.92c-7.1,7.62-16.51,12.3-26.49,14.92-22.06,5.78-45.62,3.21-68.12,2.45-10.62-.36-21.33-.55-31.88.85-5.06.67-10.01,1.76-14.82,3.45-7.84,2.76-13.76,7.48-15.74,15.84-1.83,7.71-.66,16.13,1.33,23.7,2.05,7.82,5.42,15.25,9.43,22.25,8.5,14.83,19.74,27.82,29.86,41.52,9.22,12.48,16.67,25.93,20.23,41.15,3.16,13.55,3.25,28.87-4.51,40.96-9.73,15.16-28.1,18.63-44.63,21.15-17.99,2.74-37.38,4.67-53.65-5.22-11.55-7.02-19.79-18.18-27.21-29.22-7.54-11.23-14.5-23-23.71-32.99-9.97-10.82-22.63-18.34-37.41-20.08-17.4-2.05-34.81,3.63-50.29,11.13-33.09,16.02-60.63,44.98-98.05,51.32-17.06,2.89-34.6-1.02-47.84-12.41-11.76-10.11-19.34-24.29-24.26-38.8-5.82-17.19-8.25-35.53-9-53.61-.87-20.78.91-41.65,5.35-61.97,3.75-17.14,9.97-33.75,25.14-43.88,12.59-8.4,28-11.31,42.85-12.41,7.81-.58,15.65-.67,23.48-.59,7.21.07,14.76.96,21.91-.12,10.59-1.6,18.01-9.01,20.97-19.11,2.21-7.54,2.33-15.84,1.01-23.56-.32-1.9-3.22-1.09-2.89.8,1.4,8.17,1.07,17.33-2.08,25.07-1.92,4.71-5.14,8.81-9.64,11.28-6.13,3.37-13.02,2.94-19.77,2.8-28.72-.6-64.26-1.78-86.06,20.44-13.06,13.31-17.14,32.64-20.1,50.41-3.41,20.44-4.25,41.3-2.44,61.95,2.71,30.92,10.84,67.13,37.41,86.58,13.65,9.99,30.74,12.83,47.2,9.95,18.38-3.22,35.36-12.41,50.97-22.28,15.99-10.11,31.04-21.49,48.19-29.67,16.33-7.79,35.17-13.49,53.31-9.39,30.06,6.8,42.78,37.28,59.53,59.68,7.83,10.47,17.17,20.05,29.48,25.05,17.58,7.14,37.73,3.73,55.8.54,15.97-2.81,32.13-8.58,40.37-23.59,6.78-12.35,6.62-27.25,3.55-40.65-3.47-15.14-10.75-28.76-19.87-41.22-10.24-13.97-21.72-27.13-30.4-42.18-4.25-7.36-7.75-15.16-9.72-23.45s-3.24-18.13,1-25.71c3.81-6.81,12.24-9.19,19.41-10.79,4.93-1.1,9.96-1.65,15-1.94,23.23-1.35,46.46,2.04,69.7.68,21.15-1.24,43.14-6.99,55.49-25.65,6.04-9.13,10.36-20.87,9.38-31.93s-6.39-21.89-12.99-30.97c-16.26-22.39-40.78-39.35-66.31-49.48-12.47-4.95-25.82-8.35-39.29-8.54-17.14-.23-37.28,5.91-52.11-5.78-13.06-10.3-16.87-28.43-19.48-43.97-2.56-15.21-3.73-30.81-8.31-45.61-4.31-13.94-12.3-26.61-25.4-33.74-14.98-8.15-33.13-8.48-49.63-6.11-32.78,4.72-62.94,22.82-84.57,47.6-23.53,26.96-36.28,61.74-39.47,97.12-1.6,17.73-.77,35.61,2.1,53.17.31,1.9,3.2,1.09,2.89-.8h0Z"/>
      <path class="cls-1" d="M246.05,287.25c-5.57-33.16-2.79-68.26,10.68-99.28,12.35-28.44,33.91-52.48,61.53-66.8,13.39-6.94,28.11-11.47,43.16-12.73s32.92.66,44.97,11.71c9.93,9.11,14.19,22.22,16.77,35.08,2.75,13.68,3.81,27.66,7.13,41.23s9.74,28.5,23.61,34.33c14.46,6.09,30.32,1.04,45.36,1.75,25.28,1.18,50.24,13.56,69.78,29.07,9.44,7.49,18.19,16.19,24.73,26.35,5.28,8.21,9.39,17.82,8.81,27.76s-5.63,20.72-12.35,28.07-14.96,11.38-24.06,13.84c-20.14,5.44-41.71,3.19-62.28,2.57-9.8-.29-19.68-.43-29.42.89-4.64.63-9.19,1.65-13.61,3.23-7.2,2.57-12.65,6.94-14.44,14.64-1.64,7.06-.55,14.74,1.28,21.66,1.88,7.1,4.95,13.85,8.61,20.2,7.73,13.44,17.96,25.21,27.22,37.58,8.52,11.38,15.49,23.56,18.92,37.47,3.07,12.44,3.36,26.58-3.64,37.81-8.69,13.94-25.37,17.29-40.43,19.66-16.45,2.59-34.22,4.55-49.21-4.34-10.62-6.3-18.22-16.45-25.05-26.49-6.97-10.25-13.38-21.02-21.82-30.17-9.03-9.79-20.48-16.72-33.86-18.41-15.93-2.01-31.86,3.09-46.06,9.93-30.46,14.69-55.57,41.49-89.88,47.64-15.56,2.79-31.64-.57-43.86-10.86-10.84-9.13-17.88-22.02-22.46-35.25-5.42-15.65-7.75-32.38-8.54-48.87-.91-19,.59-38.11,4.54-56.72,3.36-15.82,8.92-31.24,22.88-40.64,11.47-7.72,25.54-10.44,39.11-11.51,7.15-.56,14.32-.67,21.49-.63,6.61.04,13.53.82,20.09-.2,9.73-1.51,16.53-8.37,19.21-17.66,2-6.94,2.08-14.55.84-21.63-.33-1.9-3.22-1.09-2.89.8,1.31,7.46,1.04,15.81-1.81,22.89-1.76,4.37-4.74,8.15-8.92,10.41-5.63,3.04-11.98,2.61-18.16,2.5-26.32-.44-58.9-1.29-78.67,19.31-11.85,12.35-15.47,30.17-18.09,46.5-3.01,18.74-3.67,37.85-1.89,56.75,2.65,28.19,10.27,61.14,34.59,78.76,12.68,9.19,28.51,11.69,43.73,8.87,16.82-3.11,32.31-11.63,46.57-20.76,14.7-9.41,28.56-19.95,44.4-27.48,14.92-7.09,32.13-12.17,48.65-8.25,27.14,6.44,38.75,34.18,54.08,54.41,7.25,9.57,15.89,18.27,27.25,22.75,16.28,6.42,35.01,3.12,51.66.03,14.48-2.68,29-8.23,36.29-21.92,6.14-11.52,5.82-25.33,2.82-37.71-3.36-13.86-10.18-26.22-18.62-37.6-9.37-12.61-19.81-24.53-27.72-38.17-3.86-6.66-7.04-13.72-8.85-21.23s-3-16.46.82-23.36c3.45-6.22,11.13-8.41,17.64-9.89,4.5-1.02,9.09-1.54,13.69-1.83,21.26-1.32,42.54,1.69,63.8.35,19.5-1.23,39.71-6.64,50.94-23.96,5.46-8.41,9.32-19.18,8.33-29.3s-5.89-19.82-11.9-28.04c-14.96-20.49-37.48-35.96-60.92-45.18-11.4-4.49-23.61-7.57-35.91-7.72-15.67-.2-33.9,5.51-47.62-4.85-12.22-9.22-15.79-26.09-18.25-40.33s-3.52-27.97-7.68-41.41c-3.95-12.75-11.22-24.42-23.19-30.99-13.73-7.54-30.38-7.85-45.53-5.65-30.02,4.35-57.63,20.97-77.4,43.7-21.61,24.83-33.24,56.85-36.04,89.42-1.4,16.25-.57,32.62,2.13,48.69.32,1.9,3.21,1.09,2.89-.8h0Z"/>
      <path class="cls-1" d="M256.4,292.07c-5.2-30.03-2.84-61.87,9.22-90.04,11.06-25.83,30.48-47.72,55.43-60.83,12.02-6.32,25.25-10.49,38.79-11.74s29.84.29,40.86,10.15c9.18,8.22,13.15,20.16,15.57,31.89,2.55,12.4,3.58,25.09,6.66,37.39s9.02,25.89,21.67,31.15c13.16,5.47,27.55.82,41.21,1.39,22.92.96,45.57,12.06,63.37,26.01,8.65,6.79,16.69,14.71,22.68,23.98,4.79,7.41,8.5,16.09,7.96,25.08s-5.1,18.8-11.22,25.45c-5.78,6.3-13.46,10.22-21.64,12.46-18.21,4.98-37.74,3.04-56.37,2.58-8.85-.22-17.77-.29-26.56.93-4.14.57-8.2,1.49-12.14,2.89-6.58,2.33-11.69,6.2-13.41,13.24-1.57,6.41-.57,13.43,1.1,19.73s4.5,12.59,7.83,18.36c7.04,12.18,16.36,22.83,24.84,34,7.8,10.28,14.24,21.26,17.47,33.86,2.9,11.32,3.3,24.24-3.03,34.52-7.8,12.66-22.89,15.75-36.52,17.97-14.87,2.42-30.97,4.29-44.57-3.69-9.64-5.66-16.58-14.8-22.81-23.87-6.43-9.36-12.34-19.19-20.14-27.51-8.38-8.94-18.97-15.08-31.28-16.46-14.38-1.61-28.75,3.16-41.49,9.42-27.33,13.41-49.82,37.53-80.62,43.43-13.99,2.68-28.54-.06-39.72-9.14-9.95-8.08-16.49-19.69-20.76-31.61-5.1-14.21-7.33-29.43-8.16-44.46-.95-17.22.28-34.57,3.75-51.47,2.94-14.35,7.79-28.48,20.36-37.15,10.31-7.11,23.01-9.69,35.29-10.75,6.48-.56,12.99-.7,19.5-.7,6.12,0,12.52.69,18.59-.28,8.87-1.41,15.05-7.73,17.46-16.2,1.8-6.33,1.83-13.27.66-19.71-.34-1.9-3.23-1.09-2.89.8,1.23,6.79,1.02,14.44-1.6,20.89-1.57,3.87-4.22,7.2-7.91,9.22-5.07,2.78-10.81,2.4-16.4,2.34-23.93-.28-53.54-.89-71.41,17.92-10.81,11.38-14.01,27.77-16.31,42.76-2.63,17.18-3.1,34.68-1.31,51.97,2.64,25.53,9.88,55.35,32.22,70.95,26.35,18.4,58.25,3.59,81.97-11.82,13.07-8.49,25.41-17.93,39.5-24.75,13.34-6.46,28.78-11.2,43.65-7.95,24.99,5.46,35.73,30.76,49.84,49.2,6.64,8.68,14.55,16.56,24.92,20.59,14.82,5.76,31.83,2.68,46.96-.21,13.15-2.51,26.36-7.63,32.92-20.12,5.53-10.52,5.19-23.07,2.4-34.34-3.11-12.57-9.36-23.78-17.09-34.07-8.63-11.49-18.25-22.35-25.5-34.81-3.51-6.03-6.39-12.42-8.02-19.22s-2.73-15.12,1.02-21.34c3.21-5.32,10.17-7.22,15.9-8.51,4.06-.92,8.2-1.39,12.34-1.66,19.18-1.24,38.39,1.35,57.58.05,17.62-1.19,35.88-6.14,46.08-21.75,4.97-7.6,8.51-17.42,7.68-26.59s-5.33-18.15-10.83-25.67c-13.63-18.59-34.14-32.58-55.45-40.9-10.46-4.08-21.66-6.86-32.93-6.96-14.1-.12-30.43,5.1-42.9-3.96-11.31-8.22-14.65-23.67-16.95-36.62-2.22-12.52-3.32-25.37-7.16-37.55-3.7-11.71-10.46-22.37-21.55-28.27-12.55-6.68-27.67-6.84-41.42-4.74-27.07,4.14-51.91,19.26-69.7,39.84-19.61,22.69-30.09,51.9-32.48,81.57-1.19,14.76-.37,29.63,2.16,44.22.33,1.9,3.22,1.09,2.89-.8h0Z"/>
      <path class="cls-1" d="M266.74,296.9c-4.84-26.99-2.86-55.58,7.84-80.99,9.79-23.25,27.22-43.01,49.57-54.85,10.84-5.74,22.79-9.54,35.02-10.66s26.65.33,36.43,9.23c8.1,7.37,11.62,18,13.81,28.42,2.32,11.05,3.32,22.36,6.14,33.31s8.29,23.25,19.73,27.93c11.93,4.88,24.93.55,37.29,1.03,20.63.81,41.08,10.74,57.13,23.27,7.69,6.01,14.85,13.03,20.19,21.25,4.33,6.66,7.68,14.48,7.13,22.57-.56,8.16-4.65,16.88-10.2,22.83-5.2,5.57-12.08,9.03-19.37,11.02-16.31,4.44-33.78,2.81-50.47,2.51-7.93-.14-15.91-.13-23.78,1.02-3.75.55-7.43,1.43-10.99,2.74-6.05,2.23-10.56,6.01-11.91,12.54-1.21,5.83-.22,12.12,1.38,17.78s4.23,11.27,7.3,16.43c6.51,10.96,15.05,20.51,22.75,30.62,6.99,9.17,12.68,19.07,15.5,30.34,2.53,10.13,2.75,21.66-3.11,30.73-7.1,11.02-20.53,13.68-32.56,15.71-13.36,2.25-27.77,3.9-39.97-3.33-8.56-5.08-14.76-13.22-20.35-21.26-5.79-8.33-11.14-17.09-18.17-24.47-7.6-7.97-17.15-13.42-28.22-14.59-13.06-1.38-26.08,3.08-37.6,8.86-24.49,12.3-44.67,34.21-72.46,39.41-12.45,2.33-25.38-.23-35.29-8.33-8.82-7.22-14.66-17.5-18.51-28.08-4.61-12.68-6.69-26.27-7.52-39.7-.96-15.57.08-31.27,3.14-46.58,2.57-12.81,6.89-25.37,18.07-33.12,9.15-6.34,20.44-8.72,31.35-9.73,5.87-.54,11.77-.71,17.66-.74,5.41-.03,11.05.52,16.41-.32,8.11-1.27,13.78-7.01,15.94-14.79,1.58-5.72,1.58-11.98.49-17.79-.35-1.9-3.25-1.09-2.89.8,1.14,6.07.99,12.9-1.32,18.69-1.4,3.51-3.8,6.53-7.15,8.33-4.55,2.46-9.72,2.11-14.71,2.08-21.47-.11-48.01-.43-63.93,16.55-9.57,10.21-12.39,24.78-14.38,38.16-2.3,15.46-2.66,31.18-.99,46.72,2.47,23.04,9.1,49.91,29.29,63.95,10.47,7.28,23.39,9.09,35.75,6.65,13.59-2.69,26.07-9.71,37.54-17.22,11.81-7.73,22.91-16.38,35.61-22.68,11.99-5.94,25.9-10.38,39.35-7.53,22.31,4.73,32.13,27.17,44.75,43.58,5.98,7.77,13.06,14.83,22.32,18.51,13.35,5.29,28.64,2.46,42.28-.18,11.74-2.27,23.57-6.73,29.64-17.76,5.16-9.37,4.98-20.68,2.53-30.83-2.74-11.37-8.36-21.57-15.37-30.84-7.79-10.3-16.5-19.98-23.16-31.09-3.21-5.36-5.89-11.06-7.46-17.12s-2.7-13.43.34-19.12c2.69-5.03,8.87-6.85,14.08-8.1,3.59-.86,7.27-1.33,10.95-1.61,17.22-1.29,34.5.94,51.73-.27,15.88-1.12,32.39-5.54,41.62-19.59,4.48-6.82,7.7-15.69,7-23.93s-4.71-16.32-9.65-23.07c-12.3-16.79-30.88-29.33-50.15-36.77-9.43-3.64-19.52-6.11-29.67-6.17-12.62-.07-27.18,4.74-38.46-3.12-10.33-7.19-13.45-21.15-15.59-32.77-2.06-11.16-3.11-22.61-6.56-33.47-3.31-10.45-9.29-20.01-19.13-25.39-11.35-6.21-25.12-6.34-37.6-4.39-24.42,3.81-46.8,17.58-62.74,36.25-17.44,20.43-26.71,46.62-28.75,73.22-1.03,13.39-.21,26.87,2.16,40.08.34,1.9,3.23,1.09,2.89-.8h0Z"/>
      <path class="cls-1" d="M277.08,301.73c-4.49-23.93-2.9-49.31,6.45-71.93,8.53-20.64,23.89-38.22,43.62-48.82,9.42-5.06,19.81-8.46,30.46-9.55,11.31-1.16,23.87.03,32.65,7.99,7.05,6.4,10.2,15.6,12.19,24.66,2.16,9.79,3.12,19.82,5.67,29.53,2.65,10.09,7.55,20.81,17.85,24.95,10.61,4.26,22.13.33,33.1.67,18.26.57,36.35,9.21,50.65,20.14,6.91,5.28,13.35,11.51,18.14,18.8,3.81,5.79,6.79,12.58,6.41,19.65-.39,7.17-3.9,14.89-8.69,20.18-4.55,5.02-10.6,8.17-17.06,9.99-14.42,4.08-29.92,2.75-44.72,2.6-7.09-.07-14.22-.01-21.24,1.07-3.28.51-6.49,1.3-9.6,2.47-5.23,1.96-9.28,5.17-10.58,10.83-1.18,5.16-.33,10.76,1.07,15.8s3.69,9.95,6.38,14.5c5.68,9.58,13.16,17.94,20.02,26.67,6.41,8.16,11.76,16.9,14.49,27,2.41,8.9,2.91,19.1-1.99,27.29-5.98,10-17.72,12.63-28.38,14.53-11.82,2.1-24.64,3.86-35.58-2.33-7.72-4.37-13.33-11.56-18.36-18.68s-9.94-14.98-16.14-21.48c-6.87-7.21-15.51-12.13-25.54-13.11-11.51-1.13-22.97,2.85-33.09,7.99-21.73,11.05-39.52,30.74-64.2,35.56-11.04,2.16-22.56-.06-31.36-7.24-7.88-6.43-13.1-15.58-16.55-25.02-4.13-11.27-6.03-23.36-6.8-35.29-.9-13.79-.04-27.7,2.63-41.26,2.21-11.24,6.08-22.19,15.89-28.95,8.11-5.59,18.1-7.71,27.76-8.65,5.17-.5,10.36-.67,15.55-.74,4.76-.06,9.74.38,14.45-.42,7.15-1.22,12.13-6.42,13.97-13.29,1.38-5.11,1.33-10.7.32-15.88-.37-1.89-3.26-1.09-2.89.8,1.04,5.35.96,11.36-1.03,16.48-1.16,2.99-3.16,5.6-5.96,7.21-3.96,2.28-8.49,2.05-12.9,2.06-18.98.04-42.31-.12-56.5,14.67-8.65,9.01-11.17,21.89-12.9,33.83-2.01,13.84-2.28,27.91-.7,41.81,2.32,20.51,8.33,44.38,26.33,56.85,9.31,6.46,20.81,8.07,31.79,5.86,12.15-2.44,23.28-8.8,33.48-15.6,10.5-6.99,20.36-14.81,31.69-20.49,10.56-5.29,22.83-9.26,34.71-6.74,19.63,4.16,28.47,23.93,39.71,38.32,5.43,6.95,11.92,13.23,20.32,16.36,11.96,4.46,25.62,1.79,37.73-.71,10.46-2.16,20.91-6.46,26.01-16.48,4.33-8.51,3.94-18.58,1.58-27.61-2.64-10.06-7.78-18.96-14.1-27.13-6.95-9-14.68-17.48-20.57-27.26-2.87-4.77-5.25-9.84-6.62-15.25s-2.31-11.8.55-16.72c2.4-4.12,7.69-5.66,12.06-6.75,3.21-.8,6.49-1.24,9.78-1.51,15.28-1.24,30.63.62,45.91-.6,14.09-1.13,28.68-5.21,36.77-17.75,3.95-6.13,6.75-14.09,6.04-21.45s-4.32-14.44-8.77-20.41c-11.07-14.83-27.67-25.85-44.87-32.32-8.37-3.15-17.32-5.25-26.3-5.23-11.23.03-24.2,4.43-34.24-2.63-8.98-6.31-11.78-18.46-13.74-28.59-1.92-9.97-2.93-20.2-6.11-29.89s-8.41-17.63-17.15-22.32c-10.14-5.44-22.37-5.48-33.46-3.67-21.52,3.51-41.22,15.76-55.22,32.29-15.53,18.32-23.68,41.77-25.32,65.56-.82,11.89,0,23.85,2.2,35.56.36,1.9,3.25,1.09,2.89-.8h0Z"/>
      <path class="cls-1" d="M287.42,306.56c-4.12-20.81-2.94-42.9,4.99-62.69,7.19-17.95,20.33-33.33,37.28-42.72,8.21-4.55,17.29-7.66,26.64-8.71,9.72-1.09,20.58-.23,28.25,6.49,6.28,5.5,9.13,13.53,10.96,21.45,1.97,8.52,2.9,17.26,5.2,25.71,2.43,8.88,6.84,18.19,15.95,21.76,9.39,3.68,19.56.03,29.23.3,15.86.44,31.58,7.81,44.08,17.2,6.01,4.51,11.62,9.86,15.82,16.12,3.36,5.01,6,10.9,5.68,17.05s-3.27,12.85-7.37,17.43c-3.88,4.35-9.06,7.13-14.61,8.76-12.5,3.69-25.98,2.68-38.84,2.67-6.13,0-12.29.11-18.35,1.07-7.16,1.13-15.88,3.59-17.89,11.51-1.14,4.5-.39,9.42.82,13.83s3.18,8.64,5.52,12.58c4.97,8.36,11.55,15.61,17.63,23.16,5.7,7.07,10.55,14.59,13.11,23.39,2.26,7.73,2.91,16.68-1.21,23.92-5.01,8.8-15.14,11.26-24.39,13.01-10.35,1.96-21.64,3.68-31.28-1.73-6.68-3.74-11.58-9.89-15.99-16s-8.84-13.04-14.33-18.67c-6.03-6.17-13.54-10.37-22.23-11.2-10.16-.97-20.25,2.63-29.13,7.26-18.84,9.82-34.18,27.15-55.64,31.57-9.62,1.98-19.68.12-27.4-6.11-6.82-5.5-11.39-13.36-14.45-21.46-3.7-9.81-5.47-20.35-6.25-30.77-.88-11.78-.29-23.68,1.83-35.3,1.81-9.95,4.99-19.77,13.62-25.85,7-4.93,15.66-6.87,24.04-7.77,4.43-.47,8.88-.67,13.34-.78s8.68.26,12.87-.5c6.29-1.14,10.65-5.77,12.22-11.84,1.16-4.51,1.08-9.41.15-13.95-.39-1.89-3.28-1.09-2.89.8.95,4.61.92,9.81-.75,14.28-.96,2.57-2.66,4.84-5.04,6.24-3.41,2.01-7.32,1.84-11.14,1.89-16.66.2-37.18.28-49.43,13.48-7.42,8-9.47,19.23-10.89,29.68-1.62,12.01-1.73,24.2-.26,36.23,2.2,17.99,7.65,38.9,23.56,49.7,8.22,5.58,18.32,6.9,27.93,4.87,10.59-2.24,20.26-7.89,29.11-13.91,9.1-6.19,17.63-13.09,27.46-18.14,9.11-4.68,19.74-8.26,30.06-6.17,17.09,3.44,24.98,20.56,34.86,32.98,4.82,6.06,10.58,11.52,17.98,14.19,10.57,3.82,22.61,1.34,33.24-1,9.15-2.01,18.25-5.97,22.53-14.86,3.7-7.68,3.17-16.66.86-24.67-2.53-8.82-7.25-16.49-12.91-23.62-6.12-7.7-12.86-14.99-17.96-23.45-2.48-4.11-4.52-8.47-5.69-13.14s-1.98-10.19.66-14.34c2.13-3.36,6.68-4.66,10.34-5.58,2.77-.7,5.6-1.1,8.45-1.36,13.24-1.18,26.57.28,39.82-.91,12.32-1.11,25.06-4.79,32.05-15.82,3.41-5.37,5.82-12.35,5.17-18.77s-3.84-12.68-7.8-17.9c-9.72-12.81-24.17-22.26-39.13-27.81-7.37-2.74-15.26-4.56-23.16-4.52-9.87.05-21.25,4.14-30.14-1.96-7.9-5.42-10.41-16.08-12.2-24.91-1.74-8.61-2.72-17.45-5.55-25.81s-7.63-15.54-15.45-19.56c-8.96-4.6-19.64-4.5-29.33-2.79-18.73,3.3-35.78,14.18-47.84,28.73-13.33,16.07-20.24,36.51-21.51,57.21-.64,10.48.18,21.02,2.21,31.31.37,1.89,3.27,1.09,2.89-.8h0Z"/>
      <path class="cls-1" d="M297.77,311.39c-3.76-17.76-2.99-36.65,3.61-53.66,5.97-15.38,17.07-28.63,31.48-36.76,6.88-3.89,14.52-6.58,22.38-7.55,8.27-1.02,17.55-.36,24.09,5.37,5.29,4.64,7.73,11.39,9.35,18.04,1.77,7.26,2.66,14.72,4.75,21.91s6.04,15.26,13.74,18.28c8.07,3.17,16.77-.08,25.06,0,13.56.15,27.08,6.26,37.87,14.14,5.15,3.76,9.98,8.23,13.61,13.49,2.92,4.24,5.26,9.23,5.02,14.5s-2.64,10.83-6.04,14.73-7.62,6.14-12.31,7.59c-10.55,3.25-21.97,2.57-32.87,2.7-5.26.06-10.56.23-15.76,1.11-6.05,1.03-13.46,3.18-15.28,9.8-1.08,3.92-.39,8.27.7,12.11,1.09,3.85,2.84,7.51,4.93,10.92,4.31,7.04,9.97,13.13,15.22,19.46,4.93,5.94,9.18,12.25,11.49,19.69,2.04,6.55,2.77,14.21-.67,20.44-4.19,7.59-12.85,9.74-20.74,11.33-8.75,1.77-18.28,3.32-26.49-1.19-5.69-3.13-9.92-8.31-13.73-13.45-4.02-5.43-7.77-11.15-12.61-15.91-5.3-5.21-11.87-8.66-19.36-9.18-8.67-.61-17.2,2.59-24.7,6.65-15.87,8.58-28.71,23.45-46.87,27.48-8.1,1.8-16.54.38-23.19-4.71-5.93-4.55-9.96-11.28-12.66-18.15-3.27-8.31-4.9-17.27-5.68-26.14-.89-10.1-.52-20.34,1.18-30.34,1.42-8.34,3.99-16.62,11.12-21.82,5.88-4.28,13.21-6.05,20.32-6.91,3.81-.46,7.65-.68,11.48-.82,3.57-.13,7.3.1,10.83-.55,5.45-1.01,9.25-5.02,10.58-10.31.98-3.93.87-8.2,0-12.14-.41-1.88-3.31-1.09-2.89.8.83,3.79.9,8.25-.47,12.08-.78,2.19-2.21,4.13-4.23,5.32-2.88,1.7-6.2,1.58-9.42,1.66-14.19.37-31.6.7-41.94,12.02-6.36,6.95-8,16.61-9.12,25.64-1.27,10.28-1.2,20.7.18,30.96,2.06,15.41,7,33.32,20.78,42.4,7.15,4.71,15.88,5.73,24.13,3.85,9.03-2.05,17.23-7,24.74-12.26,7.63-5.35,14.78-11.28,23.04-15.69,7.59-4.05,16.49-7.26,25.21-5.74,14.74,2.56,21.71,17.09,30.29,27.63,4.16,5.11,9.11,9.72,15.41,11.99,9.12,3.29,19.45,1.04,28.58-1.07,7.91-1.83,15.8-5.32,19.41-13.08,3.1-6.66,2.57-14.36.49-21.24-2.3-7.61-6.48-14.17-11.47-20.27-5.3-6.48-11.13-12.62-15.55-19.77-2.14-3.47-3.91-7.16-4.93-11.12-.98-3.78-1.75-8.58.52-12.05,1.81-2.78,5.66-3.89,8.72-4.68,2.33-.61,4.72-.98,7.12-1.22,11.23-1.12,22.56-.05,33.79-1.21,10.56-1.09,21.44-4.38,27.35-13.9,2.9-4.67,4.89-10.71,4.28-16.25s-3.4-10.78-6.82-15.22c-8.46-10.97-21.11-18.96-34.07-23.54-6.29-2.22-13.02-3.67-19.72-3.55-8.41.16-18.15,3.82-25.77-1.37-6.59-4.49-8.83-13.31-10.43-20.65-1.6-7.34-2.53-14.89-5.02-22.01s-6.56-13.22-13.21-16.67c-7.7-3.99-16.89-3.87-25.23-2.34-16.07,2.95-30.65,12.43-40.87,25.04-11.31,13.94-17.05,31.57-17.9,49.38-.43,8.97.39,17.98,2.25,26.76.4,1.89,3.29,1.09,2.89-.8h0Z"/>
      <path class="cls-1" d="M308.11,316.22c-3.4-14.67-3.05-30.35,2.19-44.55,4.71-12.76,13.68-23.83,25.44-30.73,5.68-3.33,11.98-5.64,18.51-6.56s14.53-.43,19.91,4.36c4.31,3.83,6.32,9.37,7.72,14.81,1.53,5.96,2.4,12.08,4.27,17.94,1.97,6.17,5.35,12.44,11.76,14.82,6.84,2.53,14.1-.38,21.07-.38,11.22,0,22.46,4.87,31.49,11.26,4.3,3.05,8.38,6.71,11.41,11.06,2.39,3.43,4.3,7.47,4.09,11.74s-2.13,8.94-4.96,12.15c-2.67,3.04-6.25,5.01-10.08,6.22-8.66,2.73-18.02,2.34-26.99,2.63-4.32.14-8.68.36-12.94,1.18-5.14.99-11.36,3.01-12.67,8.75-1.45,6.36,1.62,13.47,4.95,18.75,3.64,5.77,8.4,10.73,12.85,15.87s7.94,10.06,10.01,16.26c1.78,5.35,2.55,11.66-.2,16.84-3.33,6.27-10.39,8.15-16.82,9.57-7.13,1.58-14.97,3.05-21.76-.52-4.8-2.52-8.4-6.79-11.66-11.02-3.41-4.43-6.6-9.11-10.69-12.95-4.49-4.22-10-6.97-16.22-7.3-7.24-.38-14.32,2.41-20.52,5.91-13.01,7.35-23.42,19.9-38.39,23.51-6.65,1.6-13.56.55-19.12-3.54-5.03-3.69-8.48-9.35-10.8-15.06-2.79-6.87-4.27-14.31-5.01-21.67-.84-8.27-.67-16.67.61-24.88,1.07-6.88,3.13-13.63,8.96-17.94,4.79-3.55,10.78-5.04,16.59-5.86,3.12-.44,6.27-.67,9.42-.84s6.13-.01,9.06-.66c4.53-1.01,7.63-4.5,8.62-8.95.73-3.28.57-6.81-.2-10.07-.45-1.88-3.34-1.08-2.89.8.75,3.12.89,6.78-.21,9.98-.62,1.81-1.79,3.39-3.46,4.36-2.4,1.4-5.22,1.28-7.9,1.4-11.78.54-26.31,1.2-34.56,10.95-5.02,5.93-6.23,13.89-7.01,21.38-.88,8.47-.64,17.02.62,25.44,1.93,12.87,6.38,27.83,18.07,35.18,6.04,3.8,13.35,4.52,20.2,2.82,7.42-1.84,14.11-6.01,20.22-10.46s12.1-9.61,18.88-13.41c6.26-3.51,13.66-6.37,20.96-5.17,12.19,2,18.11,14.04,25.41,22.57,3.61,4.22,7.92,7.97,13.31,9.66,7.62,2.38,16.1.38,23.6-1.54,6.49-1.66,12.9-4.73,15.77-11.17,2.51-5.63,1.98-12.07.12-17.81-2.04-6.31-5.61-11.73-9.88-16.74-4.49-5.28-9.42-10.26-13.18-16.12-1.81-2.81-3.32-5.81-4.22-9.04s-1.62-7.11.29-9.95c1.51-2.23,4.69-3.17,7.19-3.84,1.92-.52,3.88-.85,5.85-1.08,9.25-1.05,18.61-.36,27.86-1.53,8.73-1.1,17.67-4.01,22.43-11.98,2.35-3.92,3.93-8.97,3.39-13.56s-2.96-9.04-5.89-12.75c-7.11-9-17.81-15.46-28.58-19.08-5.31-1.78-10.97-2.91-16.59-2.72-7.01.24-15.18,3.53-21.55-.82-5.41-3.69-7.3-10.94-8.72-16.94s-2.31-12.24-4.51-18.05-5.69-10.84-11.26-13.59c-6.56-3.23-14.27-2.99-21.27-1.54-13.25,2.74-25.15,10.81-33.42,21.39-9.19,11.75-13.72,26.46-14.16,41.28-.23,7.5.6,15.03,2.29,22.34.44,1.88,3.33,1.08,2.89-.8h0Z"/>
    </g>
  </g>
</svg>