<?xml version="1.0" encoding="UTF-8"?>
<svg id="Layer_2" data-name="Layer 2" xmlns="http://www.w3.org/2000/svg" viewBox="0 0 413.47 360.83">
  <defs>
    <style>
      .cls-1 {
        fill: #7ac943;
        stroke-width: 0px;
      }
    </style>
  </defs>
  <g id="Layer_1-2" data-name="Layer 1">
    <g>
      <path class="cls-1" d="M178.17,16.02c17.14-4.84,34.82-8.25,52.44-10.81,17.84-2.59,36.83-4.06,53.99,2.68,9.73,3.82,17.51,10.82,21.38,20.64,3.91,9.94,4.36,20.81,6.12,31.24,1.54,9.12,4.34,17.8,9.66,25.44,4.53,6.51,10.3,12.01,16.55,16.85,13.2,10.24,28.23,17.73,41.87,27.33,14.34,10.09,26.65,23.07,29.59,41,4.06,24.74-8.64,48.03-22.97,67.13-6.88,9.17-14.58,17.77-20.7,27.49-5.96,9.47-9.72,19.75-9.82,31.02s2.72,23.17,1.24,34.73c-1.26,9.78-6.49,18.09-15.24,22.74-7.73,4.11-17.02,5.13-25.61,3.8-10.17-1.58-18.73-6.84-26.65-13.18-8.67-6.94-16.72-14.86-26.55-20.21s-21.25-7.86-32.53-8.3c-24.71-.96-48.24,7.33-71.99,12.81-12.3,2.84-25.3,5.32-37.98,4.31-5.56-.44-11.04-2.11-15.07-6.13-3.19-3.19-5.1-7.36-6.36-11.63-2.68-9.1-2.79-18.7-4.91-27.91-2.28-9.91-7-19.19-13.43-27.04s-14.85-14.15-24.22-18.44c-9.47-4.33-19.57-7.14-28.89-11.81s-17.54-12.01-21.56-22.23-4.29-21.98-2.15-32.88c2.46-12.52,7.63-24.28,12.7-35.92,5.01-11.5,10.05-23.01,13.98-34.93,3.81-11.57,6.37-23.43,7.04-35.61.56-10.21.25-20.67,2.84-30.64,2.6-10.01,8.88-18.25,18.81-21.83s20.89-2.87,31.12-1.47c11.34,1.56,22.86,3.73,34.31,1.92,5.72-.91,10.71-3.1,15.68-5.99,2.39-1.39,4.89-2.76,7.71-2.91,2.13-.11,4.23.43,6.21,1.21,7.54,2.98,14.43,9.86,23.14,7.76,1.88-.45,1.08-3.34-.8-2.89-4.54,1.09-8.81-1.08-12.69-3.22s-7.67-4.59-12-5.5c-5.2-1.09-9.52.87-13.94,3.47-5.32,3.13-10.92,5-17.08,5.55-21.72,1.93-44.57-9.2-65.54.45-20.59,9.48-19.74,33.98-20.72,53.18-1.33,25.94-11.81,49.55-22.01,73.03-9.28,21.37-18.68,45.9-9.15,68.9,4.07,9.83,11.42,17.16,20.71,22.17s19.86,7.94,29.64,12.28,18.38,10.56,25.12,18.95c6.66,8.29,11.09,18.19,12.96,28.64,1.67,9.32,1.91,19.12,5.42,28.02,1.6,4.05,3.9,7.84,7.26,10.66,4.22,3.54,9.41,5.14,14.82,5.69,12.57,1.3,25.73-1.16,37.95-3.9s25.42-6.66,38.25-9.47c23.13-5.06,49.04-6.71,69.83,6.6,9.67,6.19,17.72,14.53,27.01,21.24,8.01,5.78,16.78,9.7,26.69,10.54,8.62.73,17.68-.8,25.22-5.16,8.21-4.75,13.55-12.74,15.24-22.04,2.11-11.61-.56-23.35-.82-34.99-.13-5.98.5-11.85,2.38-17.54,1.82-5.51,4.59-10.65,7.73-15.51,6.39-9.87,14.31-18.64,21.27-28.1,7.23-9.82,13.71-20.29,17.96-31.77,4.18-11.29,5.97-23.65,4.08-35.6-1.49-9.42-5.55-18.08-11.46-25.51-10.44-13.12-25.44-21.74-39.53-30.35s-29.09-17.63-38.29-31.72c-5.44-8.33-7.67-17.75-9.08-27.49-1.54-10.62-2.39-21.7-7.4-31.39C297.35,4.89,274.67.09,255.47,0c-8.49-.04-17,1.07-25.38,2.28-9.85,1.42-19.65,3.22-29.39,5.26-7.82,1.64-15.64,3.42-23.33,5.59-1.86.52-1.07,3.42.8,2.89h0Z"/>
      <path class="cls-1" d="M179.6,26.3c16.03-4.52,32.57-7.72,49.05-10.11s34.41-3.79,50.45,2.5c9.07,3.56,16.33,10.09,19.93,19.24,3.66,9.3,4.08,19.47,5.72,29.22,1.44,8.54,4.07,16.66,9.04,23.82,4.24,6.1,9.64,11.24,15.49,15.78,12.35,9.58,26.42,16.6,39.18,25.58,13.4,9.42,24.89,21.54,27.64,38.29,3.8,23.11-8.09,44.87-21.47,62.72-6.43,8.58-13.64,16.62-19.36,25.71-5.59,8.87-9.1,18.5-9.2,29.06-.1,10.82,2.55,21.67,1.16,32.48-1.18,9.12-6.05,16.85-14.21,21.19-7.21,3.83-15.88,4.79-23.88,3.54-9.49-1.48-17.49-6.39-24.89-12.31-8.12-6.5-15.66-13.91-24.86-18.92s-19.9-7.37-30.47-7.78c-23.12-.89-45.14,6.86-67.37,11.99-11.5,2.65-23.65,4.97-35.5,4.03-5.17-.41-10.28-1.96-14.02-5.7-2.97-2.97-4.75-6.85-5.92-10.84-2.51-8.51-2.61-17.49-4.59-26.11-2.14-9.29-6.56-17.98-12.59-25.34s-13.9-13.25-22.67-17.26-18.31-6.67-27.02-11.05-16.37-11.2-20.13-20.74-4.01-20.53-2.01-30.71c2.3-11.7,7.13-22.7,11.87-33.58,4.69-10.76,9.41-21.54,13.09-32.7s5.96-21.94,6.59-33.33c.53-9.54.23-19.32,2.65-28.63,2.43-9.33,8.27-17.02,17.52-20.35s19.5-2.68,29.06-1.37c10.63,1.46,21.42,3.5,32.14,1.79,5.36-.85,10.03-2.9,14.69-5.62,2.22-1.29,4.54-2.57,7.16-2.71,1.99-.1,3.94.4,5.78,1.13,7.08,2.8,13.52,9.23,21.69,7.26,1.88-.45,1.08-3.34-.8-2.89-4.22,1.01-8.2-1.02-11.79-3s-7.19-4.3-11.25-5.16c-4.89-1.03-8.96.81-13.11,3.25-4.96,2.92-10.18,4.66-15.93,5.18-20.34,1.81-41.72-8.61-61.35.44s-18.51,31.83-19.43,49.83c-1.24,24.24-11.04,46.31-20.58,68.26-8.69,20.02-17.49,42.98-8.57,64.52,3.82,9.22,10.7,16.1,19.42,20.8,8.83,4.76,18.58,7.43,27.72,11.48s17.18,9.87,23.48,17.71c6.22,7.74,10.35,16.99,12.1,26.75,1.56,8.72,1.78,17.89,5.07,26.21,1.5,3.8,3.66,7.36,6.82,10.01,3.97,3.33,8.84,4.83,13.93,5.35,11.77,1.21,24.08-1.09,35.52-3.65s23.77-6.23,35.78-8.86c21.61-4.73,45.82-6.27,65.24,6.16,9.05,5.79,16.57,13.59,25.26,19.87,7.51,5.42,15.72,9.09,25.02,9.88,8.08.69,16.57-.75,23.64-4.84,7.7-4.46,12.71-11.95,14.3-20.67,1.98-10.87-.52-21.86-.76-32.76-.12-5.58.47-11.06,2.22-16.38,1.7-5.15,4.29-9.95,7.23-14.48,5.98-9.23,13.38-17.44,19.9-26.29s12.83-18.99,16.81-29.74c3.92-10.58,5.59-22.15,3.82-33.35-1.4-8.83-5.2-16.94-10.74-23.91-9.77-12.28-23.81-20.35-37-28.41s-27.19-16.47-35.78-29.64c-5.08-7.78-7.17-16.59-8.48-25.69-1.44-9.94-2.24-20.31-6.93-29.39-9-17.41-30.25-21.91-48.24-22-7.95-.04-15.92,1-23.77,2.14-9.21,1.33-18.38,3.01-27.49,4.92-7.32,1.54-14.62,3.2-21.82,5.23-1.86.52-1.07,3.42.8,2.89h0Z"/>
      <path class="cls-1" d="M181.03,36.57c14.93-4.21,30.32-7.19,45.66-9.41s32-3.53,46.91,2.33c8.4,3.3,15.14,9.36,18.48,17.84,3.41,8.65,3.8,18.12,5.33,27.2,1.34,7.96,3.79,15.53,8.43,22.2,3.95,5.69,8.99,10.48,14.44,14.71,11.5,8.93,24.61,15.46,36.5,23.83,12.45,8.76,23.12,20.02,25.68,35.58,3.53,21.48-7.54,41.72-19.98,58.31-5.99,7.99-12.7,15.47-18.02,23.94s-8.49,17.26-8.58,27.11c-.09,10.07,2.38,20.18,1.08,30.24-1.09,8.45-5.61,15.62-13.18,19.63-6.68,3.55-14.73,4.44-22.15,3.29-8.82-1.37-16.25-5.93-23.12-11.43-7.56-6.05-14.59-12.96-23.16-17.63-8.71-4.74-18.56-6.87-28.42-7.25-21.54-.83-42.04,6.39-62.74,11.16-10.69,2.47-22,4.62-33.02,3.75-4.79-.38-9.51-1.82-12.98-5.28-2.76-2.75-4.4-6.35-5.49-10.04-2.34-7.92-2.43-16.28-4.28-24.31-2-8.66-6.13-16.77-11.75-23.63s-12.96-12.35-21.13-16.08c-8.24-3.77-17.05-6.21-25.16-10.28-8.37-4.2-15.2-10.39-18.69-19.25s-3.73-19.07-1.87-28.53c2.14-10.89,6.63-21.11,11.04-31.23s8.77-20.07,12.2-30.47c3.33-10.09,5.55-20.44,6.14-31.06.49-8.87.21-17.96,2.47-26.63s7.66-15.78,16.24-18.87,18.12-2.49,27-1.28c9.91,1.36,19.97,3.26,29.98,1.67,5-.79,9.36-2.71,13.7-5.24,2.05-1.19,4.19-2.38,6.61-2.5,1.84-.1,3.65.37,5.35,1.05,6.61,2.62,12.61,8.6,20.25,6.76,1.88-.45,1.08-3.34-.8-2.89-3.89.94-7.58-.95-10.9-2.79s-6.71-4.02-10.49-4.81c-4.58-.96-8.39.75-12.29,3.04-4.6,2.71-9.45,4.33-14.77,4.8-18.96,1.69-38.86-8.01-57.17.42-18,8.29-17.28,29.69-18.14,46.48-1.15,22.55-10.28,43.08-19.14,63.5-8.1,18.66-16.3,40.06-7.99,60.14,3.56,8.6,9.99,15.04,18.12,19.42,8.22,4.43,17.3,6.92,25.81,10.69s15.98,9.18,21.84,16.47,9.61,15.79,11.24,24.86c1.46,8.12,1.66,16.65,4.72,24.4,1.4,3.55,3.42,6.89,6.37,9.37,3.71,3.12,8.27,4.52,13.04,5.02,10.96,1.13,22.44-1.01,33.1-3.4,11.16-2.5,22.13-5.8,33.31-8.25,20.09-4.4,42.6-5.83,60.66,5.73,8.42,5.39,15.43,12.65,23.52,18.49,7.01,5.06,14.67,8.47,23.34,9.21,7.54.64,15.47-.71,22.06-4.52,7.19-4.16,11.88-11.16,13.36-19.31,1.84-10.13-.48-20.36-.71-30.52-.11-5.19.44-10.28,2.06-15.22s3.99-9.24,6.72-13.46c5.57-8.59,12.46-16.24,18.52-24.47,6.31-8.57,11.95-17.7,15.66-27.71s5.21-20.66,3.55-31.1c-1.3-8.24-4.86-15.8-10.03-22.3-9.1-11.44-22.18-18.95-34.46-26.46-12.2-7.46-25.28-15.32-33.27-27.55-4.73-7.24-6.66-15.43-7.89-23.89-1.34-9.27-2.09-18.92-6.46-27.38-8.39-16.24-28.21-20.45-44.99-20.53-7.41-.04-14.84.94-22.16,1.99-8.58,1.24-17.11,2.8-25.59,4.58-6.81,1.43-13.61,2.97-20.32,4.87-1.86.52-1.07,3.42.8,2.89h0Z"/>
      <path class="cls-1" d="M182.46,46.84c13.82-3.9,28.07-6.65,42.27-8.71,14.33-2.08,29.58-3.26,43.37,2.16,7.74,3.04,13.96,8.63,17.03,16.44s3.52,16.78,4.93,25.18c1.24,7.37,3.52,14.4,7.81,20.58,3.67,5.27,8.33,9.72,13.39,13.64,10.66,8.27,22.8,14.33,33.81,22.08,11.51,8.09,21.36,18.5,23.73,32.88,3.26,19.86-6.99,38.57-18.49,53.9-5.54,7.39-11.75,14.32-16.69,22.16s-7.88,16.02-7.96,25.15,2.21,18.68,1,28c-1.01,7.79-5.18,14.38-12.15,18.08-6.16,3.27-13.58,4.1-20.42,3.03-8.15-1.27-15.01-5.47-21.36-10.55-7.01-5.61-13.52-12.02-21.47-16.34s-17.22-6.38-26.37-6.73c-19.95-.77-38.94,5.91-58.12,10.34-9.89,2.28-20.34,4.28-30.54,3.47-4.4-.35-8.75-1.67-11.94-4.85-2.54-2.53-4.05-5.85-5.05-9.25-2.16-7.34-2.25-15.07-3.96-22.5-1.85-8.04-5.69-15.56-10.9-21.93s-12.01-11.44-19.58-14.91-15.78-5.75-23.29-9.52-14.04-9.58-17.25-17.75c-3.29-8.37-3.45-17.62-1.73-26.35,1.98-10.07,6.13-19.53,10.21-28.89s8.13-18.6,11.3-28.23,5.14-18.94,5.69-28.78c.45-8.2.2-16.61,2.28-24.62s7.05-14.55,14.96-17.39,16.74-2.31,24.93-1.18c9.2,1.26,18.53,3.02,27.81,1.55,4.64-.74,8.68-2.51,12.71-4.86,1.88-1.09,3.85-2.19,6.07-2.3,1.7-.09,3.36.34,4.93.97,6.15,2.44,11.7,7.97,18.81,6.26,1.88-.45,1.08-3.34-.8-2.89-3.57.86-6.96-.88-10-2.57s-6.23-3.73-9.74-4.47c-4.27-.9-7.83.69-11.46,2.82-4.24,2.5-8.71,4-13.62,4.43-17.58,1.56-36.01-7.41-52.98.41-16.7,7.69-16.05,27.54-16.85,43.13-1.07,20.86-9.51,39.85-17.71,58.73-7.51,17.3-15.11,37.15-7.41,55.77,3.31,7.99,9.27,13.97,16.83,18.05s16.01,6.4,23.89,9.9c7.88,3.5,14.77,8.49,20.19,15.23s8.87,14.59,10.38,22.96c1.35,7.51,1.54,15.42,4.37,22.59,1.31,3.31,3.18,6.41,5.93,8.72,3.46,2.91,7.71,4.22,12.15,4.68,10.16,1.05,20.79-.94,30.67-3.15s20.49-5.37,30.84-7.63c18.57-4.07,39.38-5.39,56.07,5.29,7.8,4.99,14.28,11.71,21.77,17.12,6.5,4.69,13.62,7.86,21.67,8.54,7,.59,14.36-.66,20.48-4.2,6.68-3.87,11.04-10.37,12.42-17.94,1.71-9.39-.44-18.87-.65-28.29-.11-4.8.4-9.5,1.91-14.07,1.46-4.42,3.68-8.54,6.21-12.43,5.16-7.96,11.54-15.03,17.15-22.66s11.07-16.4,14.51-25.68c3.39-9.16,4.82-19.17,3.29-28.86-1.21-7.65-4.52-14.66-9.31-20.7-8.43-10.6-20.55-17.56-31.93-24.52s-23.38-14.16-30.76-25.47c-4.37-6.69-6.16-14.27-7.29-22.09-1.24-8.59-1.94-17.54-5.99-25.38-7.79-15.07-26.18-18.99-41.75-19.06-6.87-.03-13.76.87-20.54,1.85-7.94,1.15-15.84,2.59-23.69,4.24-6.31,1.32-12.6,2.75-18.81,4.51-1.86.52-1.07,3.42.8,2.89h0Z"/>
      <path class="cls-1" d="M183.89,57.11c12.71-3.59,25.82-6.12,38.89-8.02s27.17-2.99,39.83,1.98c7.08,2.78,12.77,7.89,15.58,15.04s3.23,15.43,4.54,23.17c1.15,6.79,3.24,13.27,7.2,18.96,3.38,4.86,7.67,8.96,12.33,12.57,9.81,7.62,20.99,13.19,31.13,20.33s19.6,16.97,21.77,30.17c3,18.23-6.44,35.42-16.99,49.49-5.1,6.8-10.81,13.18-15.35,20.39-4.46,7.08-7.26,14.77-7.34,23.2s2.04,17.19.92,25.75c-.93,7.12-4.74,13.14-11.11,16.53-5.64,2.99-12.44,3.75-18.69,2.78-7.47-1.16-13.77-5.01-19.59-9.68-6.46-5.17-12.45-11.07-19.77-15.05-7.46-4.05-15.88-5.88-24.32-6.21-18.36-.71-35.84,5.44-53.49,9.52-9.09,2.1-18.69,3.93-28.06,3.18-4.02-.32-7.99-1.52-10.9-4.43-2.32-2.32-3.7-5.35-4.62-8.45-1.99-6.75-2.07-13.87-3.64-20.7-1.71-7.42-5.25-14.35-10.06-20.22s-11.07-10.54-18.04-13.73c-7.02-3.21-14.52-5.29-21.42-8.76-7.07-3.55-12.87-8.77-15.81-16.26-3.02-7.67-3.17-16.16-1.59-24.18,1.82-9.25,5.63-17.94,9.38-26.55s7.48-17.13,10.41-26,4.74-17.45,5.24-26.51c.42-7.53.18-15.26,2.09-22.62s6.44-13.31,13.67-15.91,15.35-2.12,22.87-1.09c8.49,1.16,17.08,2.78,25.65,1.42,4.27-.68,8.01-2.32,11.72-4.48,1.71-1,3.5-1.99,5.52-2.1,1.55-.08,3.07.32,4.5.88,5.69,2.26,10.79,7.34,17.36,5.76,1.88-.45,1.08-3.34-.8-2.89-3.25.78-6.34-.82-9.11-2.35s-5.75-3.44-8.99-4.12c-3.97-.83-7.26.63-10.63,2.61-3.88,2.28-7.97,3.66-12.47,4.06-16.2,1.44-33.15-6.82-48.8.39s-14.82,25.39-15.56,39.78c-.98,19.16-8.74,36.61-16.27,53.96-6.93,15.95-13.92,34.23-6.83,51.39,3.05,7.38,8.55,12.91,15.54,16.68s14.73,5.89,21.98,9.11,13.57,7.79,18.55,13.99,8.14,13.39,9.51,21.07c1.24,6.91,1.41,14.18,4.02,20.78,1.21,3.06,2.94,5.94,5.49,8.08,3.21,2.7,7.14,3.91,11.26,4.34,9.35.96,19.15-.87,28.25-2.9s18.85-4.94,28.37-7.02c17.05-3.73,36.16-4.96,51.48,4.86,7.17,4.59,13.14,10.78,20.03,15.75,6,4.33,12.57,7.24,19.99,7.87,6.46.55,13.25-.61,18.9-3.88,6.17-3.57,10.21-9.58,11.48-16.58,1.57-8.65-.4-17.38-.59-26.05-.1-4.4.37-8.71,1.75-12.91s3.38-7.83,5.7-11.41c4.74-7.32,10.61-13.83,15.77-20.84s10.19-15.1,13.36-23.65,4.44-17.67,3.03-26.61c-1.12-7.05-4.17-13.52-8.6-19.09-7.76-9.76-18.92-16.17-29.39-22.57s-21.47-13-28.26-23.39c-4.02-6.15-5.65-13.1-6.7-20.29-1.15-7.91-1.79-16.15-5.52-23.37-7.18-13.9-24.14-17.53-38.51-17.6-6.33-.03-12.68.8-18.93,1.71-7.3,1.05-14.57,2.39-21.79,3.9-5.8,1.22-11.59,2.53-17.3,4.14-1.86.52-1.07,3.42.8,2.89h0Z"/>
      <path class="cls-1" d="M185.32,67.39c11.6-3.27,23.57-5.59,35.5-7.32,11.99-1.74,24.75-2.72,36.29,1.81,6.41,2.52,11.59,7.16,14.13,13.64s2.95,14.09,4.14,21.15c1.05,6.21,2.97,12.13,6.59,17.34,3.09,4.45,7.01,8.2,11.28,11.51,8.97,6.96,19.17,12.06,28.44,18.58s17.84,15.45,19.81,27.46c2.73,16.6-5.89,32.26-15.5,45.07-4.66,6.21-9.87,12.03-14.01,18.61s-6.65,13.53-6.72,21.24,1.87,15.69.84,23.51c-.85,6.46-4.3,11.91-10.08,14.98-5.11,2.71-11.29,3.41-16.96,2.52-6.8-1.06-12.53-4.56-17.83-8.8-5.9-4.72-11.38-10.12-18.08-13.76-6.83-3.71-14.54-5.39-22.26-5.68-16.77-.65-32.74,4.97-48.87,8.69-8.29,1.91-17.04,3.58-25.58,2.9-3.63-.29-7.22-1.38-9.86-4.01-2.1-2.1-3.35-4.85-4.18-7.66-1.82-6.16-1.89-12.66-3.33-18.9-1.57-6.79-4.81-13.14-9.22-18.52s-10.12-9.64-16.49-12.56c-6.41-2.93-13.25-4.83-19.56-7.99s-11.7-7.96-14.38-14.76c-2.75-6.98-2.89-14.71-1.46-22,1.66-8.44,5.13-16.36,8.55-24.2s6.84-15.65,9.51-23.77,4.33-15.95,4.79-24.24c.38-6.87.16-13.91,1.91-20.61s5.83-12.08,12.39-14.44,13.97-1.93,20.81-.99c7.77,1.06,15.64,2.54,23.48,1.3,3.91-.62,7.33-2.13,10.73-4.11,1.54-.9,3.15-1.8,4.97-1.9,1.4-.08,2.78.29,4.07.8,5.22,2.08,9.88,6.71,15.92,5.26,1.88-.45,1.08-3.34-.8-2.89-2.93.7-5.72-.75-8.21-2.13-2.62-1.45-5.27-3.15-8.24-3.77-3.66-.77-6.7.56-9.81,2.4-3.52,2.07-7.24,3.33-11.32,3.69-14.82,1.32-30.29-6.22-44.61.37-6.32,2.91-10.39,8.66-12.18,15.25-1.87,6.87-1.72,14.12-2.08,21.17-.89,17.47-7.97,33.38-14.84,49.2-6.34,14.59-12.73,31.31-6.24,47.01,2.8,6.77,7.84,11.85,14.24,15.3,6.39,3.45,13.45,5.38,20.06,8.31s12.37,7.1,16.91,12.75,7.4,12.19,8.65,19.18c1.13,6.31,1.29,12.94,3.67,18.97,1.11,2.82,2.7,5.46,5.04,7.43,2.96,2.49,6.57,3.61,10.37,4,8.55.88,17.51-.79,25.82-2.66s17.21-4.51,25.9-6.41c15.53-3.4,32.93-4.52,46.9,4.42,6.55,4.19,11.99,9.84,18.28,14.38,5.5,3.97,11.52,6.63,18.31,7.2,5.91.5,12.14-.57,17.32-3.56,5.66-3.28,9.37-8.79,10.54-15.21,1.44-7.91-.36-15.89-.54-23.82-.09-4.01.33-7.93,1.59-11.75s3.08-7.13,5.19-10.38c4.33-6.68,9.69-12.62,14.4-19.02s9.31-13.81,12.21-21.62c2.86-7.73,4.06-16.18,2.76-24.36-1.02-6.46-3.83-12.39-7.88-17.48-7.09-8.91-17.29-14.77-26.86-20.62-9.43-5.77-19.57-11.84-25.75-21.3-3.66-5.6-5.15-11.94-6.1-18.49-1.05-7.24-1.64-14.76-5.06-21.37-6.58-12.73-22.11-16.06-35.27-16.13-5.79-.03-11.59.74-17.31,1.56-6.67.96-13.3,2.18-19.89,3.56-5.3,1.11-10.58,2.31-15.79,3.78-1.86.52-1.07,3.42.8,2.89h0Z"/>
      <path class="cls-1" d="M186.75,77.66c10.44-2.95,21.21-5.03,31.94-6.59s22.33-2.48,32.78,1.56c5.81,2.25,10.53,6.44,12.84,12.29s2.66,12.61,3.72,18.94c.94,5.66,2.66,11.07,5.94,15.82,2.77,4.01,6.29,7.41,10.12,10.4,8.14,6.35,17.41,10.98,25.84,16.9s16.15,13.94,17.94,24.81c2.45,14.9-5.27,28.98-13.87,40.49-4.21,5.63-8.93,10.89-12.7,16.84s-6.15,12.42-6.2,19.52,1.78,14.39.71,21.53c-.86,5.77-4.02,10.53-9.22,13.21-4.66,2.4-10.29,2.96-15.42,2.09-6.11-1.05-11.22-4.27-15.98-8.11-5.33-4.3-10.33-9.18-16.43-12.41s-13.11-4.73-20.05-4.97c-15.11-.53-29.5,4.52-44.03,7.88-7.48,1.73-15.39,3.23-23.1,2.62-3.26-.26-6.48-1.24-8.84-3.6-1.91-1.91-3.02-4.42-3.76-6.98-1.62-5.6-1.68-11.5-3.01-17.15-1.47-6.23-4.49-12.03-8.59-16.93s-9.25-8.62-15.03-11.22-12-4.34-17.68-7.24-10.34-7.21-12.68-13.28c-2.47-6.43-2.53-13.49-1.14-20.17,1.6-7.73,4.85-14.97,7.98-22.17s6.11-14.05,8.47-21.34,3.77-14.39,4.15-21.86c.31-6.13.15-12.42,1.78-18.39s5.44-10.72,11.36-12.74,12.48-1.6,18.59-.75c7.06.98,14.22,2.3,21.34,1.12,3.47-.58,6.52-1.94,9.54-3.7,1.37-.8,2.81-1.61,4.43-1.7,1.26-.07,2.49.26,3.65.72,4.76,1.9,8.97,6.08,14.48,4.75,1.88-.45,1.08-3.34-.8-2.89-2.55.61-4.99-.64-7.18-1.84-2.43-1.34-4.88-2.93-7.63-3.51-3.26-.69-6.03.44-8.81,2.08-3.17,1.86-6.45,3.05-10.13,3.4-13.47,1.29-27.43-5.57-40.47.3-5.77,2.6-9.53,7.79-11.2,13.78-1.7,6.09-1.61,12.54-1.91,18.8-.75,15.76-6.94,30.08-13.15,44.36-5.78,13.29-11.84,28.53-6.08,42.91,2.48,6.2,6.95,10.9,12.77,14.11s12.01,4.89,17.95,7.47,11.34,6.31,15.53,11.43,6.85,11.07,8.01,17.44c1.05,5.77,1.17,11.85,3.37,17.36,1.01,2.55,2.45,4.94,4.56,6.73,2.65,2.24,5.88,3.27,9.29,3.65,7.73.86,15.86-.66,23.38-2.34s15.58-4.07,23.45-5.8c13.92-3.07,29.58-4.18,42.18,3.72,5.96,3.74,10.89,8.84,16.55,12.98,4.98,3.64,10.4,6.13,16.58,6.74,5.42.53,11.14-.4,15.92-3.09,5.21-2.94,8.69-7.96,9.79-13.83,1.36-7.25-.32-14.57-.46-21.85-.07-3.59.32-7.1,1.46-10.51s2.84-6.51,4.77-9.47c3.94-6.03,8.78-11.41,13.04-17.21,4.45-6.06,8.41-12.53,11-19.62s3.58-14.55,2.42-21.9c-.93-5.88-3.5-11.27-7.19-15.91-6.45-8.1-15.74-13.41-24.44-18.73s-17.63-10.69-23.17-19.24c-3.3-5.09-4.61-10.85-5.47-16.79-.93-6.5-1.5-13.24-4.56-19.17-5.99-11.59-20.16-14.63-32.15-14.66-5.21-.01-10.43.68-15.58,1.42-6.03.87-12.03,1.97-18,3.22-4.79,1.01-9.57,2.09-14.29,3.42-1.86.52-1.07,3.42.8,2.89h0Z"/>
      <path class="cls-1" d="M188.18,87.93c9.39-2.65,19.07-4.52,28.73-5.92s20.11-2.22,29.41,1.54c5.19,2.1,9.26,5.93,11.22,11.23,2.01,5.44,2.25,11.34,3.24,17.01.86,4.96,2.46,9.69,5.37,13.83,2.53,3.61,5.72,6.65,9.2,9.34,13.88,10.75,36.18,17.69,38.96,37.62,1.85,13.25-5,25.57-12.67,35.79-3.8,5.06-8.05,9.79-11.4,15.18s-5.33,11.13-5.34,17.46,1.61,12.77.62,19.08c-.81,5.16-3.69,9.34-8.37,11.68-4.16,2.08-9.17,2.52-13.7,1.7-5.37-.97-9.87-3.85-14.06-7.24-4.76-3.85-9.23-8.2-14.69-11.08s-11.85-4.25-18.12-4.45c-13.6-.44-26.53,4.14-39.62,7.13-6.67,1.52-13.8,2.9-20.67,2.23-2.87-.28-5.62-1.24-7.63-3.37-1.64-1.73-2.57-3.99-3.2-6.26-1.39-5.02-1.44-10.29-2.68-15.35-1.36-5.51-4.07-10.64-7.71-14.98s-8.33-7.71-13.53-10.04-10.75-3.87-15.82-6.49-9.26-6.58-11.29-12.11-2.08-12.03-.79-17.98c1.45-6.69,4.24-12.97,6.96-19.22s5.43-12.48,7.55-18.95,3.45-12.86,3.81-19.54c.3-5.55.12-11.24,1.56-16.65s4.77-9.63,10.06-11.45,11.24-1.43,16.75-.66c6.3.88,12.69,2.04,19.04.97,3.05-.51,5.76-1.7,8.41-3.25,1.22-.71,2.49-1.46,3.93-1.57,1.11-.08,2.2.21,3.22.61,4.34,1.71,8.08,5.47,13.1,4.28,1.88-.45,1.08-3.34-.8-2.89-2.32.55-4.52-.64-6.49-1.73-2.15-1.19-4.35-2.6-6.8-3.08-3.01-.58-5.47.5-8.02,2-2.88,1.69-5.88,2.69-9.22,2.96-12.01.98-24.52-5.05-36.12.36s-11.05,18.98-11.61,29.73c-.73,14.08-6.45,26.91-11.98,39.66-5.1,11.75-10.27,25.23-5.19,37.91,2.22,5.54,6.21,9.77,11.41,12.65s10.77,4.4,16.11,6.71,10.11,5.61,13.86,10.17,6.11,9.83,7.15,15.5c.95,5.17,1.06,10.62,3.01,15.56.91,2.31,2.2,4.49,4.12,6.11,2.4,2.03,5.31,2.98,8.4,3.32,6.93.78,14.23-.58,20.98-2.08s13.98-3.65,21.04-5.21c12.5-2.75,26.52-3.7,37.78,3.46,5.31,3.38,9.73,7.96,14.82,11.64,4.45,3.22,9.3,5.38,14.8,5.89,4.83.45,9.93-.39,14.18-2.79,4.63-2.6,7.75-7.04,8.79-12.24,1.28-6.43-.17-12.94-.35-19.4-.09-3.24.21-6.41,1.2-9.5s2.46-5.78,4.16-8.42c3.52-5.46,7.9-10.31,11.75-15.54s7.53-11.18,9.88-17.51,3.28-12.96,2.31-19.53c-.79-5.32-3.02-10.21-6.33-14.42-5.72-7.29-13.99-12.09-21.78-16.85s-15.82-9.52-20.84-17.12c-2.99-4.52-4.21-9.63-4.98-14.94-.85-5.85-1.33-11.9-4.04-17.26-5.31-10.53-18.03-13.31-28.85-13.38-4.65-.03-9.32.59-13.92,1.25-5.41.77-10.79,1.76-16.14,2.88-4.34.91-8.67,1.89-12.93,3.09-1.86.52-1.07,3.42.8,2.89h0Z"/>
      <path class="cls-1" d="M189.61,98.2c8.27-2.33,16.79-3.98,25.29-5.22s17.74-1.97,25.93,1.37c4.47,1.83,8.01,5.13,9.72,9.7,1.82,4.86,2.01,10.13,2.9,15.19.77,4.37,2.2,8.54,4.78,12.19,2.23,3.16,5.02,5.82,8.06,8.19,12.16,9.44,31.71,15.51,34.32,32.9,1.77,11.82-4.48,22.85-11.34,31.94-3.3,4.37-6.98,8.49-9.88,13.16s-4.71,9.9-4.69,15.52,1.41,11.14.56,16.65c-.7,4.55-3.23,8.21-7.36,10.26-3.72,1.84-8.22,2.18-12.26,1.38-4.81-.95-8.79-3.67-12.52-6.74-4.22-3.47-8.26-7.31-13.21-9.74s-10.4-3.45-15.87-3.56c-11.94-.24-23.27,3.8-34.76,6.39-5.78,1.3-11.96,2.47-17.9,1.87-2.45-.25-4.81-1.09-6.53-2.9-1.44-1.52-2.25-3.5-2.79-5.49-1.23-4.48-1.26-9.18-2.4-13.68-1.22-4.81-3.59-9.27-6.77-13.07s-7.43-6.89-12.07-8.95-9.36-3.38-13.79-5.65-8.13-5.69-9.93-10.5c-1.91-5.11-1.87-10.68-.72-15.96,1.28-5.86,3.72-11.37,6.11-16.84s4.88-11.19,6.76-17,2.97-11.25,3.29-17.09c.26-4.83.12-9.78,1.35-14.5s4.2-8.52,8.91-10.1,9.76-1.2,14.54-.54c5.6.78,11.28,1.81,16.93.85,2.79-.48,5.21-1.6,7.64-3.01,2.13-1.22,3.91-1.56,6.2-.59,3.74,1.59,7.03,4.69,11.39,3.67,1.88-.44,1.08-3.33-.8-2.89-2.08.49-4.06-.66-5.81-1.64-1.85-1.03-3.75-2.21-5.86-2.61-2.67-.51-4.9.45-7.17,1.79-2.51,1.47-5.15,2.36-8.06,2.59-10.65.86-21.75-4.49-32.01.38-10,4.74-9.76,16.6-10.22,26.04-.61,12.44-5.6,23.76-10.49,35.02-4.53,10.42-9.14,22.31-4.73,33.58,1.93,4.93,5.43,8.74,10.03,11.33s9.51,3.93,14.23,5.95,8.86,4.84,12.16,8.79,5.53,8.8,6.46,13.89c.83,4.56.93,9.36,2.66,13.71,1.92,4.82,5.71,7.72,10.88,8.36,5.99.74,12.32-.39,18.17-1.66,6.18-1.34,12.25-3.16,18.42-4.56,11.02-2.5,23.52-3.61,33.57,2.58,4.8,2.96,8.75,7.06,13.28,10.38,3.9,2.86,8.13,4.81,12.96,5.35,9.13,1.02,18.76-3.53,20.8-13.09,1.21-5.68-.05-11.46-.24-17.17-.09-2.81.12-5.56.95-8.27s2.14-5.19,3.65-7.55c3.08-4.83,6.94-9.1,10.34-13.7,3.56-4.82,6.73-9.96,8.83-15.6s2.92-11.54,2.05-17.38c-.7-4.73-2.7-9.07-5.65-12.82-5.04-6.4-12.29-10.62-19.14-14.81-6.75-4.13-14.07-8.44-18.49-15.22-5.57-8.55-3.36-19.34-7.86-28.26-4.72-9.37-16.06-11.86-25.69-11.89-4.1-.01-8.2.53-12.25,1.11-4.75.68-9.47,1.54-14.17,2.53-3.85.8-7.68,1.67-11.47,2.74-1.86.52-1.07,3.42.8,2.89h0Z"/>
      <path class="cls-1" d="M191.04,108.47c7.16-2.02,14.54-3.45,21.9-4.52,7.37-1.07,15.33-1.7,22.39,1.2,3.93,1.61,6.95,4.56,8.37,8.59s1.64,8.7,2.43,13.05c.69,3.81,1.99,7.43,4.27,10.59,2.01,2.78,4.49,5.1,7.2,7.18,10.51,8.06,27.49,13.42,29.39,28.55,1.28,10.23-4.15,19.6-10.11,27.43-5.65,7.42-12.35,14.46-12.4,24.38-.03,4.88,1.25,9.84.48,14.71-.62,3.9-2.82,7.01-6.38,8.74-3.2,1.55-7.07,1.8-10.52,1.09-4.15-.86-7.58-3.26-10.8-5.92-3.53-2.91-6.93-6.12-11.06-8.19s-8.95-3.07-13.67-3.22c-10.4-.31-20.29,3.19-30.29,5.47-5.02,1.15-10.35,2.16-15.52,1.69-2.15-.19-4.23-.9-5.73-2.5-1.22-1.29-1.89-2.99-2.35-4.68-1.04-3.81-1.09-7.81-2.03-11.64-1.04-4.24-3.12-8.17-5.91-11.52s-6.26-5.89-10.17-7.68-8.22-2.99-12.12-4.96-7.08-4.82-8.66-8.96-1.68-9.03-.75-13.49c1.08-5.19,3.24-10.07,5.35-14.91s4.13-9.49,5.75-14.4c1.6-4.85,2.67-9.84,2.96-14.95.24-4.19.09-8.47,1.12-12.57s3.44-7.36,7.44-8.75,8.51-1.11,12.68-.53c4.85.67,9.73,1.55,14.62.76,2.36-.38,4.49-1.28,6.54-2.48,1.94-1.13,3.48-1.54,5.58-.62,3.26,1.43,6.09,4.01,9.9,3.14,1.88-.43,1.08-3.32-.8-2.89-1.78.41-3.48-.62-4.98-1.45-1.63-.91-3.31-1.93-5.18-2.25-2.31-.4-4.24.45-6.21,1.59-2.22,1.29-4.54,2.05-7.12,2.24-9.23.66-18.82-3.91-27.7.39-8.72,4.22-8.45,14.61-8.87,22.88-.55,10.75-4.93,20.55-9.15,30.28-3.93,9.07-7.85,19.4-3.94,29.18,1.68,4.2,4.68,7.46,8.59,9.69s8.27,3.45,12.39,5.2c8.36,3.55,14.48,10.6,16.11,19.63.71,3.96.81,8.12,2.33,11.89,1.68,4.17,5.01,6.7,9.48,7.27,5.2.66,10.69-.31,15.77-1.4,5.53-1.19,10.95-2.83,16.47-4.06,9.53-2.13,20.26-2.95,28.87,2.51,4.06,2.57,7.43,6.07,11.31,8.88,3.39,2.46,7.08,4.11,11.27,4.56,7.89.85,16.18-3.07,18.08-11.26,1.13-4.88.06-9.87-.14-14.79s1.12-9.5,3.83-13.79,5.98-7.88,8.93-11.85,5.77-8.48,7.63-13.28c3.37-8.69,3.18-18.75-2.62-26.35-4.37-5.73-10.7-9.49-16.76-13.19s-12.15-7.24-16.02-13.03c-4.97-7.44-3.02-16.86-6.94-24.66s-13.91-10.38-22.31-10.44c-3.54-.03-7.09.44-10.59.93-4.18.59-8.34,1.35-12.48,2.22-3.33.7-6.66,1.45-9.94,2.38-1.86.52-1.07,3.42.8,2.89h0Z"/>
      <path class="cls-1" d="M192.47,118.75c6.04-1.7,12.26-2.91,18.47-3.81,6.16-.9,12.8-1.43,18.72.95,3.29,1.32,5.85,3.76,7.05,7.13,1.26,3.55,1.4,7.36,2.06,11.04,1.12,6.21,4.45,11,9.37,14.84,8.81,6.88,23.23,11.32,25.14,23.94,1.29,8.55-3.26,16.54-8.22,23.1-4.77,6.33-10.6,12.3-10.77,20.72-.14,6.82,2.97,16.04-4.74,19.9-2.64,1.32-5.87,1.56-8.73.99-3.54-.71-6.46-2.74-9.2-5.01-3.02-2.5-5.93-5.24-9.48-6.98s-7.69-2.59-11.74-2.7c-8.64-.21-16.87,2.64-25.18,4.57-4.27.99-8.76,1.84-13.16,1.52-1.85-.14-3.65-.7-4.94-2.09-1.03-1.11-1.58-2.58-1.96-4.02-.86-3.28-.89-6.71-1.75-9.99-.93-3.52-2.69-6.79-5.02-9.57s-5.31-4.97-8.62-6.48-6.83-2.5-10.09-4.11-5.92-3.93-7.3-7.35c-1.45-3.63-1.48-7.68-.69-11.47.91-4.36,2.73-8.46,4.5-12.53s3.51-8.06,4.88-12.23,2.24-8.26,2.5-12.54c.21-3.53.07-7.15.92-10.61s2.86-6.24,6.28-7.4,7.32-.86,10.9-.35c4.07.58,8.19,1.27,12.29.54,1.95-.34,3.69-1.12,5.39-2.1s2.92-1.23,4.69-.4c2.72,1.28,5.12,3.29,8.31,2.57,1.88-.42,1.09-3.31-.8-2.89-1.44.32-2.81-.52-4.02-1.2-1.38-.77-2.8-1.64-4.38-1.93-1.97-.36-3.64.27-5.33,1.25-1.94,1.12-3.9,1.82-6.14,1.97-7.86.54-16.05-3.35-23.59.41s-7.14,12.37-7.49,19.38c-.46,9.12-4.16,17.41-7.74,25.66-3.31,7.65-6.61,16.37-3.39,24.63,1.43,3.66,3.98,6.51,7.38,8.46s6.9,2.91,10.35,4.35c7.08,2.95,12.29,8.84,13.68,16.48.62,3.42.7,7,2.04,10.25,1.45,3.52,4.3,5.68,8.08,6.17,4.42.58,9.09-.24,13.4-1.16,4.56-.97,9.03-2.32,13.58-3.36,8.24-1.88,17.5-2.67,24.93,2.15,3.42,2.22,6.27,5.18,9.58,7.54,2.9,2.07,6.08,3.41,9.65,3.73,6.73.62,13.7-2.82,15.27-9.79.94-4.16.03-8.4-.13-12.59s1-7.99,3.3-11.6,5.08-6.66,7.56-10.02c2.61-3.54,4.92-7.3,6.48-11.42,2.8-7.43,2.48-15.91-2.47-22.34-3.7-4.8-9.04-7.97-14.13-11.08s-10.39-6.18-13.62-11.17c-4.1-6.33-2.38-14.39-5.88-20.94-3.6-6.74-11.81-8.55-18.85-8.62-6.52-.07-13.19,1.33-19.55,2.66-2.84.59-5.68,1.24-8.48,2.02-1.86.52-1.07,3.42.8,2.89h0Z"/>
      <path class="cls-1" d="M193.9,129.02c4.97-1.4,10.09-2.39,15.2-3.13s10.32-1.14,15.06.79c2.72,1.11,4.74,3.14,5.67,5.95s1.05,5.79,1.57,8.68c.92,5.1,3.64,9.08,7.68,12.24,7.08,5.55,18.79,9.15,20.49,19.23,1.17,6.97-2.59,13.54-6.62,18.9-3.95,5.24-8.74,10.16-8.87,17.13-.1,5.43,2.42,12.9-3.71,16-2.1,1.06-4.68,1.25-6.97.8-2.87-.57-5.22-2.23-7.44-4.06-2.5-2.07-4.93-4.35-7.88-5.77s-6.01-2.04-9.18-2.16c-7.18-.29-14.03,2.09-20.93,3.7-3.43.8-7.01,1.48-10.55,1.28-3.17-.18-4.91-1.93-5.67-4.89-.69-2.68-.71-5.48-1.43-8.15-.75-2.83-2.16-5.44-4.01-7.7s-4.41-4.21-7.16-5.48-5.45-2.01-8.07-3.27c-2.76-1.33-5.05-3.24-6.18-6.16s-1.1-6.39-.38-9.53c1.59-6.96,5.45-13.22,7.64-19.99,1.08-3.35,1.79-6.78,1.99-10.3.16-2.82.06-5.71.75-8.47s2.44-5.04,5.3-5.9,5.97-.51,8.89-.09c3.23.46,6.5.95,9.75.36,1.56-.28,2.98-.9,4.34-1.7s2.28-1,3.7-.33c2.29,1.08,4.25,2.67,6.93,2.09,1.89-.41,1.09-3.3-.8-2.89-1.14.24-2.24-.48-3.19-1.01-1.21-.68-2.45-1.38-3.84-1.58-1.53-.22-2.84.29-4.15,1.04-1.61.92-3.18,1.52-5.06,1.64-6.48.42-13.18-2.75-19.39.39-5.92,2.99-5.94,9.98-6.21,15.71-.35,7.58-3.37,14.41-6.34,21.27-2.76,6.37-5.43,13.59-2.7,20.45,1.14,2.86,3.15,5.14,5.79,6.73s5.77,2.5,8.67,3.7c6.03,2.49,10.2,7.44,11.26,13.93.45,2.78.59,5.65,1.76,8.25s3.61,4.37,6.56,4.78c3.69.51,7.6-.18,11.21-.96,3.83-.82,7.58-1.96,11.4-2.81,6.78-1.51,14.25-1.98,20.25,2.12,2.7,1.84,4.99,4.22,7.68,6.08,2.41,1.66,5.08,2.69,8.02,2.9,5.57.39,11.22-2.57,12.47-8.32.75-3.45,0-6.92-.12-10.39s.83-6.36,2.67-9.23,4.24-5.55,6.31-8.36c2.17-2.96,4.08-6.11,5.33-9.57,2.22-6.16,1.79-13.07-2.32-18.32-3.03-3.87-7.37-6.44-11.5-8.96s-8.54-5.07-11.14-9.2c-3.25-5.15-1.86-11.7-4.72-17-3-5.54-9.74-7.07-15.57-7.14-5.4-.06-10.93,1.1-16.19,2.2-2.3.48-4.59,1-6.85,1.64-1.86.52-1.07,3.42.8,2.89h0Z"/>
    </g>
  </g>
</svg>